<svg width="524" height="167" viewBox="0 0 524 167" fill="none" xmlns="http://www.w3.org/2000/svg">
<path d="M246.855 7.64151C246.83 7.64233 246.7 7.84934 246.733 7.60043C246.902 6.3674 248.682 5.7439 249.751 5.83591C249.898 5.84823 250.41 6.02485 250.435 5.99938C250.489 5.94599 250.425 5.46871 250.895 5.35945C251.597 5.1968 252.177 5.72008 252.609 6.20639C252.673 6.27868 252.697 6.53005 252.848 6.4093C252.86 6.39944 252.865 6.22775 253.013 6.12671C253.836 5.56072 255.28 7.01637 254.941 7.97092C256.461 7.71215 256.532 9.49804 256.399 10.589C257.97 11.1352 258.142 13.3121 256.713 14.1312C256.616 13.1692 256.505 11.9641 255.24 12.259C254.511 12.4291 254.618 14.1205 254.503 14.7095C254.297 15.7741 253.134 17.2996 252.327 17.9913C252.136 18.1547 251.493 18.3971 251.498 18.6731C251.503 18.9491 252.062 19.8018 252.329 19.7788C252.375 19.7747 252.795 19.35 253.087 19.2596C253.766 19.0501 254.527 19.3615 255.042 19.1191C255.653 18.8316 254.848 18.1613 254.276 18.3363C254.032 18.411 254.028 18.7725 253.857 18.7306C253.622 18.6723 253.843 18.0652 253.941 17.9124C254.33 17.307 255.236 16.9989 255.791 17.5772C255.943 17.7358 256.089 18.1597 256.148 18.2032C256.225 18.2599 256.664 18.1383 256.895 18.1744C258.193 18.3765 258.139 20.7522 257.147 21.2673C256.969 21.3593 256.672 21.3388 256.59 21.4373C256.567 21.4653 256.618 21.6476 256.581 21.7495C256.429 22.1676 256.09 22.7402 255.565 22.5759C255.105 22.4321 255.716 21.8464 255.728 21.4686C255.75 20.7876 254.153 20.684 253.935 21.5219C253.782 22.1093 254.356 22.1799 254.674 22.5389C254.969 22.8725 255.073 23.2117 255.105 23.6594C254.58 23.675 254.232 23.4204 253.9 23.0417C253.569 22.663 253.504 22.0781 252.823 22.4387C252.411 22.6564 252.262 23.9116 252.693 24.1096C253.124 24.3076 253.699 23.804 253.819 23.8607C254.24 24.2681 253.816 24.8161 253.381 24.9804C253.198 25.0494 252.797 25.0387 252.775 25.06C252.759 25.0756 252.76 25.3451 252.682 25.4979C252.216 26.4089 250.394 26.565 249.795 25.6729C249.36 25.0264 249.768 24.7257 249.703 24.4472C249.674 24.324 248.916 24.0644 248.834 23.5305C248.712 22.7238 249.56 21.6821 250.358 22.1397C250.377 22.1841 249.803 22.2317 249.878 22.8708C249.908 23.1263 250.292 23.7933 250.561 23.496C250.987 23.0244 250.482 21.7265 251.2 20.8615C251.281 20.7637 251.488 20.7013 251.487 20.6586C251.484 20.5132 251.128 20.1049 251.004 20.0014C250.158 19.2958 250.159 19.985 249.676 20.5378C249.028 21.2804 247.329 22.3722 246.369 22.5011C245.701 22.5915 244.619 22.3451 244.079 22.8741C243.606 23.3374 243.857 24.0734 244.385 24.3766C244.808 24.6189 245.285 24.5409 245.69 24.7676C244.708 25.9029 243.14 25.9259 242.361 24.554C242.305 24.4563 242.247 24.1794 242.221 24.1622C242.014 24.0233 240.761 24.3174 240.057 23.7021C239.548 23.2577 239.802 22.571 239.738 22.5085C239.719 22.4905 239.363 22.5159 239.233 22.4896C238.263 22.29 237.403 20.8426 238.368 20.1682C237.977 19.9184 237.681 19.5241 237.564 19.0592C237.448 19.0748 237.431 19.1717 237.411 19.2703C236.516 23.6652 240.057 25.7632 243.497 27.0907C244.699 27.5549 245.87 27.6313 246.561 28.9744C246.717 29.2767 246.71 29.7096 246.738 29.7383C247.034 30.0571 248.597 28.8996 249.071 29.0795C248.869 28.8692 248.708 28.5866 248.51 28.3796C247.843 27.6846 247.031 27.2961 246.922 26.2232C246.836 25.3853 247.133 23.7991 248.025 23.4943C248.016 23.9387 247.995 24.5557 248.264 24.9344C248.693 25.539 250.13 26.1592 250.682 26.7375C251.03 27.439 251.605 27.95 251.788 28.7296C251.831 28.9169 251.76 29.1797 251.846 29.3276C251.959 29.5231 253.023 29.758 253.215 30.0653C253.448 25.8708 256.886 22.2136 261.016 21.9294C271.504 21.2081 274.367 37.0273 262.548 39.2691C262.428 39.2921 262.321 39.1877 262.346 39.3898C262.42 39.9953 263.299 40.0593 263.743 40.2639C264.536 40.6286 265.222 40.9556 265.689 41.7277C266.299 42.7373 266.592 44.547 267.817 44.9767C267.939 45.0194 268.546 45.0095 268.462 45.2198C268.299 45.4285 268.086 45.5665 267.841 45.6544C265.398 46.5358 264.445 44.3384 263.805 42.4153C263.762 42.288 263.876 42.1812 263.635 42.2223V43.9884C263.635 44.0427 263.323 44.8838 263.272 45.0145C263.153 45.3151 262.971 45.5837 262.831 45.8721C263.803 46.7207 264.563 47.6226 265.098 48.8203C266.14 51.1517 266.745 54.1303 269.267 55.3248C270.496 55.9072 271.348 55.4751 272.41 55.7306C273.416 55.9729 272.426 56.7221 271.944 56.9086C268.837 58.1104 265.794 56.0518 263.923 53.6342C263.481 53.0633 263.164 52.3625 262.588 51.9165V54.463C263.451 54.8836 264.847 55.4989 265.446 56.2686C265.749 56.658 266.403 58.0521 266.365 58.5219C266.311 59.1783 264.96 59.0124 264.518 58.8177C264.748 59.8486 264.556 60.6874 263.325 60.3226C263.126 60.3637 262.537 59.6802 262.508 59.7213C262.241 60.0877 262.425 60.666 261.761 60.8894C260.966 61.1572 260.561 60.551 260.575 59.8026C260.222 60.3144 259.473 60.9272 258.861 60.4656C258.616 60.2807 258.701 59.2629 258.886 58.982C258.333 59.1569 257.74 59.4338 257.199 59.0206C256.756 58.6821 257.14 57.6421 257.344 57.201C257.999 55.779 259.362 54.5362 260.861 54.1377C261.05 53.1668 261.006 52.1555 260.898 51.178C260.07 51.5205 259.749 52.4619 259.242 53.1421C258.229 54.5 256.022 56.9439 254.318 57.1517C253.001 57.3127 251.251 57.0737 250.55 55.779C250.489 55.6673 250.5 55.434 250.44 55.4053C250.323 55.3478 250.037 55.5893 249.672 55.287C249.446 55.0997 249.416 54.73 249.39 54.7095C249.359 54.6857 248.776 54.8738 248.623 54.8762C247.549 54.8968 245.96 54.0342 245.852 52.8209C247.153 53.0197 248.212 52.9006 249.366 52.2599C251.338 51.164 253.087 48.8475 252.852 46.4553C252.7 44.911 251.25 42.5311 249.478 43.5021C248.593 43.9868 247.491 45.2888 247.621 46.374C247.822 48.0498 250.53 47.8149 249.554 45.7562C251.347 45.5936 251.843 48.8737 250.467 49.6862C249.872 50.0369 248.733 49.7568 248.623 49.8529C248.385 50.0616 248.637 50.9044 248.021 51.2971C247.243 51.7924 246.584 50.9972 246.227 51.0309C245.817 51.0687 245.605 52.0372 244.619 51.4105C244.128 51.0983 244.007 50.3672 243.82 50.2136C243.72 50.1314 243.324 50.1191 243.14 50.0452C242.651 49.848 242.163 49.4176 242.027 48.8811C241.97 48.6544 242.03 48.4113 241.949 48.2223C241.821 47.9258 240.845 47.7023 240.66 46.9909C240.438 46.1423 241.234 45.9871 241.269 45.6297C241.31 45.2009 240.68 44.6965 241.043 43.9268C241.407 43.1571 242.515 43.4578 242.623 43.2803C242.706 43.1448 242.544 42.6503 242.547 42.4301C242.558 41.7253 242.966 41.0525 243.624 40.8102C244.724 40.4052 246.841 41.0886 246.657 42.5517C245.892 42.2699 244.804 42.205 244.885 43.3313C244.947 44.1889 245.683 44.5889 246.46 44.5265C247.33 44.4567 248.655 43.3198 248.993 42.5131C249.863 40.4331 246.605 38.9216 244.936 39.1105C242.871 39.3446 239.496 42.0826 239.496 44.3187V45.9205C237.98 45.5139 237.387 43.5448 237.887 42.1426C236.591 41.989 237.456 40.0864 238.288 39.84C238.284 39.5656 237.939 39.6387 237.889 39.2181C237.774 38.2784 238.901 37.3033 239.818 37.5423C239.528 36.0012 241.33 35.86 242.388 36.062C242.883 34.4404 245.058 34.2745 245.852 35.7334C245.096 35.7688 243.919 35.9092 243.934 36.927C243.95 38.0377 245.702 37.8307 246.419 37.9892C247.255 38.1732 248.694 39.1532 249.283 39.7882C249.872 40.4232 250.032 41.5749 251.041 40.6631C251.613 40.1472 251.292 40.2154 251.047 39.8367C250.489 38.9742 251.024 38.0163 250.719 37.3789C250.457 36.8318 249.795 37.6204 249.972 38.2233C250.05 38.4903 250.383 38.4279 250.357 38.6916C249.547 38.9824 248.755 37.8693 248.927 37.1078C249.051 36.5615 249.797 36.4062 249.87 36.3027C249.925 36.2263 249.541 35.4443 250.155 34.912C250.913 34.2548 252.565 34.4823 252.915 35.4673C252.951 35.5659 252.907 35.7778 252.938 35.8123C252.961 35.8386 253.405 35.8764 253.605 35.9939C253.953 36.2 254.479 37.0347 253.928 37.1234C253.614 37.1735 252.639 36.0546 252.528 37.4158C252.484 37.9572 252.498 38.4106 253.094 38.5749C253.644 38.7269 253.743 38.1305 254.057 37.8266C254.353 37.5399 254.776 37.3797 255.186 37.378C255.158 37.7083 255.063 38.0574 254.864 38.3219C254.472 38.8411 253.557 38.8493 253.99 39.7077C254.207 40.1374 255.433 40.2581 255.629 39.8416C255.891 39.2871 255.042 38.7343 255.614 38.5043C256.018 38.3416 256.448 38.9766 256.537 39.3266C256.566 39.4457 256.536 39.7324 256.558 39.7562C256.573 39.7726 256.836 39.771 256.987 39.8515C258.054 40.42 258.006 42.9172 256.566 42.9994C256.369 43.0109 256.054 42.8721 255.957 42.8951C255.836 42.9238 255.594 43.7404 254.903 43.7905C254.213 43.8406 253.12 42.8261 253.737 42.2247C253.992 43.4701 256.013 42.0103 254.495 41.8206C253.713 41.7228 253.282 41.9356 252.537 41.4369C252.157 41.1823 252.326 40.9153 251.844 41.3186C251.626 41.5018 251.168 42.0752 251.34 42.3726C251.362 42.412 251.95 42.7636 252.086 42.8836C252.866 43.5785 253.931 45.3274 254.05 46.3814C254.135 47.1248 253.812 48.8532 254.988 48.882C255.867 48.9033 256.065 47.888 256.154 47.1955C256.169 47.0772 256.079 46.954 256.27 46.9885C257.237 47.7984 257.386 49.4488 256.307 50.2275C256.179 50.3195 255.7 50.5035 255.681 50.5331C255.623 50.6268 255.685 51.2404 255.658 51.4548C255.532 52.4521 255.214 53.2736 254.059 53.0665C254.263 54.063 252.911 55.3133 252.016 54.7826C251.782 54.6429 251.89 54.4655 251.727 54.3817C251.675 54.6536 251.407 54.7974 251.245 54.9995L250.68 55.3658C252.593 55.7626 254.166 55.5827 255.615 54.2002C257.598 52.3075 257.959 50.2834 258.91 47.8756C259.264 46.9794 260.108 45.8803 261.139 45.9205C261.293 45.0202 260.387 44.437 260.494 43.5383C260.417 43.4233 258.708 45.2888 258.522 45.4268C257.705 46.0364 255.401 45.7086 255.023 44.6062C255.561 44.6358 256.066 44.6234 256.513 44.2792C257.458 42.9756 258.153 41.5421 259.715 40.8939C260.04 40.7592 260.659 40.7699 260.777 40.6639C260.923 40.5325 261.238 39.5213 261.379 39.2666C257.06 39.2411 253.275 35.3777 253.252 30.9697C252.506 30.9804 252.506 31.8758 252.277 32.3966C252.09 32.8213 251.701 33.6444 251.402 33.9673C250.461 34.9859 248.16 35.0664 247.66 36.5541C247.618 36.679 247.627 37.2984 247.421 37.2121C246.738 36.5927 246.615 35.174 247.071 34.392C247.681 33.3438 249.122 32.8673 250.167 32.4558C250.283 32.4098 250.4 32.5346 250.357 32.2841H248.627C248.579 32.2841 247.845 32.0187 247.726 31.9711C247.41 31.8454 247.087 31.6195 246.775 31.4725L245.315 33.0103C242.476 34.7493 237.86 35.2381 237.173 39.2379C237.078 39.7907 237.296 41.3154 236.968 41.5741C236.283 42.1155 235.849 40.4249 235.753 40.0068C235.2 37.5941 236.522 35.1231 238.165 33.4309C238.959 32.6135 240.133 32.0894 240.863 31.2162H238.369C237.943 32.1477 237.371 33.4637 236.6 34.1332C236.239 34.4462 234.508 35.3662 234.123 34.9752C233.869 34.7173 233.88 33.6009 234.105 33.2707C232.596 33.5533 232.053 32.5289 232.989 31.3484C233.076 31.2375 233.22 31.2531 233.219 31.1348C231.74 30.987 231.483 29.1863 233.139 29.1617C231.778 28.2145 232.215 26.74 233.943 27.4374C233.923 27.209 233.761 27.0365 233.722 26.8016C233.308 24.2985 236.336 26.1058 237.163 26.9018C237.494 27.2197 238.169 28.0781 238.346 28.4864C238.442 28.7057 238.551 29.3596 238.691 29.4492C238.95 29.6143 241.447 29.634 241.587 29.4902C241.494 29.3194 241.367 29.0828 241.237 28.9456C240.681 28.3615 239.531 27.7602 238.85 27.1515C237.823 26.2331 235.955 24.3256 235.732 22.9415C235.53 21.6846 235.821 19.6137 237.023 18.9581C237.143 18.8924 237.376 18.9129 237.45 18.816C237.496 18.756 237.189 18.1958 237.784 17.845C237.875 17.7916 238.117 17.7571 238.128 17.7432C238.152 17.712 237.963 17.1632 237.96 16.9636C237.945 15.8628 238.787 14.2429 239.977 14.1303C239.453 16.7533 241.05 19.2966 243.222 20.5518C244.682 21.3946 245.815 21.5877 247.401 20.9288C248.162 20.6126 249.226 19.8404 249.311 18.936C249.481 17.0983 246.149 14.6479 245.296 16.727C244.771 18.0093 245.902 18.3322 246.896 17.9091C247.03 19.8478 243.478 20.3382 242.914 18.5655C242.689 17.8582 242.944 17.6586 242.933 17.1098C242.925 16.695 241.92 16.9915 241.505 16.3894C240.936 15.563 241.763 14.891 241.719 14.4975C241.697 14.2913 241.084 14.0367 241.179 13.2645C241.281 12.4365 242.324 12.3551 242.508 12.0734C242.599 11.9329 242.611 11.5723 242.697 11.3628C242.937 10.7836 243.246 10.4271 243.853 10.2431C244.068 10.1782 244.308 10.2226 244.481 10.1454C244.687 10.0534 244.959 9.29842 245.326 9.03637C246.326 8.32333 246.618 9.40603 247.018 9.44875C247.484 9.49804 247.829 8.88604 248.618 9.2097C249.458 9.5539 249.133 10.713 249.321 10.8321C249.485 10.9364 249.884 10.7615 250.073 10.7623C251.994 10.7746 252.211 12.8858 251.386 14.2379C251.088 14.7275 250.538 15.1802 249.953 14.9502C251.197 12.25 247.292 12.7593 248.224 15.2788C248.47 15.9417 249.367 17.0441 250.003 17.3242C252.044 18.2246 253.542 15.0512 253.412 13.3508C253.242 11.132 250.509 7.64069 248.224 7.64069C247.77 7.64069 247.309 7.62179 246.856 7.64069L246.855 7.64151ZM257.194 34.9144H258.562L258.803 33.1885C259.025 33.2296 260.107 33.1113 260.175 33.2411C260.255 33.4695 260.373 34.9136 260.533 34.9136H261.861L260.285 26.3654L258.724 26.3711L257.194 34.9136V34.9144ZM263.711 32.2036C265.932 32.1428 266.71 29.8681 266.067 27.95C265.819 27.2098 264.854 26.3711 264.073 26.3711H262.263V34.9144H263.711V32.2036Z" fill="#EEE5DA"/>
<path d="M261.056 6.69679C261.056 6.68118 261.124 6.63846 261.099 6.57274C260.138 5.91474 258.703 5.45965 258.064 4.41227C257.81 3.99742 257.314 2.89008 257.361 2.43169C257.427 1.79751 258.694 1.91745 259.125 2.1376C258.831 0.276144 260.106 0.150458 261.216 1.23398C261.376 -0.296424 263.073 -0.492756 263.149 1.15184C264.065 -0.19949 265.534 0.209604 264.838 1.97249C267.928 0.887321 266.474 4.02864 265.361 5.26003C265.027 5.63133 264.152 6.34766 263.71 6.53167C263.056 6.8044 262.824 6.46185 262.743 7.43283C262.718 7.73102 262.722 9.67052 262.827 9.7765C263.006 9.68203 263.193 9.58263 263.34 9.43969C263.941 8.85562 264.543 7.66448 265.161 6.94487C266.073 5.88435 267.875 4.03357 269.258 3.8167C270.396 3.63844 272.45 3.86845 273.078 5.01852C273.18 5.20581 273.185 5.56644 273.205 5.58698C273.236 5.61983 273.702 5.37011 274.053 5.66584C274.23 5.81535 274.231 6.13983 274.329 6.21047C274.408 6.26716 274.959 6.08315 275.164 6.08561C276.242 6.1004 277.735 6.93419 277.871 8.13272C276.263 7.85753 275.034 8.19434 273.71 9.10042C271.992 10.2743 270.474 12.613 270.908 14.7916C271.219 16.3475 272.559 18.4628 274.344 17.3866C275.363 16.773 276.893 14.8187 275.621 13.7582C274.484 12.811 273.537 14.0046 274.171 15.1966C272.443 15.4759 271.914 12.1637 273.098 11.3496C273.812 10.8584 274.803 11.2634 275.054 11.1352C275.305 11.0071 275.101 10.2727 275.536 9.81264C276.3 9.00431 277.142 9.99665 277.499 9.9219C277.855 9.84714 277.941 9.25239 278.711 9.36904C279.547 9.49637 279.571 10.5224 279.931 10.7532C280.292 10.9841 280.728 10.8206 281.255 11.3734C281.817 11.9649 281.59 12.4874 281.808 12.8422C281.957 13.0846 282.906 13.2341 283.071 14.0432C283.217 14.7661 282.503 14.9929 282.456 15.3247C282.388 15.8127 283.1 16.2883 282.607 17.1147C282.253 17.7078 281.646 17.509 281.091 17.661V19.0164C281.091 19.1356 280.8 19.6432 280.691 19.7591C279.769 20.7465 277.193 20.132 277.004 18.8316C276.895 18.0816 277.533 18.6262 278.009 18.618C278.976 18.6 279.008 17.4655 278.478 16.8371C277.371 15.5244 274.741 17.5649 274.581 18.8595C274.385 20.4343 276.537 21.6846 277.841 21.8423C280.967 22.2194 284.936 18.3617 284.149 15.0331C285.505 15.3321 286.119 16.8814 285.99 18.1867C285.978 18.319 285.813 18.7774 285.838 18.8102C285.901 18.8965 286.443 18.7971 286.487 19.4288C286.527 20.017 286.079 20.6183 285.679 20.9937C285.584 21.0824 285.323 21.1268 285.437 21.2747C285.515 21.3749 285.752 21.2697 285.802 21.7643C285.901 22.732 284.829 23.6266 283.907 23.4113C284.157 24.9853 282.389 25.0116 281.303 24.9672C280.716 26.5338 278.826 26.5945 277.875 25.341C277.839 25.1471 277.96 25.2416 278.072 25.2169C278.752 25.0666 279.643 25.1159 279.724 24.1917C279.841 22.8716 278.143 23.1485 277.306 22.9644C276.468 22.7804 275.275 21.9967 274.655 21.3995C274.398 21.1531 273.639 20.003 273.555 19.9735C273.179 19.8396 272.356 20.4014 272.329 20.7555C272.325 20.8073 272.804 21.273 272.867 21.5811C272.98 22.1372 272.731 23.2429 273.037 23.6914C273.254 24.0077 274.167 23.2257 273.569 22.5036C273.517 22.4403 273.205 22.4083 273.414 22.2588C273.906 21.9056 275.415 23.2585 274.539 24.2361C274.376 24.4176 273.884 24.6205 273.86 24.6526C273.806 24.729 273.945 25.1356 273.928 25.3303C273.795 26.9026 270.745 26.7104 270.794 25.1364C270.155 25.1964 269.121 24.4538 269.798 23.8286C270.451 24.2796 271.226 24.4784 271.197 23.3744C271.184 22.8741 271.089 22.465 270.553 22.3754C270.072 22.2949 269.953 22.8363 269.658 23.1148C269.344 23.4105 268.978 23.5789 268.54 23.5748C268.237 22.7262 269.715 22.143 269.814 21.7906C270.094 20.7875 268.239 20.592 268.073 21.1703C267.951 21.5942 268.647 22.5085 267.951 22.4863C267.571 22.474 267.157 21.8185 267.118 21.4685C267.108 21.3839 267.196 21.2147 267.173 21.1933C267.157 21.1777 266.899 21.1851 266.74 21.1005C265.836 20.6191 265.684 18.7766 266.569 18.1539C267.07 17.8015 267.696 18.1268 267.803 18.0619C267.94 17.9789 268.075 17.3373 268.614 17.2034C269.702 16.9348 270.542 18.4997 270.028 18.7281C269.768 18.2204 269.401 18.0906 268.916 18.4143C267.705 19.221 270.37 19.1561 270.714 19.2612C271.421 19.4773 271.369 20.3727 272.122 19.3877C272.757 18.5581 272.18 18.5901 271.678 18.1136C270.889 17.3661 269.835 15.8283 269.688 14.7234C269.598 14.0506 269.836 12.4619 269.07 12.1514C268.53 11.932 268.015 12.2171 267.775 12.7305C267.588 13.133 267.659 13.5922 267.454 13.9619C266.148 12.8825 266.424 10.9455 268.045 10.4181C268.01 9.26143 268.114 7.60616 269.668 7.88546C269.436 6.68118 271.159 5.36107 271.96 6.48649C272.205 6.08561 272.591 5.78659 273.045 5.66584C273.065 5.55412 272.901 5.54097 272.824 5.52454C268.526 4.60613 266.481 8.20912 265.179 11.7234C264.755 12.8685 264.435 14.6487 263.01 15.0134C262.895 15.043 262.601 15.0167 262.586 15.0315C262.297 15.3116 263.359 16.9521 263.231 17.4137C263.437 17.2076 263.714 17.0433 263.916 16.8412C264.278 16.4789 264.739 15.8357 265.118 15.5219C265.851 14.9173 268.33 15.2598 268.701 16.345C268.264 16.3368 267.663 16.3154 267.291 16.5898C266.72 17.0112 266.081 18.5112 265.523 19.0567C264.876 19.442 264.319 20.0055 263.574 20.1879C263.388 20.233 263.142 20.1583 262.99 20.2487C262.747 20.3924 262.541 21.5614 262.183 21.7257C262.034 21.7938 261.592 21.8103 261.459 21.7281C261.334 21.6509 261.293 21.2862 261.087 21.1219C260.821 20.9099 260.105 20.7719 259.741 20.6068C259.394 20.4483 258.753 20.0942 258.481 19.8396C257.259 18.6977 257.408 16.0024 255.265 15.8529C255.549 15.0955 256.95 15.0175 257.629 15.2056C258.782 15.5252 259.775 17.6758 259.932 18.8111C259.953 18.8382 260.092 18.7067 260.092 18.6878V16.9628L260.806 15.0906C259.899 14.1903 259.165 13.4066 258.629 12.2138C257.472 9.64177 256.626 5.65351 253.205 5.26496C252.729 5.21074 251.156 5.42761 250.959 5.0103C250.573 4.18965 252.566 3.79452 253.076 3.72059C255.124 3.42239 257.171 4.68335 258.646 6.03632C259.568 6.8808 260.089 7.93721 260.9 8.83262C260.977 8.91805 260.974 9.16696 261.141 8.99363C261.133 8.91805 261.059 8.85316 261.059 8.83098C261.059 8.12122 261.079 7.4049 261.059 6.69514L261.056 6.69679Z" fill="#EEE5DA"/>
<path d="M275.096 28.6713C275.66 28.7617 276.446 29.2652 276.985 29.492C278.767 26.7055 282.464 26.7121 284.865 24.6806C285.599 24.0604 286.441 22.6121 286.553 21.6395C286.618 21.0727 286.447 20.0771 286.579 19.6121C286.635 19.4133 286.879 19.2745 287.08 19.304C287.673 19.3919 288.035 21.1491 288.08 21.6584C288.354 24.7258 285.709 27.748 283.305 29.248L282.861 29.7392H285.234C285.998 28.5966 286.338 27.2017 287.606 26.4928C288.011 26.2669 289.242 25.6121 289.577 26.0442C289.89 26.4468 289.819 27.2411 289.619 27.6855C291.44 27.4054 291.569 28.6779 290.504 29.8206C291.983 30.0144 292.208 31.7239 290.585 31.7937C291.882 32.7442 291.515 34.236 289.781 33.518C290.116 34.5227 290.284 35.6161 288.874 35.3877C287.284 35.1297 285.353 33.1204 285.034 31.5046C284.091 31.2992 283.087 31.351 282.136 31.4652C282.048 31.5506 282.523 32.0837 282.617 32.165C283.315 32.7713 284.255 33.2724 284.99 33.9312C286.823 35.5742 288.667 37.5958 287.851 40.2985C287.637 41.0082 287.076 42.1172 286.24 42.0622C286.331 42.3571 286.359 42.6002 286.193 42.8771C286.018 43.1703 285.617 43.1843 285.595 43.2131C285.582 43.2311 285.676 43.5416 285.681 43.6599C285.734 45.04 285.176 46.637 283.665 46.8259C284.327 44.5545 282.842 42.0145 281.035 40.7634C279.315 39.5723 277.673 39.187 275.778 40.2952C273.9 41.3935 274.031 42.9247 275.581 44.2785C276.133 44.7599 276.742 45.1378 277.505 45.0145C278.603 44.8371 279.106 42.7793 277.508 42.8804C277.144 42.9034 276.688 43.2755 276.762 42.6996C276.965 41.1191 280.58 40.6492 280.843 42.6035C280.881 42.8919 280.767 43.8719 280.805 43.9499C280.926 44.1997 281.296 44.0822 281.514 44.1348C282.219 44.3056 282.51 44.8034 282.36 45.5345C282.308 45.7908 281.968 46.1737 281.996 46.4456C282.037 46.8415 282.775 46.9557 282.478 47.8725C282.248 48.5789 281.37 48.6241 281.18 48.9289C281.067 49.1088 281.105 49.3749 281.029 49.5967C280.851 50.1184 280.39 50.5628 279.871 50.7139C279.657 50.7764 279.413 50.7353 279.242 50.8117C278.892 50.9686 278.739 52.0324 277.892 52.1499C277.219 52.2435 277.008 51.5403 276.705 51.5075C276.24 51.4582 275.81 52.1072 275.035 51.7367C274.26 51.3662 274.645 50.516 274.421 50.2276C274.218 49.9656 273.877 50.2013 273.65 50.194C272.575 50.157 271.835 49.4719 271.832 48.3456C271.83 47.3845 272.526 45.7005 273.69 46.0053C273.06 47.1767 273.859 48.4048 275.084 47.5513C276.306 46.7002 275.251 44.9603 274.457 44.1947C272.114 41.9406 270.059 45.6068 270.319 47.8437C270.568 49.9886 273.279 53.3156 275.5 53.3156H276.787C276.808 53.3156 277.043 53.102 276.984 53.3509C276.647 54.7753 274.536 55.5097 273.288 54.9577C273.137 56.0897 271.808 55.5656 271.277 54.9988C271.154 54.8673 271.023 54.4295 270.875 54.5478C270.774 54.6299 270.815 54.9314 270.344 54.9519C269.4 54.9922 268.562 53.9358 268.782 52.9861C267.712 53.1439 267.383 52.4867 267.275 51.5264C267.239 51.2068 267.313 50.6384 267.24 50.4116C267.206 50.304 266.649 50.028 266.497 49.8563C265.861 49.1433 265.9 48.0318 266.448 47.2769C266.504 47.2005 266.936 46.7339 267.011 46.8251C267.051 47.6301 267.146 48.7194 268.14 48.7605C269.27 48.8065 269.044 46.8883 269.219 46.163C269.433 45.2766 270.407 43.8185 271.077 43.2131C271.315 42.9987 271.945 42.6733 272.08 42.5115C272.394 42.1336 271.693 41.175 271.318 41.1536C271.289 41.152 271.055 41.4863 270.913 41.5668C270.096 42.0326 269.266 41.5299 268.561 41.8708C267.915 42.1821 269.52 43.2205 269.789 42.2248C269.955 42.1681 269.958 42.4844 269.946 42.5657C269.845 43.2648 268.98 43.8637 268.313 43.6493C267.762 43.4718 267.676 42.804 267.568 42.7235C267.515 42.684 266.889 42.9584 266.374 42.5896C265.496 41.9603 265.713 40.1621 266.634 39.6618C266.875 39.5312 267.081 39.6191 267.092 39.5977C267.174 39.4367 267.117 39.0465 267.379 38.6982C267.621 38.377 268.331 38.1815 268.36 38.5693C268.379 38.8223 267.475 39.7489 268.375 39.9723C268.944 40.1136 269.675 40.0356 269.797 39.3521C269.888 38.8445 269.149 38.6514 268.877 38.2284C268.709 37.9679 268.601 37.6098 268.622 37.2976C268.921 37.2927 269.318 37.4307 269.549 37.6246C270.018 38.0205 270.112 38.9989 270.949 38.4814C271.31 38.2579 271.455 36.9657 270.979 36.8187C270.445 36.6536 269.882 37.4619 269.7 36.8056C269.606 36.4655 270.054 36.0712 270.334 35.9644C270.533 35.8888 270.93 35.9192 270.953 35.897C270.969 35.8814 270.966 35.6128 271.046 35.4583C271.592 34.3904 273.898 34.4126 274.088 35.6999C274.128 35.9726 273.992 36.4014 274.021 36.5041C274.094 36.7628 275.212 36.914 274.8 38.0599C274.63 38.5331 273.788 39.3447 273.37 38.7771C273.571 38.759 273.806 38.4978 273.839 38.3047C273.918 37.8529 273.352 37.0216 273.065 37.604C272.779 38.1865 273.154 39.3127 272.602 40.006C272.509 40.1227 272.268 40.2212 272.248 40.3042C272.179 40.5901 273.076 41.396 273.449 41.2029C273.56 41.1462 273.837 40.6476 273.971 40.5005C274.751 39.6438 276.217 38.6284 277.372 38.469C278.084 38.3705 279.89 38.667 279.888 37.503C279.885 36.5402 278.76 36.3398 278.035 36.27C278.669 35.1141 280.489 35.0624 281.208 36.1533C281.317 36.3184 281.423 36.7505 281.546 36.7941C281.802 36.8836 282.538 36.7998 282.961 36.9099C283.779 37.1218 284.114 37.5753 283.988 38.4485C284.958 38.1199 286.324 39.9551 285.595 40.623C285.489 40.7207 285.282 40.6903 285.276 40.8291C285.681 40.9926 286.038 41.465 286.162 41.8979C286.278 41.9201 286.266 41.7418 286.283 41.6547C287.132 37.2607 283.801 35.3647 280.389 33.9501C279.22 33.4654 277.457 33.2239 277.026 31.7157C276.901 31.2762 277.17 31.0725 276.403 31.2384C275.899 31.3477 275.316 31.9934 274.655 31.8784C274.551 31.9663 276.372 33.7061 276.505 33.891C277.083 34.6927 276.756 37.0446 275.702 37.4636C275.741 36.9255 275.669 36.4039 275.383 35.9405C274.101 34.9811 272.7 34.2697 272.066 32.6727C271.929 32.3269 271.955 31.7551 271.881 31.6294C271.757 31.4183 270.599 31.185 270.433 30.808C270.369 30.6642 270.35 30.1853 270.428 30.0662C270.487 29.9758 270.716 29.9676 270.824 29.8953C271.167 29.6653 271.689 27.6888 272.28 27.0284C273.345 25.8405 275.4 26.0467 276.063 24.3183C276.196 23.97 276.128 23.2931 276.603 24.0965C276.928 24.6477 276.984 26.0138 276.653 26.5642C276.022 27.6133 274.548 28.13 273.476 28.4996C273.35 28.5432 273.246 28.4265 273.287 28.673C273.843 28.7362 274.564 28.5875 275.097 28.673L275.096 28.6713Z" fill="#EEE5DA"/>
<path d="M259.929 31.8758H259.044L259.448 29.1649C259.604 29.1986 259.589 29.33 259.608 29.4516C259.735 30.2534 259.838 31.0691 259.93 31.8758H259.929Z" fill="#EEE5DA"/>
<path d="M263.711 30.8072V27.7677C265.224 27.5993 265.206 30.8902 263.711 30.8072Z" fill="#EEE5DA"/>
<path d="M9.64022 107.07H22.2402L31.8804 166.265H22.5784L20.8871 154.51V154.68H10.3167L8.62546 166.265H0L9.64022 107.07ZM19.7878 146.646L15.6442 117.387H15.4751L11.4161 146.646H19.7878Z" fill="#EEE5DA"/>
<path d="M39.7844 115.527H30.0596V107.07H58.8112V115.527H49.0864V166.265H39.7844V115.527Z" fill="#EEE5DA"/>
<path d="M63.3148 107.07H88.6838V115.527H72.6168V131.171H85.3859V139.627H72.6168V157.808H88.6838V166.265H63.3148V107.07Z" fill="#EEE5DA"/>
<path d="M94.0351 107.07H103.337V157.808H118.643V166.265H94.0351V107.07Z" fill="#EEE5DA"/>
<path d="M123.104 107.07H132.406V166.265H123.104V107.07Z" fill="#EEE5DA"/>
<path d="M139.372 107.07H164.741V115.527H148.674V131.171H161.443V139.627H148.674V157.808H164.741V166.265H139.372V107.07Z" fill="#EEE5DA"/>
<path d="M170.093 107.07H183.876C188.668 107.07 192.164 108.198 194.362 110.453C196.561 112.652 197.66 116.062 197.66 120.685V124.321C197.66 130.466 195.631 134.356 191.572 135.991V136.16C193.827 136.837 195.405 138.218 196.307 140.304C197.266 142.39 197.745 145.18 197.745 148.676V159.077C197.745 160.768 197.801 162.149 197.914 163.221C198.027 164.235 198.309 165.25 198.76 166.265H189.288C188.95 165.306 188.725 164.404 188.612 163.559C188.499 162.713 188.443 161.191 188.443 158.992V148.168C188.443 145.462 187.992 143.574 187.09 142.502C186.244 141.431 184.75 140.896 182.608 140.896H179.395V166.265H170.093V107.07ZM182.777 132.439C184.637 132.439 186.019 131.96 186.921 131.002C187.879 130.043 188.358 128.437 188.358 126.182V121.615C188.358 119.473 187.964 117.923 187.174 116.964C186.441 116.006 185.258 115.527 183.623 115.527H179.395V132.439H182.777Z" fill="#EEE5DA"/>
<path d="M224.431 106.954H238.13C242.753 106.954 246.22 108.194 248.532 110.675C250.843 113.155 251.999 116.791 251.999 121.583V127.418C251.999 132.21 250.843 135.846 248.532 138.327C246.22 140.807 242.753 142.048 238.13 142.048H233.733V166.148H224.431V106.954ZM238.13 133.591C239.653 133.591 240.78 133.169 241.513 132.323C242.302 131.477 242.697 130.04 242.697 128.01V120.991C242.697 118.962 242.302 117.524 241.513 116.679C240.78 115.833 239.653 115.41 238.13 115.41H233.733V133.591H238.13Z" fill="#EEE5DA"/>
<path d="M257.051 106.954H282.42V115.41H266.353V131.054H279.122V139.511H266.353V157.692H282.42V166.148H257.051V106.954Z" fill="#EEE5DA"/>
<path d="M287.771 106.954H301.555C306.347 106.954 309.842 108.081 312.041 110.336C314.239 112.535 315.339 115.946 315.339 120.569V124.205C315.339 130.35 313.309 134.24 309.25 135.875V136.044C311.505 136.72 313.084 138.101 313.986 140.187C314.944 142.273 315.423 145.064 315.423 148.559V158.96C315.423 160.652 315.48 162.033 315.592 163.104C315.705 164.119 315.987 165.133 316.438 166.148H306.967C306.629 165.19 306.403 164.288 306.29 163.442C306.178 162.597 306.121 161.074 306.121 158.876V148.052C306.121 145.346 305.67 143.457 304.768 142.386C303.923 141.315 302.429 140.779 300.286 140.779H297.073V166.148H287.771V106.954ZM300.456 132.323C302.316 132.323 303.697 131.844 304.599 130.885C305.558 129.927 306.037 128.32 306.037 126.065V121.499C306.037 119.357 305.642 117.806 304.853 116.848C304.12 115.889 302.936 115.41 301.301 115.41H297.073V132.323H300.456Z" fill="#EEE5DA"/>
<path d="M321.877 106.954H346.485V115.41H331.179V131.9H343.187V140.356H331.179V166.148H321.877V106.954Z" fill="#EEE5DA"/>
<path d="M364.476 166.994C359.966 166.994 356.527 165.725 354.159 163.189C351.792 160.595 350.608 156.903 350.608 152.111V106.954H359.91V152.787C359.91 154.817 360.304 156.283 361.093 157.185C361.939 158.087 363.123 158.538 364.645 158.538C366.167 158.538 367.323 158.087 368.112 157.185C368.958 156.283 369.381 154.817 369.381 152.787V106.954H378.344V152.111C378.344 156.903 377.161 160.595 374.793 163.189C372.425 165.725 368.986 166.994 364.476 166.994Z" fill="#EEE5DA"/>
<path d="M384.969 106.954H398.246L404.165 149.32H404.334L410.254 106.954H423.53V166.148H414.736V121.33H414.567L407.802 166.148H400.022L393.257 121.33H393.087V166.148H384.969V106.954Z" fill="#EEE5DA"/>
<path d="M430.472 106.954H455.841V115.41H439.774V131.054H452.543V139.511H439.774V157.692H455.841V166.148H430.472V106.954Z" fill="#EEE5DA"/>
<path d="M461.192 106.954H474.976C479.768 106.954 483.263 108.081 485.462 110.336C487.66 112.535 488.76 115.946 488.76 120.569V124.205C488.76 130.35 486.73 134.24 482.671 135.875V136.044C484.926 136.72 486.505 138.101 487.407 140.187C488.365 142.273 488.844 145.064 488.844 148.559V158.96C488.844 160.652 488.901 162.033 489.013 163.104C489.126 164.119 489.408 165.133 489.859 166.148H480.388C480.05 165.19 479.824 164.288 479.711 163.442C479.599 162.597 479.542 161.074 479.542 158.876V148.052C479.542 145.346 479.091 143.457 478.189 142.386C477.344 141.315 475.85 140.779 473.707 140.779H470.494V166.148H461.192V106.954ZM473.877 132.323C475.737 132.323 477.118 131.844 478.02 130.885C478.979 129.927 479.458 128.32 479.458 126.065V121.499C479.458 119.357 479.063 117.806 478.274 116.848C477.541 115.889 476.357 115.41 474.722 115.41H470.494V132.323H473.877Z" fill="#EEE5DA"/>
<path d="M502.518 140.948L491.271 106.954H501.165L507.507 128.687H507.676L514.018 106.954H523.067L511.82 140.948V166.148H502.518V140.948Z" fill="#EEE5DA"/>
</svg>
