<svg width="277" height="44" viewBox="0 0 277 44" fill="none" xmlns="http://www.w3.org/2000/svg">
<path d="M260.549 8.81616H259.041V22.2757H260.549V8.81616Z" fill="#EEE5DA"/>
<path d="M13.3885 34.8853C5.98797 34.8853 0 28.8974 0 21.5421V0H1.51113V15.3683C3.72692 11.0789 8.20537 8.15689 13.3416 8.15689C20.7421 8.15689 26.7301 14.1432 26.7301 21.4969C26.7301 28.8974 20.7421 34.8853 13.3885 34.8853ZM13.3885 9.66479C6.83647 9.66479 1.50952 14.9917 1.50952 21.4969C1.50952 28.0505 6.83646 33.3774 13.34 33.3774C19.8936 33.3774 25.2206 28.0505 25.2206 21.5437C25.2206 14.9901 19.8952 9.66479 13.3885 9.66479Z" fill="#EEE5DA"/>
<path d="M30.0824 0H28.5745V34.2243H30.0824V0Z" fill="#EEE5DA"/>
<path d="M73.5625 21.4951C73.5625 28.8973 67.5778 34.8836 60.1272 34.8836C57.3926 34.8836 54.8471 34.0351 52.725 32.621C50.6046 34.0351 48.0591 34.8836 45.3245 34.8836C37.9224 34.8836 31.936 28.8973 31.936 21.5436C31.936 14.1415 37.9224 8.15515 45.3245 8.15515C48.0591 8.15515 50.6062 9.00365 52.7735 10.4178C54.8939 9.00365 57.4394 8.15515 60.1272 8.15515C67.5293 8.15515 73.5156 14.1415 73.5156 21.4951H73.5625ZM72.1015 21.5436C72.1015 14.99 66.7745 9.66305 60.2193 9.66305C57.9582 9.66305 55.8346 10.2756 54.0907 11.4069C56.919 13.8587 58.7114 17.4886 58.7114 21.4951C58.7114 25.5501 56.919 29.1801 54.0438 31.6787C55.833 32.7632 57.9566 33.3757 60.1724 33.3757C66.726 33.3757 72.0514 28.0488 72.0514 21.5436H72.1015ZM52.8204 12.3039C50.1327 14.4712 48.3904 17.8183 48.3904 21.5436C48.3904 25.2673 50.1327 28.6144 52.8204 30.8302C55.5065 28.6613 57.252 25.3142 57.252 21.5905C57.252 17.8652 55.5065 14.5197 52.8204 12.3039ZM51.5 31.7256C48.6716 29.2738 46.8793 25.6439 46.9278 21.6374C46.9278 17.584 48.7169 13.9524 51.5452 11.4554C49.7561 10.3709 47.6324 9.75679 45.4183 9.75679C38.8646 9.75679 33.5377 15.0854 33.5377 21.5905C33.5377 28.1425 38.8646 33.4695 45.3698 33.4695C47.6308 33.4695 49.7545 32.8569 51.5436 31.7256H51.5Z" fill="#EEE5DA"/>
<path d="M110.196 34.2243V17.5841C110.196 13.1994 106.659 9.66317 102.229 9.66317C97.8448 9.66317 94.3102 13.1994 94.3102 17.5841V34.2243H92.8007V17.5841C92.8007 13.1994 89.2645 9.66317 84.8329 9.66317C80.4482 9.66317 76.9136 13.1994 76.9136 17.5841V34.2243H75.4041V17.631C75.4041 12.3978 79.6465 8.15527 84.8329 8.15527C88.7457 8.15527 92.0928 10.5117 93.5538 13.9057C95.0148 10.5117 98.362 8.15527 102.228 8.15527C107.458 8.15527 111.702 12.3978 111.702 17.5841V34.2243H110.196Z" fill="#EEE5DA"/>
<path d="M114.243 8.81641H115.751V34.2261H114.243V8.81641ZM114.243 0.00012207H115.751V5.42081H114.243V0.00012207Z" fill="#EEE5DA"/>
<path d="M137.411 34.2243V18.5263C137.411 13.6228 133.453 9.66317 128.598 9.66317C123.695 9.66317 119.735 13.6228 119.735 18.4795V34.2243H118.225V18.4795C118.225 12.7743 122.844 8.15527 128.598 8.15527C134.3 8.15527 138.921 12.7743 138.921 18.4795V34.2243H137.411Z" fill="#EEE5DA"/>
<path d="M154.104 43.7C148.494 43.7 143.688 40.2123 141.706 35.3088H143.357C145.243 39.3638 149.344 42.1921 154.103 42.1921C160.658 42.1921 165.985 36.8652 165.985 30.3584V27.6723C163.769 31.9617 159.289 34.8854 154.153 34.8854C146.751 34.8854 140.764 28.8974 140.764 21.5438C140.764 14.1416 146.751 8.15527 154.104 8.15527C161.506 8.15527 167.493 14.1416 167.493 21.4969V30.3116C167.509 37.7137 161.513 43.7 154.112 43.7M165.99 21.5438C165.99 14.9917 160.663 9.66479 154.157 9.66479C147.604 9.66479 142.277 14.9917 142.277 21.4969C142.277 28.0489 147.604 33.3758 154.107 33.3758C160.663 33.3758 165.99 28.0489 165.99 21.4969V21.5438Z" fill="#EEE5DA"/>
<path d="M182.725 34.8855C175.324 34.8855 169.336 28.8991 169.336 21.5439C169.336 14.1434 175.324 8.15701 182.725 8.15701C187.863 8.15701 192.343 11.0791 194.559 15.3684V0.00012207H196.067V21.497C196.067 28.8975 190.087 34.8855 182.733 34.8855M182.733 9.66491C176.181 9.66491 170.851 14.9919 170.851 21.497C170.851 28.0506 176.181 33.3776 182.685 33.3776C189.238 33.3776 194.567 28.0506 194.567 21.5439C194.567 14.9902 189.233 9.66491 182.736 9.66491" fill="#EEE5DA"/>
<path d="M223.13 34.2243V27.6723C220.914 31.9617 216.435 34.8854 211.298 34.8854C203.897 34.8854 197.911 28.8974 197.911 21.5437C197.911 14.1416 203.897 8.15527 211.252 8.15527C218.653 8.15527 224.639 14.1416 224.639 21.4969V34.2243H223.12M223.12 21.5437C223.12 14.9917 217.793 9.66479 211.288 9.66479C204.734 9.66479 199.407 14.9917 199.407 21.4969C199.407 28.0489 204.734 33.3758 211.241 33.3758C217.793 33.3758 223.12 28.0489 223.12 21.4969V21.5437Z" fill="#EEE5DA"/>
<path d="M228.613 0.00012207H227.105V34.2245H228.613V0.00012207Z" fill="#EEE5DA"/>
<path d="M257.198 22.2726H232.026C232.401 28.4497 237.542 33.3758 243.857 33.3758C248.618 33.3758 252.72 30.5475 254.606 26.4925H256.256C254.276 31.3944 249.468 34.8837 243.857 34.8837C236.456 34.8837 230.471 28.8974 230.471 21.5421C230.471 14.1416 236.456 8.15527 243.811 8.15527C251.212 8.15527 257.198 14.1416 257.198 21.4953V22.2726ZM243.865 9.66479C237.55 9.66479 232.409 14.5441 232.034 20.7664H255.65C255.278 14.5893 250.139 9.66479 243.868 9.66479" fill="#EEE5DA"/>
<path d="M268.9 34.8854C264.704 34.8854 261.308 31.4914 261.308 27.2958H262.819C262.819 30.6429 265.552 33.3775 268.851 33.3775C272.2 33.3775 274.934 30.6429 274.981 27.3426C274.981 23.6658 272.058 21.9688 268.9 21.214C265.504 20.3655 262.346 18.6217 262.393 14.662C262.393 11.079 265.318 8.15527 268.9 8.15527C272.481 8.15527 275.405 11.1016 275.405 14.6847H273.895C273.895 11.9032 271.633 9.66479 268.898 9.66479C266.117 9.66479 263.854 11.9274 263.854 14.7089C263.854 18.056 266.635 19.0451 269.368 19.8468C273.14 20.8843 276.441 22.9579 276.441 27.2958C276.425 31.4898 273.031 34.8854 268.893 34.8854" fill="#EEE5DA"/>
</svg>
