<svg width="173" height="66" viewBox="0 0 173 66" fill="none" xmlns="http://www.w3.org/2000/svg">
<path d="M56.9374 42.3917H57.0831C61.3061 41.8093 65.6747 41.8093 69.8977 42.3917V41.6636C65.6747 41.0812 65.6747 40.4987 65.5291 35.9844V0.598581C65.0922 -0.420765 64.5097 0.598581 64.5097 0.598581L61.7429 2.49165L57.8112 4.2391V4.82158C61.3061 6.86027 59.9955 7.44276 60.2867 9.91831V35.9844C60.2867 40.3531 61.0148 41.0812 56.9374 41.6636C53.0057 41.0812 52.7144 40.4987 52.7144 35.9844V15.8888C52.2776 15.1607 51.6951 15.8888 51.6951 15.8888L48.9283 17.7818L45.1421 19.5293V20.1118C48.6371 22.1505 47.4721 22.7329 47.6177 25.2085V35.9844C47.6177 40.3531 48.3458 41.0812 44.1228 41.6636V42.3917C48.3458 41.8093 52.7144 41.8093 56.9374 42.3917Z" fill="#EEE5DA"/>
<path d="M159.31 18.6557C159.455 16.3258 161.203 15.0152 163.678 15.0152C167.027 15.0152 167.756 17.782 168.92 20.4032C168.92 20.5488 169.066 20.6944 169.212 20.6944C169.794 21.1313 170.522 21.1313 171.105 20.5488C172.561 19.0926 171.105 16.0346 170.668 15.5977C168.775 14.2871 166.445 13.559 164.115 13.7046C160.766 13.7046 155.087 16.9083 155.087 21.4225C155.087 29.1404 167.464 29.7229 167.464 36.4215C167.464 39.0426 165.426 41.3726 162.659 41.3726C158.581 41.3726 157.271 38.4602 156.251 35.9846C156.251 35.4021 155.669 35.1109 155.232 35.1109C153.776 35.1109 154.213 38.3145 155.087 40.062C155.96 41.8094 159.455 42.6832 162.076 42.5376C167.901 42.2463 172.27 39.4795 172.27 34.2372C172.415 23.7525 158.873 25.2087 159.31 18.6557Z" fill="#EEE5DA"/>
<path d="M3.78656 2.9287C5.09715 3.36556 5.67963 4.38491 5.67963 7.73419V35.839C5.67963 41.6638 0.000423006 39.6251 0.146044 41.9551C0.146044 42.6832 3.49532 42.5376 4.22343 42.3919C5.67963 41.8095 7.28146 41.6638 8.88329 41.6638C11.0676 41.6638 15.145 42.5376 22.2804 42.5376C28.6877 42.5376 44.1235 39.7708 43.8323 21.2769C43.6867 3.51119 28.3965 -0.129336 18.9311 0.161906C15.7275 0.161906 12.6694 0.598768 9.6114 0.453148C6.99022 0.0162852 4.22343 0.161906 1.60225 0.598768C1.16539 0.744389 0.146044 0.598768 0.146044 2.05498C0.000423006 2.34622 2.47598 2.34622 3.78656 2.9287ZM11.9413 6.56922C11.9413 2.2006 14.1256 1.18125 18.6399 1.18125C31.8914 1.18125 36.9881 15.889 36.6969 23.0244C36.4056 32.781 29.1246 41.5182 21.1154 41.227C18.7855 41.0813 12.2326 40.062 12.0869 35.2565V6.56922H11.9413Z" fill="#EEE5DA"/>
<path d="M112.711 35.2564V23.1699C112.711 23.1699 112.128 20.1119 115.769 19.8206C118.099 19.5294 117.953 22.5874 121.739 22.1506C121.885 22.1506 121.885 22.1506 122.031 22.1506C120.72 24.7717 119.992 27.6841 120.138 30.5966C120.138 36.4214 124.652 42.3918 130.913 42.5375C133.535 42.5375 136.301 41.955 138.631 40.79C139.214 40.6444 139.068 42.3918 139.796 42.3918C140.524 42.3918 143.582 41.8094 143.582 41.8094L148.388 42.3918V41.8094C145.039 40.0619 145.621 37.0039 145.621 34.6739V0.744284C145.621 -0.275062 145.039 0.453043 145.039 0.453043L141.253 2.49173L137.758 4.23919L137.612 4.67605C140.524 6.71474 139.942 7.00598 139.942 9.48154V16.9082C138.486 15.8889 136.884 15.3064 135.136 15.1607C130.913 15.0151 126.69 16.617 123.632 19.5294C123.632 19.0925 123.632 18.51 123.487 18.0732C123.341 16.4713 120.866 15.8889 119.118 15.8889C115.332 15.8889 113.148 19.675 112.565 19.0925L112.274 18.51V14.8695C111.255 13.8502 110.963 14.8695 110.963 14.8695L108.197 16.7626L105.139 18.3644V18.9469C107.032 20.6943 106.886 20.84 106.886 23.4611V35.402C106.886 39.7707 107.177 40.79 103.828 41.3725C99.605 40.2075 100.77 38.7513 100.479 32.344V24.0436C100.479 19.3838 100.624 15.3064 92.9064 15.3064C85.1885 15.3064 82.2761 21.4224 82.2761 23.0243C82.4217 25.2086 85.9166 23.3155 86.4991 22.4418C87.0816 21.4224 87.8097 16.7626 91.7414 16.617C95.2363 16.4713 94.7995 21.7137 94.6539 27.9754C94.6539 27.9754 87.3728 29.5772 84.3148 32.7809C83.441 33.6546 82.7129 34.8196 82.2761 35.9845C81.548 38.1688 81.8392 39.6251 82.5673 40.6444C79.218 42.2462 78.6356 40.0619 78.4899 35.9845V0.453043C77.9075 -0.566303 77.4706 0.453043 77.4706 0.453043L74.7038 2.34611L70.772 4.23919V4.82167C74.2669 6.86036 73.102 7.44284 73.2476 9.9184V35.9845C73.2476 40.3532 73.9757 41.0813 69.7527 41.6637V42.2462C73.3932 41.8094 77.0337 41.8094 80.6742 42.2462C81.8392 42.1006 83.0042 41.955 84.0235 41.6637C85.1885 42.1006 86.4991 42.3918 87.8097 42.2462C90.2852 42.1006 92.6152 41.0813 94.3626 39.3338C95.5276 40.3532 96.6925 42.2462 98.2944 42.2462H103.391H103.537H104.702V42.1006C108.633 41.8094 112.565 41.8094 116.497 42.2462C116.497 41.955 116.497 41.6637 116.497 41.3725C111.837 40.9356 112.711 36.8583 112.711 35.2564ZM134.263 16.0345C136.884 16.0345 140.233 16.7626 140.233 23.6068V37.732C138.777 40.4988 135.573 40.2075 133.389 39.9163C129.166 39.3338 125.38 36.4214 125.234 28.2666C125.234 22.4418 128.875 16.0345 134.263 16.0345ZM94.9451 37.5864C93.9257 38.7513 93.1976 39.7707 91.5958 39.7707C88.9746 39.7707 87.2272 38.3145 87.5184 35.9845C87.9553 32.344 93.6345 28.7035 95.0907 29.7228C94.9451 29.7228 94.9451 37.5864 94.9451 37.5864Z" fill="#EEE5DA"/>
<path d="M49.8023 9.33583C51.5497 9.33583 53.0059 7.87963 53.0059 6.13218C53.0059 4.38473 51.5497 2.7829 49.6567 2.7829C47.9092 2.7829 46.3074 4.23911 46.3074 6.13218C46.5986 7.87963 48.0548 9.33583 49.8023 9.33583Z" fill="#EEE5DA"/>
<path d="M153.484 11.3746C153.921 13.2677 153.048 13.8502 151.883 15.3064C155.523 14.4327 157.999 10.9378 157.707 7.15162C157.707 6.86038 157.707 6.56914 157.707 6.42352C157.416 4.67607 155.669 3.5111 153.921 3.94796C152.319 4.09358 151.3 5.54979 151.446 7.006C151.591 9.19031 152.902 8.89907 153.484 11.3746Z" fill="#EEE5DA"/>
<path d="M0 51.566H0.436863V51.4204C1.16497 48.6536 2.62118 48.6536 3.34928 48.6536H4.07738V59.8664H2.47556V60.5945H8.30039V60.012H6.40732V48.7992H7.13542C7.86353 48.7992 9.31974 48.7992 10.0478 51.566V51.7116H10.6303V48.0711H0V51.566Z" fill="#EEE5DA"/>
<path d="M19.6585 55.0609C19.6585 53.4591 18.6392 52.5853 17.0373 52.5853C16.018 52.5853 14.853 53.0222 14.2706 53.8959V47.7798H11.0669V48.3623H12.3775V59.7208H11.0669V60.4489H15.4355V59.8664H14.2706V56.2259C14.2706 55.4977 14.4162 54.7696 14.853 54.1872C15.2899 53.6047 16.018 53.3134 16.7461 53.1678C17.7655 53.1678 17.9111 54.0415 17.9111 54.4784V59.7208H16.6005V60.3032H20.9691V59.7208H19.6585V55.0609Z" fill="#EEE5DA"/>
<path d="M25.775 52.5854C25.6294 52.5854 25.6294 52.5854 25.4838 52.5854C23.2995 52.5854 21.552 54.4784 21.552 56.6627C21.552 57.6821 21.8432 58.7014 22.5713 59.4295C23.2995 60.1576 24.1732 60.5945 25.1925 60.5945C25.3381 60.5945 25.4838 60.5945 25.4838 60.5945C25.6294 60.5945 25.6294 60.5945 25.775 60.5945C27.0856 60.5945 28.2506 59.7208 28.5418 58.4102V58.119H27.9593V58.2646C27.6681 59.4295 26.6487 60.1576 25.4838 60.012C24.0276 60.012 23.2995 58.9927 23.2995 56.8084V56.2259H28.5418V56.0803C28.5418 55.2065 28.3962 54.3328 27.8137 53.7503C27.3768 53.1678 26.6487 52.731 25.775 52.5854ZM23.5907 55.6434C23.7363 53.8959 24.3188 53.1678 25.3381 53.1678C26.0662 53.1678 26.6487 53.3135 26.6487 54.9153C26.6487 55.2065 26.6487 55.3522 26.6487 55.6434H23.5907Z" fill="#EEE5DA"/>
<path d="M41.2109 53.3134L39.0266 52.5853C37.8616 52.1485 36.6967 51.7116 36.6967 50.401C36.6967 49.236 37.716 48.2167 39.0266 48.2167H39.1722C39.1722 48.2167 39.1722 48.2167 39.3178 48.2167C40.9197 48.2167 42.2303 49.5273 42.3759 51.1291V51.2747H42.9584V48.0711H42.3759V48.2167C42.2303 48.5079 42.2303 48.5079 42.0846 48.5079C41.939 48.5079 41.6478 48.3623 41.3565 48.3623C40.9197 48.2167 40.3372 47.9255 39.3178 47.9255C37.2792 47.7798 35.5317 49.3817 35.3861 51.4204C35.3861 51.566 35.3861 51.566 35.3861 51.7116C35.3861 53.3134 36.2598 54.3328 38.2985 54.7696L40.1916 55.3521C41.3565 55.4977 42.2303 56.5171 42.3759 57.6821C42.3759 58.4102 42.2303 58.9926 41.6478 59.4295C41.2109 59.8664 40.6284 60.1576 39.9003 60.1576C39.7547 60.1576 39.6091 60.1576 39.4635 60.1576C38.1529 60.1576 36.2598 60.1576 35.5317 56.6627V56.5171H34.9492V60.5945H35.5317V60.4489C35.5317 60.3032 35.6773 60.1576 35.8229 60.1576C36.2598 60.1576 36.8423 60.3032 37.2792 60.5945C38.0073 60.7401 38.7354 60.8857 39.4635 60.8857C39.6091 60.8857 39.6091 60.8857 39.7547 60.8857C40.7741 60.8857 41.7934 60.4488 42.5215 59.8664C43.3952 59.1383 43.8321 58.1189 43.9777 56.9539C43.9777 56.8083 43.9777 56.8083 43.9777 56.6627C44.1233 54.1872 42.2303 53.6047 41.2109 53.3134Z" fill="#EEE5DA"/>
<path d="M50.9669 58.847L50.3844 58.5558V58.847C50.3844 59.5751 49.802 60.1576 49.0739 60.1576C48.9282 60.1576 48.2001 60.1576 48.2001 58.847V53.459H50.6757V52.8765H48.2001V50.2554L48.0545 50.5466C47.9089 50.6922 47.6176 50.8379 47.3264 50.6922C47.1808 50.6922 46.8895 50.6922 46.7439 50.5466L46.4527 50.401V52.7309H45.1421V53.3134H46.4527V58.5558C46.4527 60.012 47.1808 60.5944 48.9282 60.5944H49.0739C50.0932 60.7401 50.8213 60.012 50.9669 58.847Z" fill="#EEE5DA"/>
<path d="M59.8503 52.8766H56.9378V53.4591H58.2484L56.2097 58.119L54.3167 53.4591H55.6273V52.8766H50.9674V53.4591H52.4236L55.336 60.5945L54.6079 62.4876C53.8798 64.3807 53.4429 64.8175 52.8605 64.8175C52.5692 64.8175 52.5692 64.8175 52.5692 64.6719C52.5692 64.5263 52.5692 64.3807 52.7148 64.235C52.8605 64.0894 52.8605 63.9438 52.8605 63.6526C52.8605 63.2157 52.278 62.9245 51.8411 62.9245C51.2586 62.9245 50.9674 63.3613 50.8218 63.7982V63.9438C50.8218 64.8175 51.5499 65.4 52.278 65.4H52.4236C53.5886 65.4 54.1711 64.5263 54.8992 62.9245C55.0448 62.6332 55.1904 62.342 55.336 62.0507C55.6273 61.3226 55.9185 60.7401 56.2097 60.012L58.9765 53.6047H59.9959V52.8766H59.8503Z" fill="#EEE5DA"/>
<path d="M62.9079 47.9254H59.8499V48.5079H61.1604V59.8663H59.8499V60.4488H64.2185V59.8663H62.9079V47.9254Z" fill="#EEE5DA"/>
<path d="M69.0238 52.5854C68.8782 52.5854 68.8782 52.5854 68.7325 52.5854C66.5482 52.5854 64.8008 54.4784 64.8008 56.6627C64.8008 57.6821 65.092 58.7014 65.8201 59.4295C66.5482 60.1576 67.422 60.5945 68.4413 60.5945C68.5869 60.5945 68.7325 60.5945 68.7325 60.5945C68.8782 60.5945 68.8782 60.5945 69.0238 60.5945C70.3344 60.5945 71.4993 59.7208 71.7906 58.4102V58.119H71.3537V58.2646C71.0625 59.4295 70.0431 60.1576 68.8782 60.012C67.1307 60.012 66.8395 58.2646 66.8395 56.8084V56.2259H72.0818V56.0803C72.0818 55.2065 71.9362 54.3328 71.3537 53.7503C70.7712 53.1678 69.8975 52.731 69.0238 52.5854ZM66.8395 55.6434C66.9851 53.8959 67.5676 53.1678 68.5869 53.1678C69.315 53.1678 69.8975 53.3135 69.8975 54.9153C69.8975 55.2065 69.8975 55.3522 69.8975 55.6434H66.8395Z" fill="#EEE5DA"/>
<path d="M82.8582 53.4591C82.567 53.3134 82.4214 53.1678 82.2758 53.1678C82.1301 53.1678 82.1301 53.0222 81.9845 53.0222C81.8389 53.0222 81.6933 52.8766 81.6933 52.8766C81.5477 52.8766 81.402 52.731 81.2564 52.731C81.1108 52.731 81.1108 52.731 80.9652 52.731C80.8195 52.731 80.6739 52.731 80.6739 52.731H80.5283H80.3827C78.344 52.8766 76.5965 54.4784 76.4509 56.6627C76.4509 57.8277 77.0334 58.7014 77.9071 59.5751C78.6352 60.3032 79.6546 60.5945 80.6739 60.5945C80.8196 60.5945 80.8195 60.5945 80.9652 60.5945C83.0039 60.4489 84.7513 58.847 84.8969 56.6627C84.8969 55.4978 84.3145 54.624 83.4407 53.7503C83.1495 53.7503 83.0039 53.6047 82.8582 53.4591ZM80.5283 53.3134C81.6933 53.3134 82.567 53.8959 82.567 56.8083C82.567 60.012 81.5477 60.3032 80.5283 60.3032C79.509 60.3032 78.4896 60.012 78.4896 56.8083C78.4896 53.8959 79.3633 53.3134 80.5283 53.3134Z" fill="#EEE5DA"/>
<path d="M92.1777 49.2361C92.1777 49.0904 92.1777 49.0904 92.1777 49.2361C92.1777 49.0904 92.0321 48.9448 92.0321 48.9448C92.0321 48.9448 92.0321 48.9448 92.0321 48.7992C91.7408 48.2167 91.0127 47.7798 89.9934 47.7798C88.974 47.9255 87.9547 48.3623 87.3722 49.3817C86.7897 50.2554 86.4985 51.2747 86.6441 52.2941V53.0222H85.3335V53.6047H86.6441V60.012H85.3335V60.5945H89.9934V60.012H88.3915V53.6047H90.4302V53.0222H88.3915V50.8379C88.3915 49.3817 88.974 48.508 89.8477 48.508C90.139 48.508 90.5759 48.6536 90.5759 48.9448C90.5759 49.2361 90.4302 49.2361 90.4302 49.3817C90.4302 49.5273 90.2846 49.6729 90.2846 49.8185C90.2846 50.2554 90.8671 50.5466 91.1583 50.5466C91.4496 50.5466 91.5952 50.401 91.8864 50.2554C92.0321 50.1098 92.1777 49.8185 92.1777 49.5273V49.3817C92.3233 49.3817 92.3233 49.3817 92.1777 49.2361Z" fill="#EEE5DA"/>
<path d="M107.177 48.6536H108.925V48.0711H104.993V48.6536H106.595L103.682 54.0416L100.624 48.6536H102.08V48.0711H96.5469V48.6536H98.1487L101.935 55.2065V59.8664H100.042V60.4489H105.867V59.8664H103.974V54.7697L107.177 48.6536Z" fill="#EEE5DA"/>
<path d="M124.797 59.8664V52.8766H121.739V53.4591H123.05V57.2452C123.195 58.7015 122.176 59.8664 120.865 60.1577C120.429 60.1577 120.137 60.012 119.992 59.7208C119.846 59.4296 119.7 58.8471 119.7 58.2646V53.0222H119.555V52.8766H116.497V53.4591H117.807V58.119C117.807 59.5752 118.39 60.012 118.681 60.3033C119.118 60.5945 119.7 60.7401 120.429 60.7401H120.574C121.594 60.7401 122.467 60.1577 123.05 59.4296V60.4489H126.108V60.3033V59.8664H124.797Z" fill="#EEE5DA"/>
<path d="M132.224 52.5854C131.35 52.5854 130.622 53.0222 130.185 53.7503V52.8766H126.981V53.4591H128.292V59.8664H126.981V60.4489H131.496V59.8664H130.039V56.2259C130.039 54.3328 131.059 53.4591 131.641 53.4591C132.078 53.4591 132.078 53.6047 132.078 53.7503C132.078 54.0416 132.078 54.1872 131.933 54.3328C131.933 54.4784 131.787 54.624 131.787 54.7697C131.787 55.3522 132.369 55.3522 132.661 55.3522C133.389 55.3522 133.68 54.9153 133.68 54.1872C133.826 53.3135 133.098 52.5854 132.224 52.5854Z" fill="#EEE5DA"/>
<path d="M148.679 56.5171C148.096 58.7014 147.077 59.8664 145.329 59.8664H142.563V48.6536H144.456V48.508V48.2167V48.0711H138.631V48.6536H140.524V59.8664H138.631V60.4489H149.261V56.3715L148.679 56.5171Z" fill="#EEE5DA"/>
<path d="M153.63 52.8766H150.572V53.4591H151.737V59.8664H150.572L150.426 60.4489H154.941V59.8664H153.63V52.8766Z" fill="#EEE5DA"/>
<path d="M152.61 50.1098C153.173 50.1098 153.63 49.6534 153.63 49.0905C153.63 48.5275 153.173 48.0711 152.61 48.0711C152.047 48.0711 151.591 48.5275 151.591 49.0905C151.591 49.6534 152.047 50.1098 152.61 50.1098Z" fill="#EEE5DA"/>
<path d="M158.873 50.6922C158.873 49.236 159.455 48.3622 160.329 48.3622C160.766 48.3622 161.057 48.5078 161.057 48.7991C161.057 49.0903 160.912 49.0903 160.912 49.236C160.766 49.3816 160.766 49.5272 160.766 49.8184C160.766 50.2553 161.348 50.5465 161.64 50.5465C161.931 50.5465 162.077 50.4009 162.368 50.2553C162.513 50.1097 162.659 49.8184 162.659 49.5272V49.3816C162.659 48.6535 161.931 47.6341 160.329 47.6341C159.31 47.7797 158.29 48.2166 157.708 49.236C157.125 50.1097 156.834 51.129 156.98 52.1484V52.8765H155.815V53.459H157.125V59.8663H155.815L155.669 60.4488H160.329V60.1575V59.8663H158.873V53.459H160.912V52.8765H158.873V50.6922Z" fill="#EEE5DA"/>
<path d="M165.426 52.5854C165.28 52.5854 165.28 52.5854 165.134 52.5854C162.95 52.5854 161.203 54.4784 161.203 56.6627C161.057 58.8471 162.804 60.5945 164.989 60.7401C165.134 60.7401 165.28 60.7401 165.28 60.7401C165.426 60.7401 165.426 60.7401 165.571 60.7401C166.882 60.7401 168.047 59.8664 168.338 58.5558V58.2646H167.756V58.4102C167.464 59.5752 166.445 60.3033 165.28 60.1576C163.533 60.1576 163.241 58.4102 163.241 56.954V56.3715H168.484V56.2259C168.484 55.3522 168.338 54.4784 167.756 53.8959C167.173 53.1678 166.299 52.731 165.426 52.5854ZM166.445 55.6434H163.387C163.533 53.8959 164.115 53.1678 165.134 53.1678C165.862 53.1678 166.445 53.3135 166.445 54.9153C166.445 55.2065 166.445 55.4978 166.445 55.6434Z" fill="#EEE5DA"/>
<path d="M171.251 60.5944C171.814 60.5944 172.27 60.138 172.27 59.5751C172.27 59.0121 171.814 58.5557 171.251 58.5557C170.688 58.5557 170.231 59.0121 170.231 59.5751C170.231 60.138 170.688 60.5944 171.251 60.5944Z" fill="#EEE5DA"/>
<path d="M112.128 52.731H111.982C111.837 52.731 111.837 52.731 111.691 52.731C109.652 52.8766 107.905 54.4784 107.759 56.6627C107.759 57.8277 108.342 58.7014 109.215 59.5751C109.944 60.3032 110.963 60.5945 111.982 60.5945C112.128 60.5945 112.128 60.5945 112.274 60.5945C113.438 60.5945 114.458 60.012 115.186 59.1383C115.768 58.5558 116.06 57.6821 116.205 56.8083C115.914 54.4784 114.312 52.8766 112.128 52.731ZM109.944 56.6627C109.944 55.0609 110.235 54.1872 110.672 53.6047C110.963 53.3134 111.4 53.3134 111.837 53.3134C113.002 53.3134 113.875 53.8959 113.875 56.8083C113.875 60.012 112.856 60.3032 111.837 60.3032C111.254 60.3032 110.526 60.1576 110.235 59.4295C109.944 58.5558 109.944 57.8277 109.944 56.6627Z" fill="#EEE5DA"/>
</svg>
