<svg width="615" height="58" viewBox="0 0 615 58" fill="none" xmlns="http://www.w3.org/2000/svg">
<path d="M210.328 44.2928C210.558 43.9794 217.202 40.8455 217.599 40.8455C218.978 40.8455 225.308 46.3821 228.986 47.3641C235.107 48.9937 247.58 48.931 247.392 40.8873C247.141 29.9812 220.984 36.061 214.34 25.1341C200.174 1.77588 244.76 -8.67053 256.084 10.8016C247.643 20.5377 244.927 11.7836 237.969 10.1748C232.37 8.87945 222.676 9.92409 222.697 16.9023C222.718 26.8473 254.036 19.2423 257.797 35.6014C265.632 69.7821 202.514 54.7183 210.328 44.3137V44.2928Z" fill="#EEE5DA"/>
<path d="M72.5608 1.98486C75.9873 4.01146 92.7224 49.725 97.883 56.3898C80.4792 62.1144 84.8876 44.9196 80.918 42.4961C80.2703 42.0991 67.275 40.4904 65.5409 40.5321C48.4505 40.8664 54.2796 59.9416 37.5027 56.3898L60.631 1.90129C61.5294 1.17004 71.1401 1.14914 72.5608 1.98486ZM74.9635 32.0496L67.6928 13.8102L58.3119 34.0554L74.9635 32.0288V32.0496Z" fill="#EEE5DA"/>
<path d="M204.06 1.65063C204.353 1.94313 204.478 9.75704 204.06 9.75704H170.736V25.9699C174.162 23.2747 195.452 22.9404 195.745 24.967C197.416 36.4581 190.125 31.1095 180.096 32.0497C167.017 33.2824 171.008 36.9177 170.757 48.2834H204.081C204.499 48.2834 204.499 56.3898 204.081 56.3898H160.352V1.65063C166.411 2.79973 202.556 0.125449 204.081 1.65063H204.06Z" fill="#EEE5DA"/>
<path d="M152.016 42.2452C144.014 59.6072 116.122 62.365 104.13 47.2595C83.6547 21.436 112.09 -11.5538 143.074 5.2649C145.539 6.60204 153.834 11.4074 149.906 14.792C140.274 23.0447 134.696 4.19936 118.128 12.264C98.1334 22.0001 111.588 56.7448 133.818 45.7761C142.238 41.6184 139.606 34.6402 152.016 42.2243V42.2452Z" fill="#EEE5DA"/>
<path d="M45.818 1.65067C46.1105 1.94317 46.2358 9.75709 45.818 9.75709H10.4046V30.044C13.9773 27.5996 36.5416 27.0564 37.4817 28.0174C37.7742 28.3099 37.7742 35.8105 37.4817 36.103C32.9898 40.6785 2.27732 24.2149 10.4046 56.4108H0V1.65067C6.10071 2.86246 44.2301 0.0419248 45.818 1.65067Z" fill="#EEE5DA"/>
<path d="M387.312 1.65033C391.427 0.877296 392.89 2.46515 395.752 4.57533C404.444 11.0103 417.711 32.2792 426.277 41.6392C427.509 42.9973 426.109 45.5253 431.04 44.2299V1.65033H437.287V56.4105L429.39 55.9508L393.558 11.8043V56.4105H387.312V1.65033Z" fill="#EEE5DA"/>
<path d="M508.093 1.65049C529.78 0.250672 558.278 1.58781 558.236 29.0201C558.194 56.4524 529.571 58.291 508.093 56.4106V1.65049ZM514.34 50.3308C564.399 56.4733 564.128 1.23264 514.34 7.7512V50.3308Z" fill="#EEE5DA"/>
<path d="M355.888 1.85948C358.375 3.5309 374.943 49.7459 378.975 56.3898C367.693 58.9805 369.719 42.2244 364.454 39.1323C360.777 36.9803 342.684 37.5653 338.735 40.0307C332.927 43.6451 334.87 60.7564 322.773 56.3898L346.716 3.67715C348.304 1.33716 354.196 0.710372 355.909 1.85948H355.888ZM360.234 32.0496C361.634 30.7334 353.841 11.4075 349.85 9.75697L341.514 34.0971L360.234 32.0496Z" fill="#EEE5DA"/>
<path d="M591.078 1.98497C593.648 3.53103 611.721 49.4326 614.29 56.3899C603.217 58.7299 605.808 42.7051 599.749 39.1533C595.633 36.7297 579.984 37.5237 575.639 40.0517C568.096 44.4392 570.019 58.3747 560.178 56.4108C562.602 49.349 580.82 3.55193 583.39 2.00586C584.811 1.14925 589.679 1.14925 591.099 2.00586L591.078 1.98497ZM589.282 9.7571C585.772 6.12175 585.751 11.0942 584.957 12.6403C583.682 15.0639 576.098 33.1989 576.83 34.0973C583.285 30.7753 590.64 32.3005 597.639 32.0498C594.024 29.083 590.18 10.6764 589.282 9.7571Z" fill="#EEE5DA"/>
<path d="M476.524 2.00586C479.114 3.53103 496.727 49.5371 499.735 56.3899C488.662 58.7299 491.253 42.7051 485.194 39.1533C481.078 36.7297 465.429 37.5237 461.084 40.0517C453.541 44.4392 455.464 58.3747 445.623 56.4108C448.047 49.349 466.265 3.57282 468.835 2.00586C470.256 1.14925 475.082 1.14925 476.524 2.00586ZM483.105 32.0498C478.425 25.0924 478.174 14.458 470.632 9.7571L462.296 34.0973C468.751 30.7753 476.106 32.3005 483.105 32.0498Z" fill="#EEE5DA"/>
<path d="M279.776 45.5464C285.876 51.5844 297.827 51.856 305.578 48.7848C307.981 47.8446 317.425 36.1655 318.615 43.2691C319.493 48.5132 309.151 55.0109 304.638 55.9928C256 66.5646 255.958 -0.041766 294.651 1.96529e-05C300.209 1.96529e-05 316.798 5.62019 318.302 11.0941C319.054 13.852 317.299 17.8843 315.461 17.8425C313.789 17.8007 306.581 4.15769 291.476 6.51858C273.445 9.33912 268.076 33.9718 279.755 45.5464H279.776Z" fill="#EEE5DA"/>
</svg>
