<svg width="126" height="66" viewBox="0 0 126 66" fill="none" xmlns="http://www.w3.org/2000/svg">
<path d="M81.2578 37.5942C80.8275 37.5413 78.6847 36.607 78.5844 36.2519C78.5733 36.213 78.5482 35.4931 78.558 35.4541C78.6638 35.0392 79.5048 35.4792 79.8668 35.5029C80.5505 35.5488 85.2775 35.1951 85.517 34.8582C86.1129 31.9217 86.9093 28.8112 87.1739 25.826C87.2338 25.1493 87.0569 24.1997 87.1739 23.5982C87.1976 23.4785 87.8965 22.7419 87.9634 22.7182C89.4058 22.2086 90.5768 23.6483 90.8971 24.8917C91.4192 26.919 91.376 28.7611 91.0335 30.7995C90.8803 31.7156 90.3443 33.1498 90.2928 33.9615C90.2816 34.1342 90.3123 34.1411 90.4445 34.2442L96.5737 32.8588L98.8084 24.7901C98.9449 23.9129 98.7499 23.0009 99.5269 22.4189C100.457 22.6236 103.189 21.6085 103.325 23.0552L100.542 32.022L120.705 27.7502C121.562 27.6834 122.462 27.352 123.308 27.2907C123.622 27.2685 125.047 27.2002 125.043 27.4968C125.04 27.7767 120.451 29.3556 119.862 29.5533C113.229 31.7727 106.383 33.4199 99.6243 35.2132C99.2944 35.4889 97.8505 42.0274 97.5776 43.0522C96.7408 46.1892 94.687 51.6681 94.5506 54.6561C94.5339 55.0265 94.5325 55.3342 94.9001 55.5249C95.567 55.5751 103.328 47.1903 104.447 46.1627C104.744 45.6462 104.525 44.2106 104.581 43.5117C104.79 40.8773 105.94 38.4365 107.341 36.2464C107.643 35.773 109.328 33.8111 109.734 33.6274C110.057 33.4812 111.323 33.5257 111.749 33.5577C113.296 33.6719 115.041 34.2191 116.608 34.4071C117.044 34.6354 117.182 36.2255 117.084 36.6585C116.968 37.1709 114.821 39.8011 114.332 40.3121C112.497 42.2279 110.336 43.6648 108.414 45.3942C107.963 45.8007 106.916 46.6695 106.955 47.2488C107.064 48.9029 109.289 52.5536 110.433 53.8095C112.504 56.0805 114.368 56.8449 117.459 56.6667C118.655 56.597 120.079 56.1654 121.239 56.1236C123.001 56.0596 120.181 57.1303 119.724 57.2612C117.101 58.0145 114.24 58.1175 111.728 56.9702C108.371 55.4372 105.898 52.3114 105.067 48.7302C102.507 50.8202 100.135 53.4099 97.384 55.2492C96.5389 55.8131 94.5784 57.2375 94.0897 55.6711C93.6303 54.1994 94.0647 49.6715 94.2791 47.9672C94.4462 46.6417 94.9112 45.344 94.9043 43.9976C94.0187 44.9904 93.5759 46.2282 92.9577 47.3421C91.8828 49.2746 90.7578 51.1766 89.6592 53.0939C88.4479 55.2075 88.0608 57.2793 85.1619 54.9944C82.3633 52.7876 83.0553 49.4626 83.4173 46.3646C81.9637 47.7458 79.8223 52.7876 77.5179 52.6247C76.4235 52.5467 75.3347 51.3827 75.24 50.2966L75.1356 48.733L72.7338 50.9274C72.0989 54.5238 71.3205 58.4656 69.3281 61.5845C68.2699 63.2414 66.1493 65.6167 64.4214 63.2038C61.8985 59.6811 66.6436 54.5531 69.0747 52.2807C69.4478 51.9327 70.6369 51.1682 70.8095 50.8132C71.0295 50.3621 71.2648 47.6637 71.3038 46.9912C71.3345 46.4607 71.2871 45.9219 71.3038 45.3914C69.5522 45.7673 67.4762 48.8709 65.662 46.7865C65.1399 46.1864 65.3153 45.7381 64.97 45.1143C63.9772 45.7979 60.0369 52.9351 59.5649 52.8878C59.3755 52.8683 59.0775 52.5926 58.8116 52.523C58.4969 52.4409 58.185 52.5341 57.8342 52.3866C57.6949 52.3281 56.8484 51.6124 56.7885 51.4829C56.3694 50.5876 56.84 47.8391 56.9639 46.7823C56.7969 46.6139 54.6526 48.7971 54.104 47.0678C53.6014 45.486 55.4713 42.3894 56.9208 41.6543C57.3817 41.4204 58.2101 41.3452 58.49 41.1349C58.7698 40.9247 58.9564 40.0183 59.1861 39.8818C59.3073 39.8094 61.5545 40.3691 61.9792 40.2355C62.0976 41.6626 61.1424 42.771 60.6579 43.9976C60.0411 45.5571 59.6804 47.3365 59.8197 49.0073C61.1758 47.3964 62.4206 45.6754 63.8589 44.1355C64.097 43.8807 64.5272 43.6259 64.8335 43.3C65.2401 42.8684 65.6745 41.5875 66.4334 42.2572C65.8611 43.2541 65.5562 44.4028 65.9419 45.5306C66.3777 46.8046 67.2005 46.5665 68.107 45.8773C69.1721 45.0683 70.4099 42.7375 71.3734 42.175C71.4389 42.136 72.3564 41.9425 72.4233 41.9606C72.4971 41.9801 73.6875 42.6888 73.7404 42.7445C74.7583 43.8013 73.3868 47.4033 73.171 48.7135C73.1473 48.8611 73.0206 49.1243 73.3241 49.0045C73.5232 48.9266 75.3027 47.6386 75.4057 47.4646C75.7468 46.8951 75.9626 45.3914 76.2954 44.5949C76.9874 42.9394 79.1539 39.996 81.1979 40.4415C83.2558 40.8899 80.2372 43.8528 79.5953 44.5532C79.1637 45.0252 76.8579 47.1304 76.7674 47.434C76.5962 48.009 76.5071 51.1669 77.4845 51.0652C78.4619 50.9636 80.4405 47.6595 80.9403 46.7336C81.9219 44.9152 83.0887 42.5148 83.8643 40.6072C84.2625 39.6298 84.6259 38.6343 84.8152 37.59C83.6916 37.4911 82.3605 37.7251 81.2647 37.59L81.2578 37.5942ZM106.808 43.4421C106.976 43.5799 107.64 42.8336 107.786 42.6818C108.428 42.0065 109.137 41.167 109.706 40.4248C110.134 39.8679 111.863 37.4494 111.94 36.9356C112.012 36.4538 110.901 36.0306 110.528 36.0876C110.155 36.1447 109.853 36.6905 109.619 36.9941C108.155 38.8918 107.124 41.0472 106.808 43.4407V43.4421ZM86.6183 48.1065V51.3785C90.3429 47.033 92.8464 41.7712 95.1131 36.5499C95.1646 36.2547 94.9864 36.323 94.7762 36.3536C92.9953 36.6042 91.2605 37.4563 89.4212 37.4744L86.6169 48.1065H86.6183ZM80.6298 41.3549C80.3249 41.309 80.1286 41.3633 79.8543 41.483C78.6401 42.0163 77.2158 44.9194 77.0125 46.2282C77.4358 45.9038 77.834 45.5069 78.196 45.1157C78.6318 44.6465 81.138 41.8604 80.6298 41.3549ZM58.0737 42.1903C56.2204 42.7306 55.0355 44.904 55.0119 46.7837C55.2207 47.0135 56.989 45.3872 57.1589 45.1031L58.0737 42.1903ZM66.0491 61.086C67.0683 62.1024 68.5024 59.9053 68.9577 59.1297C70.2136 56.9897 70.5171 54.7898 70.7427 52.3531C68.5999 53.6035 66.4292 56.0582 65.8291 58.5074C65.6606 59.1966 65.5005 60.5388 66.0491 61.086Z" fill="#EEE5DA"/>
<path d="M21.0391 22.8353L17.7364 25.4626C15.0004 25.0519 16.8592 20.4251 17.7267 18.8963C18.7431 17.1071 19.8973 15.6925 21.7004 14.6552C21.9107 14.534 22.2309 14.5466 22.4245 14.4046C22.7893 14.1358 22.7029 13.3004 23.3016 13.3867C23.4506 13.4076 24.6383 13.7557 24.8263 13.8253C25.2217 13.9701 25.5531 14.3906 26.0502 14.3433C25.0602 17.7796 23.9853 21.1366 24.2429 24.7832C24.5214 24.4017 25.1953 24.1455 25.4528 23.906C25.7104 23.6665 27.611 19.9071 27.8853 19.3084C29.9098 14.878 30.4291 10.5672 31.6307 5.9279C31.9301 4.77503 32.3728 3.66532 32.6722 2.51384C32.8811 1.71045 32.5218 1.60324 33.2069 0.894534C33.4088 0.685681 33.5522 0.538091 33.7499 0.319492C33.8557 0.202534 34.524 -0.0132812 34.7343 0.000642343C35.0601 0.0215277 35.5405 0.293037 35.8997 0.384932C36.1935 0.460119 36.5318 0.364047 36.8131 0.446196C38.0467 0.802639 36.9189 2.25904 36.8326 3.05686C36.0877 9.92117 32.3854 19.0188 33.7443 25.7926C34.1133 27.6347 35.8565 29.0967 37.7863 28.6539C37.9687 28.6121 39.8233 27.2811 39.9027 27.1502C40.0893 26.8452 39.9403 24.8959 39.9904 24.3139C40.1589 22.373 40.9929 20.4014 41.898 18.7028C42.0845 18.3533 42.6582 17.7156 42.7306 17.4371C42.8169 17.1085 42.5816 16.617 42.6164 16.5697C42.6359 16.5446 43.0592 16.4903 43.2123 16.397C43.5632 16.184 44.2051 15.5087 44.6061 15.4906C45.5209 15.4516 47.7291 16.1826 47.9004 17.2018C48.0717 18.221 47.7988 18.9687 47.324 19.8125C46.0291 22.1168 43.4657 23.9408 42.0274 26.2103C41.7295 29.8416 43.4894 29.3612 45.2368 27.0541C46.8534 24.921 48.1427 22.3995 49.6464 20.18C49.2942 18.8838 49.3777 16.6643 51.2462 17.4079C51.4091 17.6432 50.4442 18.8183 50.9859 19.6858C51.2212 20.0617 52.7193 20.7384 53.2039 21.2271C54.7202 22.7601 53.7232 25.0575 53.7511 26.9469C53.7594 27.4941 53.9627 28.1179 53.9641 28.6804C55.5027 26.7575 56.8421 24.4922 57.8182 22.231C58.1217 21.5278 58.6341 20.3945 58.7329 19.6649C58.8318 18.9353 58.5018 16.7326 59.3943 16.5669C60.7699 16.3121 62.179 16.727 62.2417 18.2878C61.5887 20.471 61.0902 22.7155 60.3021 24.8556C60.0515 25.5364 59.5795 26.1741 59.3623 26.8397C59.2175 27.2824 58.5798 30.1688 58.7677 30.3526C59.2968 30.3985 59.851 30.0087 60.2896 29.7163C60.7713 29.396 63.123 27.2727 63.421 26.8606C63.6869 26.4944 63.719 24.9739 63.8443 24.3599C64.0545 23.3296 65.3508 19.6872 66.0748 19.0717C66.4884 18.7209 67.2263 18.7362 67.7484 18.796C70.1308 19.0689 68.673 21.7618 67.8751 22.9606C67.754 23.143 67.0634 24.1176 66.9813 24.1664C66.7028 24.332 66.4619 23.686 66.1612 24.7275C65.905 25.6158 66.0442 26.8341 66.1639 27.7586C66.2182 28.1736 66.221 29.0883 66.7501 28.938C66.8949 28.8962 68.1453 27.8422 68.3764 27.6389C70.373 25.8859 72.0926 23.6762 73.879 21.7144C74.0544 21.3343 73.6701 21.0085 73.5573 20.6437C73.2761 19.7428 72.9238 18.1528 73.6311 17.3981C74.4833 16.4903 75.6375 16.3357 76.7667 16.8774C78.315 17.6195 76.0162 19.7749 75.5331 20.6103C76.8433 23.6971 80.2532 24.9071 81.4311 28.0858C81.5676 28.4548 81.924 29.6717 81.8878 30.0017C81.8349 30.4807 81.4785 30.1841 81.4631 30.2106C81.4005 30.3206 81.5773 30.6366 81.3782 30.7884C81.2974 30.8497 81.0134 30.7995 80.8909 30.8524C80.5679 30.9945 80.3479 31.2214 79.9678 31.2924C77.236 31.8062 74.1964 29.0674 74.2229 26.3134C74.571 26.4289 75.231 26.2883 75.5066 26.3482C75.877 26.4289 76.7375 26.777 77.2944 26.9302C77.6035 27.0151 77.8876 27.5957 78.2579 27.0792C77.339 25.0951 75.4008 24.126 74.2925 22.2769C73.1619 23.2112 72.4671 24.5841 71.5746 25.6826C70.8548 26.5682 69.9985 27.3646 69.2926 28.2738C68.201 29.6801 67.3363 32.4369 65.0306 30.5614C64.1784 29.868 64.1088 28.924 63.7106 27.9856C62.5619 29.19 60.3035 32.4871 58.3821 32.0694C56.7753 31.7199 56.7767 29.1092 56.6096 27.8422C55.8758 30.0992 53.8499 32.5233 52.058 29.4712C50.6921 27.146 51.5247 25.3387 51.6653 23.0358C51.7572 21.5223 51.1251 21.5919 50.1365 20.7426C49.9708 21.3761 49.5754 21.9135 49.3304 22.5136C48.2513 25.1577 47.246 28.0942 45.1213 30.1396C43.2444 31.9468 40.7312 30.5294 40.177 28.2585C39.7092 28.246 39.2246 29.0535 38.8445 29.293C38.2667 29.6578 36.206 30.5642 35.5655 30.6157C33.8404 30.755 31.6781 28.8349 30.8454 27.4286C29.4447 25.0672 29.286 21.8926 29.1078 19.2096L27.462 22.6445C26.7561 23.5746 24.6341 28.2641 23.6971 28.4659C23.5383 28.5008 23.3462 28.3824 23.2028 28.4089C22.9076 28.4604 22.7085 28.7013 22.4231 28.6233C22.1947 28.5606 21.0335 27.3145 21.0335 27.2156V22.8297L21.0391 22.8353ZM22.153 15.8749C21.8327 15.6382 20.8803 16.4123 20.62 16.6379C19.5117 17.5958 17.6835 20.1007 17.4524 21.5459C17.0709 23.9394 18.207 23.0608 19.2332 21.9344C20.7717 20.2427 21.6503 18.0762 22.153 15.8749ZM75.0221 17.7086C74.2299 17.9439 74.8522 19.4992 75.2713 19.9099C76.0817 19.3516 76.4242 17.2923 75.0221 17.7086ZM46.1001 18.6596C45.7381 18.8517 44.4752 18.9798 44.2803 19.1706C43.9851 19.4574 42.654 21.72 42.4563 22.185C42.15 22.9049 41.9425 23.7208 41.9258 24.5075C42.7389 23.9672 43.2666 23.3685 43.8473 22.6027C44.4613 21.7938 45.6072 20.0756 45.9915 19.1775C46.0667 19.0035 46.1377 18.8615 46.1001 18.661V18.6596ZM66.5663 23.253C67.023 22.38 68.0353 21.3622 67.3321 20.3304C66.8907 20.2343 66.5176 22.4203 66.4661 22.8046C66.4466 22.955 66.3115 23.2836 66.5663 23.253Z" fill="#EEE5DA"/>
<path d="M50.8346 44.695C51.0421 44.9052 53.4369 43.6897 53.3381 45.3118C53.274 46.356 51.0894 46.5746 50.9905 46.8712C50.9349 47.5785 50.9181 48.3736 50.8235 49.0711C50.7455 49.6406 50.7093 50.3075 50.6411 50.7601C50.616 50.9299 50.332 51.0302 50.3097 51.168C50.2693 51.4117 50.6884 51.5412 50.6995 51.6136C50.7538 51.9728 50.4169 52.6049 50.5547 53.0505L50.0006 51.7974C50.0312 52.1942 49.7082 52.7845 49.7346 53.1285C49.7527 53.3679 50.0577 53.5169 49.9867 53.7884C49.9463 53.943 49.7068 54.0432 49.6539 54.1685C49.2362 55.1543 49.9686 56.1123 49.9505 56.3211C49.892 56.9658 49.963 56.7764 49.9839 57.2902C49.9936 57.5227 49.782 57.8611 49.8502 58.1201C49.885 58.2565 50.9209 58.2663 50.5561 58.7591C50.5366 58.7856 50.1565 58.5559 50.0006 58.6213C49.7834 59.0571 50.2359 59.88 50.2261 60.0791C50.2164 60.2587 49.7931 60.8421 49.9992 61.2654C49.7513 61.2765 49.7026 61.3364 49.7207 61.0593C49.75 60.5971 49.9686 60.1042 49.8599 59.596C49.7332 59.596 49.6441 59.7213 49.6121 59.834C49.2557 61.1206 49.892 63.592 49.2334 65.0289C48.618 65.2016 48.2114 64.55 47.706 65.2698C46.5503 64.7407 45.5729 64.7867 45.4044 63.2857C45.3376 62.6912 45.2944 60.3242 45.3947 59.8104C45.4281 59.6433 45.7984 59.8257 45.8319 59.6572C45.9098 59.2604 45.811 58.4723 45.8235 57.9947C45.8834 55.7461 45.7678 53.5392 45.9627 51.1722C46.017 50.522 46.1368 49.8007 46.2384 49.1519C45.559 49.9692 44.9853 51.1081 44.4966 52.0731C43.9759 53.102 42.6155 56.7709 41.7495 57.1217C40.669 57.5603 38.4719 56.711 38.0556 55.5971C37.7214 54.7032 37.5627 52.2387 37.4708 51.1694C37.365 49.9511 37.3315 48.7049 37.3301 47.4811C37.2327 47.3697 36.7718 47.7554 36.6493 47.8417C35.8334 48.4195 34.0456 50.2978 33.2937 50.4858C31.4544 50.9438 32.8273 47.6969 33.1294 46.9673C34.2182 44.3357 35.9768 41.7989 38.4064 40.27C39.3978 40.3647 40.96 39.7925 41.8539 39.9651C42.3371 40.0584 42.8272 41.0038 42.8564 41.441C42.9023 42.1274 42.1714 44.0364 42.0683 45.0444C42.014 45.5791 42.0962 46.1639 42.0655 46.7125C41.9904 48.0171 41.7787 49.3607 41.9973 50.6821C42.2229 50.1934 44.1346 47.3432 44.1346 47.1316C44.1346 46.9673 43.3159 46.6763 43.6681 45.9481C43.8784 45.5137 44.5161 45.6111 44.8461 45.4552C45.1524 45.3104 46.5642 42.4129 46.826 41.8657C47.2312 41.0177 49.2779 36.5413 49.2793 35.9677C49.2793 35.7699 49.0426 35.6488 49.0552 35.4608C49.0858 34.9624 49.8544 33.8527 49.9574 33.2707C51.6241 33.1788 54.4617 32.0732 55.8457 33.3542C56.6282 34.0782 55.6549 36.3937 55.2762 37.2264C54.257 39.4583 52.4985 41.3394 50.9056 43.1675L50.8402 44.6936L50.8346 44.695ZM55.2887 33.836C54.8474 33.4141 53.0178 36.4188 52.8466 36.753C52.0571 38.2901 51.5127 40.1294 50.9738 41.771C53.1125 39.7688 55.3987 36.9019 55.2874 33.836H55.2887ZM38.302 41.9116C36.2427 43.4293 34.6081 45.9105 33.5457 48.2232C33.2297 48.9096 32.5836 50.2672 33.7824 49.2953C34.5788 48.6492 37.2591 45.9634 37.5418 45.1196C37.8843 44.1032 37.9456 42.9336 38.302 41.913V41.9116ZM50.1746 50.2282C50.0048 49.9525 50.5993 47.4741 50.208 47.4783L49.8613 50.9606C50.1273 50.9049 50.4559 50.6306 50.4266 50.3423C50.4183 50.2686 50.2025 50.2727 50.1746 50.2282Z" fill="#EEE5DA"/>
<path d="M16.5837 17.8228C16.6756 17.9091 15.9738 19.9628 15.8513 20.2232C15.4879 20.9932 14.6957 21.7283 14.3921 22.5234C13.8825 23.86 13.7656 25.7411 13.3437 27.1836C12.8786 28.7792 11.936 30.4403 11.7494 32.1334C11.457 34.7761 12.2409 35.6449 10.811 38.4352C9.60243 40.7939 9.32257 38.0467 9.22232 36.8103C8.95359 33.4965 9.85862 30.283 10.1775 27.0123C8.54563 28.9936 6.85392 30.7759 4.1987 31.2646C1.65208 31.7352 0.217957 27.6779 0.0327733 25.6729C-0.373794 21.2814 3.0695 11.2676 6.63254 8.49818C8.54842 7.00836 11.7105 7.39404 13.7544 8.47033C14.8669 9.05651 15.5854 10.2679 14.8948 11.4695C14.09 12.8674 12.8341 11.4068 12.195 11.4221C11.7077 11.4333 9.10675 14.2904 8.65284 14.8348C5.59106 18.505 2.99988 23.3365 3.77682 28.2668C4.37831 27.9981 4.95057 27.6584 5.44764 27.224C6.42368 26.3718 10.3668 21.3176 10.5701 20.226C10.6885 19.5897 10.2749 19.1608 10.7553 18.4674C10.9182 18.2335 11.6729 17.8228 11.9207 17.8228H16.5851H16.5837Z" fill="#EEE5DA"/>
<path d="M35.1016 51.6584C33.7441 53.0132 32.264 54.549 30.7714 55.7506C29.1535 57.0538 27.5133 58.3905 25.3565 57.5732C19.3694 55.305 22.4117 46.1572 23.8208 41.6989C24.5462 39.4057 25.4484 36.7059 26.3646 34.4963C26.6111 33.9003 26.9689 32.9313 27.6846 32.7419C27.8837 32.689 29.5629 32.9229 29.872 33.0078C30.5333 33.1916 31.4342 33.7876 31.5915 34.4907C32.1526 37.0025 30.2938 39.4517 29.4278 41.7365C28.2276 44.9097 26.8283 50.0433 26.6097 53.3989C26.579 53.8681 26.4314 54.9124 26.9591 55.0029C27.7444 55.1379 31.6082 53.0522 32.64 52.6052C33.4406 52.2585 34.2593 51.8924 35.1016 51.6571V51.6584Z" fill="#EEE5DA"/>
<path d="M65.5928 10.0269C65.6805 10.1077 64.5694 11.6727 64.5945 12.0208C63.9679 13.2168 62.9404 13.8308 61.9713 14.6885C61.5397 15.0519 60.3826 14.346 60.3032 13.9924C60.2392 13.7125 61.2375 13.4647 61.5424 13.285C62.7844 12.5554 63.8705 11.0865 65.0289 10.2274C65.1584 10.1314 65.4522 9.89605 65.5914 10.0255L65.5928 10.0269Z" fill="#EEE5DA"/>
</svg>
