<svg width="151" height="66" viewBox="0 0 151 66" fill="none" xmlns="http://www.w3.org/2000/svg">
<path d="M138.38 37.5588C136.33 39.503 135.587 41.0657 135.587 43.2133C135.587 46.5449 138.491 47.2636 141.821 48.571C144.293 49.5412 146.2 50.291 146.2 52.5451C146.2 57.1427 138.211 58.84 136.404 60.7211C135.574 61.5858 135.157 62.4203 135.157 63.6938C135.157 64.3532 135.196 65.8217 136.965 65.8217C139.104 65.8217 143.549 63.1946 145.931 61.4106C148.557 59.4457 149.962 57.1088 149.962 54.0032C149.962 51.4157 148.418 49.2869 146.743 48.2451C145.236 47.3117 143.009 46.8652 141.417 46.2105C138.465 44.9983 139.337 43.4582 140.615 42.0792C144.538 37.8565 147.807 39.1309 149.573 37.151C150.322 36.3079 150.473 34.9666 150.473 34.5635C150.473 33.1581 149.455 32.1898 148.347 32.1898C147.27 32.1898 141.856 34.2592 138.38 37.5588ZM127.061 39.0038C128.088 39.0038 127.815 40.2057 127.815 40.6192C127.815 42.4023 124.239 51.9224 122.016 51.9224C121.522 51.9224 121.246 51.6276 121.246 50.6358C121.246 48.2338 124.716 39.0038 127.061 39.0038ZM103.882 41.6139C105.351 41.8004 105.238 42.6076 106.845 43.105C108.446 43.6042 109.434 43.3527 110.297 43.3527C111.162 43.3527 111.192 43.7257 111.192 45.3421C111.192 47.4115 110.322 52.513 106.454 52.513C102.715 52.513 102.354 47.7845 102.354 45.7122C102.354 43.105 102.895 41.4895 103.882 41.6139ZM105.438 38.7739C105.438 37.4467 106.504 36.9701 107.49 36.9701C108.643 36.9701 110.297 38.367 110.297 39.6123C110.297 40.314 109.735 41.1796 108.463 41.1796C107.349 41.1796 105.438 40.265 105.438 38.7739ZM20.3686 65.93H22.6038C24.8418 65.93 25.13 64.843 25.13 62.232L25.1169 40.6512C25.1169 39.2854 25.3863 39.0028 26.7521 38.8191C28.1235 38.6336 32.0863 38.2295 33.0772 38.2295C33.8816 38.2295 34.5155 38.4264 34.4157 40.0003V62.6068C34.4157 65.216 34.7218 65.7124 35.838 65.7124H37.9178C39.3806 65.7124 39.6943 64.3023 39.6943 62.6078C39.6943 61.1148 39.6773 41.239 39.6773 39.6245C39.6773 38.2135 39.8732 37.7811 41.5273 37.5927C42.0689 37.5287 44.6093 37.345 45.7547 37.345C48.411 37.345 49.1325 38.0703 48.0511 39.7658C47.3117 40.9244 44.874 46.9132 44.874 50.1874C44.874 51.8 45.767 54.9046 47.9909 54.9046C50.2101 54.9046 52.3784 51.6012 53.7904 49.2351C54.9913 47.2193 55.6064 47.257 56.2545 49.5629C56.6435 50.9296 56.9967 53.8694 58.6093 54.7567C59.1425 55.0497 59.9883 55.1429 60.6872 54.7473C63.9115 52.9294 67.001 45.6162 68.2858 40.0465C69.0394 36.7808 71.5958 37.2065 71.4319 40.0013V49.8285C71.4319 51.378 72.1261 53.8478 73.9375 54.7775C74.7654 55.2032 76.0719 55.0638 76.9338 54.7078C80.5235 53.2383 83.5886 41.4688 84.1424 39.5162C84.8206 37.0982 87.2225 37.6766 87.1001 39.8732V49.7635C87.1001 51.9686 88.0383 54.1718 89.3325 54.784C90.3846 55.2804 91.7109 55.207 92.6914 54.6983C93.9489 54.0522 95.0321 52.2597 95.8592 50.9287C96.8831 49.2878 97.5565 49.3001 98.8234 51.1774C99.5158 52.2097 101.418 55.0713 105.363 55.0713C110.954 55.0713 113.458 49.1484 113.458 45.4815C113.458 43.7445 113.656 42.552 114.521 42.0943C115.433 41.6139 116.83 40.946 117.573 40.946C118.759 40.946 118.127 42.5247 118.009 42.9948C117.773 43.9122 117.084 46.7691 117.084 48.7076C117.084 51.8961 118.233 55.0148 120.906 55.0148C123.557 55.0148 125.782 51.5325 126.522 50.3381C127.403 48.9101 128.188 48.9431 128.341 50.4172C128.465 51.5975 128.435 52.0016 128.435 52.0016C128.435 54.071 129.049 54.9969 130.145 54.9969H131.474C132.552 54.9969 133.74 54.0154 133.74 51.4873V12.4213C133.74 10.4367 133.351 10.0627 131.996 10.0627H130.903C129.545 10.0627 128.802 10.6844 128.802 12.4213V33.0441C128.802 34.035 128.449 34.5183 127.709 34.5183C126.368 34.5183 125.874 34.6501 125.105 35.0326C122.079 36.5208 118.586 38.2568 116.266 39.017C113.991 39.763 113.412 39.9457 112.764 38.9228C111.342 36.6649 109.792 34.2856 105.608 34.2856C102.807 34.2856 100.635 35.6627 99.1107 37.7237C97.4963 39.9071 97.1449 42.3166 96.4347 44.4566C94.8617 49.1984 92.2826 52.2672 92.2826 48.5682L92.2713 44.4048L92.3749 40.5438C92.3749 37.8245 89.3984 36.9362 87.6257 36.3955C85.4762 35.74 85.3123 34.5343 85.3123 32.4074C85.3123 30.255 85.0627 28.5106 83.2146 28.5106C82.2689 28.5106 79.867 29.218 79.867 32.4074C79.867 34.7679 82.2246 35.7447 82.2246 37.8405C82.2246 39.2534 80.6827 44.127 79.6814 46.4893C79.0211 48.0577 78.0528 50.047 77.4443 50.047C76.8603 50.047 76.7077 49.4018 76.7077 48.1029V39.9824C76.7077 37.4204 73.3111 36.5519 71.4319 35.9001C69.7581 35.3189 69.7204 34.2649 69.7204 32.1135C69.7204 28.8412 68.5731 28.1818 67.4221 28.1818C65.9423 28.1818 64.2732 29.2622 64.2732 31.9562C64.2732 34.7679 66.6073 35.2483 66.6073 37.6389C66.6073 39.146 64.3241 46.2718 62.9356 48.5522C61.9325 50.1949 61.4408 50.1177 60.9434 48.6464C60.3604 46.9179 59.8894 41.3567 59.4326 40.1388C58.9861 38.9454 57.1983 38.9454 56.5003 40.1247C55.5461 41.7373 52.5395 47.7779 50.5332 50.2496C50.3758 50.4408 48.9158 52.2418 48.9158 50.372C48.9158 48.052 52.1231 43.1332 54.6993 40.4657C56.7283 38.3614 59.214 37.8904 59.214 35.9764C59.214 33.9465 56.6878 34.036 54.8378 34.036C49.3614 34.036 43.333 34.4401 41.3304 34.5343C39.7621 34.6068 39.7216 34.3902 39.7216 32.6089V2.11371C39.7216 0.885428 39.1093 6.84664e-06 37.8113 6.84664e-06L37.1492 0.000948716C35.1146 0.000948716 34.4157 0.683853 34.4157 3.72631V32.9179C34.4157 34.6172 34.0719 35.1371 32.706 35.3085L26.7681 35.9001C25.5351 36.0084 25.2874 35.7286 25.2874 33.5396V3.72631C25.2874 -0.0291935 23.4261 6.84664e-06 22.4823 6.84664e-06H20.7698C19.8627 6.84664e-06 17.8837 0.911802 17.8837 3.72537V34.5333C17.8837 36.5839 17.7217 36.8806 15.9085 37.1425C14.1829 37.3902 4.89723 38.5064 1.78319 38.8804C0.624608 39.0179 0.175304 39.1356 0.0255356 39.6622C-0.0215612 39.827 0.00858075 40.4468 0.0208259 40.6041C0.0669809 41.2145 0.738582 41.563 1.51851 41.4745C3.12733 41.288 14.7386 39.8732 14.7386 39.8732C17.1339 39.5652 17.7594 39.6386 17.7594 41.5348V62.7312C17.7594 64.6339 18.6787 65.9281 20.3686 65.9281V65.93Z" fill="#EEE5DA"/>
</svg>
