<svg width="940" height="76" viewBox="0 0 940 76" fill="none" xmlns="http://www.w3.org/2000/svg">
<path d="M43.7942 31.1076V7.21428C43.7942 5.89277 44.2241 3.58844 44.8286 3.46227C46.9915 3.10367 49.1946 3.10367 51.3574 3.46227C51.6933 3.46227 52.009 5.26854 52.009 6.23809V54.0912C52.009 59.3042 51.8948 64.5304 52.009 69.7367C52.0896 72.2536 51.1828 73.1833 48.7177 72.8579C48.3012 72.8048 47.8714 72.8048 47.4482 72.8579C44.6473 73.2165 43.5457 72.2137 43.6129 69.2254C43.8009 60.2671 43.6129 51.2954 43.7405 42.3238C43.7405 39.6609 43.1359 38.7378 40.2544 38.7976C30.6559 38.9835 21.0642 38.864 11.4658 38.864H8.55062V69.6903C8.55062 72.1274 7.81848 73.1368 5.2862 72.8712C4.2518 72.7317 3.07634 73.1036 2.14941 72.7583C1.29636 72.2735 0.591087 71.5696 0.10747 70.7262C-0.134338 70.3676 0.10747 69.7035 0.10747 69.1856V6.62989C0.114187 3.9736 0.67169 2.65874 3.60026 3.10367C4.3324 3.20992 5.07798 3.20992 5.81012 3.10367C8.13417 2.77827 8.71182 3.80094 8.69167 5.93926C8.59764 14.2534 8.69167 22.5809 8.69167 31.0811L43.8009 31.1076H43.7942Z" fill="#EEE5DA"/>
<path d="M139.889 74.2753C136.564 74.2753 134.173 74.4346 131.755 74.1823C130.808 73.8834 130.042 73.1928 129.639 72.2963C127.557 67.6345 125.562 62.9263 123.681 58.1781C122.788 55.8804 121.753 54.7316 118.932 54.7316C111.349 54.9707 103.739 54.9507 96.1421 54.7316C93.4218 54.6519 92.2127 55.6812 91.3127 58.0254C89.6603 62.3087 87.5714 66.4193 86.0063 70.7291C84.9585 73.5913 83.2793 74.6538 80.3172 74.2819C78.5574 74.1823 76.7975 74.1823 75.0444 74.2819L107.393 1.59253H108.32C118.778 25.6187 129.182 49.6514 139.882 74.2753M108.185 21.6143L107.306 21.4616C103.752 29.7293 100.192 38.0103 96.4981 46.5901H118.697L108.185 21.6077V21.6143Z" fill="#EEE5DA"/>
<path d="M182.548 41.8853L203.914 71.7488C198.823 74.0465 194.215 72.818 191.427 68.8069C185.819 60.765 180.15 52.7297 174.487 44.6877C173.89 43.7979 173.01 43.1404 171.989 42.8018C171.895 43.8444 171.72 44.8803 171.707 45.9163C171.707 53.7391 171.613 61.5619 171.707 69.3847C171.707 72.0277 170.766 72.8312 168.221 72.8312C162.934 72.7515 162.921 72.8312 162.921 67.4987V7.77182C162.921 3.06353 162.921 2.87759 167.844 3.11002C174.024 3.40885 180.298 3.47526 186.316 4.68387C194.819 6.37062 199.32 12.6661 199.481 21.4385C199.656 31.2469 194.974 38.3658 186.705 40.8295C185.476 41.115 184.193 41.4271 182.548 41.8853ZM171.713 22.3549V27.3288C171.713 28.9957 171.807 30.6625 171.713 32.3227C171.619 33.9829 172.237 34.9524 174.037 34.72C177.376 34.4942 180.687 34.0293 183.958 33.3321C188.606 32.057 191.139 27.9199 191.058 22.7334C190.951 16.7966 188.506 12.925 183.609 11.7762C180.412 11.1719 177.181 10.7469 173.93 10.5145C172.385 10.3285 171.606 10.9727 171.7 12.6528C171.747 15.847 171.747 19.1209 171.747 22.3483L171.713 22.3615V22.3549Z" fill="#EEE5DA"/>
<path d="M255.882 53.1085C261.853 37.2703 267.502 22.3751 273.064 7.44008C275.482 0.985284 277.255 0.0290178 284.415 2.02788L256.345 74.5979L255.405 74.8503C246.008 50.6049 236.598 26.3596 226.945 1.4767C229.699 1.35717 232.467 1.39701 235.214 1.58959C235.959 1.69584 236.759 3.13024 237.128 4.10643C242.911 19.2075 248.668 34.3218 254.384 49.4561C254.747 50.399 255.15 51.3287 255.882 53.1085Z" fill="#EEE5DA"/>
<path d="M315.914 38.4916V65.0677H340.088C343.991 65.0677 346.046 68.3549 344.145 71.7616C343.561 72.4257 342.708 72.7975 341.821 72.7975C331.168 72.8639 320.515 72.7975 309.862 72.864C307.142 72.864 307.457 71.1639 307.457 69.4971V26.007C307.457 19.3198 307.538 12.6459 307.457 5.97862C307.457 3.84031 308.002 3.06334 310.305 3.08327C320.764 3.18952 331.215 3.20944 341.673 3.08327C345.26 3.0235 344.367 5.38096 344.541 7.30012C344.729 9.47164 344.414 10.8131 341.593 10.7467C333.902 10.5873 326.191 10.7467 318.5 10.667C316.411 10.667 315.733 11.2514 315.807 13.3299C315.934 18.1179 315.907 22.9191 315.807 27.7203C315.807 29.8586 316.431 30.6356 318.688 30.5891C325.754 30.4762 332.827 30.702 339.893 30.4962C343.077 30.4032 343.829 31.645 343.796 34.5072C343.796 37.2298 343.426 38.6775 340.081 38.5846C332.075 38.3322 324.162 38.4916 315.927 38.4916" fill="#EEE5DA"/>
<path d="M367.894 3.16359C370.729 3.04406 373.57 3.07726 376.398 3.26984C377.257 3.37609 378.178 4.62455 378.722 5.56754C383.994 14.5591 389.18 23.5905 394.721 33.1333C395.554 31.9844 396.219 31.0746 396.757 30.1582C401.156 22.5878 405.75 15.1036 409.848 7.36054C411.628 3.97376 413.777 2.5128 417.505 3.12374C418.667 3.31633 419.977 3.2632 421.999 3.36281C419.742 7.37382 417.841 10.8868 415.833 14.3466C410.654 23.285 405.374 32.1704 400.29 41.1686C399.531 42.6295 399.128 44.2499 399.128 45.8901C399 53.8125 398.94 61.7416 399.128 69.6573C399.195 72.7453 397.643 73.1039 395.212 72.918C392.787 72.732 390.564 73.4559 390.564 69.6573C390.772 61.6154 390.691 53.5801 390.564 45.5382C390.523 43.9045 390.093 42.2975 389.294 40.8631C382.577 29.1223 375.739 17.4213 368.996 5.71363C368.579 4.89018 368.21 4.04017 367.894 3.17687" fill="#EEE5DA"/>
<path d="M467.315 -0.00195312L521.752 55.1294L522.644 54.9368V6.69854C522.644 5.54969 523.359 3.44458 523.949 3.37818C526.277 3.19888 528.619 3.29849 530.919 3.67701C531.208 3.67701 531.503 4.95203 531.503 5.62938V74.7992C531.503 74.9719 531.29 75.1445 530.734 75.948L475.645 20.2855V24.5023C475.645 39.5237 475.514 54.5516 475.727 69.5729C475.727 73.1988 474.017 73.2851 471.222 73.2851C468.427 73.2851 466.889 73.1589 466.909 69.7124C467.074 47.5921 466.992 25.4719 467.005 3.35825C467.04 2.46176 467.184 1.59182 467.315 0.0046876" fill="#EEE5DA"/>
<path d="M563.208 37.9951V69.2796C563.208 73.0449 563.208 72.8855 558.455 73.0914C555.523 73.2043 554.514 72.3676 554.534 69.4124C554.637 48.4543 554.637 27.4895 554.534 6.51806C554.534 3.18441 556.018 2.86565 558.813 2.84573C561.601 2.81917 563.352 3.23754 563.29 6.704C563.029 17.1233 563.208 27.5625 563.208 37.9885" fill="#EEE5DA"/>
<path d="M645.612 19.1145C637.749 12.2214 629.625 8.69516 619.894 9.92369C612.965 10.7803 606.64 14.1738 602.218 19.4C592.645 29.8658 592.535 45.5579 601.957 56.1565C607.08 62.3856 614.812 66.0712 623.039 66.2106C631.554 66.4431 638.538 62.7641 645.488 56.9202C645.488 60.6988 645.646 63.6539 645.378 66.5825C645.378 67.3528 644.108 68.1763 643.243 68.7076C625.14 79.8374 599.924 72.9776 590.337 54.3635C581.039 36.5331 588.442 14.7914 606.88 5.79979C610.843 3.86733 615.128 2.63216 619.544 2.15402C627.62 1.15791 635.805 2.82474 642.776 6.88887C644.891 8.03772 645.886 9.4854 645.639 11.9093C645.426 13.9546 645.605 16.1129 645.605 19.1344" fill="#EEE5DA"/>
<path d="M677.662 39.0766C677.594 40.4446 677.498 41.5602 677.498 42.6692C677.498 51.6409 677.388 60.6125 677.498 69.5775C677.498 72.3002 676.735 73.2432 673.851 73.1369C668.817 72.951 668.804 73.1369 668.804 68.1962C668.804 47.6498 668.9 27.1034 668.708 6.55032C668.708 2.83151 670.568 2.9444 673.267 2.89792C675.966 2.85143 677.635 3.17683 677.504 6.53704C677.243 13.5231 677.422 20.5158 677.443 27.5085C677.443 28.6573 677.546 29.7331 677.621 31.1741H681.384C690.662 31.1741 699.94 31.0214 709.211 31.1741C712.418 31.2406 713.544 30.5167 713.413 27.2362C713.139 20.2501 713.516 13.2575 713.255 6.27141C713.111 2.5858 715.309 2.95104 717.781 2.82487C720.253 2.6987 721.901 2.97097 721.881 6.27141C721.73 27.3358 721.73 48.3936 721.881 69.4447C721.881 72.8912 720.274 73.0174 717.568 73.0174C714.862 73.0174 713.159 72.785 713.255 69.3915C713.482 60.4332 713.255 51.4483 713.4 42.4899C713.461 39.5415 712.507 38.8243 709.561 38.884C699.061 39.1696 688.513 39.07 677.649 39.07" fill="#EEE5DA"/>
<path d="M744.912 38.1517C744.912 18.2494 761.888 1.70724 782.27 1.76701C803.009 1.83341 820.205 18.3091 820.219 38.1119C820.233 57.9146 803.161 74.1778 782.497 74.1778C761.922 74.3505 745.098 58.3595 744.919 38.4572C744.919 38.3576 744.919 38.258 744.919 38.1583M753.537 37.7997C753.537 53.2793 766.544 66.2155 782.174 66.262C798.319 66.5874 811.683 54.1891 812.012 38.5767C812.349 22.9643 799.528 10.0414 783.383 9.72263C767.238 9.40388 753.874 21.7955 753.537 37.4079C753.537 37.5408 753.537 37.6736 753.537 37.8064" fill="#EEE5DA"/>
<path d="M851.904 65.0691C857.686 65.0691 863.07 65.2219 868.427 65.0094C871.277 64.8965 871.716 66.1582 871.455 68.3895C871.194 70.6208 872.403 73.1642 868.296 73.0645C860.859 72.872 853.422 72.9384 845.991 73.0645C843.794 73.0645 843.237 72.2477 843.251 70.3086V5.59485C843.251 3.56279 844 2.71278 846.101 2.93192C846.96 3.03153 847.825 3.03153 848.676 2.93192C851.334 2.59988 851.945 3.84834 851.931 6.19251V62.7714L851.911 65.0691H851.904Z" fill="#EEE5DA"/>
<path d="M930.799 16.0673C927.557 14.0352 924.515 11.5317 921.026 10.0973C917.318 8.56992 913.534 9.91135 910.43 12.2821C904.827 16.5521 905.451 23.9764 911.865 27.6288C915.546 29.7339 919.715 31.0754 923.444 33.0941C927.53 35.3321 932.021 37.4106 935.18 40.6181C942.816 48.3944 940.605 62.0411 931.108 69.4123C918.918 78.8753 899.937 73.4565 895.02 59.1524C894.141 56.589 894.237 54.8425 897.575 54.6234C898.11 54.5503 898.632 54.3976 899.12 54.1652C901.427 53.189 902.684 53.3749 903.398 56.257C904.95 61.7489 909.895 65.7068 915.766 66.1716C921.892 66.5568 927.605 63.1634 930.016 57.7047C932.282 52.3987 930.963 46.9533 925.978 43.9185C921.823 41.3818 917.188 39.5888 912.806 37.3973C910.286 36.2153 907.841 34.9004 905.479 33.4594C898.694 29.0964 896.806 22.7412 898.529 15.4165C900.171 8.44375 905.232 4.29993 912.161 2.60654C921.974 0.229161 930.277 3.25069 935.647 10.3563C937.213 12.4481 936.931 13.6302 934.658 14.7126C933.236 15.4032 931.89 16.2532 930.524 17.0103L930.799 16.0673Z" fill="#EEE5DA"/>
</svg>
