<svg width="602" height="58" viewBox="0 0 602 58" fill="none" xmlns="http://www.w3.org/2000/svg">
<path d="M12.0486 1.36121V22.3833H34.2302V1.36121H46.2788V56.1597H34.2302V32.5162H12.0486V56.1597H0V1.36121H12.0486Z" fill="#EEE5DA"/>
<path d="M55.9578 17.5941C57.1677 14.0652 58.9321 11.0405 61.2511 8.41903C63.5701 5.79758 66.3932 3.78107 69.7204 2.26869C73.0477 0.806726 76.8286 0.0505371 81.0633 0.0505371C85.2979 0.0505371 89.0789 0.806726 92.4061 2.26869C95.7334 3.73066 98.5565 5.79758 100.875 8.41903C103.194 11.0405 104.959 14.0652 106.169 17.5941C107.379 21.123 108.034 24.904 108.034 28.9874C108.034 33.0708 107.429 36.7005 106.169 40.179C104.959 43.6575 103.194 46.6318 100.875 49.2028C98.5565 51.7739 95.7334 53.7904 92.4061 55.2524C89.0789 56.7143 85.2979 57.4201 81.0633 57.4201C76.8286 57.4201 73.0981 56.7143 69.7204 55.2524C66.3428 53.7904 63.5197 51.7739 61.2511 49.2028C58.9321 46.6318 57.1677 43.6575 55.9578 40.179C54.7479 36.7005 54.0925 33.0204 54.0925 28.9874C54.0925 24.9544 54.6975 21.0726 55.9578 17.5941ZM66.9982 35.6923C67.5527 37.86 68.4097 39.8261 69.5692 41.5401C70.7287 43.3046 72.2915 44.6657 74.1568 45.7244C76.0724 46.783 78.341 47.2872 81.0633 47.2872C83.7856 47.2872 86.0541 46.783 87.9698 45.7244C89.8855 44.6657 91.3979 43.3046 92.5574 41.5401C93.7169 39.7757 94.5739 37.86 95.1284 35.6923C95.6829 33.5245 95.935 31.2559 95.935 28.9874C95.935 26.7188 95.6829 24.2486 95.1284 21.98C94.5739 19.7115 93.7169 17.695 92.5574 15.9305C91.3979 14.1661 89.8351 12.7545 87.9698 11.6959C86.0541 10.6372 83.7856 10.1331 81.0633 10.1331C78.341 10.1331 76.022 10.6372 74.1568 11.6959C72.2411 12.7545 70.7287 14.1661 69.5692 15.9305C68.4097 17.695 67.5527 19.7115 66.9982 21.98C66.4436 24.2486 66.1916 26.5676 66.1916 28.9874C66.1916 31.4072 66.4436 33.5245 66.9982 35.6923Z" fill="#EEE5DA"/>
<path d="M133.795 1.56274L146.6 39.2714H146.751L158.901 1.56274H175.89V56.3613H164.597V17.5435H164.446L151.036 56.4117H141.761L128.3 17.9468H128.149V56.4117H116.857V1.56274H133.846H133.795Z" fill="#EEE5DA"/>
<path d="M227.916 1.36121V11.4941H198.979V23.2403H225.546V32.617H198.979V46.0772H228.521V56.2101H186.93V1.36121H227.916Z" fill="#EEE5DA"/>
<path d="M237.393 17.947C238.452 14.519 240.065 11.4942 242.233 8.87275C244.4 6.2513 247.072 4.13397 250.349 2.57118C253.575 1.00839 257.356 0.252197 261.692 0.252197C266.027 0.252197 269.758 1.00839 272.984 2.57118C276.211 4.13397 278.883 6.2513 281.05 8.87275C283.218 11.4942 284.831 14.519 285.89 17.947C286.949 21.3751 287.503 25.0048 287.503 28.7857C287.503 32.5667 286.949 36.1964 285.89 39.6245C284.831 43.0525 283.218 46.0773 281.05 48.6987C278.883 51.3202 276.211 53.3871 272.984 54.9499C269.758 56.5127 265.977 57.2689 261.692 57.2689C257.407 57.2689 253.626 56.5127 250.349 54.9499C247.123 53.3871 244.4 51.3202 242.233 48.6987C240.065 46.0773 238.452 43.0525 237.393 39.6245C236.334 36.1964 235.78 32.5667 235.78 28.7857C235.78 25.0048 236.334 21.3751 237.393 17.947ZM242.233 37.5575C243.039 40.4311 244.249 43.0525 245.913 45.3211C247.576 47.5896 249.694 49.4045 252.315 50.8161C254.937 52.1772 258.062 52.883 261.692 52.883C265.322 52.883 268.447 52.1772 271.018 50.8161C273.589 49.4549 275.707 47.5896 277.37 45.3211C279.034 43.0525 280.244 40.4815 281.05 37.5575C281.857 34.684 282.26 31.7601 282.26 28.7857C282.26 25.8114 281.857 22.837 281.05 19.9635C280.244 17.09 279.034 14.519 277.37 12.2504C275.707 9.98183 273.589 8.16698 271.018 6.75543C268.447 5.39428 265.322 4.68851 261.692 4.68851C258.062 4.68851 254.937 5.39428 252.315 6.75543C249.694 8.11657 247.576 9.98183 245.913 12.2504C244.249 14.519 243.039 17.09 242.233 19.9635C241.426 22.837 241.023 25.761 241.023 28.7857C241.023 31.8105 241.426 34.684 242.233 37.5575Z" fill="#EEE5DA"/>
<path d="M332.219 1.36121V5.79752H302.677V25.6097H328.942V30.046H302.677V56.1597H297.435V1.36121H332.219Z" fill="#EEE5DA"/>
<path d="M349.511 42.6491C350.166 43.9094 351.073 44.9681 352.182 45.7747C353.291 46.5813 354.552 47.1358 356.064 47.5391C357.526 47.9424 359.089 48.0937 360.652 48.0937C361.71 48.0937 362.87 47.9928 364.13 47.8416C365.34 47.6399 366.5 47.3375 367.609 46.7829C368.667 46.2788 369.575 45.573 370.281 44.6656C370.986 43.7582 371.339 42.6491 371.339 41.2375C371.339 39.7756 370.885 38.5657 369.928 37.6078C368.97 36.7004 367.76 35.8938 366.197 35.2888C364.685 34.6839 362.92 34.1294 360.954 33.6756C358.988 33.2219 357.022 32.7178 355.056 32.1633C352.989 31.6591 351.023 31.0038 349.057 30.298C347.091 29.5418 345.377 28.584 343.814 27.4245C342.302 26.265 341.041 24.7526 340.083 22.9882C339.126 21.2237 338.672 19.1064 338.672 16.5858C338.672 13.7627 339.277 11.3428 340.487 9.27593C341.697 7.20901 343.259 5.49498 345.225 4.08342C347.192 2.72228 349.359 1.66362 351.83 1.00825C354.3 0.352889 356.72 0 359.19 0C362.063 0 364.786 0.302476 367.457 0.95784C370.079 1.6132 372.448 2.62146 374.465 4.08342C376.532 5.49498 378.145 7.36025 379.355 9.5784C380.565 11.7966 381.17 14.5188 381.17 17.6948H369.524C369.424 16.0816 369.071 14.7205 368.466 13.6114C367.861 12.5527 367.105 11.6957 366.147 11.0908C365.189 10.4858 364.08 10.0321 362.819 9.78005C361.559 9.52799 360.198 9.37675 358.736 9.37675C357.778 9.37675 356.77 9.47758 355.812 9.67923C354.854 9.88088 353.947 10.2338 353.14 10.7379C352.334 11.242 351.678 11.8974 351.174 12.6536C350.67 13.4098 350.418 14.418 350.418 15.5775C350.418 16.6362 350.62 17.5436 351.023 18.199C351.426 18.8543 352.233 19.4593 353.443 20.0642C354.653 20.6188 356.316 21.1733 358.434 21.7783C360.551 22.3328 363.324 23.0386 366.752 23.946C367.76 24.1477 369.171 24.5005 371.037 25.0551C372.852 25.6096 374.666 26.4666 376.431 27.6261C378.246 28.7856 379.758 30.3988 381.069 32.3649C382.38 34.331 383.035 36.8516 383.035 39.9268C383.035 42.4474 382.531 44.7664 381.573 46.9342C380.615 49.1019 379.153 50.9168 377.237 52.4796C375.322 54.0423 372.952 55.2523 370.079 56.1093C367.256 56.9663 363.929 57.42 360.198 57.42C357.173 57.42 354.249 57.0671 351.426 56.3109C348.603 55.5547 346.082 54.3952 343.915 52.8324C341.747 51.2697 340.033 49.2027 338.722 46.7829C337.462 44.3127 336.807 41.3888 336.857 38.0111H348.502C348.502 39.8764 348.855 41.4392 349.511 42.6995V42.6491Z" fill="#EEE5DA"/>
<path d="M427.096 15.9808C426.39 14.8213 425.482 13.8131 424.424 12.956C423.365 12.099 422.155 11.3933 420.794 10.9395C419.433 10.4354 418.021 10.2338 416.509 10.2338C413.787 10.2338 411.468 10.7379 409.602 11.7966C407.687 12.8552 406.174 14.2668 405.015 16.0312C403.855 17.7957 402.998 19.8122 402.444 22.0807C401.889 24.3493 401.637 26.6683 401.637 29.0881C401.637 31.5079 401.889 33.6252 402.444 35.793C402.998 37.9607 403.855 39.9268 405.015 41.6408C406.174 43.4053 407.737 44.7664 409.602 45.8251C411.518 46.8837 413.787 47.3879 416.509 47.3879C420.189 47.3879 423.063 46.2788 425.13 44.0102C427.196 41.7416 428.457 38.7673 428.91 35.0872H440.556C440.253 38.5152 439.447 41.5904 438.186 44.3631C436.926 47.1358 435.212 49.5052 433.095 51.4209C430.977 53.387 428.558 54.8489 425.734 55.8572C422.911 56.8654 419.836 57.3696 416.459 57.3696C412.274 57.3696 408.493 56.6638 405.116 55.2018C401.738 53.7398 398.915 51.7233 396.646 49.1523C394.327 46.5813 392.563 43.6069 391.353 40.1284C390.143 36.65 389.488 32.9699 389.488 28.9368C389.488 24.9038 390.093 21.0221 391.353 17.5436C392.563 14.0147 394.327 10.99 396.646 8.36849C398.965 5.74704 401.788 3.73053 405.116 2.21816C408.443 0.756189 412.224 0 416.459 0C419.483 0 422.357 0.453713 425.029 1.31073C427.701 2.16774 430.12 3.42806 432.238 5.09167C434.355 6.75529 436.119 8.82221 437.481 11.2924C438.842 13.7626 439.749 16.5858 440.102 19.7617H428.457C428.255 18.4006 427.801 17.0899 427.096 15.9808Z" fill="#EEE5DA"/>
<path d="M491.674 1.36121V11.4941H462.738V23.2403H489.305V32.617H462.738V46.0772H492.279V56.2101H450.689V1.36121H491.674Z" fill="#EEE5DA"/>
<path d="M514.259 1.36121L537.147 38.112H537.298V1.36121H548.59V56.1597H536.542L513.755 19.4593H513.604V56.1597H502.312V1.36121H514.31H514.259Z" fill="#EEE5DA"/>
<path d="M556.707 11.4941V1.36121H601.624V11.4941H585.19V56.1597H573.141V11.4941H556.707Z" fill="#EEE5DA"/>
</svg>
