<svg width="151" height="29" viewBox="0 0 151 29" fill="none" xmlns="http://www.w3.org/2000/svg">
<path d="M121.317 27.4638H116.326C113.092 23.7037 110.495 19.0778 107.27 15.3601C107.108 15.1733 107.091 14.8593 107.066 14.8593H103.807V27.4638H99.325V0.625122H110.011C118.194 0.625122 121.937 9.80052 113.508 13.8747C113.126 14.0614 111.836 14.2397 111.946 14.7405L121.309 27.4553L121.317 27.4638ZM109.001 2.4585C107.439 2.23782 105.428 2.61977 103.807 2.4585V13.4418H107.779C108.78 13.4418 111.149 12.279 111.879 11.5405C114.807 8.56978 113.092 3.04417 109.001 2.46699V2.4585Z" fill="#EEE5DA"/>
<path d="M47.7358 27.4638L43.2627 18.5006L31.9908 18.5515C31.3967 19.604 28.2816 27.1667 27.8572 27.4299C27.5432 27.6251 26.1427 27.362 25.6504 27.4638L25.7438 26.8442L38.2888 0.345029C38.501 -0.0708773 38.9848 0.00551363 39.3923 0.00551363L52.1071 27.4723H47.7273L47.7358 27.4638ZM32.9754 16.6927H42.5413L37.9578 6.52421L32.9754 16.6927Z" fill="#EEE5DA"/>
<path d="M66.7656 0.625122V19.0269C66.7656 19.7483 67.555 21.6326 67.9539 22.3117C71.3066 28.0665 80.6093 27.3535 82.7992 21.013C82.8925 20.7414 83.249 19.5871 83.249 19.4343V0.625122H85.2861V19.8417C85.2861 19.969 84.7344 21.7515 84.6326 22.0316C81.6533 29.781 67.4022 30.0357 63.4723 22.9313C63.1922 22.422 62.2925 20.0794 62.2925 19.638V0.625122H66.7741H66.7656Z" fill="#EEE5DA"/>
<path d="M150.838 0.625122V2.4585H136.79V11.8121H146.153V13.6455H136.79V25.6389H150.838V27.4638H132.309V0.625122H150.838Z" fill="#EEE5DA"/>
<path d="M4.4816 0.625122V25.6389H17.9094V27.4638H0V0.625122H4.4816Z" fill="#EEE5DA"/>
</svg>
