<svg width="20" height="21" viewBox="0 0 20 21" fill="none" xmlns="http://www.w3.org/2000/svg">
<path d="M6.56893 0C6.94287 0.0812242 7.32106 0.121836 7.69287 0.219511C8.51193 0.435424 9.26512 0.842059 9.93546 1.33609C10.0428 1.34585 10.6042 0.906832 10.771 0.811728C11.2958 0.512021 11.9666 0.260123 12.5637 0.136745C12.8229 0.0832805 13.1012 0.0791679 13.3498 0H19.9187V1.48723H13.3763C13.2653 1.48723 12.8532 1.58182 12.7135 1.61523C12.1106 1.75866 11.5003 2.06556 11.0196 2.43981C12.2179 4.05093 12.4967 6.08051 12.0256 7.99956L13.3737 7.74149L19.9182 7.74355V9.23077H13.217C12.9519 9.23077 12.152 9.51197 11.8838 9.63227C11.769 9.68367 11.2814 9.91295 11.283 10.025C11.2836 10.0764 12.1031 10.4568 12.2232 10.5005C12.4293 10.5751 13.0837 10.7689 13.2701 10.7689H19.9187V12.4098L13.4268 12.4119C12.9519 12.3594 12.4845 12.2808 12.0256 12.1533C12.4038 13.7418 12.3071 15.3843 11.5582 16.854C11.4944 16.9795 11.1247 17.5043 11.1242 17.5635C11.1221 17.7573 12.0713 18.1706 12.2774 18.2415C12.7135 18.3911 13.1309 18.4549 13.5888 18.5104H19.9187V20.1518L13.5862 20.1539C12.2577 20.065 11.027 19.6064 9.98326 18.8157C9.89881 18.808 9.21254 19.2985 9.0415 19.3915C8.37277 19.7555 7.66525 19.9745 6.90728 20.0943C4.61317 20.2217 2.30048 20.1184 0.000531166 20.1518V18.5109H6.38355C6.92906 18.442 7.44163 18.3418 7.94518 18.1243C8.10506 18.0554 8.79717 17.7146 8.79557 17.5629C8.79504 17.5033 8.40782 16.9502 8.34196 16.8206C7.60629 15.3725 7.52396 13.7135 7.89365 12.1523C7.43473 12.2793 6.9673 12.3584 6.49244 12.4109L0.000531166 12.4088V10.7679L6.54237 10.7668C6.83717 10.8414 8.6341 10.1592 8.63622 10.0235C8.63782 9.92735 8.57248 9.92786 8.51246 9.88674C8.02963 9.55464 7.18508 9.27704 6.59495 9.22974C4.59193 9.07089 2.33235 9.30017 0.288954 9.23129C0.188033 9.22769 0.0881735 9.23643 0 9.17782V7.74201L6.54449 7.73995L7.89259 7.99802C7.41932 6.0728 7.70031 4.05607 8.89862 2.43827C8.19801 1.88049 7.33699 1.57719 6.4356 1.48671H0V0H6.56893ZM9.9073 8.6658C9.99442 8.72903 10.3535 7.95278 10.3848 7.87207C10.8358 6.71539 10.8013 5.26158 10.2701 4.13472C10.1761 3.93475 10.0316 3.47722 9.84303 3.75842C8.92837 5.12072 9.10046 7.29013 9.9073 8.6658ZM10.0114 11.3323C9.88765 11.3061 9.92696 11.3488 9.89349 11.3981C9.20776 12.4242 9.08506 13.931 9.38039 15.0969C9.42607 15.2779 9.81063 16.325 9.93333 16.3574C10.0178 16.38 10.1091 16.1657 10.1458 16.1014C10.9712 14.6574 10.8268 12.7486 10.0114 11.3318V11.3323Z" fill="#EEE5DA"/>
</svg>
