<svg width="461" height="58" viewBox="0 0 461 58" fill="none" xmlns="http://www.w3.org/2000/svg">
<path d="M436.242 33.6718L460.865 0.286883V56.352H452.521V26.2047L436.242 47.893L419.964 26.2047V56.352H411.619V0.286883L436.242 33.6718ZM245.162 41.7865C245.014 38.9177 243.662 33.1964 236.186 27.1637L229.613 21.4178C226.85 19.2129 225.49 16.7949 225.457 14.0163C225.416 10.8278 227.547 8.58189 230.768 8.41796C230.809 8.40976 234.867 7.96714 237.285 11.3524L237.383 11.4917L244.055 7.02453L243.973 6.88519C242.859 5.04914 237.645 0.139343 230.67 0.524586C226.695 0.721305 223.178 2.2131 220.752 4.72127C218.228 7.32781 217.006 10.8114 217.203 14.8113C217.441 19.5162 220.162 23.8523 225.769 28.4506L231.916 33.8931C235.326 36.6964 236.859 39.0652 237.031 41.8357C237.162 43.9013 236.498 45.8603 235.162 47.3602C233.998 48.6635 232.686 49.2865 230.891 49.3766L230.49 49.393C225.301 49.4094 223.211 45.7127 221.957 43.5078L221.637 42.9505L214.539 46.393C215.195 48.2127 219.055 57.311 230.375 57.2782H230.572C234.686 57.0733 238.449 55.4258 241.162 52.6389C243.949 49.7701 245.367 45.9176 245.162 41.7865ZM81.0813 0C65.1552 0 52.2045 12.9589 52.2045 28.885C52.2045 44.8111 65.1634 57.77 81.0895 57.77C97.0155 57.77 109.974 44.8111 109.974 28.885C109.966 12.9589 97.0073 0 81.0813 0ZM81.0813 49.4012C69.7699 49.4012 60.565 40.1964 60.565 28.885C60.565 17.5736 69.7699 8.36878 81.0813 8.36878C92.3926 8.36878 101.597 17.5736 101.597 28.885C101.606 40.1964 92.4008 49.4012 81.0813 49.4012ZM371.972 0C356.046 0 343.087 12.9589 343.087 28.885C343.087 44.8111 356.046 57.77 371.972 57.77C387.898 57.77 400.857 44.8111 400.857 28.885C400.857 12.9589 387.898 0 371.972 0ZM371.972 49.4012C360.661 49.4012 351.456 40.1964 351.456 28.885C351.456 17.5736 360.661 8.36878 371.972 8.36878C383.284 8.36878 392.488 17.5736 392.488 28.885C392.488 40.1964 383.284 49.4012 371.972 49.4012ZM41.2537 57.7454V1.43441H32.885V36.4095L0 0.286883V56.352H8.34419V21.9015L8.64747 22.2211L41.2537 57.7454ZM287.391 1.43441H252.285V9.10648H265.506V56.352H274.17V9.10648H287.391V1.43441ZM324.03 35.68L324.21 35.5981C325.137 35.1554 326.005 34.639 326.776 34.0653C331.276 30.7456 333.964 25.2129 333.964 19.2703C333.964 9.44254 326.677 1.44261 317.71 1.44261H298.383V56.3602H306.743V37.098H306.915C306.932 37.098 311.456 37.098 314.817 37.0898H314.907L314.956 37.1636L327.653 56.352H337.645L324.03 35.68ZM316.792 28.6719H306.751V9.59008H316.792C321.604 9.59008 325.514 13.8687 325.514 19.131C325.505 24.3932 321.596 28.6719 316.792 28.6719ZM184.171 1.43441H170.605V56.352H184.171C197.474 56.352 207.957 44.0324 207.957 28.8932C207.957 13.754 197.384 1.43441 184.171 1.43441ZM183.925 48.4668H178.875V9.31959H183.925C192.908 9.31959 199.72 18.0982 199.72 28.8932C199.728 39.6882 192.916 48.4668 183.925 48.4668ZM146.491 35.68L146.671 35.5981C147.597 35.1554 148.466 34.639 149.236 34.0653C153.736 30.7456 156.425 25.2129 156.425 19.2703C156.425 9.44254 149.138 1.44261 140.171 1.44261H120.843V56.3602H129.204V37.098H129.376C129.392 37.098 133.917 37.098 137.277 37.0898H137.368L137.417 37.1636L150.113 56.352H160.105L146.491 35.68ZM139.245 28.6719H129.204V9.59008H139.245C144.056 9.59008 147.966 13.8687 147.966 19.131C147.966 24.3932 144.056 28.6719 139.245 28.6719Z" fill="#EEE5DA"/>
</svg>
