<svg width="142" height="65" viewBox="0 0 142 65" fill="none" xmlns="http://www.w3.org/2000/svg">
<path d="M27.0918 65C10.2919 65 0 49.0566 0 32.938C0 16.3814 10.5189 0 27.6972 0C42.5296 0 54.6377 13.9286 54.6377 32.6752C54.6377 50.5458 42.8323 65 27.0918 65ZM27.0918 62.9852C38.5188 62.9852 47.6755 53.4367 47.6755 33.2008C47.6755 11.0377 37.308 1.92722 27.0918 1.92722C17.027 1.92722 7.03782 10.7749 7.03782 32.6752C7.03782 53.7871 16.0432 62.9852 27.0918 62.9852Z" fill="#EEE5DA"/>
<path d="M74.4162 52.0533V52.3227C73.2969 52.2688 71.5912 52.2149 69.7789 52.2149C67.8068 52.2149 66.3143 52.2688 65.1417 52.3227V52.0533C67.1138 51.7301 67.8068 51.4608 67.8068 47.1515V18.01C66.6874 18.9796 65.0884 20.1108 63.3827 21.242L63.1162 20.6494C66.4209 18.3871 70.5252 15.6399 71.4846 12.2463H71.7511V47.1515C71.7511 51.4608 72.444 51.7301 74.4162 52.0533Z" fill="#EEE5DA"/>
<path d="M93.9713 52.7536C87.6284 52.7536 80.0062 47.367 80.0062 33.1464C80.0062 23.0195 84.8034 12.785 94.0246 12.785C103.246 12.785 108.043 23.0195 108.043 33.1464C108.043 47.367 100.421 52.7536 93.9713 52.7536ZM93.9713 51.5147C100.048 51.5147 103.033 45.4278 103.033 32.5C103.033 19.7876 100.101 14.0239 93.9713 14.0239C87.9482 14.0239 85.0166 19.7876 85.0166 32.5C85.0166 45.4278 88.0015 51.5147 93.9713 51.5147Z" fill="#EEE5DA"/>
<path d="M127.233 52.7536C120.89 52.7536 113.268 47.367 113.268 33.1464C113.268 23.0195 118.065 12.785 127.286 12.785C136.507 12.785 141.305 23.0195 141.305 33.1464C141.305 47.367 133.682 52.7536 127.233 52.7536ZM127.233 51.5147C133.309 51.5147 136.294 45.4278 136.294 32.5C136.294 19.7876 133.363 14.0239 127.233 14.0239C121.21 14.0239 118.278 19.7876 118.278 32.5C118.278 45.4278 121.263 51.5147 127.233 51.5147Z" fill="#EEE5DA"/>
</svg>
