<svg width="318" height="61" viewBox="0 0 318 61" fill="none" xmlns="http://www.w3.org/2000/svg">
<path d="M109.404 40.7415C109.404 50.8077 103.973 57.0404 95.2175 57.0404C86.4618 57.0404 81.7547 51.4075 81.7547 41.5499V1.709L75.8545 3.53447V40.3438C75.8545 52.4897 82.8108 59.7395 94.4613 59.7395C105.323 59.7395 112.064 52.568 112.064 41.0284V1.68292L109.404 2.56958V40.7415Z" fill="#EEE5DA"/>
<path d="M162.239 2.47842V48.0696L134.629 1.76779L134.576 1.68303L131.982 2.55013V58.8138L134.681 57.9141V12.4598L162.369 58.9116L165.114 58.0575V1.67651H164.853L162.239 2.47842Z" fill="#EEE5DA"/>
<path d="M48.7009 48.7411L48.6097 48.8389L48.2967 49.1648C36.0074 61.4672 20.1649 54.7456 12.6479 47.209C8.04508 42.6127 4.9157 36.6147 4.06816 30.7667C3.01199 23.5104 5.43074 16.7236 11.0897 11.0907C15.849 6.29233 21.4493 3.82794 27.4538 3.82794C28.5447 3.82987 29.6341 3.91049 30.7135 4.06917C36.5811 4.92323 42.54 8.05261 47.1428 12.6619C51.6262 17.1075 54.5922 22.8547 55.6182 29.0846C56.2009 32.5369 55.9305 36.0793 54.8305 39.4031C53.7305 42.7269 51.8344 45.7312 49.3073 48.1543L48.9682 48.4803L48.877 48.565L48.6944 48.7476L48.7009 48.7411ZM31.4633 0.000972982H31.0786C22.8852 0.122141 15.0683 3.46154 9.31639 9.29784C3.46942 15.0677 0.125562 22.9051 0.0064864 31.1187C-0.0743766 34.9233 0.601523 38.706 1.99493 42.2472C3.38833 45.7883 5.47146 49.0173 8.12331 51.7466C13.5195 57.0687 20.8004 60.0424 28.3795 60.0199H28.6012C36.8171 59.8896 44.6505 56.5257 50.4025 50.6578L50.4938 50.5665C56.4047 44.7853 59.791 36.902 59.9145 28.6348C59.9573 24.8431 59.2513 21.0802 57.8372 17.5617C56.4231 14.0433 54.3287 10.8384 51.6738 8.13084C46.2732 2.86093 39.0088 -0.0612264 31.4633 0.000972982Z" fill="#EEE5DA"/>
<path d="M254.204 26.705C244.118 22.0696 241.654 19.5335 241.654 13.8159C241.654 8.09824 246.1 3.69755 252.222 3.69755C254.751 3.67754 257.221 4.46272 259.275 5.93949C261.328 7.41627 262.858 9.50804 263.644 11.9122L263.977 13.0075L268.104 10.028L267.817 9.41519C265.594 4.60377 259.446 1.23969 252.887 1.23969C243.929 1.23969 237.168 7.40065 237.168 15.5827C237.168 22.5651 241.432 27.3179 251.89 31.9924C261.917 36.4843 264.981 39.555 264.981 45.1097C264.981 51.6749 260.059 56.4211 252.737 56.4211C246.941 56.4211 241.152 52.3529 239.548 47.5871L239.196 46.544L235.076 49.4387L235.441 50.0906C238.277 55.1172 245.507 58.905 252.261 58.905C262.386 58.905 269.734 52.0139 269.734 43.043C269.734 36.1258 265.822 31.9989 254.198 26.7115" fill="#EEE5DA"/>
<path d="M301.523 26.7048C291.437 22.0694 288.973 19.5333 288.973 13.8156C288.973 8.098 293.386 3.69731 299.541 3.69731C302.074 3.67129 304.549 4.45294 306.608 5.92887C308.666 7.40479 310.201 9.49821 310.989 11.9054L311.322 13.0007L315.449 10.0213L315.162 9.40843C312.912 4.60352 306.764 1.23944 300.206 1.23944C291.248 1.23944 284.487 7.40041 284.487 15.5824C284.487 22.5649 288.751 27.3176 299.208 31.9921C309.242 36.4776 312.293 39.5483 312.293 45.1029C312.293 51.6681 307.371 56.4143 300.049 56.4143C294.254 56.4143 288.464 52.3461 286.86 47.5803L286.508 46.5372L282.388 49.4319L282.753 50.0838C285.589 55.1104 292.819 58.8983 299.573 58.8983C309.698 58.8983 317.046 52.0071 317.046 43.0362C317.046 36.119 313.134 31.9921 301.51 26.7048" fill="#EEE5DA"/>
<path d="M209.759 37.0646H191.387L200.515 10.5366L209.759 37.0646ZM203.416 1.65045L200.541 2.6023L181.165 58.4683L181.08 58.7095L184.34 57.6403L190.624 39.4834H210.542L217.335 58.7616L222.929 57.0274L203.487 1.7678L203.416 1.65045Z" fill="#EEE5DA"/>
</svg>
