<svg width="81" height="61" viewBox="0 0 81 61" fill="none" xmlns="http://www.w3.org/2000/svg">
<path d="M18.7666 0.118715C16.3674 0.54191 14.6005 1.83754 13.6487 3.86237C13.2901 4.63063 13.1858 5.14498 13.1793 6.14763C13.1727 6.91589 13.2379 7.39117 13.4335 8.00969C13.4596 8.10084 13.3227 8.12037 12.2404 8.15292C11.419 8.17246 10.7409 8.23756 10.1998 8.32871C8.43948 8.63472 6.63353 9.40298 5.19269 10.4577C2.03719 12.7755 0.0160957 17.4046 0.413794 21.4478C0.785414 25.2435 2.77391 28.284 5.85118 29.7489C8.65462 31.0901 11.8101 31.3961 14.7635 30.6214C16.1131 30.2698 17.743 29.5536 18.7992 28.8504C20.3704 27.8087 22.1112 25.9922 23.4933 23.9544C25.221 21.4152 26.9748 17.7171 28.5591 13.2899L29.009 12.0333L29.9282 11.5515C32.0471 10.4447 34.8962 8.63472 36.311 7.50836C37.8431 6.27784 39.0948 4.86502 39.5773 3.81028C40.0923 2.69044 40.0402 1.47945 39.4599 0.926042C39.0622 0.554932 38.8536 0.483314 38.1365 0.483314C36.0567 0.496335 32.7838 1.97426 30.502 3.92097C28.6243 5.52911 26.6684 8.19199 25.1754 11.1674L24.8103 11.8901L24.4061 11.9356C23.4281 12.0333 21.707 11.9487 20.566 11.7403C19.575 11.5645 19.5685 11.558 19.1382 10.9721C18.6427 10.2949 17.8408 9.52668 17.2606 9.18161C16.739 8.87561 15.7806 8.51101 15.1612 8.38731L14.7505 8.30918L14.5223 7.8339C13.9551 6.64244 14.1246 4.89106 14.933 3.60194C16.1001 1.72686 18.2581 0.737231 20.9116 0.860935C22.5219 0.939063 23.6237 1.2646 24.7451 2.00682C25.7035 2.63836 26.8901 3.85586 27.2812 4.6111L27.3595 4.76736L27.6268 4.50042C27.9397 4.18791 27.9332 4.18139 27.4247 3.41964C26.2251 1.6292 24.3279 0.463782 22.0329 0.0926718C21.218 -0.044053 19.6076 -0.0245209 18.7666 0.118715ZM38.6711 1.35575C39.0362 1.52503 39.1731 1.79197 39.1731 2.33886C39.1731 3.47173 38.306 4.81944 36.7543 6.10205C35.2352 7.35211 32.4318 9.18161 30.4237 10.2363C29.9478 10.4838 29.5436 10.6726 29.524 10.653C29.4718 10.6075 29.8369 9.7806 30.2738 8.94723C31.1213 7.31955 32.0993 5.9458 33.2858 4.72178C35.0722 2.87925 36.6565 1.68128 37.804 1.32319C38.1756 1.206 38.3516 1.21251 38.6711 1.35575ZM13.5639 9.01885C13.8051 9.04489 13.8703 9.09698 14.2485 9.57877C15.1286 10.6921 16.4717 11.571 18.3298 12.2482C18.6623 12.3653 18.9491 12.5021 18.9622 12.5476C19.0535 12.7755 19.1447 14.1688 19.1056 14.8069C18.9296 17.7823 17.9125 19.6964 15.1482 22.2746C14.1702 23.1861 12.8794 24.2539 12.5012 24.4687C12.423 24.5078 12.436 24.5729 12.5925 24.8203C12.6903 24.9896 12.8011 25.1263 12.8402 25.1263C12.9446 25.1263 13.8834 24.4687 14.5679 23.9218C16.1196 22.6783 17.3192 21.5129 18.0103 20.5819C18.7927 19.5271 19.4642 18.1599 19.7511 17.027C19.9597 16.2132 20.0901 14.2795 19.9988 13.4071C19.9662 13.0685 19.9401 12.782 19.9532 12.769C19.9597 12.756 20.3443 12.7951 20.8072 12.8602C21.3419 12.9253 22.1307 12.9708 22.9848 12.9774L24.3279 12.9839L24.0084 13.7651C22.0199 18.6156 20.3443 21.6822 18.2255 24.345C17.6322 25.0873 15.898 26.8712 15.2199 27.4311C13.929 28.5054 12.599 29.1369 11.1191 29.3843C10.4084 29.5015 8.79154 29.521 8.20477 29.4169C7.23986 29.2476 5.87726 28.6161 4.91235 27.8934C4.22127 27.379 3.2368 26.3568 2.8391 25.7514C1.89375 24.2864 1.26135 21.7733 1.35262 19.8266C1.43086 18.1794 1.85464 16.6233 2.66959 15.0022C3.86921 12.6193 5.34917 11.1609 7.68972 10.054C9.58693 9.15557 11.6667 8.79097 13.5639 9.01885Z" fill="#EEE5DA"/>
<path d="M41.4617 13.5764L37.3543 21.7539L36.9501 22.138C36.7219 22.3463 36.409 22.5937 36.2394 22.6914C35.8939 22.8932 35.1637 23.1732 34.9746 23.1732C34.8051 23.1732 34.6487 22.9974 34.6487 22.8021C34.6487 22.7109 35.5418 20.621 36.6306 18.1665C37.7194 15.7119 38.7495 13.4006 38.906 13.0295L39.2059 12.3654H37.9411H36.6697L36.3894 12.9254L36.1091 13.4853L35.9135 13.1077C35.4049 12.0855 34.1206 11.9748 32.3798 12.8017C31.2389 13.342 29.6742 14.6312 28.6636 15.8617C27.8421 16.8708 26.8446 18.5506 26.3817 19.7225C25.7885 21.2265 25.7167 22.7956 26.2122 23.7592C26.6295 24.5925 27.5227 24.9767 28.618 24.8009C29.5633 24.6511 30.3978 24.1628 31.4084 23.1732L32.0408 22.5547V22.8802C32.0473 23.8308 32.7971 24.3842 34.0619 24.3712C34.7399 24.3647 35.4049 24.1824 36.0699 23.8243C36.2525 23.7266 36.409 23.655 36.409 23.668C36.409 23.681 36.3372 23.8503 36.2525 24.0521L36.0895 24.4102H37.5434H38.9973L39.3037 23.7657C39.4667 23.4076 40.1186 22.0729 40.7445 20.7968L41.8789 18.479L42.081 18.6287C42.3353 18.811 42.5831 19.3189 42.6548 19.8007L42.7135 20.1718L42.3418 20.4647C40.9857 21.526 39.9296 23.0104 39.4993 24.4493C39.2841 25.1785 39.2515 26.3374 39.4276 27.0145C39.6231 27.7567 40.0339 28.4924 40.5098 28.9742C41.3052 29.762 42.1658 30.0485 43.574 29.9964C44.2782 29.9704 44.4868 29.9313 45.0149 29.7555C45.719 29.5211 46.1754 29.2802 46.7426 28.8505C47.2511 28.4664 49.0179 26.715 48.9723 26.6434C48.9528 26.6174 48.8028 26.5197 48.6463 26.4351L48.3529 26.2723L47.6749 26.9103C46.4883 28.0367 45.5365 28.6552 44.5259 28.9612C42.8243 29.4886 41.3313 28.8896 40.5946 27.3856C40.2621 26.715 40.1578 26.2007 40.2099 25.465C40.2881 24.3386 40.7184 23.4271 41.7485 22.2357C42.3027 21.5911 42.7852 21.1679 42.8243 21.2981C42.8373 21.3437 42.9286 21.7278 43.0264 22.1445C43.4762 24.1368 44.3564 24.9116 45.6734 24.4949C45.9537 24.4102 46.1167 24.293 46.4818 23.9219C46.7361 23.6615 47.0295 23.3034 47.1338 23.1211C47.2446 22.9323 47.3424 22.7826 47.362 22.7826C47.3815 22.7826 47.4663 22.9518 47.5575 23.1602C47.7531 23.6224 48.2291 24.1042 48.6854 24.3126C50.1719 24.9897 52.2126 24.3712 53.5882 22.8216L53.9403 22.4245L54.3119 22.6068L54.677 22.7891L54.1033 23.1862C52.0691 24.586 50.7326 26.116 49.6112 28.3297L49.1875 29.163L48.1378 29.1761L47.0947 29.1956L46.8991 29.5342L46.697 29.8792H47.8118C48.4247 29.8792 48.9267 29.8922 48.9267 29.9053C48.9267 29.9248 48.6724 30.5303 48.366 31.2595C48.0596 31.9887 47.6619 32.9588 47.4793 33.4276C46.8273 35.1334 46.3579 35.9602 45.6082 36.735C44.8715 37.5098 44.0174 38.0241 42.8699 38.4082C40.8097 39.0984 38.6648 39.0463 37.1066 38.2715C36.4024 37.9199 35.5679 37.2103 35.268 36.722C35.2289 36.6504 35.4897 36.3574 36.3177 35.5566L37.4195 34.4953L35.8678 34.5214L34.3227 34.5474L34.3618 34.2153C34.5248 32.8807 35.1963 31.6697 36.4611 30.4522C37.074 29.8662 37.9541 29.1761 38.3779 28.9612C38.5148 28.8896 38.6256 28.7984 38.6256 28.7529C38.6191 28.7138 38.5278 28.5641 38.4105 28.4273L38.2019 28.1864L37.7194 28.4794C36.5328 29.2086 35.0659 30.5628 34.4661 31.4678C33.8859 32.3598 33.5599 33.2778 33.4947 34.2414L33.4556 34.8013L32.9275 34.9185C31.2324 35.2961 29.7068 35.9797 27.6726 37.2884C25.9971 38.3692 24.2433 39.9578 22.7242 41.7808C21.8701 42.803 20.7748 44.6195 19.6144 46.9373C19.1384 47.9074 18.7407 48.7147 18.7407 48.7342C18.7407 48.8189 17.3455 51.4166 16.8435 52.2565C15.018 55.3361 13.3881 56.9768 11.2301 57.9013C10.2782 58.3049 9.52846 58.4677 8.39404 58.5068C6.78369 58.5654 5.64275 58.3505 4.50181 57.7646C2.54592 56.7489 1.3789 54.9324 1.07248 52.4062C0.844294 50.4791 1.22243 48.6235 2.18734 47.0219C3.77813 44.359 6.12521 42.5556 8.79826 41.9501C9.54802 41.7743 10.9171 41.7938 11.8299 41.9826C12.6318 42.1519 13.4989 42.4644 14.0205 42.7769C14.529 43.0764 15.3309 43.8837 15.6308 44.3981C16.5045 45.9021 16.3415 47.9269 15.1875 49.9257C14.5421 51.039 13.5837 51.8854 12.2602 52.5039C11.3083 52.9531 11.0019 53.0117 9.71101 52.9727C9.10468 52.9531 8.53747 52.9206 8.45272 52.8946C8.31581 52.849 8.30929 52.862 8.30929 53.2396C8.30929 53.6238 8.31581 53.6368 8.52444 53.7019C9.15684 53.9102 10.4803 53.9623 11.2562 53.8126C12.6253 53.5456 14.1509 52.7188 15.0962 51.7161C15.5787 51.2083 16.2176 50.2447 16.5632 49.5155C17.6389 47.2237 17.3325 44.4437 15.8395 42.9267C14.8615 41.937 13.4468 41.2469 11.8299 40.98C11.3018 40.8888 10.9432 40.8758 10.1413 40.9018C8.62875 40.9604 7.51389 41.2209 6.24256 41.8264C4.46922 42.6597 2.66979 44.2744 1.51582 46.0648C0.948608 46.9438 0.296644 48.578 0.0880152 49.6392C-0.0293384 50.2187 -0.0293384 52.1263 0.0880152 52.8294C0.303163 54.1576 0.687822 55.2254 1.28111 56.1304C2.43509 57.8948 4.24103 59.0537 6.40555 59.4053C7.24007 59.5485 9.1112 59.5094 9.874 59.3401C11.7843 58.9235 13.3164 58.0966 14.6399 56.7749C16.2567 55.1603 17.8736 52.7969 19.347 49.8866L19.9469 48.6951H22.2548C24.4193 48.6951 24.5562 48.7017 24.5106 48.8058C24.3998 49.0858 24.2824 50.1666 24.2824 50.9739C24.2824 53.3503 24.8301 55.4598 25.8537 57.0288C26.0101 57.2632 26.4274 57.745 26.786 58.1096C27.9073 59.2295 29.0157 59.861 30.45 60.193C31.1541 60.3623 32.7384 60.3623 33.3447 60.193C34.8377 59.7829 35.757 58.8584 36.1482 57.3804C36.3242 56.6903 36.3307 56.7033 35.9917 56.7033C35.6527 56.7033 35.4962 56.7554 35.4962 56.8596C35.4962 56.8986 35.4114 57.1135 35.3071 57.3283C34.8508 58.2919 33.9836 58.8649 32.8557 58.956C32.2038 59.0081 31.5583 58.8584 30.7695 58.4677C29.0352 57.6083 28.1029 56.2671 27.6009 53.9037C27.477 53.3308 27.451 53.0052 27.451 51.9179C27.4444 50.5833 27.4901 50.1666 27.7509 49.1965L27.8813 48.6951H29.609C30.9651 48.6951 31.3302 48.7147 31.3041 48.7733C31.2845 48.8189 30.8999 49.7499 30.4435 50.8437C29.9936 51.9375 29.5764 52.9922 29.5242 53.1875C29.1135 54.7566 30.0849 56.4038 31.6431 56.7684C32.1386 56.8856 33.1426 56.8205 33.6381 56.6447C34.3553 56.3908 35.0268 55.935 35.757 55.2059C37.1848 53.7865 37.8889 52.5755 38.5604 50.3554C38.7821 49.6457 38.9647 49.0467 38.9777 49.0402C38.9907 49.0272 39.0755 49.0467 39.1668 49.0793L39.3298 49.1444L39.0429 50.0233C38.6322 51.2994 38.4692 52.1979 38.4692 53.2201C38.4626 53.9232 38.4887 54.1446 38.6126 54.5287C38.9386 55.5705 39.5971 56.2085 40.6272 56.4754C41.6312 56.7359 43.1177 56.4429 43.9522 55.8179C44.0695 55.7332 44.2716 55.5835 44.402 55.4858L44.6367 55.31L44.3694 55.8439C44.226 56.1369 44.1021 56.4038 44.1021 56.4429C44.1021 56.4819 44.5455 56.508 45.3604 56.508H46.6187L48.868 51.8659L51.1108 47.2302L51.6649 46.6768C52.8711 45.4789 54.2663 44.7757 54.8465 45.0752C55.1203 45.2184 55.1725 45.4984 55.003 45.9672C54.9313 46.1625 54.0642 48.0897 53.0732 50.2512C52.0822 52.4193 51.2346 54.3139 51.1955 54.4701C51.0977 54.8673 51.1629 55.5705 51.3259 55.8895C51.5019 56.2411 51.8214 56.534 52.2191 56.7163C52.5125 56.8531 52.6429 56.8661 53.4904 56.8661C54.3706 56.8661 54.4619 56.8531 54.8009 56.6968C55.2833 56.4689 55.9483 55.8374 56.2548 55.31L56.509 54.8803L56.685 55.2579C56.8872 55.6811 57.3435 56.1369 57.7543 56.3127C57.9042 56.3843 58.2889 56.4689 58.6149 56.508C59.9123 56.6642 61.2944 56.2606 62.0246 55.5053L62.2398 55.284L62.4615 55.5705C62.9178 56.1629 63.4068 56.4754 64.1957 56.6773C64.7694 56.827 66.132 56.7749 66.7253 56.5796C67.299 56.3973 67.8923 56.0392 68.4204 55.5509L68.8572 55.1473L68.9485 55.3165C68.9941 55.4077 69.1767 55.6095 69.3527 55.7658C70.5654 56.8531 72.6321 56.7163 74.1707 55.4402C74.6271 55.0626 75.2921 54.3269 75.5594 53.9037C75.6507 53.7605 75.7224 53.6368 75.7224 53.6238C75.7224 53.5847 75.1291 53.3633 75.1161 53.3894C74.6597 54.1706 74.0143 54.7827 73.271 55.1538C71.1587 56.1955 70.1872 54.405 71.2565 51.4296C71.6085 50.4595 71.5694 50.4986 72.4104 50.2903C74.1707 49.8606 75.918 49.1769 76.7264 48.604C77.2219 48.2524 77.9521 47.4842 78.1477 47.1196C78.3498 46.7159 78.3889 45.837 78.226 45.3617C78.0499 44.8603 77.4501 44.2679 76.9285 44.0726C76.3939 43.8772 75.5855 43.9098 74.8423 44.1637C73.4666 44.6325 72.3387 45.3161 71.3021 46.3122C69.9721 47.5883 68.8703 49.3397 68.3813 50.9479C68.2248 51.4557 68.2053 51.6445 68.1987 52.4388C68.1987 53.2006 68.2183 53.4415 68.3487 53.9037L68.4986 54.4571L68.1466 54.7696C67.1882 55.6356 66.5949 55.922 65.7734 55.922C65.1867 55.922 64.9063 55.8113 64.6521 55.4793C64.5086 55.2905 64.476 55.1798 64.4825 54.8868C64.4825 54.5483 64.639 54.1902 66.8101 49.6001C68.0879 46.8852 69.1376 44.652 69.1376 44.6325C69.1376 44.6064 68.4856 44.5999 67.6967 44.6064L66.2559 44.626L63.974 49.509C62.7222 52.1914 61.6009 54.5157 61.49 54.685C61.2488 55.017 60.7663 55.3621 60.4143 55.4663C60.0231 55.5705 59.2929 55.5444 58.9995 55.4077C58.7192 55.284 58.4128 54.965 58.3019 54.6915C58.2628 54.6004 58.2367 54.3725 58.2367 54.1902C58.2367 53.8842 58.4519 53.4024 60.4012 49.242C61.5943 46.7029 62.5788 44.5869 62.5984 44.5413C62.6244 44.4762 62.3767 44.4632 61.3857 44.4762L60.1339 44.4957L57.65 49.6913C54.9769 55.284 54.9443 55.3426 54.3054 55.6356C53.9142 55.8244 53.7382 55.8244 53.3796 55.6681C53.0275 55.5053 52.8776 55.2254 52.9167 54.8217C52.9428 54.6069 53.523 53.2722 54.9443 50.1861C56.0396 47.7967 56.9719 45.7198 57.011 45.5635C57.161 45.0231 56.9915 44.4892 56.5938 44.2158C56.2874 44.0074 56.007 43.9423 55.4398 43.9423C54.7422 43.9423 54.0381 44.1377 53.1514 44.5869C52.4082 44.9515 52.3886 44.958 52.4799 44.7822C52.532 44.6846 52.5777 44.5674 52.5777 44.5283C52.5777 44.4827 52.1278 44.4632 51.2281 44.4632H49.872L47.6553 48.8384L45.4387 53.2071L44.9758 53.6693C44.7215 53.9232 44.2977 54.2748 44.0369 54.4571C42.7265 55.3296 41.7355 55.3556 41.1813 54.5287C40.8488 54.0274 40.7445 53.5977 40.7445 52.6667C40.7445 51.7617 40.8749 51.1367 41.24 50.3358L41.4356 49.8931L42.3614 49.8866C43.4632 49.8866 44.1282 49.7629 44.7867 49.4439C45.8168 48.9491 46.9056 47.9008 47.3685 46.9698C47.6423 46.4229 47.6553 46.3643 47.6553 45.837C47.6553 45.1794 47.551 44.9124 47.1403 44.5218C46.2993 43.708 44.5324 43.7926 43.1372 44.7041C42.4461 45.1533 41.0575 46.6638 40.0404 48.0636C39.9622 48.1743 39.9361 48.1808 39.7275 48.0897C39.2646 47.8878 39.2646 47.8878 39.3819 47.2628C39.4993 46.6378 39.4797 45.1989 39.3428 44.7692C39.232 44.3981 38.8734 44.04 38.5278 43.9423C37.2109 43.5712 36.2329 45.1989 36.6371 47.0935C36.7936 47.8357 37.087 48.5194 37.5564 49.2551L37.7846 49.6132L37.6216 50.2121C37.1652 51.8528 36.3698 53.2396 35.2354 54.3595C34.59 54.9975 34.1532 55.297 33.4947 55.5705C33.0253 55.7593 32.6732 55.7658 32.2103 55.59C31.604 55.3686 31.3171 54.8673 31.454 54.2683C31.4866 54.1121 32.4124 51.8919 33.5077 49.3462C34.603 46.794 35.4897 44.6976 35.4701 44.678C35.4245 44.626 33.26 44.7822 33.2078 44.8343C33.1817 44.8669 32.8362 45.557 32.4515 46.3839L31.7409 47.8813L29.8958 47.9008C28.3442 47.9139 28.0573 47.9008 28.0834 47.8227C28.1029 47.7771 28.1812 47.5297 28.2529 47.2758C29.0418 44.652 30.626 41.5985 32.282 39.5476C32.7775 38.9356 34.3944 37.3014 34.5117 37.3014C34.5378 37.3014 34.7008 37.4707 34.8638 37.679C35.7179 38.7403 37.1457 39.502 39.082 39.9122C39.6753 40.0424 39.9622 40.062 41.2661 40.062C42.9156 40.0685 43.385 40.0099 44.4998 39.6453C46.6318 38.9486 48.2226 37.666 49.6699 35.4784C49.8981 35.1399 50.5892 33.8638 51.2085 32.6463C51.8279 31.4288 52.4082 30.3089 52.4929 30.1527L52.6559 29.8792H53.3274H53.999L54.1098 29.5993C54.1685 29.4495 54.2337 29.2867 54.2532 29.2412C54.2793 29.1826 54.1228 29.163 53.5947 29.163C53.2166 29.163 52.9037 29.1435 52.9037 29.124C52.9037 29.0068 53.836 27.288 54.1685 26.7931C54.6118 26.1291 55.5506 25.1525 56.2939 24.5925L56.7828 24.2214L57.337 24.4102C58.7779 24.905 60.7077 24.8204 61.4444 24.2279C62.1811 23.6289 62.1355 22.4831 61.3531 21.8385C60.147 20.8554 58.3867 20.8879 56.3004 21.9362C55.9418 22.112 55.6158 22.2617 55.5767 22.2617C55.5376 22.2617 55.2638 22.0989 54.9573 21.8971L54.4097 21.526L54.5336 21.3502C54.9052 20.8359 55.1203 19.9113 55.3485 17.8344C55.6093 15.5687 56.0005 14.1559 56.6459 13.1923C57.0045 12.6454 57.7543 11.8836 58.3084 11.4865C58.5562 11.3042 58.7648 11.1414 58.7648 11.1219C58.7779 11.0307 57.7347 10.9917 57.1088 11.0633C55.0225 11.2847 53.1058 12.1701 51.6975 13.5634C50.6674 14.5791 49.2527 16.6039 48.4507 18.199L48.0922 18.9152L47.5119 18.8501C46.7882 18.772 45.7842 18.8761 45.1322 19.0975C44.8715 19.1821 44.6563 19.2472 44.6563 19.2472C44.6563 19.2407 44.5781 19.0715 44.4803 18.8696L44.3108 18.505L44.9366 18.2251C46.3905 17.587 48.379 16.3109 49.1353 15.5427C49.4091 15.2627 49.6504 14.9372 49.7873 14.6572C49.9894 14.2535 50.0024 14.1754 50.0024 13.5699C50.0024 13.023 49.9763 12.8733 49.859 12.6519C49.6634 12.2808 49.2266 11.9292 48.8354 11.812C47.8575 11.519 46.3645 11.8706 45.2561 12.6389C45.0344 12.7951 44.8193 12.9449 44.7737 12.9709C44.6889 13.023 44.9171 12.5477 46.9969 8.26369C47.7336 6.7467 48.3399 5.47711 48.3399 5.45107C48.3399 5.42503 47.714 5.39898 46.9577 5.39898L45.5691 5.4055L41.4617 13.5764ZM55.6354 12.6063C54.5857 13.6871 53.8751 14.6702 53.1905 15.9724C52.6494 17.0011 52.506 17.4047 52.1474 18.8436C51.9779 19.5077 51.8149 20.0481 51.7888 20.0481C51.7562 20.0481 51.528 19.9504 51.2868 19.8267C51.0456 19.7095 50.7261 19.5728 50.5696 19.5207L50.2893 19.4426L50.5501 19.1756C51.2411 18.4529 51.3194 17.4698 50.7065 17.1834C50.5892 17.1313 50.4914 17.0662 50.4914 17.0401C50.4914 16.9815 51.3585 15.8747 51.9648 15.1585C52.9558 13.9931 54.0511 13.1142 55.2572 12.5282C55.5897 12.3654 55.8897 12.2352 55.9288 12.2352C55.9679 12.2352 55.831 12.4045 55.6354 12.6063ZM35.092 13.4527C35.4636 13.6871 35.581 14.3838 35.4049 15.2367C35.0985 16.6755 33.8728 19.1105 32.595 20.8228C31.3041 22.5417 29.6155 23.9219 28.9505 23.7982C28.6636 23.7461 28.3507 23.3946 28.2855 23.0625C28.1681 22.444 28.9048 20.1392 29.7198 18.5766C30.7629 16.5844 32.6797 14.1494 33.6446 13.6025C34.2118 13.2769 34.7399 13.2183 35.092 13.4527ZM46.6057 13.6285C47.0881 13.8303 47.2446 14.3707 46.9708 14.9111C46.6448 15.5361 45.5951 16.376 44.3303 17.0076C43.8088 17.268 42.6809 17.7042 42.5374 17.7042C42.5048 17.7042 42.72 17.2159 43.0068 16.6104C43.4697 15.6599 43.5871 15.4645 43.9652 15.0804C44.6172 14.4098 45.4256 13.8303 45.9798 13.6285C46.2862 13.5178 46.3449 13.5178 46.6057 13.6285ZM47.7531 19.7551C47.8966 19.8397 47.199 21.3437 46.6122 22.2291C46.2667 22.75 45.719 23.3685 45.6082 23.3685C45.5756 23.3685 45.5299 23.0951 45.5039 22.763C45.4517 22.0794 45.2692 21.0442 45.0866 20.4647L44.9692 20.0676L45.2692 19.9569C45.8885 19.7355 46.4036 19.6574 47.0555 19.69C47.4076 19.703 47.7205 19.7355 47.7531 19.7551ZM49.8329 20.2369C50.6218 20.4973 51.5345 20.927 51.5345 21.0377C51.5345 21.4348 51.0456 22.6458 50.7 23.0951C50.2828 23.642 49.5852 23.7982 49.0245 23.4662C48.1704 22.9714 48.0009 21.9817 48.4833 20.4127L48.6268 19.9699L48.9202 20.0025C49.0831 20.022 49.4939 20.1327 49.8329 20.2369ZM60.9489 22.6133C61.5813 22.8737 61.4835 23.5704 60.7794 23.8568C60.3686 24.0196 59.5928 24.0847 58.8626 24.0131C58.2106 23.9545 57.5326 23.7852 57.5326 23.6875C57.5326 23.5183 58.9474 22.7109 59.4559 22.5937C59.8666 22.5026 60.7012 22.5091 60.9489 22.6133ZM30.6325 37.2298C28.5658 39.5541 26.7012 42.4774 25.6124 45.1208C25.2799 45.9346 24.6736 47.6795 24.6736 47.8357C24.6736 47.9204 24.4128 47.9269 22.4765 47.8878C21.2703 47.8618 20.2663 47.8357 20.2533 47.8227C20.2402 47.8097 20.4097 47.4451 20.6249 47.0219C21.8767 44.5218 23.5457 42.1389 25.1952 40.4917C26.4665 39.2221 28.3311 37.9199 30.3 36.9368C30.8347 36.6699 31.278 36.455 31.2976 36.455C31.3106 36.455 31.0172 36.8001 30.6325 37.2298ZM76.8633 44.7822C77.0068 44.8473 77.2219 45.0036 77.3328 45.1338C78.0173 45.9151 77.561 47.0414 76.2505 47.8032C75.4616 48.272 72.606 49.3137 72.4756 49.1835C72.4039 49.1118 73.2319 47.5623 73.7796 46.7419C74.5228 45.6221 75.1617 45.0036 75.8072 44.7822C76.2375 44.6325 76.5374 44.6325 76.8633 44.7822ZM46.5992 45.2315C46.7687 45.4007 46.8013 45.4984 46.8273 45.8174C46.8599 46.2927 46.6904 46.7224 46.2406 47.2888C45.5756 48.1287 44.4477 48.8514 43.5284 49.0272C43.0851 49.1118 42.1723 49.0728 42.0615 48.9621C41.9507 48.8514 42.8699 47.4646 43.6392 46.5922C44.2521 45.8955 45.0475 45.2835 45.6343 45.0622C45.9668 44.932 46.371 45.0101 46.5992 45.2315Z" fill="#EEE5DA"/>
<path d="M68.1859 20.9529C67.9316 21.018 67.4883 21.1743 67.2079 21.311C65.0565 22.3332 63.1006 24.5924 61.0273 28.4598L60.6492 29.1629H59.7951H58.9345L58.7585 29.4885C58.6542 29.6708 58.5759 29.8466 58.5759 29.8791C58.5759 29.9182 58.9019 29.9442 59.43 29.9442C59.8994 29.9442 60.271 29.9703 60.258 29.9963C60.2515 30.0289 59.3583 31.9104 58.2825 34.1827C56.1311 38.7272 56.1441 38.6946 55.3943 39.0462C54.9054 39.274 54.1556 39.3196 53.8166 39.1438C53.3993 38.929 53.2494 38.3365 53.4515 37.6854C53.4971 37.5292 54.3903 35.576 55.44 33.3493C56.4831 31.1227 57.3372 29.2671 57.3372 29.228C57.3372 29.1825 56.9917 29.1629 56.281 29.176L55.2248 29.1955L53.3146 33.2256C52.2714 35.4392 51.3652 37.3859 51.3065 37.5552C51.1631 37.9589 51.1109 38.6425 51.2022 38.9615C51.5738 40.3288 52.9821 40.8171 54.788 40.2116C55.3161 40.0358 55.3161 40.0293 54.8206 40.7259C53.8753 42.0671 52.3301 42.7247 50.811 42.4448C50.2634 42.3406 49.7092 42.0346 49.2268 41.5658C48.7378 41.084 48.0858 40.1335 47.8642 39.5605C47.7272 39.2089 47.7077 39.1894 47.5447 39.222C46.9188 39.3392 46.9514 39.3196 46.997 39.528C47.0557 39.8209 47.5056 40.752 47.812 41.1947C48.7639 42.5945 49.9635 43.3172 51.5021 43.4018C52.9625 43.4865 54.4816 43.0893 55.8572 42.269C56.4636 41.9109 57.4546 40.9733 57.8066 40.4264C57.9305 40.2311 59.1171 37.7896 60.4405 35.003L62.8398 29.9442H64.8413H66.8494L66.6342 30.413C66.5103 30.6734 65.6628 32.5159 64.737 34.5017C63.1397 37.9328 63.0549 38.1412 63.0288 38.5774C62.9962 38.955 63.0158 39.0787 63.1266 39.3001C63.3744 39.7754 63.9546 40.0228 64.9978 40.0814C65.9627 40.1335 66.9471 39.9056 67.9707 39.3847C68.1076 39.3131 68.225 39.2675 68.225 39.2871C68.225 39.3066 68.1337 39.4954 68.0294 39.7103L67.8338 40.1009H69.3594H70.8785L72.1563 37.3469C72.8605 35.8364 73.8449 33.7204 74.3404 32.6462L75.2467 30.6929L75.5596 30.5106C76.7527 29.814 78.0305 29.5796 78.6238 29.9442C78.9042 30.12 79.0802 30.5497 79.0215 30.9013C78.8977 31.5654 78.5782 32.0016 77.0591 33.6228C75.7682 34.9965 75.3118 35.5304 74.875 36.201C74.047 37.4641 73.7797 38.7206 74.0927 39.9381C74.2491 40.5567 74.4447 40.9017 74.8424 41.2663C76.1203 42.4448 78.3826 42.0867 79.8495 40.485C80.2472 40.0553 81.0035 38.8899 81.0035 38.7141C81.0035 38.61 80.2668 38.1672 80.2407 38.2584C80.1494 38.5188 79.4714 39.541 79.1454 39.8926C77.9914 41.1491 76.4332 41.3835 75.8204 40.3939C75.6444 40.1074 75.6248 40.0293 75.6248 39.5215C75.6313 39.0266 75.6509 38.9094 75.8399 38.5123C76.1398 37.8742 76.5441 37.399 77.9197 36.0903C79.7648 34.3259 80.4624 33.4079 80.7818 32.3206C80.9448 31.7542 80.9318 30.9924 80.7427 30.4976C80.4819 29.8335 79.8104 29.2801 79.0346 29.0978C78.3761 28.9481 77.0526 29.0718 76.2181 29.3583C76.0029 29.4299 75.8204 29.482 75.8139 29.4689C75.8008 29.4559 76.5897 27.7501 77.5546 25.6797C78.526 23.6028 79.3866 21.7472 79.4714 21.5584L79.6279 21.2199H78.2457H76.857L73.7341 27.8087C69.066 37.6659 69.2942 37.2167 68.7596 37.744C67.9642 38.5318 67.0775 38.9029 66.3799 38.7402C65.9888 38.649 65.7475 38.4537 65.7475 38.2193C65.7475 38.1282 66.582 36.2466 67.6056 34.046L69.4572 30.0419L70.4938 30.0223L71.5305 30.0093L71.7 29.6187L71.8695 29.228H70.8915C70.3569 29.228 69.9201 29.2085 69.9201 29.189C69.9201 29.1694 70.2722 28.3491 70.7025 27.366C71.1328 26.3829 71.4848 25.5625 71.4848 25.5495C71.4848 25.53 70.885 25.5169 70.1613 25.5169H68.8313L68.0555 27.3399L67.2797 29.1629H65.2455C64.1241 29.1629 63.2049 29.1434 63.2049 29.1174C63.2049 29.0262 64.3132 26.9428 64.6653 26.3764C65.402 25.1979 66.4777 23.8697 67.2471 23.1926C68.212 22.3527 68.8965 21.9946 69.6463 21.9491C70.2461 21.91 70.5134 22.0272 70.7155 22.4244C70.8655 22.7173 70.8981 23.414 70.7742 23.8176C70.7351 23.9413 70.709 24.0455 70.722 24.052C70.7285 24.0585 71.198 24.0455 71.7652 24.0325L72.7953 24.0065L72.7561 23.733C72.528 22.3267 71.4979 21.1613 70.2591 20.9009C69.7506 20.7967 68.7205 20.8227 68.1859 20.9529Z" fill="#EEE5DA"/>
<path d="M56.2545 26.5198C55.5373 26.8518 55.1657 27.7373 55.5112 28.3037C55.6547 28.5381 55.7981 28.6097 56.248 28.6748C56.6457 28.7334 57.3433 28.5251 57.6823 28.2451C58.3473 27.6982 58.3342 26.8193 57.6562 26.4807C57.3237 26.3049 56.6717 26.3245 56.2545 26.5198Z" fill="#EEE5DA"/>
</svg>
