<svg width="513" height="65" viewBox="0 0 513 65" fill="none" xmlns="http://www.w3.org/2000/svg">
<path fill-rule="evenodd" clip-rule="evenodd" d="M34.8158 3.98293C34.8158 3.98293 34.6095 4.56869 31.7343 12.3651C23.5171 5.82272 9.74759 6.30123 9.74759 16.3664C9.74759 28.1683 38.5077 26.6874 37.6126 47.7584C36.8989 64.6836 16.0672 68.5694 0 60.4183C1.40253 57.4358 2.86281 54.5606 3.86108 52.2093C16.0095 59.3911 26.4707 56.0993 28.1909 50.3201C32.8893 34.5045 0.123753 39.3886 0.123753 16.9687C0.123753 7.53876 11.0429 -7.12181 34.8158 3.98293ZM65.857 2.68353H103.494C103.494 2.68353 103.383 6.07435 103.453 10.8966H75.2829V27.7352H95.2648C95.1947 31.093 95.2318 33.7289 95.2318 35.4615H75.2829V56.4499H103.457C103.432 59.1367 103.432 61.8236 103.457 64.5104H65.8942L65.857 2.68353ZM155.495 32.9823C153.226 32.9823 151.543 32.9576 149.242 32.9452C149.242 21.4114 149.262 10.6284 149.262 10.6284C149.262 10.6284 152.01 10.6161 154.604 10.6161C157.088 10.6161 171.542 9.48992 172.012 21.0237C172.466 32.3965 161.089 32.9823 155.495 32.9823ZM156.056 2.80315C152.715 2.72065 145.739 2.68353 139.783 2.68353L139.803 64.5104H149.275C149.275 64.5104 149.246 52.7085 149.242 41.0716C151.589 41.0303 156.461 40.9025 160.4 40.7911C165.857 40.6261 180.2 37.8994 180.101 20.9453C179.99 1.88739 159.377 2.87741 156.056 2.80315ZM398.826 31.3034C396.615 31.3034 395.019 31.2621 392.779 31.2456C392.787 20.3884 392.812 10.3809 392.812 10.3809C392.812 10.3809 395.402 10.3438 397.91 10.3438C400.303 10.3438 413.111 9.62193 414.196 19.6954C415.483 31.5963 401.441 31.3034 398.826 31.3034ZM419.67 64.5104H431.443L411.903 36.7691C417.162 34.8345 423.259 30.3464 422.488 20.0914C421.11 1.71826 403.157 3.07954 399.313 2.90216C396.075 2.74953 389.103 2.65878 383.06 2.68765V64.5104H392.812C392.812 64.5104 392.783 50.6748 392.775 38.448C396.009 38.4604 397.164 38.4027 402.039 38.2748L419.67 64.5104ZM249.828 25.9738V2.68353H259.402V61.8208H249.824V33.7083L217.904 33.7496V61.8208H208.329V2.68353H217.9V25.9738H249.828ZM324.508 0.00221949C304.613 0.00221949 291.66 14.4442 291.66 32.2604C291.66 50.0767 304.613 64.5186 324.508 64.5186C344.404 64.5186 357.352 50.0767 357.352 32.2604C357.352 14.4442 344.4 0.00221949 324.508 0.00221949ZM324.508 8.78041C309.922 8.78041 301.639 19.2911 301.639 32.2563C301.639 45.2256 309.84 55.7363 324.508 55.7363C339.173 55.7363 347.374 45.2256 347.374 32.2563C347.374 19.2911 339.091 8.78041 324.508 8.78041ZM473.874 41.7399L494.231 41.6161L483.889 11.4782H483.753L473.874 41.7399ZM478.345 1.77601H489.669L512.089 63.0542L502.065 63.0294C502.065 63.0294 499.849 56.8459 496.896 48.6576L471.609 48.8144C471.609 48.8144 470.594 51.966 467.579 63.0336H457.914L478.345 1.77601Z" fill="#EEE5DA"/>
</svg>
