<svg width="153" height="30" viewBox="0 0 153 30" fill="none" xmlns="http://www.w3.org/2000/svg">
<path fill-rule="evenodd" clip-rule="evenodd" d="M44.3366 21.1694L39.1048 14.1281C40.2179 13.4884 41.1451 12.5529 41.7901 11.4189C42.4352 10.2847 42.7748 8.99316 42.7736 7.67803V7.47901C42.7717 3.39797 39.5521 0.09372 35.5876 0.097584L28.1254 0.104348L28.1442 21.1839L31.5528 21.181L31.5482 15.0798L35.6007 15.0759C35.655 15.0759 35.7083 15.0692 35.7635 15.0672L40.1006 21.1733L44.3376 21.1694H44.3366ZM35.6943 11.8054V11.8123L31.5482 11.8161L31.5415 3.61052L35.6868 3.60569V3.61342C36.703 3.64773 37.6665 4.08798 38.3743 4.84137C39.0821 5.59476 39.4789 6.60243 39.481 7.65195V7.75919C39.4829 9.9456 37.7992 11.7233 35.6933 11.8044V11.8054H35.6943ZM152.565 10.9659C152.57 17.0294 147.421 21.952 141.068 21.9578C134.715 21.9645 129.559 17.0498 129.554 10.9871C129.549 4.92449 134.697 0.00580169 141.049 5.12974e-06C147.403 -0.00579234 152.56 4.90324 152.565 10.9659ZM141.052 3.37189C136.94 3.37478 133.609 6.78241 133.612 10.9832C133.615 15.1841 136.952 18.5889 141.065 18.585C145.179 18.5811 148.507 15.1706 148.503 10.9697C148.499 6.76888 145.167 3.36705 141.052 3.37091V3.37189ZM108.345 20.9443L104.847 20.9482L104.829 0.03382L105.929 0.0328511L119.241 13.7667L119.233 0.184539L122.728 0.180676L122.746 21.0969H121.661L108.333 7.94759L108.345 20.9443ZM85.17 0.0512088L84.4391 0.0521741L75.019 21.1414L78.7468 21.1375L80.4156 17.2091L89.2245 17.2014L90.8888 21.126L94.6203 21.1231L85.17 0.0512088ZM81.7885 13.9677L84.8116 6.83265L87.8458 13.9629L81.7885 13.9677ZM66.5273 0.0686012L61.3723 9.52723L56.205 0.078261L51.9887 0.0821268L59.6773 13.1919L59.6895 29.06L63.0869 29.0571L63.0738 13.188L70.7399 0.0647344L66.5283 0.0686012H66.5273ZM0 0.130434L0.00280801 3.63854L7.19071 3.63178L7.20568 21.2033L10.7285 21.2004L10.7135 3.62888L17.9014 3.62211L17.8977 0.114011" fill="#EEE5DA"/>
</svg>
