<svg width="217" height="60" viewBox="0 0 217 60" fill="none" xmlns="http://www.w3.org/2000/svg">
<path d="M0 4.17614V0.88068H40.767V4.17614H22.1591V59.0625H18.608V4.17614H0Z" fill="#EEE5DA"/>
<path d="M85.071 15.4261C84.768 11.8087 83.2907 8.88258 80.6392 6.64773C78.0066 4.41288 74.5975 3.29546 70.4119 3.29546C67.59 3.29546 65.0805 3.81629 62.8835 4.85796C60.6866 5.89962 58.9631 7.32008 57.7131 9.11932C56.4631 10.9186 55.8381 12.983 55.8381 15.3125C55.8381 16.8087 56.1222 18.1629 56.6903 19.375C57.2775 20.5682 58.1013 21.6383 59.1619 22.5852C60.2225 23.5133 61.482 24.3277 62.9403 25.0284C64.3987 25.7292 66.0085 26.3447 67.7699 26.875L74.1335 28.75C76.3116 29.4129 78.3191 30.1799 80.1563 31.0511C82.0123 31.9223 83.6222 32.964 84.9858 34.1761C86.3684 35.3693 87.4384 36.7708 88.196 38.3807C88.9725 39.9905 89.3608 41.8466 89.3608 43.9489C89.3608 47.017 88.5653 49.7633 86.9744 52.1875C85.4025 54.6117 83.1581 56.5246 80.2415 57.9261C77.3438 59.3087 73.9252 60 69.9858 60C66.2358 60 62.9688 59.3655 60.1847 58.0966C57.4195 56.8277 55.232 55.0663 53.6222 52.8125C52.0123 50.5398 51.1032 47.9261 50.8949 44.9716H54.5313C54.7206 47.3769 55.4877 49.4602 56.8324 51.2216C58.196 52.964 60.0047 54.3087 62.2585 55.2557C64.5123 56.2027 67.0881 56.6761 69.9858 56.6761C73.1108 56.6761 75.8665 56.1458 78.2528 55.0852C80.6392 54.0057 82.5047 52.5095 83.8494 50.5966C85.1941 48.6837 85.8665 46.4583 85.8665 43.9205C85.8665 41.875 85.3835 40.1231 84.4176 38.6648C83.4517 37.2064 82.0218 35.947 80.1278 34.8864C78.2528 33.8258 75.9233 32.8788 73.1392 32.0455L66.3494 30C61.804 28.6174 58.3286 26.733 55.9233 24.3466C53.5369 21.9602 52.3438 18.9867 52.3438 15.4261C52.3438 12.4337 53.1392 9.7822 54.7301 7.47159C56.321 5.14204 58.4801 3.31439 61.2074 1.98864C63.9536 0.662878 67.0502 0 70.4972 0C73.9631 0 77.0218 0.672348 79.6733 2.01705C82.3248 3.3428 84.4271 5.17045 85.9801 7.5C87.5331 9.81061 88.3949 12.4527 88.5653 15.4261H85.071Z" fill="#EEE5DA"/>
<path d="M142.798 0.88068H146.349V39.4034C146.349 43.3617 145.431 46.8939 143.594 50C141.757 53.0871 139.219 55.5303 135.98 57.3295C132.76 59.1098 129.058 60 124.872 60C120.706 60 117.003 59.1098 113.764 57.3295C110.526 55.5303 107.978 53.0777 106.122 49.9716C104.285 46.8655 103.376 43.3428 103.395 39.4034V0.88068H106.946V39.2045C106.946 42.5568 107.704 45.5398 109.219 48.1534C110.753 50.767 112.865 52.8314 115.554 54.3466C118.243 55.8428 121.349 56.5909 124.872 56.5909C128.395 56.5909 131.501 55.8428 134.19 54.3466C136.88 52.8314 138.982 50.767 140.497 48.1534C142.031 45.5398 142.798 42.5568 142.798 39.2045V0.88068Z" fill="#EEE5DA"/>
<path d="M163.161 0.88068H167.024L189.439 53.9489H189.837L212.251 0.88068H216.115V59.0625H212.706V9.31818H212.365L191.314 59.0625H187.962L166.911 9.31818H166.57V59.0625H163.161V0.88068Z" fill="#EEE5DA"/>
</svg>
