<svg width="434" height="61" viewBox="0 0 434 61" fill="none" xmlns="http://www.w3.org/2000/svg">
<path d="M0 0.100539C2.2433 0.41115 6.29505 -0.672538 7.93784 0.776981L31.3579 45.1668L55.275 0.245491L62.7227 0.452565L31.3579 59.4894L0 0.783883V0.100539Z" fill="#EEE5DA"/>
<path d="M381.099 0.100952L407.632 45.8298L433.475 0.100952V59.4967H427.277V25.364L407.625 60.1801L387.304 26.0473V59.4967H381.099V0.100952Z" fill="#EEE5DA"/>
<path d="M272.061 0.294163C312.026 -4.29598 317.369 55.1688 280.751 59.4207C238.17 64.3629 233.807 4.68413 272.061 0.294163ZM274.159 6.43046C243.291 8.25271 245.286 56.5493 278.756 53.3465C307.919 50.5579 305.248 4.5944 274.159 6.43046Z" fill="#EEE5DA"/>
<path d="M340.299 0.307999C370.566 -2.59794 385.627 34.8825 361.814 53.7055C351.943 61.5053 336.737 61.664 326.432 54.6028C303.46 38.879 312.71 2.95855 340.299 0.307999ZM341.693 6.43049C306.87 8.43221 317.038 63.8797 351.446 52.3112C376.765 43.8005 369.917 4.81531 341.693 6.43049Z" fill="#EEE5DA"/>
<path d="M151.613 47.2103C150.909 49.2949 146.719 58.3716 145.421 59.1654C143.613 60.2698 139.83 59.3449 137.835 59.1654L169.525 0.791199L199.854 59.4967L192.386 59.3863L169.525 15.1276L155.747 40.3838H169.877C170.484 40.3838 174.356 45.8574 173.666 47.2103H151.613Z" fill="#EEE5DA"/>
<path d="M60.645 47.2103C59.8926 49.0188 55.2956 58.6546 54.4535 59.1654C52.6243 60.2698 48.8763 59.3449 46.8677 59.1654L78.5569 0.791199L108.886 59.4967L101.418 59.3863L78.2118 15.811L64.7796 40.3838H78.9089C79.5509 40.3838 83.1609 46.0024 82.6984 47.2103H60.645Z" fill="#EEE5DA"/>
<path d="M213.645 44.477L237.866 0.218332L245.334 0.107893L214.66 58.8203L183.316 0.107893C185.435 0.383992 188.969 -0.630671 190.556 0.777432L213.645 44.477Z" fill="#EEE5DA"/>
<path d="M121.987 45.1603L146.208 0.218289L153.677 0.10785L121.987 59.4967L90.9678 0.10785C93.1973 0.418461 97.2628 -0.672129 98.9056 0.777389L121.994 45.1603H121.987Z" fill="#EEE5DA"/>
</svg>
