<svg width="21" height="17" viewBox="0 0 21 17" fill="none" xmlns="http://www.w3.org/2000/svg">
<path d="M0 5.1646V13.6C0 14.5017 0.358213 15.3665 0.995837 16.0042C1.63346 16.6418 2.49826 17 3.4 17H17C17.9017 17 18.7665 16.6418 19.4042 16.0042C20.0418 15.3665 20.4 14.5017 20.4 13.6V3.4C20.4 2.49826 20.0418 1.63346 19.4042 0.995837C18.7665 0.358213 17.9017 0 17 0H3.4C2.49826 0 1.63346 0.358213 0.995837 0.995837C0.358213 1.63346 0 2.49826 0 3.4V5.1646ZM3.4 1.7H17C17.4509 1.7 17.8833 1.87911 18.2021 2.19792C18.5209 2.51673 18.7 2.94913 18.7 3.4V4.658L10.2 9.2344L1.7 4.658V3.4C1.7 2.94913 1.87911 2.51673 2.19792 2.19792C2.51673 1.87911 2.94913 1.7 3.4 1.7ZM1.7 6.5892L9.7971 10.948C9.92093 11.0147 10.0594 11.0496 10.2 11.0496C10.3406 11.0496 10.4791 11.0147 10.6029 10.948L18.7 6.5892V13.6C18.7 14.0509 18.5209 14.4833 18.2021 14.8021C17.8833 15.1209 17.4509 15.3 17 15.3H3.4C2.94913 15.3 2.51673 15.1209 2.19792 14.8021C1.87911 14.4833 1.7 14.0509 1.7 13.6V6.5892Z" fill="#F7F4EF"/>
</svg>
