<svg width="152" height="20" viewBox="0 0 152 20" fill="none" xmlns="http://www.w3.org/2000/svg">
<mask id="mask0_774_37338" style="mask-type:luminance" maskUnits="userSpaceOnUse" x="0" y="0" width="152" height="20">
<path d="M151.468 0H0V20H151.468V0Z" fill="white"/>
</mask>
<g mask="url(#mask0_774_37338)">
<path d="M40.3088 0.198975L33.6877 10.1158L27.068 0.198975H24.2871V19.8013H27.1786V5.5436L33.3908 14.6501H33.935L40.1458 5.52032V19.8013H43.0896V0.198975H40.3088Z" fill="#0A0D12"/>
<path d="M123.667 11.6742H129.383V15.7271C127.934 16.8026 126.18 17.3867 124.376 17.3941C120.178 17.3941 117.357 14.4222 117.357 9.94744C117.357 5.86118 120.31 2.6608 124.081 2.6608C126.8 2.6608 128.3 3.64419 129.524 4.70613L129.84 4.97962L131.74 2.73645L131.425 2.47023C129.242 0.630021 127.135 -0.12207 124.156 -0.12207C118.645 -0.12207 114.326 4.32499 114.326 10.061C114.326 15.9889 118.423 20.1305 124.29 20.1305C127.172 20.1312 129.953 19.0718 132.103 17.1541L132.249 17.032V8.94516H123.663L123.667 11.6742Z" fill="#0A0D12"/>
<path d="M86.0411 11.5278C86.0411 15.2577 84.1772 17.3103 80.7928 17.3103C77.4076 17.3103 75.4634 15.1544 75.4634 11.3954V0.194092H72.5195V11.5219C72.5195 16.8069 75.6685 20.0902 80.7399 20.0902C85.9044 20.0902 88.9864 16.8273 88.9864 11.3619V0.199916H86.0411V11.5278Z" fill="#0A0D12"/>
<path d="M57.9985 17.3382C54.0113 17.3382 51.0136 14.1829 51.0136 9.94532C51.0136 5.79356 53.9968 2.66155 57.952 2.66155C61.9392 2.66155 64.9442 5.81537 64.9442 10.053C64.9442 14.2077 61.961 17.3382 58.0058 17.3382M58.0058 -0.118408C52.3888 -0.118408 47.9883 4.32866 47.9883 10.0646C47.9883 15.8005 52.2709 20.1327 57.9505 20.1327C63.5675 20.1327 67.968 15.6871 67.968 9.95698C67.968 4.22683 63.684 -0.111136 58.0029 -0.111136" fill="#0A0D12"/>
<path d="M102.206 3.95606L105.843 12.1024H98.5484L102.206 3.95606ZM100.974 0.0646973L92.041 19.7994H95.1231L97.3493 14.8388H107.038L109.237 19.7994H112.425L103.493 0.0646973H100.974Z" fill="#0A0D12"/>
<path d="M137.861 0.198975V19.8013H152.399V17.0432H140.807V11.2985H151.057V8.54175H140.807V2.95712H152.265V0.198975H137.861Z" fill="#0A0D12"/>
<path d="M9.23676 3.95606L12.8675 12.1025H5.57988L9.23676 3.95606ZM8.00564 0.0646973L-0.927734 19.7994H2.15436L4.37934 14.8388H14.068L16.2668 19.7994H19.4551L10.5173 0.0646973H8.00564Z" fill="#0A0D12"/>
</g>
</svg>
