<svg width="172" height="35" viewBox="0 0 172 35" fill="none" xmlns="http://www.w3.org/2000/svg">
<path d="M52.8445 28.9439L52.7848 27.5755C52.8717 27.5998 52.9622 27.6098 53.0525 27.605H53.3203H53.5881C53.6778 27.605 53.7662 27.5755 53.8559 27.5755L53.7961 28.9439L53.7662 30.3124V32.6132L53.7961 34.36L55.2508 34.3305C55.7252 34.3305 56.2309 34.301 56.7652 34.2138C56.7353 34.3305 56.7054 34.4472 56.7054 34.5344C56.7054 34.6217 56.7353 34.7089 56.7652 34.8256C56.4389 34.7961 56.1126 34.7961 55.785 34.7961H54.8049H53.8247L52.8445 34.8256L52.9043 33.4866L52.9342 32.1182V30.3124C52.8744 29.8468 52.8744 29.4095 52.8445 28.9439ZM57.9208 29.6134C58.1289 29.1479 58.3954 28.74 58.7515 28.4194C59.1143 28.0825 59.5512 27.8331 60.0281 27.6909C60.5532 27.5123 61.1054 27.4239 61.6609 27.4293C62.2162 27.4239 62.7684 27.5123 63.2936 27.6909C63.7979 27.8654 64.2139 28.0988 64.5701 28.4194C64.9264 28.74 65.1941 29.1479 65.4008 29.6134C65.6075 30.079 65.6972 30.6035 65.6972 31.2153C65.6972 31.7975 65.6075 32.3516 65.4008 32.8171C65.1941 33.2827 64.9264 33.661 64.5701 34.0111C64.2139 34.3318 63.7979 34.5639 63.2936 34.7397C62.7892 34.9154 62.2549 34.9731 61.6609 34.9731C61.0667 34.9731 60.5325 34.8859 60.0281 34.7397C59.5512 34.5974 59.1143 34.3481 58.7515 34.0111C58.3954 33.6905 58.1275 33.2827 57.9208 32.8171C57.7142 32.3516 57.6245 31.827 57.6245 31.2153C57.6258 30.6682 57.7261 30.1257 57.9208 29.6134ZM64.3933 29.7006C64.2452 29.2928 64.0371 28.9145 63.7694 28.6528C63.4959 28.3899 63.1732 28.1821 62.8191 28.0411C62.4629 27.9243 62.0769 27.8371 61.6609 27.8371C61.2449 27.8371 60.8587 27.8949 60.5025 28.0411C60.1486 28.1821 59.8258 28.3899 59.5523 28.6528C59.2764 28.9581 59.0643 29.3142 58.9283 29.7006C58.7801 30.138 58.6904 30.633 58.6904 31.214C58.6904 31.795 58.7502 32.2913 58.9283 32.7287C59.0766 33.1647 59.2845 33.5148 59.5523 33.7765C59.8097 34.0585 60.1373 34.2694 60.5025 34.3882C60.8587 34.505 61.2449 34.5922 61.6609 34.5922C62.0568 34.6005 62.4505 34.5312 62.8191 34.3882C63.1732 34.2471 63.4959 34.0394 63.7694 33.7765C64.0371 33.5148 64.2438 33.1365 64.3933 32.7287C64.5429 32.3208 64.6313 31.7963 64.6313 31.214C64.6013 30.6318 64.5415 30.1367 64.3933 29.7006ZM70.5669 32.0887L67.7759 29.1773L67.7459 29.9635V31.3025V31.8553V32.5542L67.7759 33.2827L67.8058 33.9522C67.8058 34.1561 67.8058 34.3305 67.8356 34.505C67.8356 34.6511 67.8356 34.7666 67.8655 34.8256C67.7472 34.7961 67.6276 34.7961 67.4794 34.7961C67.3312 34.7961 67.2117 34.7961 67.0933 34.8256C67.0933 34.7678 67.1233 34.6217 67.1532 34.4472C67.1532 34.2728 67.1831 34.0394 67.213 33.7777C67.213 33.5161 67.2428 33.225 67.2727 32.9338C67.3026 32.6132 67.3026 32.3221 67.3026 32.0015L67.3325 31.0986V30.3124V28.5938L67.3026 27.5165H67.4808L68.8756 29.0017L70.3602 30.574L71.755 32.0297L72.9132 33.1942V31.7681V29.6134L72.8534 27.6332C73.0016 27.6627 73.1213 27.6909 73.2097 27.6909C73.2981 27.6909 73.4176 27.6615 73.5658 27.6332C73.5359 27.7794 73.5359 28.0116 73.506 28.3322L73.4462 29.3223L73.3865 30.3419L73.3566 31.1575V31.7975V32.5542V33.3404L73.3865 34.0676V34.6499V34.9988H73.2382L70.5669 32.0887ZM75.465 28.9439L75.4052 27.5755L76.2073 27.605H77.0095L77.8115 27.5755C78.0793 27.546 78.3458 27.546 78.6136 27.546C79.1571 27.5385 79.6982 27.6174 80.2164 27.7794C80.6623 27.9538 81.0185 28.1578 81.3149 28.4784C81.6113 28.7695 81.8192 29.1479 81.9389 29.5557C82.087 29.993 82.1468 30.4881 82.1468 31.0114C82.1468 31.7103 82.0285 32.2926 81.7907 32.7876C81.5527 33.2827 81.2265 33.661 80.8404 33.9522C80.4627 34.2416 80.0279 34.45 79.5639 34.5639C79.1276 34.6772 78.6786 34.7359 78.2275 34.7384H77.5151H76.8027H76.0903L75.378 34.7678L75.4377 33.4289L75.4676 32.0604V30.256C75.4975 29.8482 75.4676 29.4121 75.4676 28.9452L75.465 28.9439ZM76.4452 34.3305C76.5935 34.36 76.8014 34.3882 77.0692 34.4177C77.3358 34.4429 77.6036 34.4527 77.8713 34.4472C78.2574 34.4472 78.6435 34.3895 79.0581 34.301C79.4507 34.2103 79.8166 34.0307 80.1267 33.7765C80.453 33.5148 80.6909 33.1942 80.8989 32.7287C81.1069 32.2913 81.1953 31.7386 81.1953 31.0396C81.1953 30.4278 81.1056 29.9328 80.9574 29.525C80.8355 29.1657 80.6204 28.8442 80.3334 28.5925C80.0656 28.3591 79.7393 28.2141 79.3831 28.1269C79.027 28.0397 78.611 28.0102 78.1663 28.0102L77.2759 28.0397L76.5336 28.0974L76.4738 29.1453L76.4439 30.2521V32.0566C76.3696 32.812 76.3696 33.5727 76.4439 34.3279L76.4452 34.3305ZM83.5092 29.6147C83.7172 29.1491 83.9836 28.7413 84.3399 28.4206C84.6961 28.1 85.1121 27.8384 85.6164 27.6922C86.1416 27.5136 86.6937 27.4251 87.2491 27.4305C87.8046 27.4251 88.3568 27.5136 88.8819 27.6922C89.3863 27.8666 89.8023 28.1 90.1585 28.4206C90.5146 28.7413 90.7828 29.1491 90.9887 29.6147C91.1955 30.0802 91.2858 30.6048 91.2858 31.2166C91.2858 31.7988 91.1955 32.3516 90.9887 32.8185C90.7937 33.2659 90.511 33.6714 90.1585 34.0125C89.8023 34.3331 89.3863 34.5653 88.8819 34.7409C88.3775 34.9166 87.8432 34.9743 87.2491 34.9743C86.6551 34.9743 86.1208 34.8871 85.6164 34.7409C85.1121 34.5947 84.6961 34.3331 84.3399 34.0125C83.981 33.6765 83.698 33.2696 83.5092 32.8185C83.3012 32.3516 83.2128 31.8284 83.2128 31.2166C83.214 30.6694 83.3144 30.127 83.5092 29.6147ZM89.9817 29.7019C89.8334 29.294 89.6255 28.9157 89.3577 28.6541C89.0842 28.3912 88.7614 28.1834 88.4075 28.0423C88.0512 27.9256 87.6651 27.8384 87.2491 27.8384C86.8532 27.83 86.4595 27.8993 86.0909 28.0423C85.7347 28.1872 85.4084 28.3912 85.1406 28.6541C84.8647 28.9594 84.6527 29.3155 84.5167 29.7019C84.3685 30.1392 84.2787 30.6343 84.2787 31.2166C84.2787 31.7988 84.3386 32.2939 84.5167 32.7299C84.6648 33.1673 84.8729 33.5161 85.1406 33.7777C85.3984 34.0593 85.7258 34.2701 86.0909 34.3895C86.4471 34.5062 86.8331 34.5934 87.2491 34.5934C87.6451 34.6018 88.0389 34.5325 88.4075 34.3895C88.7614 34.2485 89.0842 34.0406 89.3577 33.7777C89.6255 33.5161 89.8322 33.1377 89.9817 32.7299C90.1312 32.3221 90.2196 31.7975 90.2196 31.2166C90.1897 30.6343 90.1299 30.1392 89.9817 29.7019ZM96.1564 32.0887L93.3653 29.1773L93.3355 29.9635V31.3025V31.8553V32.5542L93.3653 33.2814L93.3951 33.9509C93.3951 34.1548 93.3951 34.3293 93.4249 34.5037C93.4249 34.6499 93.4547 34.7653 93.4547 34.8243C93.3364 34.7948 93.2172 34.7948 93.0691 34.7948C92.9211 34.7948 92.801 34.7948 92.6827 34.8243C92.7125 34.7666 92.7125 34.6204 92.7432 34.446C92.773 34.2715 92.773 34.0381 92.8028 33.7765L92.8624 32.9326C92.8922 32.612 92.8922 32.3208 92.8922 32.0002L92.922 31.0973V30.3111V28.5938L92.8922 27.5165H93.07L94.4651 29.0017L95.9496 30.574L97.3447 32.0297L98.5032 33.1942V31.7681L98.4734 29.6134L98.4129 27.6332C98.561 27.6627 98.6811 27.6909 98.7696 27.6909C98.8581 27.6909 98.9773 27.6615 99.1254 27.6332C99.1254 27.7794 99.0956 28.0116 99.0658 28.3322L99.0062 29.3223L98.9466 30.3419L98.9159 31.1575V31.7975V32.5542V33.3404V34.0689V34.6511V35H98.7678L96.1564 32.0887ZM104.323 29.0901C104.233 28.9439 104.145 28.8285 103.997 28.74V28.6528C104.412 28.5066 104.828 28.3039 105.243 28.1283L106.431 27.5755L106.521 27.6332L106.461 29.0017L106.431 30.3701V32.1169L106.461 33.4854L106.521 34.7961C106.431 34.7666 106.343 34.7666 106.253 34.7666H106.015H105.748C105.657 34.7666 105.57 34.7666 105.509 34.7961L105.57 33.4854L105.6 32.1169V28.3899L104.323 29.0901ZM112.427 31.3897L110.556 34.7961C110.438 34.7666 110.319 34.7666 110.14 34.7666C109.992 34.7666 109.873 34.7666 109.754 34.7961L110.822 33.1365L111.892 31.3897L112.841 29.8173L113.554 28.5938H112.129L109.814 28.681C109.844 28.5348 109.844 28.3899 109.844 28.2155C109.844 28.0411 109.814 27.8949 109.814 27.7499L110.616 27.8076L111.269 27.8371L111.951 27.8666H112.782H113.286H113.88H114.414V28.0411L112.427 31.3897ZM116.526 34.505C116.702 34.5882 116.895 34.6282 117.09 34.6217C117.476 34.6217 117.802 34.5049 118.07 34.301C118.358 34.073 118.591 33.7848 118.752 33.4571C118.929 33.0964 119.058 32.715 119.139 32.3221C119.228 31.9156 119.257 31.4782 119.257 31.0703H119.226C119.058 31.352 118.837 31.5992 118.574 31.7989C118.306 31.9732 117.922 32.0604 117.505 32.0604C116.853 32.0604 116.348 31.886 115.991 31.5077C115.635 31.1589 115.427 30.6343 115.427 29.9649C115.426 29.6553 115.486 29.3485 115.605 29.0619C115.717 28.8017 115.878 28.5645 116.08 28.3629C116.292 28.1586 116.545 28 116.822 27.8974C117.134 27.7781 117.467 27.7189 117.802 27.723C118.118 27.7217 118.43 27.7809 118.723 27.8974C119.014 28.0172 119.277 28.1958 119.495 28.422C119.702 28.6554 119.881 28.9747 120.029 29.3544C120.147 29.7327 120.237 30.1983 120.237 30.7523C120.237 31.3346 120.177 31.8873 120.029 32.3824C119.894 32.8583 119.683 33.3102 119.405 33.7214C119.147 34.0913 118.801 34.3936 118.397 34.6016C117.994 34.8097 117.545 34.9174 117.09 34.9154C116.911 34.9154 116.733 34.9154 116.585 34.8576L116.229 34.7704L116.139 34.4793C116.109 34.3626 116.05 34.2754 116.021 34.1882L116.081 34.1587C116.2 34.3331 116.378 34.4203 116.527 34.5088L116.526 34.505ZM118.841 28.5361C118.573 28.2155 118.247 28.0705 117.802 28.0705C117.386 28.0705 117.029 28.245 116.763 28.5951C116.497 28.9452 116.378 29.4107 116.378 29.993C116.378 30.6048 116.496 31.0408 116.733 31.3037C116.852 31.4356 116.999 31.5403 117.163 31.6108C117.327 31.6812 117.504 31.7156 117.684 31.7117C117.913 31.7166 118.14 31.6561 118.336 31.5372C118.515 31.4205 118.693 31.2756 118.811 31.0998C118.945 30.904 119.045 30.6878 119.107 30.4599C119.176 30.2225 119.216 29.978 119.225 29.7314C119.225 29.2363 119.107 28.8285 118.839 28.5373L118.841 28.5361ZM122.491 34.505C122.667 34.5882 122.86 34.6282 123.055 34.6217C123.441 34.6217 123.767 34.5049 124.036 34.301C124.324 34.073 124.557 33.7848 124.718 33.4571C124.896 33.1083 125.014 32.7299 125.104 32.3221C125.188 31.9101 125.227 31.4905 125.222 31.0703H125.192C125.022 31.3596 124.789 31.6083 124.51 31.7989C124.213 31.9732 123.857 32.0604 123.441 32.0604C122.789 32.0604 122.283 31.886 121.898 31.5077C121.542 31.1575 121.364 30.6343 121.364 29.9649C121.363 29.6553 121.423 29.3485 121.542 29.0619C121.654 28.8017 121.815 28.5645 122.017 28.3629C122.224 28.159 122.463 28.0128 122.759 27.8974C123.071 27.7787 123.404 27.7195 123.739 27.723C124.055 27.7217 124.367 27.7809 124.66 27.8974C124.956 28.0141 125.193 28.1886 125.432 28.422C125.639 28.6554 125.817 28.9747 125.966 29.3544C126.084 29.7327 126.174 30.1983 126.174 30.7523C126.174 31.3346 126.114 31.8873 125.966 32.3824C125.817 32.8774 125.609 33.343 125.342 33.7214C125.09 34.0855 124.754 34.385 124.362 34.5947C123.975 34.7987 123.531 34.9154 123.025 34.9154C122.847 34.9154 122.669 34.9154 122.521 34.8576L122.165 34.7704L122.075 34.4793C122.045 34.3626 121.985 34.2754 121.957 34.1882L122.017 34.1587C122.165 34.3331 122.313 34.4203 122.491 34.5075V34.505ZM124.806 28.5361C124.539 28.2155 124.212 28.0705 123.767 28.0705C123.351 28.0705 122.995 28.245 122.729 28.5951C122.463 28.9452 122.343 29.4107 122.343 29.993C122.343 30.6048 122.461 31.0408 122.699 31.3037C122.818 31.4356 122.965 31.5403 123.129 31.6108C123.292 31.6812 123.47 31.7156 123.649 31.7117C123.879 31.7166 124.106 31.6561 124.302 31.5372C124.48 31.4205 124.658 31.2756 124.776 31.0998C124.91 30.904 125.01 30.6878 125.073 30.4599C125.132 30.2214 125.162 29.9769 125.163 29.7314C125.192 29.2363 125.044 28.8272 124.806 28.5361ZM0 20.4421V19.4815C0.772174 19.4815 1.21676 19.452 1.42475 19.3943C1.61367 19.3375 1.78644 19.2378 1.92913 19.1031C2.07733 18.9582 2.31522 18.5786 2.61162 17.9681L4.48225 14.0077L8.07403 6.05863L10.5973 0.2347H11.5177L17.6625 14.386L19.6514 18.6953C19.8295 19.0159 20.0375 19.2481 20.2455 19.3353C20.4535 19.4225 20.9579 19.4815 21.7002 19.5097V20.4703L18.553 20.3241L13.9512 20.4409V19.4802L15.9102 19.393C16.1481 19.3353 16.2963 19.2763 16.3847 19.1891C16.4252 19.1463 16.4565 19.0958 16.4769 19.0407C16.4973 18.9856 16.5061 18.927 16.503 18.8685C16.503 18.6646 16.4432 18.4029 16.2949 18.0527L14.5439 13.7435H6.23459L4.66165 17.3538C4.39385 17.9938 4.24566 18.4888 4.24566 18.7799C4.24566 18.9249 4.27556 19.0133 4.36396 19.1006C4.48225 19.2173 4.63174 19.3045 4.86834 19.3622C5.22452 19.4199 5.8485 19.4789 6.73898 19.4789V20.4395L3.0874 20.3228L0 20.4421ZM6.70908 12.5508H13.9524L10.3607 4.07842L6.70908 12.5508ZM21.9095 5.09802H21.019L20.8708 0.439903L25.7989 0.586113L29.4206 0.643824L33.9627 0.556612L37.7026 0.439903C37.5843 1.48773 37.4947 3.06009 37.4648 5.09802H36.5444L36.4261 3.75907L36.2779 2.36113C36.248 2.24441 36.218 2.1572 36.1596 2.1277C36.0998 2.06999 36.0412 2.0405 35.9217 2.01099C35.8021 1.98149 35.299 1.95327 34.497 1.89428L32.5379 1.83657H30.7869C30.6972 2.73946 30.6387 3.96171 30.6387 5.47636V13.7166L30.6686 17.4436C30.6985 18.3465 30.7582 18.8697 30.8765 19.0454C30.9949 19.2212 31.173 19.3366 31.4108 19.4238C31.6487 19.511 32.3611 19.5405 33.4895 19.57V20.4729L29.6299 20.3561L25.1476 20.4729V19.57L27.2263 19.4238C27.4642 19.3366 27.6423 19.2493 27.7307 19.0749C27.849 18.9005 27.9386 18.4349 27.9686 17.7065L28.0284 13.7178V5.50714L27.9985 4.19641L27.9087 1.80836H25.7717C24.5249 1.80836 23.5448 1.86607 22.8324 1.95456C22.5946 1.98406 22.4463 2.04177 22.3865 2.12899C22.2682 2.27519 22.1786 2.79846 22.0902 3.67186L21.9121 5.09802H21.9095ZM47.4393 19.5392V20.4421L43.1053 20.3549L39.0377 20.4421V19.5392L41.0864 19.3943C41.3243 19.3071 41.5024 19.2198 41.5908 19.0442C41.7091 18.8697 41.7689 18.4042 41.7988 17.6757L41.8586 13.6871V7.16544L41.7988 3.40894C41.7689 2.50604 41.7091 1.98278 41.5908 1.83657C41.4725 1.66215 41.2945 1.54544 41.0565 1.45822C40.8186 1.37102 40.1062 1.34152 38.9779 1.31201V0.409125L43.2534 0.525833L47.4094 0.409125V1.31201L45.3607 1.45822C45.1228 1.54544 44.9447 1.66215 44.8563 1.80707C44.738 1.98149 44.6483 2.44705 44.6184 3.17552L44.5586 7.19365V10.0768C45.063 9.81513 45.687 9.32008 46.3993 8.6506L48.2102 6.90381L51.4158 3.72957L53.7025 1.37102V0.468117L56.4038 0.525833L58.6606 0.468117V1.37102C57.7402 1.37102 57.1461 1.40051 56.8198 1.48773C56.4833 1.57369 56.1627 1.71131 55.8696 1.89557C55.2455 2.3329 54.3265 3.11909 53.05 4.25412L47.3197 9.4073L55.9293 17.3269L58.3043 19.4238C58.4824 19.5405 58.8685 19.5982 59.4028 19.5982V20.4716L57.5322 20.4139L55.2754 20.4716L52.8705 18.2003L51.386 16.8023L44.855 10.804L44.5287 10.9784V13.7153L44.5885 17.4423C44.6184 18.3452 44.6782 18.8684 44.7666 19.0442C44.8849 19.2186 45.063 19.3353 45.3008 19.4225C45.6272 19.4802 46.3109 19.5392 47.4393 19.5392ZM68.7859 19.5392V20.4421L64.7781 20.3549L60.3543 20.4421V19.5392L62.4031 19.393C62.641 19.3058 62.8191 19.2186 62.9075 19.0442C63.0258 18.8697 63.0856 18.4042 63.1155 17.6757L63.1753 13.6871V7.16544L63.1453 3.40894C63.1155 2.50604 63.0557 1.98278 62.9374 1.83657C62.8191 1.66215 62.641 1.54544 62.4031 1.45822C62.1653 1.37102 61.4528 1.34152 60.3245 1.31201V0.409125L64.5701 0.525833L68.7859 0.409125V1.31201L66.7073 1.45822C66.4694 1.54544 66.2913 1.66215 66.2029 1.77885C66.0846 1.95327 66.0248 2.42012 65.9948 3.14731L65.9351 7.13595V13.6576L65.965 17.3846C65.9948 18.2875 66.0547 18.8108 66.173 18.9864C66.2913 19.1621 66.4694 19.2776 66.7073 19.3648C66.9738 19.4815 67.6575 19.5392 68.7859 19.5392ZM70.4186 20.4421V19.5392C71.4274 19.5392 72.1112 19.452 72.4076 19.3058C72.5259 19.2481 72.6455 19.1595 72.7039 19.0442C72.7937 18.8403 72.8821 18.3747 72.912 17.559L72.9717 14.3566V2.91389C72.9717 2.59326 72.9418 2.38934 72.912 2.30212C72.8223 2.1277 72.674 1.92378 72.4076 1.69036C72.2295 1.54415 72.0214 1.45695 71.8135 1.39923C71.5756 1.36973 71.1011 1.34152 70.299 1.31201V0.409125L73.4164 0.466835L75.5834 0.409125L77.3643 2.70997L80.3035 6.29077L84.5791 11.4157L87.8744 15.2594L89.2108 16.7151V6.43697L89.1224 3.20502C89.0925 2.41884 89.0327 1.95328 88.9443 1.74935C88.8757 1.63374 88.772 1.54224 88.6479 1.48773C88.3216 1.34152 87.6678 1.2838 86.6888 1.2838V0.380905L90.1325 0.438621L93.1017 0.380905V1.2838C92.093 1.2838 91.4393 1.37101 91.1124 1.48773C90.9643 1.54544 90.8749 1.63393 90.8162 1.77885C90.7268 1.95327 90.6383 2.44833 90.6086 3.26401L90.5481 6.46647V13.251L90.6086 20.9089L89.1237 20.5011L88.7675 20.4434C88.7077 20.4139 88.6492 20.4139 88.6193 20.3561C88.4319 20.1706 88.2537 19.9762 88.085 19.7739L86.334 17.7655L84.4933 15.4365L74.3107 3.38201V14.3014L74.429 17.5911C74.4589 18.3773 74.5187 18.8723 74.6071 19.0468C74.6669 19.1929 74.7852 19.2802 74.9035 19.3379C75.2298 19.4841 75.8836 19.5418 76.8625 19.5418V20.4447L74.0716 20.3575L70.4199 20.4447L70.4186 20.4421ZM94.8516 19.7431C94.9997 18.8403 95.0891 17.3846 95.1189 15.3761H96.0995C96.1591 16.7446 96.2178 17.5603 96.337 17.7924C96.4553 18.0541 96.7235 18.317 97.1388 18.5786C97.5551 18.8697 98.1195 19.1031 98.8319 19.3353C99.4929 19.5508 100.185 19.659 100.881 19.6559C101.86 19.6559 102.751 19.452 103.552 19.0147C104.308 18.6321 104.929 18.033 105.333 17.296C105.719 16.5971 105.897 15.8109 105.897 15.0247C105.897 14.4129 105.807 13.8602 105.629 13.4228C105.452 12.9573 105.154 12.6072 104.769 12.316C104.382 12.0249 103.908 11.8505 103.344 11.7338L101.207 11.4426L98.5059 11.0053C97.4964 10.7142 96.784 10.3653 96.309 9.95749C95.8331 9.54966 95.4476 9.02512 95.1505 8.35562C94.8525 7.68615 94.7044 6.98717 94.7044 6.23048C94.7008 5.13048 95.0096 4.05144 95.5947 3.11524C96.1889 2.12514 97.0494 1.36845 98.2079 0.815681C99.3665 0.262914 100.613 0 101.978 0C102.809 0 103.67 0.11671 104.649 0.32063C105.586 0.516646 106.494 0.829529 107.351 1.25174L107.054 2.91132C106.994 3.40638 106.964 4.19256 106.936 5.18266H105.985L105.867 2.82411C105.629 2.47526 105.303 2.18413 104.887 1.89171C103.949 1.35551 102.884 1.07406 101.8 1.07603C100.405 1.07603 99.306 1.48388 98.4743 2.32777C97.6436 3.14346 97.2273 4.22078 97.2273 5.55973C97.2273 6.34591 97.3754 6.98589 97.6734 7.42323C97.9714 7.86057 98.5041 8.20942 99.2762 8.47105C99.8107 8.64547 100.671 8.82118 101.86 8.96614L105.095 9.4612C105.985 9.72275 106.668 10.0435 107.084 10.3936C107.53 10.7424 107.886 11.2375 108.152 11.8197C108.419 12.402 108.569 13.101 108.569 13.8872C108.569 15.7507 107.767 17.3808 106.194 18.7787C104.621 20.1766 102.572 20.8756 100.048 20.8756C98.1195 20.8461 96.3966 20.4973 94.8543 19.7406L94.8516 19.7431ZM110.233 10.5718C110.233 9.08668 110.47 7.71821 110.915 6.46647C111.36 5.21474 112.132 4.07842 113.172 3.06009C114.191 2.05931 115.416 1.28492 116.763 0.788747C118.099 0.264197 119.613 0.0320601 121.336 0.0320601C122.909 0.0320601 124.362 0.265479 125.639 0.673321C126.946 1.10938 127.984 1.69293 128.817 2.42012C129.648 3.1473 130.301 3.93478 130.775 4.77867C131.132 5.41865 131.429 6.17662 131.638 7.02052C131.844 7.89392 131.964 8.79681 131.964 9.78689C131.964 12.9612 130.866 15.5813 128.699 17.7065C126.531 19.8316 123.8 20.8512 120.475 20.8512C118.96 20.8512 117.566 20.6178 116.259 20.1227C115 19.6745 113.863 18.9475 112.934 17.9976C112.043 17.0652 111.361 15.9007 110.885 14.5617C110.469 13.2228 110.233 11.8813 110.233 10.5718ZM113.202 9.4073C113.203 10.3162 113.292 11.2228 113.469 12.1147C113.62 12.9301 113.848 13.7297 114.152 14.5027C114.627 15.6378 115.22 16.5702 115.963 17.3563C116.705 18.113 117.535 18.6953 118.456 19.0454C119.421 19.4128 120.448 19.6002 121.484 19.5982C123.028 19.5982 124.362 19.2198 125.521 18.4914C126.65 17.7629 127.51 16.7151 128.075 15.3761C128.638 14.0372 128.906 12.4931 128.906 10.7463C128.906 9.26111 128.699 7.86314 128.312 6.6114C128.075 5.85471 127.718 5.15573 127.332 4.51448C126.916 3.90271 126.441 3.34994 125.848 2.88439C125.284 2.41884 124.541 2.04049 123.62 1.71986C122.7 1.39923 121.72 1.2543 120.681 1.2543C119.167 1.2543 117.832 1.60315 116.674 2.27263C115.521 2.93526 114.616 3.94611 114.09 5.15573C113.496 6.37926 113.202 7.80542 113.202 9.4073ZM133.477 20.4421V19.5392C134.486 19.5392 135.139 19.452 135.465 19.3058C135.614 19.2481 135.704 19.1595 135.762 19.0442C135.852 18.8403 135.911 18.3747 135.97 17.559L136.06 14.3566V2.91389C136.06 2.59326 136.03 2.38934 136 2.30212C135.94 2.1277 135.762 1.92378 135.496 1.69036C135.325 1.5479 135.12 1.44807 134.902 1.39923C134.664 1.36973 134.16 1.34152 133.388 1.31201V0.409125L136.505 0.466835L138.672 0.409125L140.453 2.70997L143.393 6.29077L147.667 11.4157L150.962 15.2594L152.299 16.7151V6.43697L152.209 3.20502C152.179 2.41884 152.121 1.95328 152.031 1.74935C151.973 1.63265 151.853 1.54544 151.735 1.48773C151.408 1.34152 150.754 1.2838 149.776 1.2838V0.380905L153.22 0.438621L156.187 0.380905V1.2838C155.178 1.2838 154.526 1.37101 154.198 1.48773C154.08 1.54544 153.962 1.63264 153.902 1.77885C153.812 1.95327 153.723 2.44833 153.694 3.26401L153.634 6.46647V13.251L153.694 20.9089L152.209 20.5011L151.853 20.4434C151.795 20.4139 151.735 20.4139 151.705 20.3561C151.518 20.1708 151.339 19.9765 151.171 19.7739L149.42 17.7655L147.579 15.4365L137.395 3.38201V14.3001L137.484 17.5898C137.514 18.3759 137.603 18.871 137.662 19.0454C137.723 19.1916 137.841 19.2788 137.959 19.3366C138.287 19.4815 138.939 19.5405 139.92 19.5405V20.4434L137.129 20.3561L133.477 20.4421ZM157.939 19.7431C158.087 18.8403 158.175 17.3846 158.205 15.3761H159.155C159.214 16.7446 159.273 17.5603 159.393 17.7924C159.511 18.0541 159.779 18.317 160.193 18.5786C160.61 18.8697 161.174 19.1031 161.886 19.3353C162.547 19.5508 163.239 19.659 163.935 19.6559C164.915 19.6559 165.805 19.452 166.606 19.0147C167.439 18.5786 168.031 17.995 168.388 17.296C168.773 16.5971 168.951 15.8109 168.951 15.0247C168.951 14.4129 168.863 13.8602 168.655 13.4228C168.477 12.9573 168.181 12.6072 167.794 12.316C167.408 12.0249 166.933 11.8505 166.37 11.7338L164.231 11.4426L161.5 11.0053C160.521 10.7142 159.779 10.3653 159.303 9.95749C158.827 9.54966 158.442 9.02512 158.146 8.35562C157.848 7.68589 157.697 6.96186 157.7 6.23048C157.697 5.13048 158.005 4.05144 158.59 3.11524C159.185 2.12514 160.045 1.36845 161.204 0.815681C162.362 0.262914 163.608 0 164.974 0C165.805 0 166.666 0.11671 167.646 0.32063C168.583 0.516646 169.491 0.829529 170.347 1.25174L170.05 2.91132C169.991 3.40638 169.962 4.19256 169.932 5.18266H168.981L168.863 2.82411C168.625 2.47526 168.299 2.18413 167.883 1.89171C166.945 1.35551 165.879 1.07406 164.796 1.07603C163.401 1.07603 162.303 1.48388 161.47 2.32777C160.639 3.14346 160.224 4.22078 160.224 5.55973C160.224 6.34591 160.372 6.98589 160.669 7.42323C160.967 7.86057 161.5 8.20942 162.272 8.47105C162.806 8.64547 163.667 8.82118 164.855 8.96614L168.091 9.4612C168.981 9.72275 169.664 10.0435 170.08 10.3936C170.526 10.7424 170.882 11.2375 171.148 11.8197C171.414 12.402 171.564 13.101 171.564 13.8872C171.564 15.7507 170.763 17.3808 169.19 18.7787C167.617 20.1766 165.568 20.8756 163.045 20.8756C161.204 20.8461 159.481 20.4973 157.939 19.7406V19.7431Z" fill="#181D27"/>
</svg>
