<svg width="119" height="35" viewBox="0 0 119 35" fill="none" xmlns="http://www.w3.org/2000/svg">
<path d="M106.363 22.7922C103.38 22.7225 100.629 22.0038 98.2837 20.1065C95.0169 17.4661 93.9549 13.9273 94.3272 9.88345C94.8938 3.70592 99.9349 0.615535 104.398 0.11531C107.738 -0.258644 110.891 0.24158 113.736 2.13725C116.721 4.12682 118.187 6.97761 118.375 10.5132C118.495 12.7812 118.202 14.9861 117.054 16.9934C115.346 19.9818 112.75 21.7561 109.392 22.4069C108.395 22.5995 107.375 22.6659 106.365 22.7905L106.363 22.7922ZM114.736 11.6901C114.584 10.259 114.519 9.06431 114.323 7.89065C113.601 3.5667 110.896 1.06396 106.802 0.864837C102.468 0.654387 99.5723 2.77832 98.5168 6.98895C97.9065 9.42208 97.913 11.8924 98.2497 14.3628C98.3517 15.1107 98.5233 15.8602 98.7613 16.5758C99.8799 19.9381 102.109 21.5732 105.87 21.8435C109.962 22.1381 113.08 19.9446 114.061 15.9574C114.422 14.4939 114.542 12.9706 114.738 11.6901H114.736Z" fill="#181D27"/>
<path d="M34.3652 22.7372C33.9637 22.4215 33.6432 22.2516 33.4344 21.9925C32.6557 21.0293 31.9127 20.0402 31.1599 19.056C27.0529 13.6911 22.9475 8.32622 18.8388 2.96136C18.6834 2.75738 18.5102 2.56636 18.282 2.29439C18.2463 2.4757 18.2124 2.56959 18.2124 2.66349C18.214 8.01055 18.2399 13.3576 18.2124 18.703C18.2026 20.5987 18.8097 21.3531 20.9595 21.6672C21.2169 21.7044 21.4873 21.6931 21.7333 21.7675C21.8888 21.8145 22.1283 21.9925 22.117 22.0848C22.0976 22.2435 21.9341 22.4183 21.7851 22.5138C21.6751 22.585 21.4905 22.5511 21.3383 22.5511C19.0558 22.5511 16.7748 22.5511 14.4922 22.5511C14.1717 22.5511 13.7411 22.6158 13.8058 22.1285C13.8301 21.9505 14.1976 21.7708 14.4421 21.6801C14.7432 21.57 15.0847 21.5781 15.3956 21.4891C16.9124 21.0601 17.3074 20.5663 17.3123 18.9928C17.3252 14.0829 17.3301 9.17126 17.309 4.26129C17.3058 3.57328 17.1909 2.87556 17.0468 2.2005C16.8833 1.4364 16.4543 1.11749 15.6724 1.04302C15.2612 1.00417 14.8451 1.00417 14.4404 0.934556C14.2964 0.910273 14.1798 0.727343 14.0503 0.617261C14.1863 0.486135 14.3061 0.270828 14.4631 0.238451C14.7772 0.173697 15.1106 0.206074 15.4376 0.202836C17.0015 0.193123 18.5669 0.16884 20.1307 0.194742C20.3816 0.199598 20.7086 0.371196 20.864 0.570315C24.9549 5.86557 29.0263 11.1738 33.1025 16.4804C33.2417 16.6601 33.3874 16.8349 33.6125 17.1117C33.6594 16.8559 33.7015 16.7394 33.7015 16.6212C33.6966 12.7959 33.6885 8.97052 33.6788 5.1468C33.6788 4.66924 33.6594 4.19168 33.6562 3.7125C33.6448 2.01109 33.1673 1.45583 31.1162 1.0414C30.862 0.989597 30.5852 1.01874 30.344 0.936175C30.1562 0.871421 30.0089 0.693347 29.8438 0.563839C30.0316 0.45052 30.208 0.278922 30.4104 0.238451C30.7034 0.180172 31.0158 0.212549 31.3202 0.214168C33.3405 0.219024 35.3624 0.214168 37.3828 0.243307C37.5981 0.246545 37.8101 0.431094 38.0238 0.531462C37.8247 0.693347 37.6466 0.949125 37.4216 1.00255C34.8088 1.63228 34.5109 1.99814 34.5044 4.67734C34.4883 10.3061 34.4721 15.9348 34.451 21.5636C34.451 21.8808 34.4057 22.1998 34.3668 22.7356L34.3652 22.7372Z" fill="#181D27"/>
<path d="M61.0291 22.5509C60.9984 22.2774 60.9741 22.0718 60.9433 21.8128C61.6508 21.7674 62.2951 21.7448 62.9329 21.68C64.3737 21.5311 64.882 21.0503 64.9241 19.6225C64.9937 17.2557 65.0066 14.8889 65.0163 12.5206C65.0309 8.89272 65.0163 5.26488 65.0374 1.63704C65.0406 1.15786 64.9257 0.981403 64.4271 0.994353C62.9717 1.02997 61.5164 1.05263 60.061 1.02187C58.4649 0.987878 57.4855 1.78435 56.9658 3.2138C56.7375 3.84191 56.6356 4.51535 56.4154 5.14832C56.3506 5.33611 56.0819 5.45428 55.9071 5.60484C55.7857 5.43648 55.5623 5.26973 55.559 5.09975C55.5315 3.49709 55.5428 1.89443 55.5428 0.228638H77.6369C77.6498 0.335482 77.6838 0.498986 77.6871 0.662489C77.7081 2.09517 77.7389 3.52947 77.7259 4.96215C77.7243 5.17422 77.5074 5.38467 77.3892 5.59674C77.2273 5.40734 76.9991 5.24383 76.9181 5.02529C76.6219 4.23853 76.4519 3.39511 76.0909 2.64396C75.5939 1.60952 74.7035 1.05101 73.5299 1.03644C71.9661 1.01702 70.4023 1.02835 68.8384 0.99921C68.3981 0.991116 68.2929 1.15786 68.2945 1.57066C68.3139 7.26254 68.3156 12.9544 68.3301 18.6463C68.3301 19.1222 68.3803 19.6014 68.4354 20.0757C68.5438 21.0066 69.0473 21.523 69.9846 21.6347C70.5658 21.7043 71.1583 21.6832 71.7378 21.7626C71.945 21.7901 72.1296 21.9924 72.3238 22.1139C72.1457 22.2596 71.9677 22.5331 71.788 22.5348C68.2265 22.559 64.6667 22.5542 61.0275 22.5542L61.0291 22.5509Z" fill="#181D27"/>
<path d="M45.095 11.3306C45.095 8.6368 45.0983 5.94304 45.0902 3.25089C45.0902 2.94979 45.0432 2.64382 44.9801 2.34919C44.7907 1.47501 44.4022 1.1302 43.5167 1.05249C43.0407 1.01202 42.5583 1.03631 42.0872 0.969933C41.9027 0.944032 41.7424 0.748151 41.5708 0.631594C41.7424 0.490754 41.9124 0.231738 42.0872 0.2285C44.1933 0.196123 46.3011 0.196123 48.4072 0.197742C49.4271 0.197742 50.4486 0.20098 51.4684 0.249545C51.6659 0.259258 51.8537 0.487516 52.0464 0.613787C51.8634 0.727106 51.6918 0.908417 51.4943 0.939175C51.0459 1.01202 50.5846 1.00069 50.1313 1.04602C49.16 1.14153 48.7391 1.53653 48.6015 2.50946C48.5351 2.98054 48.4849 3.45972 48.4849 3.93405C48.4768 8.88773 48.4768 13.8398 48.4849 18.7935C48.4849 19.2467 48.5286 19.7049 48.5966 20.1533C48.7423 21.0971 49.236 21.5504 50.1993 21.6459C50.6525 21.6912 51.1139 21.6831 51.5607 21.7576C51.7291 21.7851 51.8683 21.9826 52.0205 22.1024C51.8667 22.2481 51.7323 22.4278 51.5526 22.5298C51.4361 22.5961 51.2548 22.5508 51.1042 22.5508C48.1935 22.5508 45.2828 22.5508 42.3705 22.5508C42.2183 22.5508 42.037 22.5978 41.9221 22.5314C41.7796 22.4488 41.6161 22.2724 41.6097 22.1299C41.6048 22.0117 41.8023 21.7981 41.9318 21.777C42.445 21.6993 42.9727 21.7123 43.4859 21.6329C44.4054 21.4921 44.8425 21.0922 44.985 20.1792C45.0934 19.475 45.1226 18.753 45.129 18.0391C45.1468 15.8018 45.1355 13.5646 45.1355 11.3273C45.1226 11.3273 45.108 11.3273 45.095 11.3273V11.3306Z" fill="#181D27"/>
<path d="M5.17708 22.5541C3.67802 22.5541 2.17897 22.5541 0.679916 22.5541C0.396618 22.5541 0.0955121 22.5962 0.0679916 22.1705C0.0404712 21.7285 0.357766 21.7609 0.634589 21.7382C1.02473 21.7059 1.41649 21.6994 1.8034 21.6524C2.88317 21.5246 3.39796 21.0081 3.48214 19.93C3.54852 19.0866 3.59708 18.2383 3.5987 17.3916C3.60841 13.1341 3.60356 8.87648 3.59222 4.61891C3.59061 3.99079 3.5388 3.36106 3.487 2.73295C3.38825 1.55442 2.88803 1.08981 1.6917 1.03477C1.34526 1.01858 0.987498 1.05582 0.652396 0.984589C0.419282 0.936023 0.216926 0.746618 0 0.618729C0.226639 0.482745 0.451659 0.235061 0.681535 0.230205C2.7229 0.191352 4.76427 0.191352 6.80726 0.186496C7.76238 0.184877 8.71912 0.184877 9.67424 0.210779C9.96563 0.218873 10.4238 0.0764141 10.4367 0.571782C10.4513 1.1141 9.95916 0.953831 9.64996 0.995921C9.32942 1.03963 8.99918 1.01697 8.67379 1.04449C7.5665 1.13838 7.05656 1.61756 6.99828 2.72809C6.91734 4.26762 6.8542 5.81038 6.8542 7.35153C6.8542 11.2173 6.86554 15.0848 6.92705 18.9506C6.96429 21.2655 7.43537 21.6703 9.76975 21.7544C10.0093 21.7625 10.2408 21.9762 10.4756 22.0944C10.2295 22.2466 9.98668 22.5234 9.73575 22.5299C8.21566 22.5703 6.69556 22.5509 5.17384 22.5509L5.17708 22.5541Z" fill="#181D27"/>
<path d="M86.5588 22.5541C85.1034 22.5541 83.6465 22.5541 82.1911 22.5541C82.06 22.5541 81.8932 22.6027 81.8074 22.5395C81.6375 22.4149 81.5128 22.2287 81.3704 22.0685C81.5063 21.9649 81.6326 21.7981 81.7816 21.7722C82.1652 21.7058 82.5602 21.7075 82.9487 21.6702C84.2794 21.5472 84.8023 21.0324 84.8541 19.6774C84.9173 18.0278 84.948 16.3766 84.9448 14.7254C84.9367 10.8806 84.9011 7.0342 84.8719 3.18943C84.8703 2.93042 84.8379 2.66816 84.7894 2.414C84.6178 1.51878 84.2147 1.14482 83.3049 1.04931C82.939 1.01046 82.5667 1.02665 82.1992 0.99589C81.8819 0.968369 81.3866 1.12864 81.3817 0.620317C81.3752 0.0504814 81.9078 0.218842 82.2364 0.215604C84.3879 0.19294 86.5377 0.189702 88.6892 0.186465C89.5148 0.186465 90.342 0.179989 91.1644 0.233411C91.3846 0.247981 91.5918 0.47462 91.8038 0.604128C91.5918 0.732017 91.3927 0.926279 91.1628 0.971607C90.7823 1.04607 90.3825 1.01046 89.994 1.04607C88.932 1.14482 88.4723 1.56734 88.3654 2.63255C88.2683 3.60386 88.1825 4.58326 88.1841 5.55781C88.1938 10.0113 88.223 14.4663 88.2748 18.9198C88.3007 21.2445 88.7928 21.6994 91.1547 21.7431C91.7358 21.7544 91.9754 21.9778 91.7326 22.3145C91.6258 22.4635 91.3328 22.5395 91.1223 22.5428C89.6022 22.5622 88.0805 22.5525 86.5588 22.5541Z" fill="#181D27"/>
<path d="M52.0705 30.464C51.3857 31.8708 50.7026 33.2792 49.9174 34.8916C49.1161 33.3876 48.4006 32.0424 47.6834 30.6987C47.6009 30.7182 47.5167 30.736 47.4341 30.7554V34.7378H46.5405C46.8028 32.7531 47.0667 30.7716 47.3289 28.7885C47.3904 28.7626 47.4519 28.7367 47.5135 28.7124C48.3439 30.3199 49.1744 31.9274 50.0729 33.6693C50.9292 31.9485 51.7322 30.3345 52.5351 28.7221C52.6031 28.7448 52.6727 28.7674 52.7407 28.7885C52.8848 30.0496 53.0289 31.3107 53.173 32.5717C53.2183 32.9603 53.2069 33.3666 53.3284 33.7308C53.4482 34.0902 53.7007 34.4043 53.9031 34.7507C53.644 34.7394 53.2345 34.7782 52.8638 34.6746C52.7116 34.6325 52.574 34.2926 52.5513 34.074C52.4267 32.8907 52.3392 31.7024 52.2389 30.5158C52.1838 30.498 52.1288 30.4802 52.0721 30.4624L52.0705 30.464Z" fill="#181D27"/>
<path d="M86.0901 34.7685C85.5462 34.843 84.9861 34.694 84.5539 34.2213C84.1152 33.7438 83.7315 33.216 83.3009 32.7304C83.1341 32.5426 82.9285 32.3467 82.7019 32.2609C81.9993 31.997 81.7209 32.1913 81.7468 32.9408C81.7678 33.5252 81.8682 34.1048 81.9378 34.728H80.7868C81.0652 32.7385 81.1089 30.7716 80.7593 28.8225C81.457 28.8225 82.2567 28.748 83.0386 28.8387C84.4794 29.0054 84.9683 30.2098 84.1281 31.3884C83.5777 32.1605 83.5664 32.1703 84.2285 32.8728C84.8388 33.522 85.4766 34.1453 86.0901 34.7685ZM81.7533 30.4786H81.7354C81.7354 30.6744 81.695 30.88 81.7452 31.0613C81.8277 31.356 81.9103 31.8271 82.0981 31.8853C82.9221 32.1395 83.4709 31.9517 83.6748 31.4304C83.9338 30.7667 83.9775 30.0415 83.411 29.5607C83.0613 29.2644 82.4866 29.2337 82.0139 29.0847C81.9281 29.4198 81.8326 29.7517 81.7597 30.09C81.7322 30.2147 81.7549 30.3491 81.7549 30.4786H81.7533Z" fill="#181D27"/>
<path d="M23.3163 34.754C22.7982 34.7977 22.2057 34.6827 21.7525 34.1809C21.3461 33.7309 20.9738 33.2501 20.5885 32.7806C20.5205 32.6964 20.48 32.5491 20.3991 32.5232C20.0219 32.4066 19.6366 32.2804 19.2497 32.2642C19.1817 32.2609 19.015 32.7612 19.0247 33.025C19.0474 33.5965 19.1542 34.1647 19.2287 34.7443H18.1457C18.1748 33.7632 18.2509 32.7644 18.2218 31.7688C18.1942 30.7943 18.4549 29.7873 17.9644 28.816C18.7527 28.816 19.5363 28.7464 20.3004 28.8306C21.7946 28.9957 22.3207 30.2503 21.3639 31.3851C20.9236 31.9064 20.8929 32.2464 21.385 32.7207C22.06 33.3715 22.6801 34.0789 23.3163 34.7556V34.754ZM19.0037 30.4171C19.0037 30.4171 19.0134 30.4171 19.0182 30.4171C19.0182 30.7651 18.9956 31.1148 19.0296 31.458C19.0441 31.6069 19.1429 31.8061 19.2643 31.8773C19.7499 32.1606 20.6565 31.8838 20.9188 31.4046C21.2587 30.7813 21.1211 29.7793 20.5238 29.4021C20.1725 29.1803 19.6771 29.1366 19.2465 29.1333C19.1688 29.1333 19.0765 29.7129 19.0085 30.0286C18.9826 30.1532 19.0037 30.2876 19.0037 30.4187V30.4171Z" fill="#181D27"/>
<path d="M36.584 28.8287H37.6427C37.6427 30.1707 37.6006 31.4852 37.654 32.7949C37.7075 34.0916 38.7112 34.7618 39.9641 34.4396C40.5324 34.2939 40.9435 33.9248 40.9905 33.3841C41.1022 32.068 41.12 30.7438 41.1491 29.4212C41.1524 29.248 41.0034 29.0715 40.9031 28.8465H41.7999C41.7999 29.9878 41.8339 31.1242 41.7918 32.2574C41.7254 34.1061 40.7719 34.9512 38.9556 34.8362C37.7544 34.7601 36.966 34.0543 36.864 32.8369C36.7847 31.8867 36.8446 30.9267 36.8041 29.9716C36.7896 29.6073 36.6682 29.248 36.584 28.8303V28.8287Z" fill="#181D27"/>
<path d="M8.38082 34.7976H7.62158C8.43101 32.8274 9.255 30.8184 10.1405 28.6638C11.2786 30.7699 11.693 33.012 13.0302 34.796C12.333 34.8942 11.8522 34.6206 11.5878 33.9752C11.5716 33.9347 11.5586 33.8943 11.5408 33.8538C10.9855 32.5344 10.9095 32.4713 9.48326 32.6461C9.25014 32.6753 8.94742 32.9262 8.85514 33.148C8.64469 33.6498 8.54433 34.1986 8.38082 34.796V34.7976ZM10.1065 30.1596C10.0288 30.1693 9.95111 30.1806 9.87178 30.1903C9.6759 30.8848 9.48002 31.5777 9.27928 32.2851H10.9273C10.6278 31.5113 10.3671 30.8346 10.1049 30.1596H10.1065Z" fill="#181D27"/>
<path d="M73.554 34.7377H72.2751C72.4338 32.7919 72.5342 30.8314 72.3124 28.8176C73.0004 28.8176 73.7936 28.7593 74.5739 28.8338C75.4465 28.9163 75.9321 29.4004 76.0163 30.0884C76.0989 30.7618 75.5825 31.6425 74.8944 31.9064C74.5658 32.0326 74.1951 32.0488 73.8438 32.1152C73.8309 32.0634 73.8179 32.0116 73.805 31.9598C73.9296 31.9161 74.0526 31.8562 74.1805 31.8287C74.9705 31.6603 75.4157 31.0111 75.2474 30.26C75.066 29.4489 74.2113 28.816 73.52 29.0345C73.3598 29.0847 73.1687 29.3712 73.1687 29.5493C73.1671 31.0435 73.193 32.5393 73.2465 34.0319C73.2546 34.2602 73.4391 34.482 73.5557 34.7377H73.554Z" fill="#181D27"/>
<path d="M96.675 28.7868H97.9248C98.5124 30.3571 99.0855 31.8902 99.6586 33.4216C99.7411 33.4248 99.8253 33.4281 99.9079 33.4329C100.52 31.9468 101.311 30.5287 101.609 28.8435H102.385C101.496 30.8347 100.602 32.8372 99.6375 35C99.4125 34.5726 99.2377 34.2909 99.1098 33.9898C98.5205 32.5928 97.9588 31.1827 97.355 29.7921C97.2044 29.4457 96.9292 29.1559 96.675 28.7852V28.7868Z" fill="#181D27"/>
<path d="M1.79981 34.7228H0.645572C0.809075 32.7495 0.833358 30.8036 0.642334 28.7849C1.22836 28.7849 1.98112 28.738 2.72741 28.7962C3.81852 28.882 4.44339 29.5182 4.35759 30.3519C4.24589 31.4544 3.0787 32.2233 2.12196 31.9821C2.37288 31.885 2.5121 31.8219 2.6578 31.7782C3.41219 31.545 3.77319 30.9056 3.56274 30.1674C3.3361 29.3709 2.53153 28.8432 1.82733 29.0698C1.69944 29.1119 1.54727 29.3353 1.54565 29.4762C1.52623 30.9509 1.52299 32.4257 1.54727 33.9005C1.55213 34.1595 1.70106 34.4153 1.79981 34.7245V34.7228Z" fill="#181D27"/>
<path d="M110.499 31.3981V32.0019C109.975 31.9096 109.478 31.806 108.974 31.7397C108.625 31.6927 108.464 31.8562 108.489 32.2367C108.519 32.7126 108.524 33.1934 108.495 33.6677C108.463 34.176 108.725 34.4351 109.175 34.4075C109.73 34.3752 110.279 34.2343 110.85 34.1372C110.818 34.469 110.672 34.8139 110.138 34.8042C109.683 34.7961 109.228 34.7572 108.772 34.7459C108.343 34.7362 107.914 34.7443 107.478 34.7443C107.856 33.6434 107.833 29.4603 107.393 28.7788C108.391 28.7788 109.33 28.7513 110.264 28.8063C110.425 28.816 110.562 29.1835 110.769 29.4668C110.093 29.3146 109.609 29.1754 109.115 29.1042C108.704 29.0443 108.463 29.2207 108.493 29.6999C108.615 31.5907 108.053 31.4337 110.227 31.3576C110.31 31.3544 110.392 31.3819 110.501 31.3997L110.499 31.3981Z" fill="#181D27"/>
<path d="M61.2655 29.5152C60.987 29.3711 60.7151 29.1251 60.4269 29.1056C60.0012 29.0765 59.5333 29.1348 59.1497 29.3064C58.9829 29.3808 58.9004 29.8357 58.9295 30.1012C58.9538 30.3198 59.1642 30.5529 59.352 30.7099C59.7988 31.0871 60.299 31.4012 60.741 31.7816C61.3141 32.2721 61.6896 32.8792 61.4452 33.6708C61.1813 34.5239 60.5014 34.8072 59.6806 34.8364C59.3779 34.8477 59.072 34.8396 58.7725 34.8024C58.2042 34.7328 57.9145 34.4317 58.0569 33.7517C58.3435 33.9622 58.5879 34.1629 58.8518 34.3345C59.6062 34.8218 60.7782 34.4155 60.7798 33.6206C60.7798 33.2499 60.5127 32.816 60.2456 32.5214C59.8862 32.1248 59.3941 31.8528 58.9861 31.4967C58.2123 30.8184 58.0181 29.9879 58.4536 29.3727C58.9279 28.7025 60.2926 28.3642 60.9968 28.7851C61.1862 28.8984 61.2833 29.1688 61.4225 29.3663C61.3691 29.4165 61.3173 29.4666 61.2639 29.5152H61.2655Z" fill="#181D27"/>
<path d="M115.066 33.7031C115.55 34.3021 116.091 34.6922 116.919 34.4494C117.653 34.2341 117.978 33.5267 117.507 32.905C117.263 32.5845 116.908 32.3465 116.599 32.0762C116.257 31.7767 115.878 31.5096 115.572 31.1777C114.774 30.31 115.037 29.1461 116.159 28.7915C116.647 28.6378 117.227 28.6863 117.751 28.7527C118.103 28.798 118.321 29.0991 118.25 29.5686C117.892 29.3857 117.601 29.2011 117.284 29.0829C116.72 28.8725 116.021 29.0651 115.835 29.4893C115.592 30.0413 115.862 30.4492 116.293 30.7811C116.774 31.1518 117.277 31.4966 117.737 31.8933C118.286 32.3676 118.533 32.9779 118.316 33.7031C118.095 34.4462 117.531 34.7748 116.798 34.8185C116.346 34.8444 115.88 34.8525 115.44 34.77C114.927 34.6744 114.799 34.273 115.066 33.7047V33.7031Z" fill="#181D27"/>
<path d="M29.7981 34.7183H28.9191C28.9191 33.7001 28.9709 32.7175 28.9045 31.7413C28.8381 30.7781 29.17 29.7614 28.584 28.8031C29.5245 28.8031 30.4716 28.816 31.4186 28.7982C31.9172 28.7885 32.0208 29.0135 31.914 29.4263C31.3571 29.3195 30.8245 29.2013 30.2854 29.1204C29.8499 29.0556 29.6605 29.2531 29.6913 29.7161C29.7269 30.2519 29.6994 30.7926 29.6994 31.377H31.731C31.7407 31.6053 31.7505 31.8093 31.7569 31.9534C31.077 31.8562 30.423 31.7623 29.6557 31.6539C29.7091 32.7757 29.7528 33.726 29.7997 34.72L29.7981 34.7183Z" fill="#181D27"/>
<path d="M90.9929 28.8338H91.8752C91.8752 29.8472 91.8396 30.8347 91.8849 31.8173C91.9286 32.7627 91.6599 33.7486 92.1455 34.694H90.9929V28.8338Z" fill="#181D27"/>
<path d="M108.692 27.8414C109.026 27.6293 109.345 27.3897 109.697 27.2181C109.819 27.1582 110.023 27.2683 110.188 27.2991C110.097 27.4448 110.033 27.6811 109.908 27.72C109.531 27.8381 109.131 27.8786 108.741 27.9498C108.725 27.9126 108.708 27.877 108.692 27.8398V27.8414Z" fill="#181D27"/>
</svg>
