<svg width="114" height="56" viewBox="0 0 114 56" fill="none" xmlns="http://www.w3.org/2000/svg">
<path d="M102.521 35.0794H96.8263C96.8046 35.0214 96.7843 34.9633 96.7626 34.9052C97.0782 34.7865 97.3836 34.6226 97.7122 34.5568C98.2638 34.4483 98.5606 34.1657 98.5707 33.6818C98.6098 31.7963 98.6735 29.9108 98.6387 28.0266C98.6243 27.1942 98.2797 26.9632 97.3214 26.7515C97.1896 26.7218 97.0695 26.6521 96.8075 26.5437C97.0927 26.4057 97.2664 26.2624 97.456 26.2405C98.342 26.1385 99.2323 26.0701 100.12 25.9901C100.471 25.9578 100.648 26.0675 100.683 26.4121C100.748 27.0471 100.835 27.0677 101.467 26.7025C102.992 25.8249 104.628 25.7307 106.304 26.2379C107.368 26.5592 108.073 27.2045 108.077 28.2834C108.085 29.7817 108.108 31.2813 108.066 32.7784C108.041 33.6443 108.279 34.2315 109.301 34.5671C111.375 35.2485 112.304 36.8488 112.882 38.5871C114.234 42.6511 113.098 46.222 110.09 49.4368C107.863 51.8165 105.014 53.1677 101.656 53.6749C100.357 53.8711 99.0064 53.8285 97.6789 53.8208C95.0718 53.804 92.6035 53.1277 90.1397 52.4631C89.7473 52.3573 89.3811 52.1766 88.9396 52.0063C88.6254 52.4644 88.2534 52.9148 88.0203 53.4142C87.9595 53.5433 88.2838 53.8969 88.5154 54.0376C89.0525 54.3615 89.2074 54.7371 88.9555 55.2688C88.7195 55.7656 88.2563 56.0586 87.7655 55.9902C87.2154 55.914 86.8086 55.4585 86.8101 54.91C86.8101 54.7809 86.7898 54.6274 86.8564 54.5267C87.3327 53.8259 86.7942 53.5627 86.2209 53.2929C85.6911 53.0426 85.1743 52.769 84.6271 52.4941C83.854 53.3975 82.8826 54.0969 81.7014 54.5641C80.371 55.0907 79.058 54.9835 77.7826 54.4583C76.6491 53.9911 76.2539 53.0451 76.0208 52.0398C75.5475 49.9943 76.8735 48.5695 78.6903 48.1282C80.0902 47.7874 81.409 47.679 82.7393 48.2714C82.8667 48.3282 83.149 48.3088 83.2214 48.2262C83.6788 47.71 84.0972 47.1654 84.6285 46.5046C83.3879 45.9626 82.2732 45.4412 81.1267 44.9844C79.0348 44.1494 76.859 43.4783 74.5877 43.2383C69.0649 42.6549 64.6019 46.4659 66.093 51.4875C66.3666 52.4076 66.4404 52.4347 67.5015 52.4347C67.7505 52.4347 68.0009 52.4231 68.2499 52.4399C68.9419 52.4838 69.3762 52.9032 69.3501 53.4891C69.327 54.0105 68.7523 54.4686 68.1196 54.4402C67.3987 54.408 66.8732 54.0789 66.507 53.533C63.2787 48.7192 66.106 44.1275 71.2842 42.784C72.92 42.3594 74.4936 42.6033 76.0715 42.9673C79.1014 43.668 81.9258 44.8192 84.7602 46.1472C85.3176 45.4374 85.8923 44.7056 86.4829 43.9532C86.2151 43.7997 85.9777 43.6835 85.7663 43.539C85.3494 43.255 85.1352 42.8963 85.3625 42.4278C85.5506 42.0432 86.1847 41.7541 86.6118 41.8871C87.1213 42.0458 87.4355 42.3762 87.4485 42.8769C87.4514 43.0202 87.3935 43.1673 87.3472 43.308C87.2458 43.619 87.3182 43.8203 87.6859 43.97C88.1549 44.1623 88.6023 44.4049 89.0322 44.6617C89.3029 44.8231 89.4737 44.7985 89.6561 44.574C90.6058 43.4035 91.9912 42.8395 93.5054 42.6072C94.8011 42.4084 96.0084 42.7724 96.7872 43.7945C97.4806 44.703 97.8469 45.7277 97.6659 46.8441C97.6138 47.1628 97.4676 47.4893 97.278 47.7655C96.0113 49.5929 93.4605 50.3531 91.1052 49.5813C90.6709 49.4394 90.4683 49.4961 90.2685 49.8343C89.924 50.4189 89.5563 50.9919 89.1813 51.5959C90.6608 52.2902 92.2127 52.689 93.7993 52.9651C96.3196 53.4039 98.866 53.5794 101.415 53.2078C104.063 52.8219 106.326 51.7198 108.158 49.9891C109.988 48.2624 111.424 46.3072 112.145 43.9816C112.918 41.4883 112.839 39.0866 111.255 36.8307C110.425 35.6486 109.247 35.0639 107.662 35.1091C106.489 35.1414 105.315 35.1156 104.141 35.1156C104.121 35.0472 104.101 34.9788 104.08 34.9104C104.376 34.7891 104.659 34.62 104.971 34.558C105.464 34.46 105.728 34.2251 105.799 33.7876C106.113 31.8543 106.159 29.9185 105.832 27.984C105.697 27.1903 105.133 26.7722 104.267 26.6096C102.332 26.2456 100.839 27.2045 100.77 28.9467C100.712 30.3883 100.736 31.8337 100.765 33.2765C100.784 34.207 100.933 34.3232 101.935 34.5851C102.172 34.6471 102.385 34.78 102.61 34.8807C102.578 34.9465 102.547 35.0123 102.516 35.0781L102.521 35.0794ZM82.7726 48.8173C82.1936 48.4237 82.0329 48.3759 80.607 48.3708C78.9291 48.3643 77.2209 49.0122 77.3368 51.1919C77.3585 51.5971 77.3932 52.0063 77.4873 52.4012C77.7681 53.573 78.7525 54.3951 79.9657 54.4118C81.5465 54.4325 82.7654 53.7098 83.8468 52.769C84.1739 52.485 84.103 52.1973 83.7396 51.9843C83.1722 51.6526 82.5902 51.3429 81.9967 51.0138C81.7434 51.2835 81.5595 51.5778 81.2801 51.743C81.0181 51.8978 80.6345 52.0153 80.3406 51.9688C79.886 51.8978 79.5082 51.1726 79.6313 50.8009C79.8166 50.2447 80.3826 49.8652 80.9529 50.0872C81.7434 50.3944 82.0285 50.033 82.3152 49.5181C82.4512 49.2755 82.6192 49.047 82.7697 48.8173H82.7726ZM92.0969 46.1201C92.7758 45.1986 93.2173 45.0012 93.8268 45.3122C94.3219 45.5651 94.6621 46.2117 94.4869 46.5705C94.1351 47.2906 93.766 47.328 92.1157 46.8118C91.6886 47.5358 91.2601 48.2598 90.8258 48.9954C91.8392 49.38 92.8583 49.4548 93.8572 49.3013C94.4869 49.2045 95.1977 49.0019 95.6523 48.6328C96.5816 47.8804 96.6453 46.8402 96.3254 45.8078C95.9809 44.6927 95.3497 43.7674 93.9904 43.428C93.9701 43.4228 93.9484 43.4241 93.9281 43.4202C92.4298 43.1337 91.2674 43.7222 90.2149 44.5688C89.8574 44.8566 90.0557 45.1121 90.3785 45.2812C90.9301 45.5703 91.5004 45.831 92.0969 46.1188V46.1201ZM87.6019 47.6442C88.0681 46.9163 88.4995 46.2465 88.928 45.5755C89.1118 45.2889 89.0916 45.0967 88.6978 44.9315C88.2331 44.7379 87.793 44.4824 87.3834 44.2049C87.0692 43.9907 86.8868 44.0307 86.6841 44.303C86.26 44.8695 85.8271 45.4309 85.3842 45.9858C85.1829 46.2388 85.2206 46.4143 85.5246 46.5692C86.205 46.9138 86.8767 47.2687 87.6019 47.6455V47.6442ZM89.5809 45.3561C89.1205 46.0852 88.6515 46.8144 88.2013 47.5539C88.0666 47.7745 88.0087 47.9965 88.3837 48.1333C88.9179 48.3282 89.439 48.5553 89.9601 48.776C90.2859 48.9141 90.5001 48.8418 90.6652 48.5553C90.9749 48.0159 91.2761 47.4687 91.6409 46.9589C91.8623 46.6492 91.7509 46.4892 91.4671 46.3382C90.8664 46.0207 90.2613 45.7097 89.5809 45.3561ZM84.989 46.6427C84.5518 47.2248 84.0972 47.8158 83.6673 48.4198C83.6137 48.4947 83.6398 48.705 83.7092 48.7463C84.4562 49.189 85.2177 49.6097 85.9603 50.0278C86.3975 49.3864 86.7507 48.847 87.1315 48.3217C87.366 47.9978 87.3052 47.8055 86.9172 47.6248C86.2976 47.337 85.7026 47.008 84.9904 46.6414L84.989 46.6427ZM88.6891 51.4474C89.067 50.8912 89.4462 50.3234 89.8356 49.7607C90.0282 49.4845 89.9819 49.2806 89.6504 49.1309C89.19 48.9231 88.7079 48.7412 88.2823 48.4882C87.9508 48.2908 87.7351 48.3605 87.5542 48.6031C87.2574 49.0019 86.9983 49.4213 86.7102 49.8252C86.4916 50.1324 86.6031 50.3285 86.9288 50.4976C87.4992 50.7944 88.0594 51.1054 88.6891 51.4474ZM83.123 49.0135C82.8421 49.4458 82.5338 49.882 82.2819 50.3414C82.224 50.4473 82.2992 50.7131 82.4078 50.7738C83.1244 51.1713 83.8656 51.5339 84.6821 51.9495C84.9499 51.5649 85.2148 51.2009 85.4609 50.8254C85.6983 50.4653 85.5724 50.2124 85.1627 50.0201C84.4866 49.7039 83.8265 49.3619 83.1259 49.0122L83.123 49.0135ZM84.973 52.196C85.7099 52.5805 86.4294 52.96 87.1561 53.3291C87.2154 53.3587 87.3602 53.3549 87.3891 53.3187C87.7482 52.8761 88.0999 52.4283 88.43 51.9688C88.4561 51.9327 88.3402 51.7675 88.2505 51.7185C87.5686 51.3429 86.8781 50.9828 86.1789 50.6112C85.775 51.1416 85.4073 51.6255 84.9716 52.1973L84.973 52.196ZM88.7036 55.0094C88.5805 54.5538 88.1303 54.1757 87.7482 54.2595C87.5918 54.2944 87.408 54.5602 87.3993 54.728C87.3819 55.092 87.5339 55.4804 88.0174 55.4675C88.2519 55.461 88.4763 55.172 88.7036 55.0106V55.0094ZM81.5074 50.8912C81.4915 50.8112 81.477 50.7325 81.4611 50.6525C81.2034 50.566 80.9486 50.4227 80.6851 50.406C80.3319 50.384 79.8875 50.4808 79.9758 50.8809C80.025 51.1042 80.439 51.4384 80.6533 51.4178C80.9544 51.3894 81.2237 51.0796 81.5059 50.8899L81.5074 50.8912ZM93.1652 46.9254C93.53 46.6131 93.9122 46.4388 93.9744 46.1988C94.0729 45.8155 93.6878 45.5974 93.281 45.5858C92.7353 45.569 92.77 46.0078 92.7338 46.3072C92.7164 46.4517 92.9394 46.6182 93.1652 46.9267V46.9254ZM87.3023 42.8305C86.9216 42.5685 86.6711 42.2639 86.4351 42.2729C86.2079 42.282 85.9965 42.6136 85.7779 42.8046C86.0428 42.9956 86.2817 43.246 86.5843 43.3493C86.7001 43.388 86.9592 43.0886 87.3037 42.8305H87.3023Z" fill="#0A0D12"/>
<path d="M3.61859 0.221819C3.80968 0.148257 4.00077 0.0114594 4.19186 0.0101688C6.95685 -0.00402721 9.72329 -0.00273666 12.4883 0.0101688C12.6548 0.0101688 12.8198 0.15471 12.9848 0.230853C12.8328 0.314738 12.6895 0.450246 12.5259 0.473476C11.1492 0.67093 10.3545 1.45171 9.99399 2.57449C9.79712 3.1875 9.72618 3.85084 9.72473 4.49224C9.70592 11.5838 9.74355 18.6741 9.68999 25.7656C9.67696 27.4976 9.41349 29.2295 9.19779 30.9549C9.13265 31.475 8.888 31.9925 8.6419 32.4778C7.64303 34.4472 5.76834 35.2628 3.36526 34.9479C1.05627 34.6446 0.293369 33.4728 0.038585 32.3926C-0.126446 31.6944 0.248493 31.1137 0.960731 30.884C1.61072 30.6736 2.23031 30.8594 2.56327 31.3911C2.66026 31.546 2.70224 31.7357 2.72975 31.9151C2.78331 32.2636 2.81371 32.6146 2.84556 32.9643C2.93676 33.9929 3.57372 34.3336 4.41769 34.5143C5.10966 34.6627 5.86388 34.1994 6.27356 33.4534C6.78458 32.5217 6.98146 31.5254 6.99304 30.4968C7.02344 27.6653 7.06397 24.8326 7.07121 22.0011C7.08569 16.6324 7.08424 11.2625 7.0799 5.89378C7.0799 5.28335 6.99738 4.67421 6.99159 4.06378C6.97856 2.50609 5.91744 0.763849 3.70835 0.390881C3.6794 0.335387 3.649 0.279893 3.62004 0.22569L3.61859 0.221819Z" fill="#0A0D12"/>
<path d="M22.5733 7.39353C22.8267 7.30319 23.08 7.138 23.3348 7.13284C24.6811 7.10703 26.0288 7.11993 27.4475 7.11993C27.4475 7.42709 27.4475 7.69552 27.4475 7.96524C27.4533 10.3528 27.4591 12.7416 27.4649 15.1291C27.4649 15.1471 27.4634 15.1665 27.4649 15.1846C27.6415 16.6829 27.6111 17.5966 29.7015 17.7011C29.396 18.1477 26.521 18.5774 25.1429 18.3735C25.0995 17.9386 25.0546 17.4947 24.9967 16.9216C23.7633 17.8573 22.5067 18.3903 21.0519 18.4768C19.8576 18.5477 18.6821 18.4729 17.6108 17.9192C16.6829 17.4392 16.1169 16.7345 16.0908 15.7666C16.0517 14.3238 16.072 12.8797 16.0517 11.4355C16.0416 10.696 16.017 9.95527 15.9663 9.21708C15.9055 8.32273 15.4958 7.93685 14.5027 7.75488C14.2465 7.70843 13.999 7.62196 13.7485 7.55356C13.734 7.49678 13.7196 7.43999 13.7065 7.38321C13.9396 7.29287 14.1712 7.12768 14.4058 7.12252C15.7347 7.09671 17.0636 7.10961 18.4649 7.10961C18.4866 7.38063 18.5214 7.6297 18.5228 7.88007C18.5301 9.93462 18.5156 11.9892 18.5402 14.0437C18.5474 14.689 18.6271 15.3356 18.7197 15.977C18.8645 16.9746 19.4001 17.5566 20.5061 17.6908C21.2878 17.7863 22.1434 17.7876 22.8976 17.6056C24.3033 17.2662 24.8881 16.248 24.9243 15.0284C24.9807 13.1236 24.9619 11.2161 24.9373 9.31C24.9257 8.44017 24.4292 7.96524 23.4738 7.75747C23.1799 7.69294 22.8904 7.61292 22.5979 7.54065C22.5892 7.49161 22.582 7.44257 22.5733 7.39353Z" fill="#0A0D12"/>
<path d="M20.2381 35.0796H14.5417C14.52 35.0318 14.4968 34.984 14.4751 34.9363C14.769 34.8111 15.0484 34.6343 15.3582 34.5737C16.0183 34.4433 16.2861 34.0652 16.344 33.5154C16.3889 33.0921 16.4497 32.6675 16.4526 32.2429C16.4642 29.9651 16.4685 27.6886 16.4555 25.4108C16.4511 24.7087 16.3686 24.0066 16.3498 23.3046C16.331 22.6193 15.9575 22.2037 15.2308 22.0153C15.0209 21.9611 14.8153 21.8901 14.4346 21.774C14.74 21.663 14.8732 21.5856 15.0165 21.5688C15.9835 21.4488 16.9535 21.3546 17.919 21.2242C18.3649 21.1636 18.501 21.281 18.4937 21.6862C18.4648 23.2968 18.4691 24.9074 18.4662 26.518C18.4662 26.6949 18.5024 26.8717 18.5357 27.1801C18.8499 26.9814 19.054 26.8458 19.2653 26.7181C20.9764 25.6882 22.757 25.6689 24.5796 26.4522C25.2441 26.7374 25.6639 27.2266 25.7088 27.8835C25.7812 28.9533 25.7913 30.0258 25.826 31.0982C25.8521 31.8932 25.8637 32.6895 25.9013 33.4831C25.9274 34.0381 26.2125 34.4123 26.8611 34.5607C27.1694 34.6317 27.4474 34.8085 27.708 35.0602H21.9362C21.916 35.0228 21.8957 34.9853 21.8769 34.9479C22.1172 34.846 22.3459 34.695 22.5978 34.6498C23.2753 34.5285 23.6401 34.1349 23.6517 33.5774C23.6879 31.7654 23.7907 29.9432 23.6169 28.1441C23.4678 26.6123 21.5468 25.9876 19.9747 26.8162C19.3594 27.1401 18.8658 27.5828 18.7674 28.2254C18.6226 29.174 18.5357 30.1316 18.4764 31.0879C18.4315 31.808 18.4547 32.532 18.4749 33.2534C18.4966 34.0665 18.7312 34.3181 19.5896 34.584C19.8429 34.6627 20.0775 34.7853 20.3207 34.8873C20.2932 34.9518 20.2657 35.0163 20.2396 35.0808L20.2381 35.0796Z" fill="#0A0D12"/>
<path d="M38.6595 18.257H31.5574C31.5386 18.1964 31.5183 18.1357 31.4995 18.0763C31.7992 17.9602 32.0901 17.7718 32.4014 17.7408C33.3974 17.6401 33.6652 16.9936 33.8186 16.2902C33.9214 15.8231 33.9258 15.3339 33.9272 14.8551C33.9315 10.9706 33.9301 7.08734 33.9127 3.20279C33.9113 2.78337 33.8707 2.34329 33.7202 1.95096C33.4987 1.37538 32.9862 1.03338 32.3058 0.892715C32.1162 0.853999 31.9497 0.728816 31.7717 0.64364C31.7948 0.585565 31.818 0.527491 31.8426 0.469416C33.3351 0.330037 34.8262 0.190658 36.4331 0.0409546C36.4331 0.280996 36.4331 0.528781 36.4331 0.777857C36.436 5.47545 36.436 10.1743 36.4446 14.8719C36.4446 15.352 36.4736 15.8334 36.5315 16.3109C36.6357 17.1794 36.918 17.4388 37.8373 17.6789C38.1529 17.7615 38.4409 17.9292 38.7406 18.0583C38.7145 18.1254 38.6885 18.1925 38.6624 18.2583L38.6595 18.257Z" fill="#0A0D12"/>
<path d="M97.5535 15.4902C96.9267 17.1344 95.6253 18.0829 93.7231 18.3565C91.9338 18.6146 90.1416 18.6314 88.4826 17.8726C86.162 16.8105 85.0778 15.0089 85.1255 12.7517C85.1762 10.3216 86.5167 8.51739 89.0356 7.52367C91.0999 6.70804 93.1889 6.64739 95.1664 7.7792C96.3245 8.44125 97.0179 9.40142 97.2336 10.6236C97.3451 11.2598 97.3118 11.2947 96.6039 11.2947C94.0893 11.2934 91.5762 11.2908 89.0617 11.2947C87.9557 11.2947 87.9195 11.3256 87.9542 12.3258C88.015 14.0526 88.7215 15.5238 90.1633 16.7021C91.4763 17.7745 94.4078 17.9784 95.8207 17.0169C96.2608 16.7175 96.5156 16.2052 96.8746 15.8051C97.0353 15.6257 97.2437 15.4812 97.4319 15.3212C97.4724 15.3779 97.5144 15.4347 97.555 15.4915L97.5535 15.4902ZM91.4387 10.6403C91.4387 10.6403 91.4387 10.6533 91.4387 10.6597C92.164 10.6597 92.8907 10.6623 93.6159 10.6597C94.8623 10.6545 94.9 10.6055 94.5236 9.53306C94.0777 8.26445 92.8733 7.41656 91.5284 7.42688C90.0214 7.4385 88.3784 8.78712 88.2003 10.1383C88.1525 10.5023 88.293 10.6494 88.7026 10.6442C89.6147 10.6339 90.5281 10.6416 91.4401 10.6416L91.4387 10.6403Z" fill="#0A0D12"/>
<path d="M62.6745 15.4437C62.3618 16.2851 61.8595 17.0246 61.0344 17.5602C57.8742 19.6108 52.5483 18.4661 50.8227 15.374C48.9625 12.0405 51.2483 7.92107 55.4132 7.11964C57.1923 6.77765 58.873 6.95187 60.4119 7.90171C61.5671 8.61539 62.165 9.59491 62.317 10.8196C62.3604 11.1668 62.2576 11.3075 61.8146 11.3036C59.2798 11.2778 56.745 11.2817 54.2102 11.2765C53.0984 11.2739 53.1216 11.2765 53.1172 12.2521C53.1085 14.0963 53.7441 15.6837 55.4479 16.8129C56.9607 17.8157 58.6544 17.8428 60.3655 17.3098C61.0966 17.0827 61.5468 16.529 61.8885 15.9083C62.0187 15.6721 62.2634 15.4863 62.4574 15.2772C62.5298 15.334 62.6021 15.3895 62.6731 15.4463L62.6745 15.4437ZM56.4757 10.6506V10.6454C57.3892 10.6454 58.3041 10.648 59.2176 10.6441C59.5462 10.6428 59.9211 10.5964 59.8415 10.2092C59.6359 9.22194 59.2234 8.31727 58.1811 7.78169C56.1355 6.72861 53.76 8.07336 53.2649 10.2312C53.1911 10.5512 53.3995 10.6557 53.7325 10.6532C54.6459 10.6467 55.5608 10.6506 56.4757 10.6506Z" fill="#0A0D12"/>
<path d="M72.641 34.3C70.8126 33.0237 70.8864 32.7875 73.4878 31.5008C73.3069 31.3589 73.1563 31.2169 72.9797 31.1046C70.9298 29.7947 70.9805 27.7595 73.1331 26.5697C74.6184 25.7489 76.2224 25.7682 77.809 26.2909C78.459 26.5051 78.9613 26.5864 79.5997 26.207C80.2439 25.8237 81.0546 25.887 81.7611 26.1477C82.0086 26.2393 82.2098 26.5697 82.2924 26.8265C82.3445 26.9891 82.1968 27.2808 82.0332 27.3982C81.9102 27.486 81.5845 27.4485 81.4122 27.3646C81.0329 27.1801 80.7043 26.9117 80.3323 26.7129C80.0239 26.549 79.6446 26.4058 79.4087 26.7774C79.3088 26.9362 79.2972 27.2459 79.4072 27.3866C80.5045 28.7959 80.2396 30.3445 78.5907 31.2079C77.9031 31.568 77.0519 31.7254 76.2499 31.8519C75.4798 31.9732 74.672 31.8945 73.8932 31.9861C73.4806 32.0338 73.068 32.2171 72.7032 32.4107C72.3369 32.6043 72.3485 32.9037 72.7785 33.0069C73.372 33.1502 73.9873 33.2534 74.5996 33.2921C75.7997 33.3696 77.0085 33.3554 78.2057 33.4509C78.708 33.4909 79.2132 33.6715 79.6794 33.8625C80.5885 34.2355 81.072 34.9027 81.0966 35.7958C81.1227 36.743 80.7593 37.5251 79.8097 38.0517C78.1536 38.9692 76.3295 38.9512 74.4954 38.8079C73.8859 38.7602 73.2548 38.6311 72.6974 38.4104C70.8271 37.6697 70.6012 35.708 72.224 34.5994C72.3514 34.5117 72.4759 34.4214 72.6424 34.3026L72.641 34.3ZM75.7881 34.7685C74.8978 34.8718 74.0669 34.9143 73.2678 35.0757C72.4788 35.2344 72.0764 35.7713 71.975 36.4798C71.8795 37.1625 72.2863 37.6013 72.8871 37.9329C74.0234 38.5601 75.2771 38.6105 76.5568 38.493C77.382 38.4169 78.1232 38.1497 78.7601 37.6671C79.7677 36.9031 79.5418 35.4912 78.294 35.1479C77.4761 34.9234 76.5959 34.8834 75.7867 34.7685H75.7881ZM78.3751 28.9933C78.3649 28.8268 78.3649 28.6591 78.3417 28.4952C78.184 27.3646 77.5731 26.6123 76.593 26.4264C75.2206 26.1657 73.9091 26.4858 73.5414 28.0383C73.0941 29.9173 73.7223 31.9396 76.8304 31.3447C76.8507 31.3408 76.8739 31.3421 76.8912 31.3331C77.1344 31.2053 77.4428 31.1214 77.6049 30.9369C78.1 30.3755 78.4257 29.7392 78.3765 28.9946L78.3751 28.9933Z" fill="#0A0D12"/>
<path d="M82.7466 26.1452C83.0028 26.1116 83.2591 26.0535 83.5153 26.051C84.3882 26.0432 85.2611 26.0845 86.1312 26.0471C86.6306 26.0251 86.7276 26.1968 86.7233 26.5891C86.7044 28.1429 86.7073 29.6968 86.7131 31.2506C86.7146 31.7681 86.7276 32.2869 86.7725 32.8031C86.9115 34.4111 87.6382 34.686 89.4304 34.5931C90.8693 34.5182 91.9029 33.6549 91.8508 32.1488C91.803 30.7447 91.8508 29.338 91.8247 27.9326C91.8088 27.0356 91.5584 26.8188 90.5914 26.6136C90.3771 26.5685 90.2034 26.3723 90.0123 26.2458C90.2251 26.1774 90.4365 26.0535 90.6493 26.051C91.5207 26.0406 92.3937 26.0793 93.2666 26.0742C93.7226 26.0716 93.8949 26.1555 93.8862 26.6369C93.8471 28.7263 93.8804 30.8169 93.8949 32.9063C93.8963 33.127 93.9195 33.3542 93.989 33.5645C94.1583 34.0756 94.4522 34.4744 95.1514 34.4614C95.3194 34.4589 95.4887 34.5247 95.6567 34.5595C95.6639 34.6099 95.6711 34.6602 95.6798 34.7105C95.4482 34.7957 95.2238 34.9235 94.9835 34.957C94.2466 35.0603 93.4997 35.1106 92.7628 35.2125C92.2214 35.2861 91.8537 35.228 91.9217 34.6253C91.9319 34.5311 91.8407 34.4279 91.7712 34.2704C91.4672 34.4047 91.1863 34.5118 90.9243 34.6473C89.6765 35.2887 88.3374 35.4345 86.9505 35.1751C85.4624 34.8951 84.6213 33.9375 84.6039 32.545C84.5851 31.0647 84.601 29.5858 84.5981 28.1055C84.5967 27.1299 84.339 26.8304 83.2996 26.553C83.0955 26.4988 82.9044 26.4059 82.7075 26.331C82.7205 26.2704 82.7336 26.2097 82.7466 26.149V26.1452Z" fill="#0A0D12"/>
<path d="M74.3299 16.7523C74.2271 16.9949 74.2025 17.3369 74.0056 17.4595C73.4555 17.8028 72.862 18.1267 72.2323 18.3293C71.038 18.7152 69.8031 18.5681 68.6117 18.2841C67.5897 18.0415 67.0714 17.3007 67.0526 16.1225C67.0208 14.1428 67.028 12.1644 67.0193 10.1847C67.0164 9.57425 66.9875 8.96253 67.028 8.35339C67.0569 7.92622 66.8514 7.79587 66.4214 7.79071C66.0754 7.78684 65.7295 7.75199 65.3835 7.73134C65.3748 7.67198 65.3661 7.61391 65.3574 7.55454C65.5225 7.46033 65.6759 7.33386 65.8554 7.27707C67.3219 6.81248 68.0153 5.72842 68.6204 4.56951C68.6725 4.47013 68.6696 4.32817 68.7507 4.26236C68.9287 4.11652 69.143 4.00812 69.3428 3.88293C69.4412 4.05458 69.6178 4.22364 69.6236 4.39786C69.6526 5.26511 69.6366 6.13365 69.6366 7.00993C70.9496 7.40484 72.4682 6.67181 73.7031 7.44613C73.6958 7.54938 73.6886 7.65262 73.6813 7.75457H69.6714C69.6424 8.04237 69.6149 8.18433 69.6149 8.32629C69.6149 10.6389 69.6091 12.9516 69.6337 15.2643C69.6381 15.7018 69.6945 16.1586 69.8494 16.5716C70.3373 17.8699 72.516 18.2416 73.5554 17.2285C73.745 17.0426 73.9274 16.8503 74.1127 16.6606C74.1851 16.6903 74.2575 16.72 74.3313 16.7497L74.3299 16.7523Z" fill="#0A0D12"/>
<path d="M83.9724 16.8778C83.7336 17.5656 83.1096 17.9309 82.4075 18.1657C81.0033 18.6368 79.5499 18.6652 78.1225 18.2819C77.3234 18.0664 76.7429 17.5721 76.7285 16.7526C76.6821 14.0708 76.6503 11.3878 76.6141 8.70474C76.6112 8.44793 76.6141 8.1924 76.6141 7.88396C76.0249 7.82975 75.482 7.77942 74.793 7.7149C75.0101 7.54583 75.1057 7.42323 75.2345 7.37935C76.8964 6.82442 77.6984 5.58291 78.4236 4.26785C78.525 4.08459 78.7595 3.9607 78.9318 3.80841C78.9926 3.84326 79.0534 3.8781 79.1142 3.91294C79.1142 4.74019 79.1142 5.56743 79.1142 6.39467C79.1142 6.87217 79.3892 7.11092 79.9393 7.11092C80.8122 7.11092 81.6866 7.11608 82.5595 7.10447C82.9041 7.0993 83.2124 7.12383 83.2052 7.51228C83.198 7.90977 82.8404 7.77426 82.5986 7.77942C81.6215 7.80136 80.6443 7.81169 79.6686 7.82717C79.34 7.83234 79.1301 7.91235 79.1344 8.27628C79.1706 10.7554 79.1692 13.2359 79.2227 15.7137C79.2387 16.4829 79.3907 17.2869 80.3533 17.5927C81.4289 17.9347 82.4814 17.9102 83.3471 17.0959C83.4918 16.9604 83.6757 16.8584 83.8407 16.7397C83.8856 16.7849 83.9305 16.8313 83.9768 16.8765L83.9724 16.8778Z" fill="#0A0D12"/>
<path d="M65.6901 33.9332C65.777 34.4998 65.2732 35.0702 64.5566 35.1902C63.4202 35.3812 62.3504 35.2844 61.5499 34.421C61.3081 34.1603 61.1257 34.1681 60.8347 34.3823C59.4711 35.3889 57.9597 35.4948 56.3442 34.9205C55.4568 34.6056 55.0818 33.9835 55.0398 33.1911C54.9964 32.3807 55.3931 31.7122 56.2153 31.3805C57.0014 31.063 57.8613 30.894 58.6879 30.6565C59.1801 30.5145 59.6665 30.3597 60.1587 30.2177C60.8145 30.0293 61.1431 29.5828 61.2082 29.0227C61.3689 27.6521 61.0244 26.6081 59.597 26.3745C58.8978 26.2596 58.2044 26.4906 57.8323 27.0378C57.6716 27.2753 57.5254 27.5205 57.3705 27.7605C57.1172 28.1528 56.6872 28.3297 56.2645 28.1464C55.9171 27.9967 55.5045 27.6676 55.451 27.3708C55.4075 27.1256 55.7738 26.6778 56.0807 26.5474C58.1638 25.6621 60.2716 25.7486 62.3186 26.6519C62.9063 26.9113 63.2841 27.3772 63.2798 28.0354C63.2726 29.4421 63.2986 30.8475 63.3131 32.2542C63.3174 32.6246 63.2624 33.0066 63.3493 33.3615C63.439 33.7293 63.5679 34.2546 63.8588 34.3823C64.3858 34.612 65.0459 34.5953 65.4802 34.061C65.5135 34.021 65.5772 34.0003 65.6872 33.9332H65.6901ZM61.269 30.1377C60.9288 30.2706 60.6871 30.3339 60.4844 30.45C59.6361 30.934 58.711 31.3495 57.98 31.9496C57.1085 32.6659 57.1823 33.91 57.9597 34.4688C58.7849 35.0624 60.3975 34.6172 60.8695 33.648C61.408 32.5433 61.2574 31.3741 61.2705 30.139L61.269 30.1377Z" fill="#0A0D12"/>
<path d="M39.753 33.9308C40.0888 34.3412 39.7573 34.5773 39.5083 34.7916C38.6701 35.513 36.7882 35.4756 35.9775 34.6625C35.5606 34.2444 35.2581 34.2999 34.8165 34.5567C33.4355 35.362 31.9574 35.5543 30.4403 34.9206C28.9406 34.2947 28.7118 32.3976 30.0943 31.5833C30.8457 31.1406 31.8025 30.9728 32.6726 30.6941C33.256 30.5069 33.8567 30.3611 34.4372 30.1675C35.0424 29.9662 35.4014 29.5326 35.4028 28.9828C35.4043 28.4021 35.3247 27.8007 35.1408 27.2444C34.9034 26.5282 34.126 26.4249 33.4282 26.3359C32.8477 26.261 32.1239 26.6985 31.8648 27.1799C31.749 27.3954 31.6809 27.6781 31.487 27.8007C31.1902 27.9891 30.7458 28.2278 30.4707 28.1478C30.1175 28.0459 29.8077 27.6819 29.6108 27.3657C29.5341 27.2419 29.7541 26.8328 29.9496 26.7424C30.546 26.4662 31.1786 26.2068 31.8301 26.0791C33.2632 25.7977 34.679 25.9461 36.0427 26.4378C36.959 26.7682 37.4715 27.3103 37.4454 28.2524C37.4049 29.7326 37.4397 31.2142 37.4498 32.6944C37.4512 32.99 37.4252 33.3023 37.5222 33.5759C37.6307 33.8804 37.7885 34.2637 38.0607 34.407C38.5312 34.6535 39.0654 34.5799 39.4606 34.1605C39.5358 34.0805 39.6372 34.0185 39.7501 33.9295L39.753 33.9308ZM35.371 30.1766C34.0985 30.6979 32.8738 31.1122 31.998 32.0246C31.2857 32.7654 31.3726 33.954 32.1398 34.4663C32.9505 35.0084 34.4749 34.6702 34.9627 33.7759C35.5708 32.6596 35.4752 31.4607 35.371 30.1779V30.1766Z" fill="#0A0D12"/>
<path d="M40.6738 7.4694C42.2575 7.29775 43.8412 7.1274 45.5277 6.94543C45.5277 7.21774 45.5277 7.39584 45.5277 7.57393C45.5321 9.92273 45.5335 12.2728 45.5436 14.6216C45.5451 15.0836 45.5958 15.5444 45.6073 16.0064C45.6291 16.9033 45.936 17.5937 47.0724 17.7654C47.2982 17.7989 47.4994 17.9615 47.6977 18.1706C45.3395 18.359 42.9915 18.3177 40.6448 18.2726C40.626 18.2042 40.6072 18.1358 40.5884 18.0674C40.9879 17.9344 41.3759 17.7499 41.787 17.6828C42.298 17.6002 42.547 17.355 42.644 16.9343C42.673 16.8078 42.7222 16.6826 42.7338 16.5548C42.9611 14.0628 43.0146 11.5708 42.6918 9.08129C42.6151 8.49022 42.2271 8.11725 41.5684 7.96239C41.2601 7.89012 40.9633 7.77397 40.6608 7.67847C40.6651 7.60878 40.668 7.53909 40.6723 7.46811L40.6738 7.4694Z" fill="#0A0D12"/>
<path d="M41.4131 34.9544V32.1294C41.4652 32.1165 41.5173 32.1048 41.5694 32.0919C41.6418 32.2029 41.7171 32.3126 41.788 32.4249C42.1354 32.9863 42.4105 33.5967 42.8448 34.0974C43.57 34.935 44.6399 35.0047 45.6822 34.7582C46.8866 34.473 47.2166 33.0405 46.2583 32.2442C45.7372 31.8119 45.064 31.5228 44.4546 31.1769C43.7568 30.7807 42.9968 30.4555 42.3642 29.9909C40.7443 28.8036 41.5564 26.66 43.3022 26.1761C44.0029 25.9825 44.8063 26.0509 45.562 26.0586C46.1237 26.0638 46.6825 26.1645 47.3672 26.2354C47.4019 26.8846 47.4468 27.6938 47.4903 28.5029C47.4092 28.5145 47.3281 28.5274 47.247 28.5391C47.1718 28.3442 47.0979 28.1493 47.0212 27.9544C46.5478 26.7723 45.0452 26.087 43.8248 26.4935C43.3471 26.6536 42.9867 26.9194 42.9099 27.3879C42.826 27.908 42.9099 28.4139 43.4528 28.7133C43.9435 28.9843 44.485 29.1792 44.9974 29.4192C45.7835 29.787 46.6419 30.0748 47.3281 30.5575C49.1463 31.8377 48.7077 34.3427 46.2366 35.0602C45.4882 35.277 44.6051 35.1802 43.7901 35.1376C43.3746 35.1157 42.9794 34.8266 42.5596 34.7892C42.1731 34.7543 41.7663 34.8963 41.4116 34.9531L41.4131 34.9544Z" fill="#0A0D12"/>
<path d="M44.0792 2.45698C43.1367 2.4544 42.6315 2.04658 42.6387 1.29548C42.646 0.593427 43.2612 0.104309 44.124 0.113343C45.0027 0.122377 45.6542 0.643758 45.6527 1.33936C45.6527 2.04529 45.0679 2.45956 44.0792 2.45698Z" fill="#0A0D12"/>
</svg>
