<svg width="200" height="22" viewBox="0 0 200 22" fill="none" xmlns="http://www.w3.org/2000/svg">
<path d="M2.43235 19.9579L4.41442 3.578L1.79667 3.07604V2.01208H7.72966L13.4684 17.8857L19.2822 2.01208H25.1313V3.07604L22.5136 3.578L24.244 19.9579L26.6808 20.4641V21.5281H18.8363V20.4641L21.2687 19.9579L19.8649 4.81786L13.7244 21.6439L12.2015 22L5.87118 4.81786L4.65722 18.186C4.53361 19.6361 5.0501 20.078 7.36326 20.4641L7.21317 21.5281H0V20.4641L2.43235 19.9579Z" fill="#0A0D12"/>
<path d="M32.1508 22C29.7803 22 28.4692 20.344 28.4692 18.3319C28.4692 15.4961 30.2967 13.9559 34.4331 13.75L36.7771 13.6342V12.686C36.7771 10.172 35.7706 9.16809 33.4928 9.16809C32.1014 9.21732 30.7561 9.66509 29.6258 10.4551L29.1093 8.97932C30.6567 7.73657 32.6114 7.0744 34.6185 7.11309C37.7792 7.09593 39.5979 8.84203 39.5979 12.2141V18.6494C39.5979 19.9793 40.0394 20.3354 41.9729 20.3354L41.942 20.6314C41.6545 21.064 41.2565 21.4166 40.7868 21.655C40.3172 21.8934 39.792 22.0093 39.2624 21.9914C37.6821 21.9914 37.0111 21.1934 37.0111 19.8935V19.0441C36.0178 20.5928 34.4331 22 32.1508 22ZM36.7771 18.688V14.8268L33.9475 15.2558C32.0625 15.5519 31.2988 16.3756 31.2988 17.7656C31.2988 19.0526 32.1199 19.9107 33.6738 19.9107C34.8192 19.8491 35.9109 19.4189 36.7771 18.688Z" fill="#0A0D12"/>
<path d="M46.0391 20.507V10.3651L43.7613 9.18097L43.7878 8.88494L49.116 7.22894L48.8423 10.009V20.507L50.9524 21.0218V22H43.8893V21.0218L46.0391 20.507ZM45.1871 3.26911C45.1749 3.0248 45.2138 2.78062 45.3016 2.55137C45.3893 2.32212 45.5241 2.11258 45.6976 1.93546C45.8712 1.75834 46.08 1.61733 46.3113 1.52098C46.5427 1.42463 46.7917 1.37495 47.0434 1.37495C47.2951 1.37495 47.5442 1.42463 47.7755 1.52098C48.0068 1.61733 48.2156 1.75834 48.3892 1.93546C48.5628 2.11258 48.6975 2.32212 48.7853 2.55137C48.873 2.78062 48.9119 3.0248 48.8997 3.26911C48.9119 3.51342 48.873 3.7576 48.7853 3.98685C48.6975 4.2161 48.5628 4.42564 48.3892 4.60276C48.2156 4.77988 48.0068 4.92089 47.7755 5.01724C47.5442 5.11359 47.2951 5.16327 47.0434 5.16327C46.7917 5.16327 46.5427 5.11359 46.3113 5.01724C46.08 4.92089 45.8712 4.77988 45.6976 4.60276C45.5241 4.42564 45.3893 4.2161 45.3016 3.98685C45.2138 3.7576 45.1749 3.51342 45.1871 3.26911Z" fill="#0A0D12"/>
<path d="M54.3874 21.5748L52.8644 21.5276L52.7408 17.1817L53.9283 16.9157C54.5683 20.1076 55.513 20.6138 57.7026 20.6138C59.2256 20.6138 59.9848 19.8115 59.9848 18.6017C59.9848 16.7097 58.2809 16.0576 56.546 15.3197C54.8111 14.5818 52.9394 13.6208 52.9394 11.1969C52.9394 8.91879 54.5816 7.23275 57.5613 7.23275C58.5522 7.2307 59.5376 7.37536 60.4837 7.66177L61.7639 7.71754L61.883 11.4757L60.7883 11.7117C60.1173 9.02176 59.2962 8.57558 57.5613 8.57558C56.1046 8.57558 55.4336 9.40358 55.4336 10.5576C55.4336 12.1836 57.1066 12.8658 58.8724 13.6337C60.6382 14.4016 62.554 15.4055 62.554 17.7737C62.554 20.2577 60.8501 21.9995 57.654 21.9995C56.5499 22.0093 55.45 21.8663 54.3874 21.5748Z" fill="#0A0D12"/>
<path d="M64.3424 14.9126C64.3424 10.3307 67.3884 7.07446 71.6483 7.07446C75.7846 7.07446 78.0801 9.38258 78.0801 14.1661C78.0801 18.748 75.0386 22 70.7478 22C66.6247 22.0086 64.3424 19.7004 64.3424 14.9126ZM71.1274 20.4426C73.5333 20.4426 75.2063 18.4306 75.2063 14.7367C75.2063 10.4165 73.807 8.64467 71.2819 8.64467C68.8451 8.64467 67.2339 10.7125 67.2339 14.3506C67.2339 18.6665 68.6024 20.4426 71.1274 20.4426Z" fill="#0A0D12"/>
<path d="M80.023 21.9871V21.0218L82.1508 20.5199V10.365L79.8685 9.18096L79.8994 8.88493L84.9495 7.22893L84.7376 10.4551C85.8942 8.7691 87.6909 7.52495 89.8804 7.52495C92.8602 7.52495 94.2286 9.27105 94.2286 12.789V20.5113L96.3608 21.0218V22H89.2977V21.0218L91.4255 20.5199V13.617C91.4255 10.4852 90.6353 9.50701 88.5075 9.50701C87.2076 9.54792 85.9569 9.99979 84.9451 10.7941V20.507L87.0817 21.0218V22L80.023 21.9871Z" fill="#0A0D12"/>
<path d="M98.5259 11.858C99.987 5.76599 103.638 1.59594 110.149 1.59594C111.434 1.58618 112.714 1.74639 113.954 2.07215L115.385 2.15795L114.59 7.3319L113.16 7.57215C113.191 3.60803 112.431 3.19188 109.663 3.19188C105.858 3.19188 102.967 6.12207 101.717 11.5019C100.393 17.0792 102.658 19.812 106.525 19.812C108.392 19.8561 110.232 19.3733 111.822 18.422L112.096 19.752C110.666 21.1119 108.295 22 105.677 22C99.6515 22 97.1265 17.6541 98.5259 11.858Z" fill="#0A0D12"/>
<path d="M121.371 8.60607C120.245 9.46411 119.305 10.9442 118.179 13.0421L117.173 13.1622C118.391 9.906 120.519 7.27612 122.559 7.27612C123.411 7.27612 123.927 7.6322 123.927 8.60607C123.927 9.89313 122.651 13.218 121.768 16.3842H121.888C123.927 10.9142 126.788 7.27612 128.703 7.27612C129.71 7.27612 130.195 7.74804 130.195 8.51598C130.195 9.00031 130.024 9.46989 129.71 9.84593L129.436 9.99609C129.186 9.83013 128.887 9.74735 128.584 9.76013C126.911 9.76013 122.378 13.1022 120.55 21.5581C120.519 21.6482 120.519 21.734 120.488 21.8241L117.875 22C117.875 21.0261 121.371 10.704 121.371 8.60607Z" fill="#0A0D12"/>
<path d="M133.048 20.7126C133.048 18.0784 136.394 10.6006 136.394 8.27107C135.149 9.18917 133.9 10.961 133.017 12.6771L131.984 12.8272C133.202 9.69112 135.542 6.94112 137.55 6.94112C138.402 6.94112 138.981 7.2972 138.981 8.22817C138.981 10.8623 135.635 18.3401 135.635 20.6697C136.959 19.6057 137.842 18.4517 139.012 16.2637L140.049 16.1135C138.769 19.3698 136.425 21.9996 134.478 21.9996C133.657 22.0125 133.048 21.6865 133.048 20.7126ZM138.221 0.780425C138.453 0.776192 138.683 0.817916 138.898 0.903047C139.112 0.988179 139.307 1.11493 139.469 1.27555C139.631 1.43617 139.758 1.62728 139.842 1.83721C139.926 2.04714 139.965 2.27147 139.956 2.4965C139.956 2.94366 139.774 3.37251 139.448 3.68871C139.123 4.0049 138.682 4.18253 138.221 4.18253C137.761 4.18253 137.32 4.0049 136.995 3.68871C136.669 3.37251 136.487 2.94366 136.487 2.4965C136.478 2.27147 136.517 2.04714 136.601 1.83721C136.685 1.62728 136.812 1.43617 136.974 1.27555C137.136 1.11493 137.331 0.988179 137.545 0.903047C137.76 0.817916 137.99 0.776192 138.221 0.780425Z" fill="#0A0D12"/>
<path d="M142.994 20.1981C142.994 17.4782 146.252 10.6139 146.252 8.24999C144.928 9.28393 144.001 10.5881 142.875 12.656L141.837 12.8062C143.025 9.70007 145.4 6.92004 147.408 6.92004C148.26 6.92004 148.808 7.27612 148.808 8.24999C148.808 10.6139 145.718 17.3881 145.718 19.486C145.718 19.9879 145.868 20.1981 146.234 20.1981C149.611 20.1981 153.778 13.514 153.739 7.48205L156.295 7.24609C156.974 13.514 149.779 22 144.914 22C143.634 22 142.994 21.4509 142.994 20.1981Z" fill="#0A0D12"/>
<path d="M158.128 18.658C158.128 12.5659 162.052 6.92004 167.257 6.92004C169.385 6.92004 170.391 7.86388 170.391 9.28393C170.391 12.2141 167.301 14.7539 161.2 15.2301C160.957 16.1875 160.834 17.1699 160.834 18.156C160.834 19.6919 161.324 20.1681 162.45 20.1681C164.577 20.1681 167.195 18.023 168.533 15.938L169.689 15.8222C168.166 19.22 164.67 22 161.381 22C159.161 22 158.128 20.936 158.128 18.658ZM161.355 14.6981C165.553 14.046 167.743 11.8881 167.743 9.60998C167.743 8.78198 167.345 8.32293 166.493 8.32293C164.67 8.34009 162.357 11.1759 161.355 14.6981Z" fill="#0A0D12"/>
<path d="M172.18 20.7001C172.18 17.9801 174.947 8.6876 176.44 3.16615L174.493 1.98206L174.585 1.68604L180.214 0L179.119 2.9259C177.292 9.31396 174.736 18.688 174.736 20.67C176.06 19.5761 176.987 18.3619 178.113 16.264L179.15 16.1139C177.993 19.117 175.649 22 173.548 22C172.696 22 172.18 21.6182 172.18 20.7001Z" fill="#0A0D12"/>
<path d="M182.002 20.7001C182.002 17.9801 184.77 8.6876 186.262 3.16615L184.315 1.98206L184.404 1.68604L190.037 0L188.937 2.9259C187.114 9.31396 184.554 18.688 184.554 20.67C185.878 19.5761 186.805 18.3619 187.931 16.264L188.964 16.1139C187.807 19.117 185.468 22 183.366 22C182.519 22 182.002 21.6182 182.002 20.7001Z" fill="#0A0D12"/>
<path d="M192.889 20.7126C192.889 18.0784 196.235 10.6006 196.235 8.27107C194.99 9.18917 193.741 10.961 192.858 12.6771L191.825 12.8272C193.039 9.69112 195.383 6.94112 197.392 6.94112C198.244 6.94112 198.822 7.2972 198.822 8.22817C198.822 10.8623 195.476 18.3401 195.476 20.6697C196.8 19.6057 197.683 18.4517 198.853 16.2637L199.886 16.1135C198.61 19.3698 196.266 21.9996 194.319 21.9996C193.498 22.0125 192.889 21.6865 192.889 20.7126ZM198.063 0.780425C198.294 0.776192 198.524 0.817916 198.739 0.903047C198.953 0.988179 199.148 1.11493 199.31 1.27555C199.472 1.43617 199.599 1.62728 199.683 1.83721C199.767 2.04714 199.806 2.27147 199.797 2.4965C199.797 2.94366 199.615 3.37251 199.289 3.68871C198.964 4.0049 198.523 4.18253 198.063 4.18253C197.602 4.18253 197.161 4.0049 196.836 3.68871C196.51 3.37251 196.328 2.94366 196.328 2.4965C196.319 2.27147 196.358 2.04714 196.442 1.83721C196.526 1.62728 196.653 1.43617 196.815 1.27555C196.977 1.11493 197.172 0.988179 197.386 0.903047C197.601 0.817916 197.831 0.776192 198.063 0.780425Z" fill="#0A0D12"/>
</svg>
