<svg width="119" height="38" viewBox="0 0 119 38" fill="none" xmlns="http://www.w3.org/2000/svg">
<path d="M11.142 14.9402C10.9486 14.5514 10.7831 14.2364 10.6316 13.9115C8.51646 9.37216 6.40529 4.82885 4.28016 0.29152C4.22035 0.163933 4.01701 0.0263773 3.87746 0.0243837C2.69329 0.00245464 1.50912 0.0164095 0.324949 0.0104289C0.0857228 0.00843531 0 0.100139 0.00598066 0.337372C0.0199355 0.887593 0.0199355 1.43981 0.0199355 1.99202C0.0159484 7.79526 0.0119613 13.5985 0 19.4017C0 19.6828 0.0657873 19.8064 0.370801 19.8004C1.23999 19.7825 2.10719 19.7805 2.97638 19.7885C3.24949 19.7905 3.32924 19.6988 3.32924 19.4217C3.31927 15.0757 3.32126 10.7298 3.31927 6.38382C3.31927 6.26221 3.33123 6.14061 3.34319 5.94524C3.42692 6.06884 3.46878 6.11868 3.4947 6.1745C4.02299 7.2869 4.55128 8.3993 5.07559 9.5137C6.63854 12.835 8.20148 16.1582 9.75645 19.4835C9.87009 19.7247 10.0096 19.8104 10.2708 19.7984C10.7034 19.7785 11.142 19.7646 11.5726 19.7984C12.0231 19.8323 12.3301 19.7287 12.4497 19.2422C12.5076 19.005 12.6471 18.7857 12.7528 18.5604C14.6048 14.6212 16.4588 10.6799 18.3128 6.74067C18.4424 6.46556 18.5879 6.19643 18.7255 5.9253C18.7534 5.93328 18.7833 5.94325 18.8112 5.95122V19.7925C19.8598 19.7925 20.8685 19.7925 21.8793 19.7925C22.1424 19.7925 22.1205 19.6091 22.1205 19.4356C22.1185 18.5943 22.1125 17.7551 22.1125 16.9138C22.1125 11.4395 22.1085 5.96318 22.1205 0.488882C22.1205 0.116087 22.0308 -0.00751313 21.64 0.0044482C20.6134 0.032358 19.5867 0.0223902 18.562 0.000461089C18.2151 -0.00751313 18.0217 0.0861839 17.8682 0.419107C16.2176 4.00551 14.549 7.58195 12.8863 11.1604C12.3182 12.3824 11.756 13.6065 11.142 14.9382V14.9402Z" fill="#181D27"/>
<path d="M110.1 3.09412C110.259 3.09412 110.389 3.09412 110.516 3.09412C112.873 3.09412 115.227 3.08615 117.583 3.09811C117.962 3.09811 118.08 2.98248 118.058 2.59773C118.018 1.89201 118.006 1.18031 118.04 0.47459C118.058 0.125718 117.986 0.0180664 117.629 0.0180664C114.128 0.0260406 110.628 0.0180664 107.129 0.0180664C106.964 0.0180664 106.798 0.0479697 106.637 0.0619246V19.7662C106.774 19.7742 106.89 19.7881 107.004 19.7881C110.596 19.7881 114.188 19.7881 117.781 19.7961C118.06 19.7961 118.151 19.7104 118.148 19.4373C118.136 18.6359 118.134 17.8365 118.148 17.035C118.151 16.7639 118.07 16.6682 117.789 16.6682C115.341 16.6802 112.894 16.6782 110.446 16.6822C110.333 16.6822 110.219 16.6822 110.106 16.6822V11.1062H117.39C117.39 10.2251 117.37 9.38578 117.4 8.54649C117.412 8.22952 117.36 8.10392 117.013 8.10592C114.856 8.11788 112.697 8.1099 110.54 8.1099C110.401 8.1099 110.259 8.1099 110.102 8.1099V3.09412H110.1Z" fill="#181D27"/>
<path d="M82.8182 11.1322C82.8182 10.3089 82.8142 9.53735 82.8182 8.76584C82.8222 8.1279 82.8262 8.11993 82.1862 8.11594C80.107 8.10797 78.0277 8.10797 75.9504 8.10398C75.7231 8.10398 75.5158 8.14186 75.5218 7.77704C75.5437 6.35962 75.5497 4.9422 75.5298 3.52479C75.5238 3.16595 75.6334 3.0862 75.9723 3.0882C78.3407 3.10215 80.709 3.09019 83.0774 3.10016C83.3644 3.10016 83.4781 3.03238 83.4701 2.72737C83.4522 1.95387 83.4502 1.17837 83.4681 0.404875C83.4761 0.0878995 83.3545 0.000183105 83.0534 0.000183105C79.6843 0.0101509 76.3172 0.0101509 72.9481 0.0161315C72.1328 0.0161315 72.1467 0.0221122 72.1467 0.849437C72.1547 6.71647 72.1547 12.5855 72.1567 18.4525C72.1567 18.7276 72.1507 19.0047 72.1308 19.2779C72.0929 19.7742 72.0969 19.7842 72.6032 19.7842C74.9058 19.7842 77.2083 19.7862 79.5109 19.7862C80.721 19.7862 81.9311 19.7742 83.1432 19.7862C83.4741 19.7902 83.5698 19.6726 83.5598 19.3516C83.5379 18.618 83.5379 17.8804 83.5598 17.1467C83.5698 16.8318 83.49 16.7002 83.1531 16.7042C82.2859 16.7141 81.4167 16.6882 80.5495 16.6862C79.0105 16.6803 77.4715 16.6862 75.9305 16.6783C75.7391 16.6783 75.5118 16.744 75.5158 16.3812C75.5318 14.7924 75.5198 13.2055 75.5198 11.6166C75.5198 11.4631 75.5358 11.3116 75.5457 11.1302H82.8182V11.1322Z" fill="#181D27"/>
<path d="M61.4277 24.6804C60.6502 24.6804 59.9146 24.6984 59.1809 24.6725C58.862 24.6605 58.7204 24.7781 58.5948 25.0532C57.4765 27.4834 56.3441 29.9075 55.2178 32.3337C54.8629 33.0972 54.5101 33.8627 54.1313 34.6841C54.0196 34.4867 53.9339 34.3571 53.8681 34.2156C53.4096 33.2288 52.9591 32.238 52.5005 31.2512C51.5337 29.1699 50.5648 27.0906 49.588 25.0134C49.5282 24.8858 49.3986 24.7024 49.2949 24.7004C48.4576 24.6744 47.6183 24.6864 46.7432 24.6864V37.9396C47.3293 37.9396 47.8795 37.9156 48.4277 37.9475C48.8005 37.9695 48.9261 37.8638 48.9241 37.4771C48.9062 34.8515 48.9102 32.226 48.9082 29.6005C48.9082 29.3593 48.9082 29.1181 48.9082 28.8789C48.948 28.8709 48.9899 28.8609 49.0298 28.8529C49.0916 28.9726 49.1574 29.0882 49.2132 29.2098C50.5289 32.0386 51.8387 34.8715 53.1624 37.6963C53.4136 38.2326 53.914 37.8817 54.2947 37.9455C54.53 37.9834 54.8011 38.0233 54.9566 37.6864C56.1886 35.035 57.4366 32.3895 58.6826 29.7441C58.8361 29.4171 59.0015 29.0962 59.161 28.7712C59.1849 28.7772 59.2089 28.7812 59.2308 28.7872V37.9037H61.4277V24.6824V24.6804Z" fill="#181D27"/>
<path d="M53.5311 3.1799C53.6368 3.17193 53.7265 3.15997 53.8162 3.15997C55.3692 3.15997 56.9222 3.15997 58.4751 3.15997C58.9935 3.15997 58.9935 3.16395 58.9915 2.63367C58.9875 1.86017 58.9735 1.08667 58.9835 0.313172C58.9875 0.0480292 58.8599 0.0201194 58.6426 0.0201194C56.958 0.022113 55.2735 0.0161323 53.5889 0.0141388C50.7202 0.0141388 47.8515 0.0181259 44.9828 0.00616455C44.6438 0.00616455 44.5242 0.0859067 44.5382 0.444746C44.5661 1.2322 44.5521 2.01965 44.5382 2.80711C44.5342 3.07624 44.6199 3.16794 44.903 3.16595C46.456 3.15 48.009 3.16595 49.5619 3.14203C49.9487 3.13604 50.0763 3.22974 50.0743 3.6444C50.0484 8.93529 50.0404 14.2262 50.0404 19.5171C50.0404 19.6088 50.1839 19.7802 50.2617 19.7822C51.2624 19.7982 52.2612 19.7962 53.262 19.7762C53.3457 19.7762 53.4952 19.6088 53.4972 19.5151C53.5231 18.7157 53.5311 17.9143 53.5311 17.1148C53.5331 12.8207 53.5311 8.52861 53.5331 4.23449C53.5331 3.89559 53.5331 3.55868 53.5331 3.1799H53.5311Z" fill="#181D27"/>
<path d="M66.3495 9.95003H66.3355C66.3355 6.78825 66.3296 3.62647 66.3435 0.464696C66.3435 0.0899076 66.2259 -0.00179581 65.871 0.00817196C65.0437 0.0320946 64.2144 0.0301011 63.3851 0.00817196C63.0322 -0.00179581 62.9126 0.0879141 62.9126 0.464696C62.9246 6.78825 62.9226 13.1138 62.9146 19.4374C62.9146 19.7105 62.9923 19.8042 63.2714 19.8002C64.1785 19.7862 65.0856 19.7842 65.9926 19.8002C66.2737 19.8042 66.3515 19.7145 66.3515 19.4393C66.3435 16.2776 66.3455 13.1158 66.3455 9.95401L66.3495 9.95003Z" fill="#181D27"/>
<path d="M112.724 32.1742C112.885 32.1662 112.977 32.1582 113.067 32.1582C114.422 32.1582 115.776 32.1483 117.132 32.1682C117.516 32.1742 117.652 32.0546 117.606 31.6698C117.572 31.3728 117.598 31.0677 117.598 30.7647C117.598 30.3514 117.389 30.1454 116.972 30.1467C115.67 30.1487 114.368 30.1427 113.065 30.1587C112.78 30.1627 112.706 30.071 112.708 29.7979C112.718 28.9187 112.714 28.0395 112.692 27.1604C112.686 26.8713 112.764 26.7756 113.067 26.7796C114.42 26.7976 115.776 26.7936 117.132 26.7936C118.045 26.7936 118.045 26.7896 118.035 25.8905C118.031 25.4918 118.035 25.0951 118.035 24.7023H110.429V37.9256C110.611 37.9256 110.766 37.9256 110.922 37.9256C113.236 37.9375 115.551 37.9475 117.865 37.9654C118.118 37.9654 118.14 37.8219 118.14 37.6365C118.14 37.178 118.126 36.7175 118.15 36.259C118.166 35.946 118.065 35.8543 117.748 35.8563C116.197 35.8742 114.644 35.8563 113.091 35.8762C112.756 35.8802 112.692 35.7705 112.708 35.4675C112.734 34.9572 112.722 34.4448 112.724 33.9325C112.724 33.3583 112.724 32.7822 112.724 32.1702V32.1742Z" fill="#181D27"/>
<path d="M31.8731 24.6983V37.8976C31.9708 37.9136 32.0366 37.9335 32.1004 37.9335C34.4548 37.9375 36.8112 37.9375 39.1656 37.9435C39.3769 37.9435 39.4427 37.8518 39.4427 37.6604C39.4446 37.2138 39.4367 36.7673 39.4686 36.3227C39.4965 35.9519 39.3549 35.8602 38.9961 35.8642C37.469 35.8821 35.944 35.8682 34.4169 35.8762C34.1876 35.8762 34.086 35.8323 34.0959 35.5711C34.1179 35.0608 34.1039 34.5485 34.1039 34.0361C34.1039 33.4241 34.1039 32.8101 34.1039 32.1542C34.5425 32.1542 34.9213 32.1542 35.2981 32.1542C36.4164 32.1502 37.5348 32.1502 38.6532 32.1303C38.7728 32.1283 38.9861 32.0087 38.9901 31.9369C39.018 31.3667 39.0061 30.7926 39.0061 30.2185C38.8725 30.2025 38.7967 30.1866 38.719 30.1866C37.3255 30.1726 35.93 30.1487 34.5365 30.1586C34.1837 30.1606 34.092 30.061 34.1019 29.7161C34.1278 28.8768 34.1238 28.0355 34.0979 27.1962C34.088 26.8593 34.1936 26.7836 34.5186 26.7875C36.0317 26.8055 37.5448 26.7995 39.0579 26.7875C39.1715 26.7875 39.3809 26.6879 39.3828 26.6281C39.4068 25.9901 39.3968 25.3522 39.3968 24.6983H31.8691H31.8731Z" fill="#181D27"/>
<path d="M79.4272 37.8997H87.0067V35.8822H81.6939V32.1542C81.8594 32.1542 81.991 32.1542 82.1205 32.1542C83.4622 32.1542 84.8059 32.1483 86.1475 32.1662C86.4705 32.1702 86.602 32.0865 86.5801 31.7476C86.5542 31.3548 86.5562 30.9581 86.5841 30.5674C86.608 30.2305 86.4745 30.1388 86.1535 30.1427C84.8118 30.1607 83.4702 30.1587 82.1265 30.1607C81.977 30.1607 81.8275 30.1328 81.6919 30.1188V26.7995C82.3937 26.7995 83.0635 26.7995 83.7353 26.7995C84.6962 26.7995 85.6571 26.8035 86.618 26.7976C86.7894 26.7976 87.0187 26.8394 87.0207 26.5504C87.0247 25.9383 87.0207 25.3263 87.0207 24.7023H79.4292V37.9017L79.4272 37.8997Z" fill="#181D27"/>
<path d="M71.5207 37.9416V24.7064H69.2541C69.2541 24.9257 69.2541 25.119 69.2541 25.3124C69.2541 29.1161 69.2541 32.9218 69.2521 36.7255C69.2521 37.0405 69.2381 37.3575 69.27 37.6684C69.28 37.7661 69.4155 37.9276 69.4993 37.9296C70.1671 37.9515 70.8349 37.9416 71.5207 37.9416Z" fill="#181D27"/>
<path d="M11.142 14.9399C11.756 13.6102 12.3182 12.3842 12.8863 11.1621C14.549 7.58172 16.2176 4.00529 17.8682 0.420877C18.0217 0.0879539 18.2151 -0.00574311 18.562 0.00223111C19.5887 0.0241602 20.6153 0.034128 21.64 0.00621822C22.0328 -0.00374955 22.1225 0.117857 22.1205 0.490652C22.1085 5.96495 22.1125 11.4412 22.1125 16.9155C22.1125 17.7568 22.1165 18.5961 22.1205 19.4374C22.1205 19.6108 22.1444 19.7942 21.8793 19.7942C20.8685 19.7942 19.8598 19.7942 18.8112 19.7942V5.95299C18.7833 5.94502 18.7534 5.93505 18.7255 5.92707C18.5879 6.1982 18.4424 6.46733 18.3128 6.74244C16.4588 10.6817 14.6048 14.621 12.7528 18.5622C12.6471 18.7875 12.5076 19.0068 12.4497 19.244C12.3301 19.7304 12.0251 19.8341 11.5726 19.8002C11.14 19.7683 10.7034 19.7803 10.2708 19.8002C10.0116 19.8122 9.87009 19.7265 9.75645 19.4852C8.20148 16.158 6.63854 12.8367 5.07559 9.51547C4.55128 8.40108 4.02299 7.28867 3.4947 6.17627C3.46878 6.12045 3.42493 6.07061 3.34319 5.94701C3.33322 6.14437 3.31927 6.26598 3.31927 6.38559C3.31927 10.7315 3.31927 15.0775 3.32924 19.4234C3.32924 19.7005 3.24949 19.7922 2.97638 19.7903C2.10719 19.7823 1.23999 19.7843 0.370801 19.8022C0.0657873 19.8062 0 19.6826 0 19.4015C0.0119613 13.5983 0.0159484 7.79503 0.0199355 1.9918C0.0199355 1.43958 0.0199355 0.889363 0.00598066 0.337148C0 0.0999152 0.0857228 0.00821177 0.324949 0.0102053C1.50912 0.016186 2.69329 0.00223111 3.87746 0.0241602C4.01701 0.0261538 4.22035 0.163709 4.28016 0.291296C6.40529 4.82863 8.51646 9.36994 10.6296 13.9113C10.7811 14.2342 10.9466 14.5512 11.14 14.9399H11.142Z" fill="#181D27"/>
<path d="M91.7834 19.7384C91.6279 19.7563 91.5143 19.7803 91.4007 19.7823C90.5056 19.7902 89.6105 19.7882 88.7154 19.8002C88.4642 19.8042 88.3784 19.7205 88.3784 19.4573C88.3884 13.4707 88.3884 7.48203 88.3904 1.49538C88.3904 1.14053 88.4143 0.783684 88.3824 0.432819C88.3505 0.0899276 88.4881 0.00420473 88.8051 0.00619829C90.4378 0.0181596 92.0685 0.0201532 93.7012 0.0141725C94.7678 0.0101854 95.8264 0.016166 96.879 0.255393C99.6121 0.877381 101.327 3.05434 101.422 5.83934C101.532 9.037 99.4945 10.7674 97.3494 11.5469C97.2139 11.5967 97.0803 11.6486 96.9348 11.7024C98.8625 14.3618 100.78 17.0032 102.742 19.7105C102.553 19.7404 102.397 19.7862 102.244 19.7882C101.205 19.7962 100.164 19.7842 99.1257 19.8002C98.8406 19.8042 98.6751 19.7005 98.5157 19.4693C96.8849 17.1169 95.2363 14.7764 93.6095 12.4201C93.3803 12.0891 93.1311 11.9396 92.7324 11.9795C92.4333 12.0094 92.1303 11.9855 91.7834 11.9855V19.7384ZM91.7874 9.06092C92.9955 9.06092 94.1797 9.1287 95.3519 9.04099C96.3327 8.96722 97.2099 8.49076 97.6465 7.57772C98.4379 5.92705 98.0432 3.51485 95.3818 3.14405C94.2116 2.98058 93.0015 3.11614 91.7854 3.11614V9.06092H91.7874Z" fill="#181D27"/>
<path d="M25.8282 19.7683C26.5399 18.0259 27.2197 16.3653 27.8975 14.7046C29.8552 9.91214 31.8129 5.11964 33.7626 0.325138C33.8483 0.115815 33.94 0.00218233 34.1832 0.00616944C34.9587 0.0181308 35.7362 0.0181308 36.5117 0.00616944C36.7469 0.00218233 36.8625 0.0918922 36.9502 0.305203C38.9877 5.31899 41.0311 10.3308 43.0764 15.3426C43.6566 16.762 44.2467 18.1774 44.8308 19.5948C44.8447 19.6287 44.8387 19.6686 44.8447 19.7503C44.7291 19.7663 44.6194 19.7922 44.5078 19.7942C43.5609 19.7962 42.6139 19.7882 41.665 19.7982C41.362 19.8022 41.2145 19.7045 41.0988 19.3975C40.5426 17.9262 39.9505 16.4689 39.3525 15.0156C39.3086 14.908 39.1212 14.7924 38.9976 14.7904C36.5376 14.7764 34.0775 14.7844 31.6175 14.7744C31.3543 14.7744 31.2826 14.9239 31.2068 15.1133C30.6646 16.4769 30.1203 17.8385 29.5821 19.2041C29.3508 19.7922 29.3568 19.7922 28.7388 19.7902C27.9354 19.7882 27.134 19.7942 26.3306 19.7922C26.1791 19.7922 26.0276 19.7782 25.8242 19.7663L25.8282 19.7683ZM32.4488 11.7821H38.1783C37.2154 9.36192 36.2744 6.99756 35.2976 4.54151C34.3227 7.01949 33.3937 9.37986 32.4488 11.7821Z" fill="#181D27"/>
<path d="M110.1 3.09414V8.11391C110.258 8.11391 110.399 8.11391 110.539 8.11391C112.696 8.11391 114.855 8.12188 117.012 8.10992C117.361 8.10992 117.41 8.23352 117.398 8.5505C117.369 9.38779 117.388 10.2291 117.388 11.1102H110.104V16.6862C110.216 16.6862 110.331 16.6862 110.445 16.6862C112.893 16.6842 115.339 16.6842 117.787 16.6722C118.068 16.6722 118.15 16.7679 118.146 17.0391C118.132 17.8405 118.134 18.6399 118.146 19.4413C118.15 19.7144 118.056 19.8001 117.779 19.8001C114.187 19.7922 110.594 19.7941 107.002 19.7922C106.886 19.7922 106.773 19.7782 106.635 19.7702V0.0639388C106.797 0.0479903 106.962 0.0200806 107.128 0.0200806C110.628 0.0200806 114.129 0.0260612 117.628 0.0200806C117.985 0.0200806 118.056 0.127733 118.038 0.476604C118.004 1.18232 118.016 1.89402 118.056 2.59974C118.078 2.9845 117.961 3.10212 117.582 3.10012C115.227 3.08816 112.871 3.09613 110.515 3.09613C110.385 3.09613 110.258 3.09613 110.098 3.09613L110.1 3.09414Z" fill="#181D27"/>
<path d="M82.818 11.1321H75.5455C75.5355 11.3136 75.5196 11.4651 75.5196 11.6186C75.5196 13.2074 75.5335 14.7943 75.5156 16.3832C75.5116 16.746 75.7389 16.6802 75.9303 16.6802C77.4693 16.6882 79.0083 16.6842 80.5493 16.6882C81.4185 16.6902 82.2857 16.7161 83.1529 16.7061C83.4898 16.7021 83.5676 16.8337 83.5596 17.1487C83.5377 17.8823 83.5377 18.6199 83.5596 19.3536C83.5696 19.6765 83.4739 19.7921 83.1429 19.7882C81.9329 19.7762 80.7228 19.7882 79.5107 19.7882C77.2081 19.7882 74.9056 19.7882 72.603 19.7862C72.0987 19.7862 72.0927 19.7742 72.1306 19.2798C72.1505 19.0047 72.1565 18.7296 72.1565 18.4545C72.1565 12.5874 72.1545 6.71842 72.1465 0.85139C72.1465 0.0240654 72.1325 0.0200782 72.9479 0.0180847C76.317 0.012104 79.6841 0.012104 83.0532 0.00213623C83.3543 0.00213623 83.4739 0.0878591 83.4679 0.406828C83.45 1.18033 83.4519 1.95582 83.4699 2.72932C83.4779 3.03433 83.3622 3.10211 83.0772 3.10211C80.7088 3.09215 78.3405 3.10211 75.9721 3.09015C75.6332 3.09015 75.5236 3.1679 75.5296 3.52674C75.5495 4.94416 75.5455 6.36157 75.5216 7.77899C75.5156 8.14381 75.7229 8.10593 75.9502 8.10593C78.0295 8.10793 80.1088 8.10992 82.186 8.1179C82.826 8.11989 82.822 8.12786 82.818 8.76779C82.814 9.5393 82.818 10.3108 82.818 11.1341V11.1321Z" fill="#181D27"/>
<path d="M61.4277 24.6804V37.9017H59.2308V28.7851C59.2069 28.7792 59.1829 28.7752 59.161 28.7692C59.0015 29.0941 58.8381 29.4151 58.6826 29.742C57.4366 32.3875 56.1886 35.0329 54.9566 37.6844C54.8011 38.0213 54.53 37.9814 54.2947 37.9435C53.914 37.8817 53.4136 38.2326 53.1624 37.6943C51.8387 34.8675 50.5289 32.0366 49.2132 29.2078C49.1574 29.0862 49.0916 28.9705 49.0298 28.8509C48.9899 28.8589 48.948 28.8689 48.9082 28.8768C48.9082 29.1181 48.9082 29.3593 48.9082 29.5985C48.9102 32.224 48.9082 34.8495 48.9241 37.475C48.9261 37.8598 48.8005 37.9674 48.4277 37.9455C47.8795 37.9136 47.3293 37.9375 46.7432 37.9375V24.6844C47.6163 24.6844 48.4556 24.6724 49.2949 24.6984C49.3966 24.7023 49.5282 24.8838 49.588 25.0113C50.5648 27.0886 51.5337 29.1679 52.5005 31.2492C52.9591 32.236 53.4096 33.2268 53.8681 34.2136C53.9339 34.3531 54.0196 34.4847 54.1313 34.6821C54.512 33.8607 54.8629 33.0952 55.2178 32.3317C56.3441 29.9055 57.4765 27.4814 58.5948 25.0512C58.7224 24.7761 58.864 24.6585 59.1809 24.6704C59.9146 24.6984 60.6522 24.6784 61.4277 24.6784V24.6804Z" fill="#181D27"/>
<path d="M53.5309 3.17994C53.5309 3.55871 53.5309 3.89762 53.5309 4.23453C53.5309 8.52864 53.5309 12.8208 53.5289 17.1149C53.5289 17.9143 53.5229 18.7157 53.495 19.5151C53.491 19.6088 53.3435 19.7743 53.2598 19.7763C52.261 19.7962 51.2602 19.7982 50.2595 19.7823C50.1817 19.7823 50.0382 19.6108 50.0382 19.5171C50.0382 14.2262 50.0462 8.93533 50.0721 3.64444C50.0741 3.22978 49.9485 3.13807 49.5597 3.14206C48.0068 3.16399 46.4538 3.15003 44.9008 3.16598C44.6177 3.16997 44.532 3.07627 44.536 2.80714C44.5479 2.01969 44.5619 1.23024 44.536 0.444782C44.524 0.085942 44.6416 0.00420628 44.9805 0.00619983C47.8493 0.0181612 50.718 0.0121805 53.5867 0.014174C55.2713 0.014174 56.9558 0.0221483 58.6404 0.0201547C58.8577 0.0201547 58.9853 0.0480644 58.9813 0.313207C58.9713 1.08671 58.9853 1.86021 58.9892 2.6337C58.9912 3.16399 58.9912 3.16 58.4729 3.16C56.9199 3.16 55.367 3.16 53.814 3.16C53.7243 3.16 53.6326 3.17196 53.5289 3.17994H53.5309Z" fill="#181D27"/>
<path d="M15.665 24.6086C17.4792 24.6864 19.2714 24.6684 21.0417 24.8618C23.0272 25.0771 24.2612 26.668 24.343 28.6536C24.4187 30.5395 23.2605 31.8273 21.6038 32.4373C21.5341 32.4632 21.4623 32.4892 21.3546 32.531C22.6385 34.3192 23.9064 36.0835 25.2062 37.8937C25.0686 37.9156 24.9889 37.9375 24.9072 37.9375C24.2752 37.9455 23.6432 37.9216 23.0153 37.9635C22.6823 37.9854 22.483 37.8937 22.2956 37.6226C21.247 36.0995 20.1804 34.5864 19.1219 33.0693C18.9105 32.7663 18.3384 32.5689 18.0234 32.7324C17.9357 32.7782 17.8819 32.9676 17.8819 33.0932C17.8739 34.5625 17.8799 36.0317 17.8819 37.501C17.8819 37.6285 17.8819 37.7561 17.8819 37.9096H15.667V24.6086H15.665ZM17.8819 28.825C17.8819 28.825 17.8739 28.825 17.8719 28.825C17.8719 29.4011 17.8619 29.9773 17.8819 30.5534C17.8859 30.6451 18.0254 30.8106 18.1032 30.8106C18.8627 30.8046 19.6322 30.8325 20.3818 30.7308C21.4703 30.5833 22.0883 29.7739 22.0424 28.6994C21.9986 27.6548 21.2709 26.8893 20.1964 26.8095C19.5305 26.7617 18.8587 26.7836 18.1889 26.7637C17.9417 26.7557 17.8759 26.8634 17.8799 27.0966C17.8938 27.6727 17.8839 28.2489 17.8839 28.825H17.8819Z" fill="#181D27"/>
<path d="M99.9566 32.521C101.258 34.3272 102.532 36.0915 103.84 37.9076C103.705 37.9256 103.623 37.9435 103.543 37.9455C102.911 37.9515 102.279 37.9276 101.651 37.9694C101.318 37.9914 101.111 37.9017 100.925 37.6325C99.9287 36.1832 98.8821 34.7678 97.9292 33.2906C97.5564 32.7144 97.1337 32.6227 96.5237 32.7623V37.8977H94.3188V24.7362C94.3348 24.7243 94.3547 24.6964 94.3747 24.6964C96.121 24.7402 97.8813 24.6704 99.6117 24.8618C102.321 25.1628 103.806 28.0794 102.582 30.5096C102.112 31.4425 101.296 32.0127 100.345 32.4014C100.238 32.4453 100.122 32.4732 99.9606 32.525L99.9566 32.521ZM96.5038 26.7397C96.5038 28.0894 96.4998 29.3573 96.5138 30.6232C96.5138 30.689 96.6573 30.8126 96.733 30.8106C97.4667 30.8026 98.2083 30.8305 98.9339 30.7408C99.9825 30.6092 100.618 29.8756 100.672 28.8689C100.726 27.9 100.196 27.1026 99.1632 26.9052C98.3139 26.7417 97.4248 26.7896 96.5038 26.7397Z" fill="#181D27"/>
<path d="M66.3494 9.95005C66.3494 13.1118 66.3474 16.2736 66.3554 19.4354C66.3554 19.7105 66.2776 19.8002 65.9965 19.7962C65.0895 19.7803 64.1824 19.7823 63.2753 19.7962C62.9962 19.8002 62.9185 19.7065 62.9185 19.4334C62.9245 13.1098 62.9265 6.78428 62.9165 0.460729C62.9165 0.0839469 63.0361 -0.0057631 63.389 0.00420467C64.2163 0.0261338 65.0456 0.0281273 65.8749 0.00420467C66.2298 -0.0057631 66.3494 0.0859404 66.3474 0.460729C66.3335 3.62251 66.3394 6.78428 66.3394 9.94606H66.3534L66.3494 9.95005Z" fill="#181D27"/>
<path d="M112.724 32.1742C112.724 32.7882 112.724 33.3624 112.724 33.9365C112.724 34.4489 112.736 34.9612 112.708 35.4716C112.692 35.7726 112.756 35.8842 113.091 35.8802C114.642 35.8603 116.195 35.8782 117.748 35.8603C118.065 35.8563 118.166 35.95 118.15 36.263C118.126 36.7215 118.14 37.182 118.14 37.6405C118.14 37.8259 118.118 37.9715 117.865 37.9695C115.551 37.9515 113.236 37.9416 110.922 37.9296C110.766 37.9296 110.611 37.9296 110.429 37.9296V24.7064H118.035C118.035 25.0991 118.031 25.4958 118.035 25.8945C118.045 26.7936 118.047 26.7976 117.132 26.7976C115.776 26.7976 114.422 26.8036 113.067 26.7836C112.764 26.7797 112.684 26.8753 112.692 27.1644C112.712 28.0436 112.718 28.9227 112.708 29.8019C112.704 30.073 112.78 30.1647 113.065 30.1627C114.366 30.1468 115.668 30.1527 116.972 30.1508C117.391 30.1508 117.599 30.3568 117.598 30.7688C117.598 31.0698 117.57 31.3748 117.606 31.6738C117.652 32.0586 117.516 32.1782 117.132 32.1722C115.778 32.1523 114.422 32.1623 113.067 32.1623C112.977 32.1623 112.885 32.1702 112.724 32.1782V32.1742Z" fill="#181D27"/>
<path d="M31.8726 24.6983H39.4002C39.4002 25.3542 39.4082 25.9921 39.3863 26.6281C39.3843 26.6879 39.1749 26.7856 39.0613 26.7875C37.5482 26.7975 36.0351 26.8035 34.522 26.7875C34.197 26.7836 34.0894 26.8593 34.1014 27.1962C34.1273 28.0355 34.1313 28.8768 34.1053 29.7161C34.0954 30.061 34.1851 30.1606 34.5399 30.1586C35.9334 30.1487 37.3289 30.1726 38.7224 30.1866C38.8002 30.1866 38.8759 30.2025 39.0095 30.2185C39.0095 30.7946 39.0214 31.3667 38.9935 31.9369C38.9895 32.0107 38.7742 32.1283 38.6566 32.1303C37.5382 32.1502 36.4199 32.1502 35.3015 32.1542C34.9227 32.1542 34.5459 32.1542 34.1073 32.1542C34.1073 32.8101 34.1073 33.4221 34.1073 34.0361C34.1073 34.5485 34.1213 35.0608 34.0994 35.5711C34.0874 35.8323 34.1911 35.8762 34.4203 35.8762C35.9474 35.8682 37.4725 35.8841 38.9995 35.8642C39.3584 35.8602 39.4979 35.9519 39.472 36.3227C39.4401 36.7673 39.4481 37.2138 39.4461 37.6604C39.4461 37.8518 39.3803 37.9435 39.169 37.9435C36.8146 37.9375 34.4582 37.9375 32.1038 37.9335C32.04 37.9335 31.9742 37.9136 31.8765 37.8976V24.6983H31.8726Z" fill="#181D27"/>
<path d="M79.4273 37.8996V24.7003H87.0187C87.0187 25.3243 87.0207 25.9363 87.0187 26.5483C87.0187 26.8354 86.7875 26.7935 86.616 26.7955C85.6552 26.8015 84.6943 26.7995 83.7334 26.7975C83.0635 26.7975 82.3937 26.7975 81.69 26.7975V30.1168C81.8255 30.1308 81.9751 30.1587 82.1246 30.1587C83.4662 30.1587 84.8099 30.1587 86.1515 30.1407C86.4725 30.1367 86.6061 30.2284 86.5822 30.5654C86.5542 30.9581 86.5542 31.3548 86.5782 31.7455C86.6001 32.0844 86.4685 32.1702 86.1456 32.1642C84.8039 32.1462 83.4602 32.1542 82.1186 32.1522C81.987 32.1522 81.8574 32.1522 81.692 32.1522V35.8802H87.0048V37.8976H79.4253L79.4273 37.8996Z" fill="#181D27"/>
<path d="M0.0277797 24.6066C1.92764 24.6863 3.75971 24.6744 5.56986 24.8598C7.5694 25.0651 8.84527 26.6679 8.91505 28.6615C9.00276 31.1694 7.08098 32.7104 4.79636 32.7782C4.10061 32.7981 3.40287 32.8161 2.70512 32.8001C2.37818 32.7941 2.27053 32.8958 2.27252 33.2227C2.28648 34.6003 2.2805 35.9778 2.2805 37.3554C2.2805 37.9754 2.2805 37.9674 1.67645 37.9455C1.26976 37.9315 0.859092 37.9196 0.4544 37.9535C0.0975541 37.9834 0.00585055 37.8598 0.00784411 37.5149C0.021799 33.6573 0.021799 29.7998 0.0257861 25.9423C0.0257861 25.5376 0.0257861 25.1329 0.0257861 24.6046L0.0277797 24.6066ZM2.28648 28.7572H2.27651C2.27651 29.3214 2.28448 29.8835 2.27252 30.4477C2.26654 30.677 2.33033 30.7906 2.57554 30.7846C3.28325 30.7687 3.99495 30.7906 4.70067 30.7408C5.35057 30.6949 5.93069 30.4477 6.30349 29.8756C7.15872 28.5678 6.2995 26.9112 4.70266 26.8095C3.99695 26.7636 3.28525 26.7895 2.57754 26.7736C2.35824 26.7676 2.27651 26.8434 2.28249 27.0686C2.29445 27.6308 2.28648 28.195 2.28648 28.7592V28.7572Z" fill="#181D27"/>
<path d="M71.5207 37.9416C70.8349 37.9416 70.1671 37.9515 69.4993 37.9296C69.4155 37.9276 69.28 37.7661 69.27 37.6684C69.2381 37.3575 69.2521 37.0405 69.2521 36.7255C69.2521 32.9218 69.2521 29.1161 69.2541 25.3124C69.2541 25.119 69.2541 24.9257 69.2541 24.7064H71.5207V37.9416Z" fill="#181D27"/>
</svg>
