<svg width="156" height="38" viewBox="0 0 156 38" fill="none" xmlns="http://www.w3.org/2000/svg">
<path d="M11.6934 18.123H11.3124L4.15064 3.28654V13.4051C4.15064 14.345 4.56125 17.0363 6.68357 17.5706C6.68357 17.5706 6.99194 17.5887 7.46357 17.5887V18.123H0V17.5887H0.824521C3.19914 17.0742 3.57512 14.3698 3.57512 13.4051V2.26578C2.90232 1.00262 2.04976 0.539237 1.31923 0.539237H0V0H8.32437L13.9344 11.2762L18.4396 0.1715V1.53691L11.695 18.123M3.69056 15.1547C3.43825 16.0947 2.72092 17.2457 2.04976 17.5887H4.15064C3.76312 16.9505 3.69056 15.7978 3.69056 15.1547ZM6.61101 0.539237H2.72092C3.35085 0.812978 3.53885 1.15268 4.00058 1.9838L11.5136 17.3578L13.0901 13.5172L6.61101 0.539237ZM2.7638 16.9307C2.7638 16.9307 2.97487 16.69 3.06227 16.5481H3.80929C3.80929 16.69 3.87525 16.9307 3.87525 16.9307H2.76215H2.7638ZM3.95111 1.8997L3.74663 1.51547H7.08594L7.29866 1.8997H3.94946H3.95111ZM4.79047 3.58337L4.58434 3.1843H7.92695L8.13968 3.58337H4.79047ZM8.77126 4.84489H5.40226L5.58861 5.23241H8.95265L8.77126 4.84489ZM9.58918 6.49063H6.2037L6.39004 6.87486H9.80026L9.58918 6.49063ZM10.4071 8.13638H7.03152L7.19642 8.54369H10.6017L10.4071 8.13638ZM11.23 9.77718H7.81317L8.01765 10.1779H11.4361L11.23 9.77718ZM12.0562 11.4196H8.6146L8.82073 11.8038H12.2392L12.0562 11.4196ZM9.58918 13.4282L9.40119 13.0192H12.8493L13.0604 13.4282H9.58918ZM12.4783 15.0096H10.3758L10.1861 14.6204H12.6465L12.4783 15.0096ZM10.9546 16.2051L11.1426 16.5894H11.8269L11.9918 16.2051H10.9546ZM15.1234 18.123V17.5887H16.9752C17.9812 17.5887 18.4396 16.3931 18.4396 15.1349V0H26.8843V0.539237H25.0374C23.9458 0.539237 23.5549 1.77272 23.5549 3.01115V15.1349C23.5549 16.3783 23.9441 17.5887 25.0374 17.5887H26.8843V18.123H15.125H15.1234ZM21.9108 15.1349V3.01115C21.9108 1.85847 22.3726 0.539237 22.7288 0.539237H18.8683V15.1349C18.8683 16.2909 18.3736 17.5887 18.0306 17.5887H22.7304C22.3742 17.5887 21.9125 16.2909 21.9125 15.1349H21.9108ZM18.6111 16.7213L18.7133 16.3338H22.0494L22.1697 16.7213H18.6127H18.6111ZM18.8667 1.51382V1.89805H22.0345L22.0642 1.72985L22.1351 1.51217H18.8683L18.8667 1.51382ZM18.8667 3.1843H21.9125V3.56523H18.8667V3.1843ZM18.8667 4.80201H21.9125V5.21592H18.8667V4.80201ZM18.8667 6.44611H21.9125V6.83363H18.8667V6.44611ZM18.8667 8.11329H21.9125V8.49752H18.8667V8.11329ZM18.8667 9.75574H21.9125V10.14H18.8667V9.75574ZM18.8667 11.3998H21.9125V11.7824H18.8667V11.3998ZM18.8667 13.0175H21.9125V13.4496H18.8667V13.0175ZM18.8667 14.6864H21.9125V15.0706H18.8667V14.6864Z" fill="#181D27"/>
<path d="M29.5508 18.123V17.6778H31.1075C31.9782 17.6778 32.3723 16.6521 32.3723 15.5884V5.27366C32.3723 4.20673 32.0441 3.18432 31.1075 3.18432H29.5508V2.73083H39.5456V3.18432H37.9774C37.0523 3.18432 36.7109 4.20673 36.7109 5.27366V15.5868C36.7109 16.6306 37.0523 17.6761 37.9774 17.6761H39.5456V18.1214H29.5508M35.3076 15.5884V5.27366C35.3076 4.29083 35.7034 3.18432 36.0101 3.18432H32.0309C32.3294 3.18432 32.7334 4.29083 32.7334 5.27366V15.5868C32.7334 16.5647 32.2981 17.6761 31.993 17.6761H36.0101C35.705 17.6761 35.3076 16.5647 35.3076 15.5868V15.5884ZM35.3455 16.0337H32.6939C32.6939 16.1409 32.6262 16.4179 32.6262 16.4179H35.395C35.395 16.4179 35.3587 16.2052 35.3455 16.0337ZM35.3274 4.91417H32.7087L32.6592 4.50685H35.3801L35.3274 4.91417ZM32.7334 6.14765H35.3092V6.53023H32.7334V6.14765ZM32.7334 7.79669H35.3092V8.17762H32.7334V7.79669ZM32.7334 9.45728H35.3092V9.84481H32.7334V9.45728ZM32.7334 11.0981H35.3092V11.4807H32.7334V11.0981ZM32.7334 12.724H35.3092V13.1363H32.7334V12.724ZM32.7334 14.3698H35.3092V14.7688H32.7334V14.3698Z" fill="#181D27"/>
<path d="M49.0537 18.123H43.874L52.5546 2.73248H57.9222L49.0537 18.123ZM52.294 3.18432H50.1255C48.9333 3.18432 46.2833 4.44089 44.7464 8.47445H44.4001V2.73248H52.5546L52.294 3.18597V3.18432ZM52.792 3.18432L44.5534 17.6761H47.5959L55.9203 3.18432H52.792ZM44.7777 3.18432V6.12786C45.2394 4.9356 46.0903 3.54876 47.2793 3.18432H44.7777ZM45.7539 4.337H44.7777V3.99235H46.0607L45.7556 4.337H45.7539ZM45.4934 16.0139L45.2922 16.3948H48.333L48.5557 16.0139H45.495H45.4934ZM46.435 14.345L46.2157 14.7524H49.273L49.517 14.345H46.435ZM47.3749 12.7009L47.1391 13.1099H50.2294L50.4537 12.7009H47.3749ZM48.3034 11.0832L48.0774 11.4658H51.1661L51.3953 11.0832H48.305H48.3034ZM49.2433 9.43749L49.0141 9.82172H52.1044L52.3303 9.43749H49.2417H49.2433ZM49.0537 18.123L49.306 17.6778H50.7258C52.7756 17.6778 54.5235 15.6263 57.0993 11.8303H57.4259V18.123H49.0537ZM50.18 7.77196L49.954 8.15618H53.046L53.2686 7.77196H50.18ZM51.0952 6.12786L50.8775 6.51044H54.0041L54.2333 6.12786H51.0952ZM52.0582 4.49036L51.8026 4.88613H54.949L55.1683 4.49036H52.0582ZM56.3161 13.7497C55.696 14.7985 53.7155 17.2045 52.4672 17.6778H56.3161V13.7497ZM54.0635 16.53L54.3834 16.1821H56.3161V16.53H54.0635Z" fill="#181D27"/>
<path d="M62.1099 18.123V17.6778H63.6616C64.5323 17.6778 64.9281 16.6521 64.9281 15.5884V5.27366C64.9281 4.20673 64.6016 3.18432 63.6616 3.18432H62.1099V2.73083H69.2717V18.1214H62.1099M67.8667 3.18432C67.8667 3.18432 63.9881 3.18432 64.5884 3.18432C64.8934 3.18432 65.2925 4.29083 65.2925 5.27366V15.5868C65.2925 16.5647 64.8934 17.6761 64.5884 17.6761C63.9881 17.6761 64.5686 17.6761 64.557 17.6761H67.8667V3.18432ZM65.2051 16.4179L65.2711 16.0337H67.8683V16.4179H65.2068H65.2051ZM65.2711 4.91417C65.2711 4.91417 65.2529 4.67671 65.2183 4.50685H67.8667V4.91417H65.2694H65.2711ZM65.2925 6.14765H67.8683V6.53023H65.2925V6.14765ZM65.2925 7.79669H67.8683V8.17762H65.2925V7.79669ZM65.2925 9.45728H67.8683V9.84481H65.2925V9.45728ZM65.2925 11.0981H67.8683V11.4807H65.2925V11.0981ZM65.2925 12.724H67.8683V13.1363H65.2925V12.724ZM65.2925 14.3698H67.8683V14.7688H65.2925V14.3698ZM77.3025 8.47445C74.7201 4.67671 72.9754 3.18432 70.9454 3.18432H69.2733V2.73083H77.6471V8.47445H77.3025ZM73.1469 13.2352C72.6555 12.2145 71.699 10.6974 70.1918 10.455H69.2717V9.98662H70.1918C71.7485 9.82172 72.7346 8.24194 73.1469 7.17336H73.5888V13.2352H73.1469ZM69.2717 18.123V17.6778H71.079C73.1288 17.6778 74.8718 16.1639 77.4394 12.4074H77.7791V18.123H69.2717ZM72.5813 8.75314C72.296 9.30392 71.8672 9.75576 71.1466 10.0955H72.5813V8.75314ZM72.5813 10.4236H71.1466C71.8672 10.7617 72.296 11.2317 72.5813 11.7462V10.4236ZM76.257 3.18432H72.6885C73.9351 3.65265 75.4704 5.44351 76.257 6.38511V3.18432ZM76.3955 14.477C75.6304 15.4169 74.0704 17.2045 72.8253 17.6778H76.3955V14.477ZM76.257 4.50685H74.5502L74.9609 4.91417H76.257V4.50685ZM74.6162 16.4179L75.012 16.0337H76.3939V16.4179H74.6146H74.6162Z" fill="#181D27"/>
<path d="M97.5689 18.123L97.1088 18.1659L85.8821 5.51276V14.1142C85.8821 14.8991 86.2399 17.2045 88.0506 17.6547C88.0506 17.6547 88.2914 17.6778 88.7003 17.6778V18.123H82.3564V17.6778H83.0589C85.0774 17.2474 85.3808 14.9436 85.3808 14.1142V5.0164C84.7129 4.40296 83.5932 3.18431 82.9748 3.18431H82.3564V2.73083H89.4325L97.1088 11.3834V6.66379C97.1088 5.85082 96.7823 3.52237 94.7688 3.07383H94.0679V2.65002H100.405V3.07383C99.9996 3.07383 99.7456 3.11835 99.7456 3.11835C97.9448 3.54875 97.587 5.85082 97.587 6.66379V18.123H97.5689ZM97.1088 13.6854L87.9665 3.18431H83.9494C84.4985 3.35581 84.8564 3.67573 85.5556 4.46067L97.1088 17.4584V13.6854ZM85.483 15.6082C85.2835 16.3931 84.647 17.376 84.1028 17.6778H85.8821C85.5556 17.1253 85.483 16.1408 85.483 15.6082ZM89.1307 4.50685H85.5886L85.9563 4.91416H89.4704L89.1307 4.50685ZM90.5654 6.14764H87.0595L87.3992 6.53022H90.8902L90.5637 6.14764H90.5654ZM91.9967 7.79669H88.514L88.852 8.17762H92.3249L91.9967 7.79669ZM93.4364 9.45727H89.9816L90.3213 9.8448H93.7761L93.4364 9.45727ZM94.8661 11.0981H91.4592L91.7923 11.4806H95.2157L94.8661 11.0981ZM96.2909 12.724H92.8872L93.2632 13.1363H96.6487L96.2909 12.724ZM97.1088 14.3698H94.3565L94.716 14.7688H97.1088V14.3698ZM95.8077 3.07383C96.3568 3.39374 96.9719 4.37822 97.1962 5.14503C97.1962 4.5926 97.2457 3.65264 97.5854 3.07383H95.806H95.8077ZM97.1088 16.0337H95.8258L96.1655 16.4179H97.1088V16.0337Z" fill="#181D27"/>
<path d="M113.395 18.6985C111.53 18.7414 109.77 17.9531 107.513 16.1177C106.83 16.8021 105.894 17.7157 105.176 18.4H104.83V12.0842H105.176C106.477 14.688 109.64 18.0158 113.357 18.0158C114.945 18.0158 116.932 17.6777 116.932 15.8424C116.932 13.6623 113.565 13.5584 110.981 13.067C107.158 12.3381 104.22 11.6769 104.22 7.91706C104.22 4.15724 107.511 2.0745 110.71 2.31031C113.017 2.47851 114.261 3.63449 115.413 4.52827C115.6 4.3139 116.932 2.99631 117.48 2.47686H117.785L117.803 8.0935H117.48C116.388 5.48966 113.174 2.99631 110.966 2.78358C109.36 2.65166 106.697 3.28819 106.652 5.06256C106.626 7.15025 108.489 7.19477 112.298 7.94179C115.869 8.64593 119.221 9.4787 119.221 13.321C119.221 17.1632 116.282 18.6391 113.393 18.7001M112.643 9.731C110.252 9.3039 105.786 8.96585 105.773 6.59617C105.773 5.64138 105.859 5.12523 106.217 4.20836C105.41 4.91415 104.616 6.37025 104.616 8.02754C104.584 11.385 107.862 12.1139 110.832 12.5575C114.218 13.0868 117.049 13.4694 117.262 15.285C117.341 15.971 117.377 16.1408 117.119 16.9307C118.129 16.3354 118.199 15.0541 118.162 13.6409C118.091 11.3619 115.87 10.295 112.641 9.731H112.643ZM106.288 7.79668H104.616V8.1776H106.735C106.735 8.1776 106.426 7.96488 106.288 7.79668ZM104.955 6.14763L104.82 6.53021H105.773V6.14763H104.955ZM110.872 9.45726H104.832L105.011 9.84479H113.21C113.21 9.84479 111.497 9.52157 110.872 9.45726ZM105.196 14.1933V17.8295L106.716 16.2728C106.08 15.5884 105.518 14.7985 105.196 14.195V14.1933ZM106.627 16.3536H105.196V16.0139H106.479L106.716 16.2711L106.627 16.3519V16.3536ZM116.673 11.0981H106.133C106.25 11.2316 106.8 11.4806 106.8 11.4806H117.178C117.178 11.4806 116.919 11.2498 116.673 11.0981ZM117.993 12.724H111.997C112.983 12.9137 114.165 13.1363 114.165 13.1363H118.093C118.093 13.1363 118.075 12.9796 117.991 12.724H117.993ZM116.762 3.72189C116.35 4.1424 116.01 4.46231 115.656 4.87457C116.057 5.27529 116.421 5.72383 116.762 6.12784V3.72189ZM116.762 4.80201H115.7L115.657 4.87457L115.887 5.12523H116.764V4.80201H116.762ZM118.164 14.3698H116.827C117.016 14.5808 117.105 14.7688 117.105 14.7688H118.141L118.164 14.3698Z" fill="#181D27"/>
<path d="M123.512 18.123V17.6778H125.068C125.941 17.6778 126.33 16.6521 126.33 15.5884V5.27366C126.33 4.20673 126.01 3.18432 125.068 3.18432H123.512V2.73083H133.518V3.18432H131.942C131.021 3.18432 130.677 4.20673 130.677 5.27366V15.5868C130.677 16.6306 131.021 17.6761 131.942 17.6761H133.518V18.1214H123.512M129.273 15.5884V5.27366C129.273 4.29083 129.666 3.18432 129.976 3.18432H125.994C126.304 3.18432 126.689 4.29083 126.689 5.27366V15.5868C126.689 16.5647 126.264 17.6761 125.956 17.6761H129.978C129.668 17.6761 129.275 16.5647 129.275 15.5868L129.273 15.5884ZM129.308 16.0337H126.661C126.661 16.1409 126.59 16.4179 126.59 16.4179H129.361C129.361 16.4179 129.33 16.2052 129.306 16.0337H129.308ZM129.295 4.91417H126.676L126.628 4.50685H129.341L129.297 4.91417H129.295ZM126.688 6.14765H129.273V6.53023H126.688V6.14765ZM126.688 7.79669H129.273V8.17762H126.688V7.79669ZM126.688 9.45728H129.273V9.84481H126.688V9.45728ZM126.688 11.0981H129.273V11.4807H126.688V11.0981ZM126.688 12.724H129.273V13.1363H126.688V12.724ZM126.688 14.3698H129.273V14.7688H126.688V14.3698Z" fill="#181D27"/>
<path d="M149.802 2.73248C152.212 2.73248 154.042 4.40296 154.042 6.94249C154.042 9.88603 151.644 10.5456 150.635 10.8425C151.084 11.7462 152.876 16.0947 152.876 16.0947C153.132 16.591 153.663 17.5706 154.562 17.6778H155.356V18.123H149.339L146.006 10.6974H145.012V10.3329H146.437C148.521 10.3329 149.153 8.7317 149.153 6.74955C149.153 4.99002 148.343 3.18432 147.184 3.18432H145.01V15.5868C145.01 16.6306 145.378 17.6761 146.283 17.6761H147.217V18.1214H137.867V17.6761H139.425C140.279 17.6761 140.687 16.6504 140.687 15.5868V5.27366C140.687 4.20673 140.358 3.18432 139.425 3.18432H137.867V2.73083H149.802M143.612 15.5884V3.18432H140.349C140.65 3.18432 141.026 4.29083 141.026 5.27366V15.5868C141.026 16.5647 140.619 17.6761 140.316 17.6761H144.314C144.028 17.6761 143.612 16.5647 143.612 15.5868V15.5884ZM143.625 16.0337H141.018L140.952 16.4179H143.701L143.627 16.0337H143.625ZM140.96 4.50685L141.016 4.91417H143.61V4.50685H140.959H140.96ZM141.026 6.53023H143.612V6.14765H141.026V6.53023ZM141.026 8.17598H143.612V7.79505H141.026V8.17598ZM141.026 9.84481H143.612V9.45728H141.026V9.84481ZM141.026 11.4807H143.612V11.0981H141.026V11.4807ZM141.026 13.1363H143.612V12.724H141.026V13.1363ZM141.026 14.7688H143.612V14.3698H141.026V14.7688ZM149.847 3.18432H148.158C148.891 3.54876 149.425 5.23078 149.522 6.38511C149.633 8.15454 149.248 10.5226 146.494 10.7782C146.912 11.7626 148.445 15.3279 149.558 17.6761H152.053C150.907 15.0706 149.58 12.1238 148.97 10.976C150.465 10.2274 152.466 9.22147 152.466 6.79078C152.466 4.36009 150.452 3.20081 149.847 3.18432ZM149.049 11.0981H146.633L146.791 11.4807H149.234L149.047 11.0981H149.049ZM149.816 12.724H147.342L147.51 13.1363H150.007L149.817 12.724H149.816ZM150.586 14.3698H148.059L148.228 14.7688H150.759L150.587 14.3698H150.586ZM150.925 9.82172H148.633L148.93 9.43749H151.366C151.148 9.65187 150.925 9.82172 150.925 9.82172ZM151.325 16.0337H148.793L148.961 16.4179H151.493L151.325 16.0337ZM151.766 4.50685H149.087L149.237 4.91417H152.022L151.768 4.50685H151.766ZM149.479 7.79669L149.402 8.17762H152.195C152.195 8.17762 152.288 7.98798 152.327 7.79669H149.479ZM149.524 6.53023C149.524 6.53023 149.524 6.31915 149.488 6.14765H152.426C152.467 6.34224 152.449 6.53023 152.449 6.53023H149.524Z" fill="#181D27"/>
<path d="M58.9631 37.2458L58.8444 35.0724H58.818C58.6597 35.4962 58.4651 35.8606 58.2326 36.1673C58.0001 36.4741 57.7428 36.7247 57.4625 36.9193C57.1822 37.1139 56.882 37.2557 56.5621 37.3448C56.2422 37.4338 55.9108 37.4783 55.5678 37.4783C54.8306 37.4783 54.1842 37.3085 53.6268 36.9688C53.0695 36.6291 52.6061 36.1739 52.2383 35.605C51.869 35.0377 51.5936 34.3798 51.4089 33.6328C51.2242 32.8874 51.1318 32.1008 51.1318 31.2763C51.1318 30.4518 51.2242 29.6652 51.4089 28.9181C51.5936 28.1728 51.869 27.5115 52.2383 26.9376C52.6061 26.3638 53.0695 25.9086 53.6268 25.5673C54.1842 25.2276 54.8306 25.0561 55.5678 25.0561C56.0592 25.0561 56.5242 25.1402 56.9628 25.3084C57.4015 25.4749 57.7923 25.7256 58.1337 26.0587C58.475 26.3935 58.7653 26.8057 59.0027 27.2971C59.2402 27.7886 59.4018 28.3608 59.4908 29.0171H58.5954C58.569 28.6741 58.48 28.3245 58.3266 27.9716C58.1732 27.6204 57.9655 27.3004 57.7082 27.0102C57.4493 26.7216 57.1393 26.4842 56.7798 26.3011C56.4203 26.1164 56.0163 26.0241 55.5694 26.0241C54.9461 26.0241 54.4118 26.1741 53.9632 26.4759C53.5163 26.776 53.1503 27.1751 52.865 27.6715C52.5797 28.1678 52.3686 28.7285 52.2334 29.3518C52.0982 29.9752 52.0289 30.6167 52.0289 31.2746C52.0289 31.9326 52.0965 32.5592 52.2334 33.1892C52.3686 33.8191 52.5797 34.3814 52.865 34.8778C53.1503 35.3742 53.5163 35.7699 53.9632 36.0733C54.4118 36.3735 54.9461 36.5235 55.5694 36.5235C56.0872 36.5235 56.5506 36.4147 56.9579 36.1987C57.3652 35.981 57.7099 35.6776 57.9902 35.2868C58.2722 34.8959 58.4816 34.4342 58.6234 33.8999C58.7636 33.364 58.8296 32.7786 58.8197 32.1437H55.6205V31.174H59.6096V37.2425H58.9648L58.9631 37.2458Z" fill="#181D27"/>
<path d="M63.7605 34.3962C63.8446 34.8035 63.9781 35.1696 64.1612 35.4912C64.3459 35.8144 64.5784 36.0815 64.8587 36.2943C65.1407 36.507 65.4771 36.6109 65.8729 36.6109C66.4781 36.6109 66.953 36.4113 67.2944 36.0106C67.6357 35.6083 67.8732 35.074 68.0051 34.4045H68.8346C68.6581 35.3856 68.3366 36.1442 67.8666 36.6768C67.3966 37.2128 66.732 37.4799 65.8729 37.4799C65.3369 37.4799 64.8752 37.3595 64.4844 37.1204C64.0936 36.8797 63.7753 36.5515 63.5296 36.1343C63.2839 35.7154 63.1008 35.2323 62.9838 34.6798C62.865 34.1291 62.8057 33.547 62.8057 32.9335C62.8057 32.3646 62.865 31.8072 62.9838 31.2614C63.1025 30.7155 63.2839 30.2274 63.5296 29.797C63.7753 29.3683 64.0936 29.022 64.4844 28.7614C64.8752 28.4992 65.3369 28.369 65.8729 28.369C66.4088 28.369 66.8821 28.5075 67.268 28.7862C67.6539 29.0649 67.9688 29.4309 68.2096 29.8811C68.4503 30.333 68.6235 30.8508 68.729 31.4362C68.8346 32.0216 68.8791 32.6136 68.861 33.2171H63.6351C63.6351 33.5964 63.6764 33.9889 63.7605 34.3946V34.3962ZM67.8682 31.1789C67.7676 30.8095 67.6242 30.4847 67.4395 30.201C67.2548 29.9158 67.0322 29.6882 66.7683 29.515C66.5045 29.3419 66.206 29.2561 65.8729 29.2561C65.5398 29.2561 65.2281 29.3419 64.9643 29.515C64.7004 29.6882 64.4761 29.9158 64.2931 30.201C64.1084 30.4847 63.9616 30.8128 63.8528 31.1872C63.7423 31.5615 63.6698 31.9408 63.6351 32.3316H68.0315C68.0232 31.9292 67.9688 31.545 67.8666 31.1789H67.8682Z" fill="#181D27"/>
<path d="M72.7709 28.6197V30.1088H72.7973C72.9556 29.5844 73.2359 29.1639 73.6399 28.8456C74.0423 28.529 74.4875 28.3707 74.969 28.3707C75.4506 28.3707 75.8397 28.4498 76.1613 28.6048C76.4812 28.7615 76.7385 28.9808 76.9314 29.2661C77.1243 29.5497 77.2596 29.8993 77.3387 30.3116C77.4179 30.7238 77.4575 31.1856 77.4575 31.6984V37.2491H76.628V31.865C76.628 31.4973 76.6016 31.1559 76.5488 30.8376C76.4961 30.521 76.4037 30.2456 76.2734 30.0098C76.1415 29.7757 75.9634 29.5926 75.7408 29.459C75.5165 29.3255 75.2378 29.2595 74.9047 29.2595C74.5716 29.2595 74.2748 29.3354 74.0159 29.4854C73.757 29.6355 73.5377 29.8433 73.3579 30.1038C73.1782 30.366 73.038 30.6777 72.9358 31.0405C72.8352 31.4033 72.7791 31.7941 72.7709 32.2179V37.2491H71.9414V28.623H72.7709V28.6197Z" fill="#181D27"/>
<path d="M81.6096 34.3963C81.6937 34.8036 81.8273 35.1697 82.0119 35.4912C82.195 35.8144 82.4275 36.0816 82.7095 36.2943C82.9898 36.507 83.3262 36.6109 83.722 36.6109C84.3272 36.6109 84.8021 36.4114 85.1435 36.0107C85.4848 35.6083 85.7223 35.074 85.8542 34.4045H86.6837C86.5089 35.3857 86.184 36.1443 85.7157 36.6769C85.2474 37.2128 84.5812 37.48 83.722 37.48C83.1861 37.48 82.7243 37.3596 82.3335 37.1205C81.9427 36.8797 81.6244 36.5516 81.3787 36.1344C81.133 35.7155 80.9516 35.2323 80.8329 34.6799C80.7141 34.1291 80.6548 33.547 80.6548 32.9336C80.6548 32.3646 80.7141 31.8073 80.8329 31.2614C80.9516 30.7156 81.133 30.2275 81.3787 29.7971C81.6244 29.3683 81.9427 29.022 82.3335 28.7615C82.7243 28.4993 83.1861 28.369 83.722 28.369C84.2579 28.369 84.7312 28.5075 85.1171 28.7862C85.503 29.0649 85.8163 29.431 86.0587 29.8812C86.3011 30.333 86.4743 30.8508 86.5798 31.4362C86.6853 32.0216 86.7282 32.6137 86.7117 33.2172H81.4843C81.4843 33.5965 81.5255 33.989 81.6096 34.3946V34.3963ZM85.7157 31.179C85.6151 30.8096 85.4716 30.4847 85.2886 30.2011C85.1039 29.9158 84.8796 29.6883 84.6158 29.5151C84.3536 29.342 84.0551 29.2562 83.722 29.2562C83.3889 29.2562 83.0772 29.342 82.8134 29.5151C82.5495 29.6883 82.3253 29.9158 82.1406 30.2011C81.9575 30.4847 81.8108 30.8129 81.7003 31.1872C81.5898 31.5616 81.5189 31.9408 81.4826 32.3317H85.8806C85.8707 31.9293 85.8163 31.5451 85.7157 31.179ZM83.0245 25.0594L84.4064 27.4175H83.7352L81.9988 25.0594H83.0245Z" fill="#181D27"/>
<path d="M89.9638 28.6197L92.096 36.1921H92.1224L94.2282 28.6197H95.0824L92.5429 37.2458H91.6607L89.042 28.6197H89.9638Z" fill="#181D27"/>
<path d="M98.486 34.3962C98.5701 34.8035 98.7037 35.1696 98.8884 35.4912C99.0715 35.8144 99.304 36.0815 99.586 36.2943C99.8663 36.507 100.203 36.6109 100.598 36.6109C101.204 36.6109 101.679 36.4113 102.02 36.0106C102.361 35.6083 102.599 35.074 102.731 34.4045H103.56C103.385 35.3856 103.06 36.1442 102.592 36.6768C102.124 37.2128 101.458 37.4799 100.598 37.4799C100.063 37.4799 99.6008 37.3595 99.21 37.1204C98.8192 36.8797 98.5009 36.5515 98.2552 36.1343C98.0095 35.7154 97.8281 35.2323 97.7093 34.6798C97.5906 34.1291 97.5312 33.547 97.5312 32.9335C97.5312 32.3646 97.5906 31.8072 97.7093 31.2614C97.8281 30.7155 98.0095 30.2274 98.2552 29.797C98.5009 29.3683 98.8192 29.022 99.21 28.7614C99.6008 28.4992 100.063 28.369 100.598 28.369C101.134 28.369 101.608 28.5075 101.994 28.7862C102.379 29.0649 102.693 29.4309 102.935 29.8811C103.178 30.333 103.351 30.8508 103.456 31.4362C103.562 32.0216 103.605 32.6136 103.588 33.2171H98.3607C98.3607 33.5964 98.4019 33.9889 98.486 34.3946V34.3962ZM102.592 31.1789C102.492 30.8095 102.348 30.4847 102.165 30.201C101.98 29.9158 101.756 29.6882 101.492 29.515C101.23 29.3419 100.932 29.2561 100.598 29.2561C100.265 29.2561 99.9537 29.3419 99.6899 29.515C99.426 29.6882 99.2017 29.9158 99.017 30.201C98.834 30.4847 98.6872 30.8128 98.5767 31.1872C98.4663 31.5615 98.3954 31.9408 98.3591 32.3316H102.757C102.747 31.9292 102.693 31.545 102.592 31.1789Z" fill="#181D27"/>
</svg>
