<svg width="276" height="17" viewBox="0 0 276 17" fill="none" xmlns="http://www.w3.org/2000/svg">
<path d="M5.17177 8.62826V13.3599C5.17177 14.382 5.29881 15.0113 5.54761 15.2526C5.74593 15.4367 5.98739 15.5792 6.25462 15.67C6.52187 15.7608 6.80828 15.7976 7.09331 15.7778H7.79206V16.2273H0V15.7778H0.688159C1.00369 15.8033 1.32124 15.7553 1.60979 15.6383C1.89834 15.5214 2.14803 15.3396 2.33445 15.1106C2.57098 14.5495 2.66325 13.9478 2.60441 13.3504V2.86511C2.60441 1.8478 2.48266 1.20903 2.23386 0.972439C2.03487 0.789178 1.79333 0.647149 1.52626 0.556402C1.25918 0.465654 0.973096 0.428405 0.688159 0.447236H0V0.00716677H6.66454C7.96602 -0.03578 9.26648 0.114519 10.513 0.451943C11.4422 0.755388 12.2619 1.27873 12.8844 1.96608C13.5255 2.68364 13.8645 3.57948 13.8426 4.49753C13.8678 5.09784 13.7507 5.69612 13.4989 6.2531C13.2471 6.81008 12.8663 7.31315 12.3816 7.72923C11.4022 8.55728 10.0153 8.97366 8.23143 8.97366C7.75721 8.97101 7.28354 8.9442 6.81276 8.89321C6.2834 8.83645 5.75406 8.756 5.17177 8.64247M5.17177 7.95637C5.64819 8.03211 6.06638 8.103 6.43692 8.1409C6.74778 8.17575 7.0606 8.19469 7.37387 8.19767C7.82678 8.20224 8.27554 8.12011 8.69004 7.95692C9.10453 7.7937 9.47523 7.55315 9.77713 7.25136C10.4691 6.56986 10.8342 5.67269 10.7935 4.75303C10.7977 4.07415 10.6313 3.40307 10.3065 2.78939C10.0184 2.22313 9.54134 1.75044 8.94075 1.43614C8.32456 1.13486 7.63148 0.9816 6.92922 0.991356C6.3356 1.01023 5.74617 1.08798 5.17177 1.22321V7.95637Z" fill="#0A0D12"/>
<path d="M27.7507 7.5142H36.2972V2.87917C36.3341 2.32847 36.2745 1.77606 36.1203 1.24136C36.0061 1.01609 35.8048 0.833788 35.5524 0.726867C35.1763 0.539561 34.752 0.440432 34.32 0.438955H33.6662V0H41.5376V0.438955H40.8893C40.4529 0.443584 40.0251 0.545915 39.6462 0.736316C39.5091 0.79391 39.3866 0.874875 39.2854 0.974533C39.1842 1.07419 39.1064 1.19055 39.0567 1.31687C38.9208 1.8365 38.8667 2.37017 38.896 2.9028V13.3575C38.8631 13.9035 38.9227 14.4508 39.0728 14.9812C39.1884 15.2041 39.3869 15.3857 39.6354 15.4957C40.017 15.6833 40.447 15.7808 40.8839 15.7789H41.5323V16.2273H33.6662V15.7789H34.32C34.627 15.8013 34.9358 15.76 35.2214 15.6584C35.5071 15.5567 35.7617 15.3976 35.965 15.1936C36.1846 14.9435 36.2972 14.3298 36.2972 13.3575V8.40153H27.7507V13.334C27.713 13.8803 27.7745 14.4284 27.9329 14.9577C28.0456 15.1838 28.2473 15.3665 28.5008 15.4721C28.8761 15.6606 29.3013 15.7583 29.7333 15.7553H30.3977V16.2037H22.4995V15.7553H23.1532C23.462 15.7792 23.7729 15.7387 24.0606 15.6371C24.3483 15.5354 24.6047 15.3753 24.809 15.1701C25.0233 14.9199 25.1358 14.3063 25.1358 13.334V2.87917C25.1744 2.32818 25.1128 1.7753 24.9536 1.24136C24.8467 1.02116 24.6577 0.839666 24.4178 0.726867C24.0355 0.540516 23.6062 0.441535 23.1693 0.438955H22.4995V0H30.3816V0.438955H29.7333C29.3028 0.437139 28.8789 0.531324 28.5008 0.712722C28.2279 0.832114 28.0185 1.0403 27.9168 1.29327C27.7753 1.81215 27.7194 2.34626 27.7507 2.87917V7.5142Z" fill="#0A0D12"/>
<path d="M57.9694 15.7782V16.2273H50.1917V15.7782H50.8376C51.1419 15.8014 51.448 15.7605 51.7313 15.6587C52.0145 15.5568 52.267 15.397 52.4683 15.1921C52.6801 14.9415 52.786 14.3271 52.786 13.3533V2.86919C52.8241 2.32235 52.7651 1.77357 52.6113 1.24316C52.5049 1.02305 52.3183 0.84148 52.0818 0.727923C51.7039 0.541863 51.2798 0.442776 50.8482 0.439593H50.1917V0H57.98V0.439593H57.3234C57.02 0.41419 56.7143 0.454652 56.4322 0.557533C56.1501 0.660413 55.9 0.822663 55.7033 1.03045C55.4704 1.28097 55.3644 1.89547 55.3644 2.86919V13.3533C55.3291 13.9001 55.3881 14.4485 55.5392 14.9794C55.654 15.2038 55.8523 15.3858 56.1004 15.4946C56.4728 15.6839 56.8949 15.7818 57.3234 15.7782H57.9694Z" fill="#0A0D12"/>
<path d="M84.2952 11.7328L84.8061 11.818L83.002 16.2273H66.6333V15.7778H67.4274C67.7946 15.8048 68.1645 15.7574 68.5004 15.6404C68.8364 15.5234 69.1265 15.3408 69.342 15.1108C69.5698 14.8505 69.6745 14.2639 69.6745 13.3366V2.85753C69.6745 1.8451 69.5328 1.20642 69.2436 0.965139C69.008 0.782081 68.7238 0.640352 68.4104 0.549704C68.0969 0.459057 67.7616 0.421646 67.4274 0.440006H66.6333V0H76.2058V0.440006C75.4046 0.394533 74.6002 0.47665 73.8422 0.681261C73.4476 0.805354 73.1198 1.02894 72.9126 1.31522C72.6906 1.90958 72.6072 2.52943 72.6663 3.14611V13.3508C72.6241 13.8148 72.708 14.2804 72.9126 14.718C73.043 14.8885 73.2482 15.0176 73.4913 15.0823C74.2919 15.2016 75.1089 15.243 75.9227 15.2053H77.4677C78.6168 15.2495 79.7669 15.1569 80.8783 14.9309C81.5782 14.7298 82.1977 14.3923 82.6761 13.9516C83.3635 13.2868 83.9098 12.5427 84.2952 11.747" fill="#0A0D12"/>
<path d="M101.227 15.7782V16.2273H93.4597V15.7782H94.0986C94.4032 15.8022 94.7097 15.7616 94.9928 15.6598C95.276 15.5579 95.5287 15.3977 95.7303 15.1921C95.9417 14.9415 96.0475 14.3271 96.0475 13.3533V2.86919C96.0833 2.32265 96.0269 1.77431 95.8781 1.24316C95.7724 1.02305 95.586 0.84148 95.3503 0.727923C94.974 0.540158 94.5502 0.440955 94.1201 0.439593H93.4812V0H101.248V0.439593H100.594C100.29 0.414609 99.9846 0.455255 99.7024 0.558081C99.4201 0.660907 99.1701 0.822904 98.973 1.03045C98.7508 1.28097 98.6397 1.89547 98.6397 2.86919V13.3533C98.6047 13.9001 98.6639 14.4485 98.8144 14.9794C98.9291 15.2038 99.1262 15.3858 99.3735 15.4946C99.7454 15.6833 100.167 15.7812 100.594 15.7782H101.227Z" fill="#0A0D12"/>
<path d="M115.074 8.62837V13.36C115.074 14.3819 115.195 15.0112 115.45 15.2526C115.646 15.4368 115.887 15.5794 116.154 15.6703C116.42 15.7611 116.705 15.7978 116.99 15.7777H117.684V16.2273H109.902V15.7777H110.585C110.901 15.8032 111.22 15.7552 111.509 15.6383C111.798 15.5214 112.049 15.3396 112.237 15.1106C112.467 14.5483 112.556 13.9471 112.496 13.3505V2.86537C112.496 1.8481 112.379 1.20934 112.136 0.972761C111.936 0.789127 111.694 0.646929 111.426 0.556182C111.158 0.465435 110.87 0.428357 110.585 0.447568H109.902V0.00750972H116.562C117.861 -0.0365853 119.16 0.11374 120.404 0.452276C121.337 0.753029 122.159 1.27675 122.781 1.96638C123.426 2.68228 123.767 3.57884 123.745 4.49777C123.769 5.09841 123.651 5.69691 123.398 6.2539C123.146 6.81089 122.764 7.31372 122.278 7.72938C121.299 8.55739 119.912 8.97376 118.134 8.97376C117.658 8.97119 117.182 8.9443 116.71 8.89331C116.18 8.83655 115.651 8.7561 115.074 8.64258M115.074 7.95652C115.545 8.03223 115.969 8.1032 116.334 8.14102C116.644 8.1757 116.958 8.19465 117.27 8.19786C117.724 8.20236 118.172 8.12031 118.587 7.95706C119.001 7.79385 119.372 7.55331 119.674 7.25152C120.365 6.56957 120.728 5.67232 120.685 4.75326C120.693 4.07508 120.53 3.40398 120.209 2.78965C119.918 2.22444 119.442 1.75218 118.843 1.43645C118.224 1.13579 117.53 0.982612 116.826 0.991676C116.234 1.01094 115.646 1.08869 115.074 1.22351V7.95652Z" fill="#0A0D12"/>
<path d="M137.568 8.62837V13.3599C137.568 14.382 137.696 15.0113 137.945 15.2526C138.141 15.4365 138.382 15.5791 138.649 15.6699C138.915 15.7607 139.2 15.7976 139.484 15.7778H140.183V16.2273H132.402V15.7778H133.08C133.396 15.8033 133.714 15.7553 134.003 15.6384C134.292 15.5215 134.543 15.3397 134.731 15.1106C134.965 14.5489 135.055 13.9475 134.996 13.3505V2.8653C134.996 1.84801 134.879 1.20924 134.636 0.972666C134.434 0.78944 134.191 0.647554 133.922 0.55686C133.654 0.466166 133.366 0.428845 133.08 0.447465H132.402V0.00740247H139.056C140.357 -0.0363352 141.658 0.113978 142.905 0.452173C143.835 0.753039 144.655 1.27683 145.276 1.96628C145.922 2.68174 146.265 3.57825 146.244 4.4977C146.269 5.09871 146.15 5.69742 145.896 6.25443C145.643 6.81144 145.26 7.31411 144.773 7.72935C143.792 8.55892 142.41 8.97377 140.628 8.97377C140.153 8.97096 139.676 8.94415 139.204 8.89332C138.675 8.83656 138.146 8.75611 137.568 8.64258M137.568 7.95648C138.045 8.03223 138.463 8.10312 138.829 8.14102C139.141 8.17554 139.456 8.19457 139.771 8.19778C140.223 8.20172 140.67 8.11926 141.084 7.95605C141.497 7.79286 141.867 7.55267 142.168 7.25149C142.514 6.9155 142.783 6.5219 142.958 6.09322C143.133 5.66455 143.212 5.2092 143.19 4.75319C143.194 4.07432 143.028 3.40325 142.704 2.78958C142.416 2.22247 141.939 1.74942 141.337 1.43635C140.723 1.13567 140.031 0.982429 139.332 0.991582C138.736 1.0101 138.145 1.08786 137.568 1.22342V7.95648Z" fill="#0A0D12"/>
<path d="M176.542 8.99026V13.4965C176.542 14.4699 176.663 15.0692 176.917 15.299C177.115 15.4744 177.355 15.6103 177.621 15.6969C177.888 15.7834 178.174 15.8183 178.458 15.7992H179.157V16.2273H171.343V15.7992H172.026C172.341 15.824 172.659 15.7785 172.948 15.6671C173.237 15.5556 173.486 15.3822 173.673 15.1638C173.909 14.6294 174.001 14.0564 173.942 13.4875V3.50169C173.942 2.53286 173.821 1.92451 173.577 1.6992C173.376 1.52506 173.134 1.39013 172.866 1.30376C172.598 1.21738 172.312 1.18165 172.026 1.19902H171.343V0.779917H177.997C179.299 0.737926 180.599 0.881087 181.846 1.2035C182.778 1.489 183.598 1.98803 184.218 2.64551C184.864 3.32689 185.208 4.18069 185.186 5.05635C185.21 5.62874 185.092 6.19892 184.838 6.72941C184.584 7.25989 184.202 7.73862 183.715 8.13408C182.736 8.92266 181.359 9.31921 179.57 9.31921C179.096 9.31668 178.621 9.29114 178.151 9.24259C177.621 9.18853 177.092 9.11191 176.515 9.00379M176.515 8.3504C176.986 8.42251 177.409 8.4901 177.775 8.52612C178.086 8.55915 178.399 8.5772 178.712 8.58025C179.165 8.58285 179.613 8.50387 180.027 8.34853C180.441 8.1932 180.812 7.96502 181.115 7.67898C181.808 7.03052 182.171 6.17527 182.126 5.29968C182.135 4.65379 181.972 4.01465 181.65 3.42958C181.36 2.88999 180.881 2.43988 180.279 2.14081C179.664 1.85444 178.973 1.7085 178.273 1.71722C177.689 1.7304 177.108 1.79841 176.542 1.92L176.515 8.3504Z" fill="#0A0D12"/>
<path d="M208.939 11.9468L209.42 12.0279L207.703 16.2272H192.112V15.7992H192.874C193.224 15.824 193.576 15.7785 193.895 15.6671C194.216 15.5557 194.491 15.3823 194.698 15.1639C194.915 14.916 195.008 14.3574 195.008 13.4742V3.49416C195.008 2.52994 194.873 1.92167 194.598 1.69189C194.376 1.51691 194.106 1.38148 193.809 1.29508C193.51 1.20868 193.192 1.17341 192.874 1.19176H192.112V0.772705H201.23V1.19176C200.469 1.14882 199.703 1.22702 198.984 1.42153C198.607 1.53813 198.294 1.75149 198.099 2.0253C197.884 2.59094 197.802 3.1814 197.858 3.769V13.4878C197.818 13.93 197.9 14.3737 198.099 14.7899C198.22 14.9541 198.416 15.0777 198.65 15.1368C199.422 15.2529 200.21 15.2923 200.995 15.254H202.46C203.555 15.2963 204.65 15.2083 205.709 14.9926C206.372 14.7991 206.959 14.478 207.415 14.06C208.072 13.4272 208.594 12.7185 208.963 11.9604" fill="#0A0D12"/>
<path d="M221.806 1.60655V7.72259H226.023C227.141 7.72259 227.852 7.59639 228.221 7.32597C228.712 6.97892 228.981 6.35697 229.037 5.4781H229.563V10.8595H229.037C228.985 10.3667 228.851 9.88171 228.64 9.41726C228.461 9.13643 228.167 8.9148 227.807 8.79075C227.242 8.60514 226.631 8.52499 226.023 8.55634H221.806V13.6403C221.773 14.0602 221.811 14.4816 221.918 14.8933C221.995 15.0457 222.135 15.1717 222.315 15.2493C222.656 15.3572 223.024 15.4019 223.389 15.38H226.65C227.442 15.4061 228.236 15.3454 229.009 15.1998C229.547 15.0543 230.032 14.8052 230.424 14.4741C231.151 13.8408 231.759 13.1239 232.224 12.3468H232.784L231.107 16.2273H216.342V15.7992H217.02C217.471 15.8009 217.915 15.711 218.311 15.5378C218.453 15.4834 218.58 15.4069 218.685 15.3124C218.79 15.218 218.869 15.1077 218.92 14.9879C219.066 14.4998 219.123 13.9973 219.088 13.4961V3.44543C219.088 2.46289 218.965 1.85895 218.719 1.64262C218.494 1.47795 218.228 1.35285 217.939 1.27527C217.651 1.19768 217.344 1.1693 217.042 1.19192H216.365V0.772766H231.157L231.369 4.15755H230.81C230.714 3.57175 230.491 3.00417 230.15 2.48092C229.895 2.16415 229.524 1.91981 229.087 1.78233C228.435 1.64228 227.76 1.5845 227.085 1.61107L221.806 1.60655Z" fill="#0A0D12"/>
<path d="M247.474 15.7996V16.2273H239.707V15.7996H240.35C240.655 15.8225 240.961 15.7838 241.244 15.6869C241.528 15.5899 241.78 15.4372 241.982 15.2414C242.192 15.0028 242.303 14.4176 242.303 13.4902V3.50533C242.339 2.98457 242.28 2.46224 242.129 1.95673C242.023 1.7471 241.837 1.57418 241.601 1.46603C241.225 1.28775 240.802 1.19331 240.372 1.19143H239.728V0.772766H247.496V1.19143H246.841C246.538 1.16838 246.233 1.20744 245.951 1.30532C245.67 1.40319 245.419 1.55706 245.221 1.75415C245.005 1.99274 244.889 2.57797 244.889 3.50533V13.4902C244.851 14.0111 244.91 14.5337 245.063 15.0389C245.176 15.2537 245.373 15.4275 245.622 15.5295C245.993 15.7099 246.414 15.803 246.841 15.7996H247.474Z" fill="#0A0D12"/>
<path d="M254.419 0.0243703H259.592L271.247 12.5684V2.92027C271.247 1.89647 271.113 1.25293 270.853 0.970172C270.635 0.782074 270.373 0.638277 270.086 0.548972C269.798 0.459666 269.492 0.42704 269.188 0.453395H268.527V0H275.188V0.453395H274.51C274.186 0.424665 273.86 0.468112 273.559 0.579739C273.26 0.691367 272.997 0.867567 272.795 1.09205C272.525 1.66185 272.418 2.28133 272.485 2.8959V17H271.979L259.419 3.5248V13.8311C259.419 14.8647 259.548 15.5033 259.797 15.7812C260.016 15.9679 260.277 16.1108 260.565 16.2C260.852 16.2892 261.158 16.3226 261.462 16.298H262.134V16.7611H255.473V16.298H256.134C256.459 16.3271 256.787 16.2844 257.089 16.1737C257.39 16.063 257.656 15.8879 257.86 15.6642C258.13 15.0925 258.237 14.4716 258.171 13.8555V2.21335C257.797 1.80514 257.376 1.43111 256.916 1.09693C256.181 0.660779 255.306 0.443718 254.419 0.477765V0.0243703Z" fill="#0A0D12"/>
</svg>
