<svg width="175" height="35" viewBox="0 0 175 35" fill="none" xmlns="http://www.w3.org/2000/svg">
<path d="M0.749023 16.3745L2.71776 13.6304C2.89639 13.7501 3.13583 13.9079 3.43418 14.1074C3.73253 14.305 4.32353 14.5654 5.20908 14.8827C6.09273 15.2001 6.93458 15.3597 7.72891 15.3597C9.55892 15.3597 10.473 14.6927 10.473 13.3606C10.473 12.7639 10.2297 12.2831 9.74136 11.9144C9.25297 11.5458 8.30471 11.1543 6.89277 10.7362C4.86513 10.1395 3.37337 9.43071 2.41941 8.60407C1.46545 7.77933 0.988464 6.67905 0.988464 5.30891C0.988464 3.69744 1.56426 2.41092 2.71776 1.44746C3.87126 0.483994 5.53024 0.00131226 7.69851 0.00131226C9.07054 0.00131226 10.2982 0.155238 11.3813 0.463091C12.4645 0.770943 13.1961 1.0845 13.5743 1.40185L14.171 1.84843L12.2327 4.80153C12.094 4.68181 11.9001 4.54308 11.6512 4.38536C11.4022 4.22573 10.8854 4.00719 10.1005 3.72975C9.31568 3.4523 8.51375 3.31358 7.70041 3.31358C5.93121 3.31358 5.04566 3.91028 5.04566 5.10178C5.04566 5.61867 5.2889 6.03674 5.77728 6.35409C6.26376 6.67145 7.16452 7.03061 8.47574 7.42777C10.6041 8.02638 12.1586 8.7561 13.1429 9.62075C14.1273 10.4873 14.6195 11.6256 14.6195 13.0375C14.6195 14.687 14.0418 16.0381 12.8902 17.0928C11.7367 18.1456 10.0568 18.6739 7.85053 18.6739C6.43859 18.6739 5.14067 18.4801 3.95867 18.0905C2.77477 17.7028 1.94623 17.3209 1.46735 16.9427L0.750924 16.3745H0.749023Z" fill="#181D27"/>
<path d="M24.7288 0.389557V18.2849H21.1201V0.389557H24.7288Z" fill="#181D27"/>
<path d="M39.9684 10.8565V7.90344H48.7365V10.0812C48.7365 12.6866 47.9859 14.7712 46.4847 16.3295C44.9834 17.8915 42.9501 18.6726 40.3846 18.6726C37.6406 18.6726 35.4476 17.7813 33.8076 16.0026C32.1676 14.222 31.3467 12.0005 31.3467 9.33629C31.3467 6.67203 32.1771 4.44866 33.838 2.66995C35.4989 0.889351 37.7014 0 40.4435 0C41.2778 0 42.074 0.0779132 42.8303 0.23754C43.5867 0.397167 44.1967 0.5853 44.6641 0.805737C45.1316 1.02427 45.544 1.24281 45.9013 1.46135C46.2585 1.67989 46.5075 1.86992 46.6462 2.02954L46.8856 2.26709L44.7079 5.04156C44.5881 4.92184 44.4247 4.77171 44.2157 4.59308C44.0066 4.41635 43.5297 4.18071 42.7847 3.89376C42.0398 3.60491 41.2493 3.46239 40.4131 3.46239C38.8416 3.46239 37.5588 4.01348 36.565 5.11757C35.5711 6.22166 35.0732 7.6279 35.0732 9.33819C35.0732 11.0485 35.5654 12.4604 36.5498 13.574C37.5341 14.6876 38.8111 15.2444 40.3827 15.2444C41.7148 15.2444 42.7695 14.8624 43.5449 14.0966C44.3202 13.3308 44.7269 12.3312 44.7687 11.0998V10.8603H39.9665L39.9684 10.8565Z" fill="#181D27"/>
<path d="M70.8998 0.389557V18.2849H68.1253L58.6712 6.68152V18.2849H55.0625V0.389557H57.837L67.2911 11.8732V0.389557H70.8998Z" fill="#181D27"/>
<path d="M87.3015 0.389557L94.3992 18.2849H90.551L89.2683 14.8244H81.5435L80.2608 18.2849H76.4126L83.5141 0.389557H87.3015ZM85.3935 4.38593L82.6191 11.9017H88.1965L85.3935 4.38593Z" fill="#181D27"/>
<path d="M96.6973 3.54979V0.389557H110.953V3.55169H105.615V18.2868H102.007V3.54979H96.6973Z" fill="#181D27"/>
<path d="M124.732 18.7011C122.406 18.7011 120.542 17.9466 119.14 16.4359C117.737 14.9251 117.036 12.9963 117.036 10.6494V0.389557H120.645V10.6513C120.645 12.0024 120.998 13.1008 121.703 13.9465C122.408 14.7921 123.417 15.214 124.731 15.214C126.044 15.214 127.102 14.7959 127.788 13.9617C128.474 13.1255 128.816 12.0214 128.816 10.6513V0.389557H132.425V10.6513C132.425 13.0172 131.739 14.9498 130.367 16.453C128.995 17.9542 127.115 18.703 124.731 18.703L124.732 18.7011Z" fill="#181D27"/>
<path d="M139.854 0.389557H147.49C149.557 0.389557 151.218 0.93685 152.47 2.03143C153.723 3.12412 154.35 4.57787 154.35 6.38507C154.35 7.67729 154.036 8.79088 153.411 9.72584C152.784 10.6608 151.915 11.3544 150.802 11.8124V12.0518L154.948 17.9276V18.2868H150.891L146.864 12.3825H143.465V18.2868H139.856V0.389557H139.854ZM149.728 8.54574C150.325 8.05925 150.623 7.34854 150.623 6.41358C150.623 5.47862 150.319 4.7698 149.713 4.27952C149.107 3.79303 148.295 3.54979 147.282 3.54979H143.465V9.27736H147.372C148.347 9.27736 149.131 9.03222 149.728 8.54574Z" fill="#181D27"/>
<path d="M172.723 7.75521V10.6798H164.909V15.1228H174.184V18.2849H161.3V0.389557H174.184V3.55169H164.909V7.75711H172.723V7.75521Z" fill="#181D27"/>
<path d="M0 33.8503L0.972966 32.4935C1.06038 32.5524 1.1782 32.6322 1.32643 32.7292C1.47465 32.828 1.7654 32.9553 2.20248 33.113C2.63955 33.2707 3.05382 33.3487 3.44719 33.3487C4.34984 33.3487 4.80212 33.0199 4.80212 32.3624C4.80212 32.0678 4.6824 31.8284 4.44106 31.6479C4.19972 31.4654 3.73224 31.2716 3.03482 31.0645C2.03335 30.7699 1.29602 30.4203 0.824741 30.0117C0.35346 29.605 0.11782 29.0634 0.11782 28.3831C0.11782 27.5869 0.402869 26.9522 0.972966 26.4771C1.54306 26.0001 2.3621 25.7626 3.43198 25.7626C4.1104 25.7626 4.7166 25.8386 5.25059 25.9906C5.78649 26.1426 6.14565 26.2985 6.33378 26.4543L6.62833 26.6747L5.67057 28.1323C5.60215 28.0734 5.50524 28.005 5.38362 27.927C5.2601 27.8491 5.00545 27.7408 4.61779 27.6021C4.23012 27.4653 3.83485 27.3969 3.43198 27.3969C2.55784 27.3969 2.12076 27.6914 2.12076 28.2805C2.12076 28.537 2.24048 28.7423 2.48182 28.9C2.72316 29.0577 3.16594 29.2345 3.81395 29.4302C4.86483 29.7247 5.63256 30.0858 6.11904 30.5134C6.60553 30.941 6.84877 31.5034 6.84877 32.2009C6.84877 33.0161 6.56372 33.6831 5.99362 34.2038C5.42352 34.7245 4.59498 34.9848 3.5042 34.9848C2.80678 34.9848 2.16637 34.8898 1.58297 34.6979C0.99957 34.5079 0.5891 34.3178 0.35346 34.1297L0 33.8503Z" fill="#181D27"/>
<path d="M14.0222 25.9563V34.7947H12.2397V25.9563H14.0222Z" fill="#181D27"/>
<path d="M25.9215 34.7928H19.9849V25.9544H21.7674V33.2307H25.9215V34.7928Z" fill="#181D27"/>
<path d="M37.2047 34.7928H31.2681V25.9544H33.0506V33.2307H37.2047V34.7928Z" fill="#181D27"/>
<path d="M46.8829 25.9563L50.389 34.7947H48.4887L47.8559 33.0863H44.0419L43.4091 34.7947H41.5088L45.0149 25.9563H46.8848H46.8829ZM45.9403 27.9288L44.5702 31.6402H47.3238L45.9384 27.9288H45.9403Z" fill="#181D27"/>
<path d="M58.7988 31.1252V29.6658H63.1296V30.7414C63.1296 32.0279 62.759 33.056 62.0179 33.8275C61.2768 34.5971 60.2734 34.9829 59.0059 34.9829C57.651 34.9829 56.5678 34.5439 55.7583 33.666C54.9487 32.7861 54.5439 31.6896 54.5439 30.3727C54.5439 29.0558 54.9544 27.9593 55.7735 27.0813C56.5925 26.2015 57.6814 25.7625 59.0363 25.7625C59.4487 25.7625 59.842 25.8005 60.2145 25.8803C60.587 25.9582 60.8891 26.0514 61.121 26.1597C61.3509 26.268 61.5561 26.3763 61.7329 26.4846C61.9096 26.593 62.0331 26.6861 62.1015 26.764L62.2194 26.8818L61.1438 28.2519C61.0849 28.193 61.0031 28.1189 60.9005 28.0315C60.7979 27.9441 60.5623 27.8282 60.1936 27.6856C59.8249 27.5431 59.4354 27.4728 59.023 27.4728C58.2477 27.4728 57.6149 27.7445 57.1227 28.2899C56.6324 28.8353 56.3854 29.529 56.3854 30.3727C56.3854 31.2164 56.6286 31.9139 57.1151 32.465C57.6016 33.016 58.2325 33.2897 59.0078 33.2897C59.6653 33.2897 60.186 33.0997 60.5699 32.7215C60.9537 32.3452 61.1533 31.8511 61.1742 31.243V31.1252H58.8026H58.7988Z" fill="#181D27"/>
<path d="M74.0718 29.5935V31.0378H70.2122V33.2307H74.7939V34.7928H68.4316V25.9544H74.7939V27.5165H70.2122V29.5935H74.0718Z" fill="#181D27"/>
<path d="M93.8603 27.1858C94.7002 28.0049 95.1202 29.069 95.1202 30.3746C95.1202 31.6801 94.7002 32.7443 93.8603 33.5633C93.0203 34.3823 91.9087 34.7928 90.5233 34.7928H87.2681V25.9544H90.5233C91.9087 25.9544 93.0203 26.3649 93.8603 27.1858ZM90.4055 27.5165H89.0506V33.2307H90.4055C91.2302 33.2307 91.9144 32.9742 92.4597 32.4573C93.0051 31.9423 93.2769 31.2487 93.2769 30.3746C93.2769 29.5004 93.007 28.7821 92.4674 28.2766C91.9277 27.7711 91.2397 27.5184 90.4055 27.5184V27.5165Z" fill="#181D27"/>
<path d="M100.171 28.7403C100.741 28.6224 101.074 28.3678 101.172 27.9744C100.946 27.925 100.76 27.811 100.612 27.6286C100.465 27.4481 100.391 27.2333 100.391 26.9882C100.391 26.7031 100.492 26.4599 100.693 26.2584C100.895 26.057 101.138 25.9563 101.423 25.9563C101.708 25.9563 101.951 26.057 102.153 26.2584C102.354 26.4599 102.455 26.7031 102.455 26.9882V27.0756C102.455 27.7141 102.28 28.2747 101.933 28.7555C101.585 29.2363 101.085 29.5403 100.437 29.6676L100.171 28.7403Z" fill="#181D27"/>
<path d="M111.72 35C110.415 35 109.341 34.5534 108.501 33.6583C107.661 32.7652 107.241 31.6706 107.241 30.3746C107.241 29.0786 107.659 27.9878 108.494 27.0965C109.328 26.2091 110.403 25.7644 111.718 25.7644C113.033 25.7644 114.124 26.2091 114.958 27.0965C115.793 27.9859 116.211 29.0767 116.211 30.3746C116.211 31.6725 115.793 32.7652 114.958 33.6583C114.124 34.5534 113.043 35 111.718 35H111.72ZM111.72 33.2764C112.496 33.2764 113.132 33.0027 113.628 32.4573C114.124 31.9138 114.371 31.2183 114.371 30.3746C114.371 29.5308 114.122 28.8372 113.628 28.2918C113.132 27.7464 112.496 27.4747 111.72 27.4747C110.945 27.4747 110.339 27.7502 109.843 28.2994C109.347 28.8505 109.1 29.5422 109.1 30.3765C109.1 31.2107 109.347 31.9024 109.843 32.4535C110.339 33.0046 110.964 33.2802 111.72 33.2802V33.2764Z" fill="#181D27"/>
<path d="M121.647 25.9563H125.418C126.438 25.9563 127.259 26.2261 127.877 26.7677C128.496 27.3074 128.804 28.0238 128.804 28.9189C128.804 29.5574 128.65 30.1066 128.34 30.5665C128.031 31.0283 127.601 31.3722 127.052 31.5984V31.7162L129.099 34.618V34.7947H127.096L125.108 31.8777H123.428V34.7947H121.646V25.9563H121.647ZM126.522 29.985C126.816 29.7455 126.965 29.394 126.965 28.9322C126.965 28.4704 126.814 28.1208 126.516 27.8794C126.216 27.6381 125.817 27.5184 125.315 27.5184H123.43V30.346H125.359C125.84 30.346 126.227 30.2263 126.522 29.985Z" fill="#181D27"/>
<path d="M136.198 25.9563V34.7947H134.415V25.9563H136.198Z" fill="#181D27"/>
<path d="M147.806 29.5935V31.0378H143.947V33.2307H148.528V34.7928H142.166V25.9544H148.528V27.5165H143.947V29.5935H147.806Z" fill="#181D27"/>
<path d="M161.84 25.9563V34.7947H160.47L155.801 29.0652V34.7947H154.019V25.9563H155.389L160.058 31.6288V25.9563H161.84Z" fill="#181D27"/>
<path d="M167.145 27.5165V25.9544H174.185V27.5165H171.549V34.7928H169.767V27.5165H167.145Z" fill="#181D27"/>
</svg>
