<svg width="225" height="35" viewBox="0 0 225 35" fill="none" xmlns="http://www.w3.org/2000/svg">
<path d="M101.158 18.2472C99.8877 18.2472 98.619 18.2623 97.3484 18.2339C97.1269 18.2288 96.9111 18.0464 96.6934 17.9459C96.8829 17.8053 97.0537 17.5776 97.2677 17.5358C99.2421 17.1524 99.3322 17.0586 99.3284 15.264C99.3228 11.273 99.3247 7.28372 99.3228 3.29272C99.3228 3.08514 99.3228 2.87588 99.3228 2.66829C99.3097 1.38595 99.0319 1.09969 97.6374 0.835181C97.2902 0.769892 96.6952 0.853596 96.7309 0.378158C96.7703 -0.152524 97.3653 0.0299507 97.7312 0.0316248C100.368 0.0483655 103.005 0.0500396 105.638 0.133743C107.658 0.197358 109.484 0.781611 110.826 2.2029C113.32 4.84292 112.078 8.96617 108.442 10.2217C107.183 10.657 105.877 10.7993 104.539 10.7909C103.874 10.7859 103.21 10.7909 102.545 10.7792C102.219 10.7742 102.024 10.8612 102.027 11.1877C102.037 12.6977 102.027 14.206 102.048 15.716C102.057 16.466 102.512 16.9632 103.307 17.1675C103.829 17.2997 104.377 17.3449 104.912 17.4336C105.25 17.4889 105.683 17.4805 105.644 17.9308C105.606 18.3561 105.19 18.2339 104.906 18.2355C103.656 18.2489 102.406 18.2405 101.155 18.2405V18.2472H101.158ZM102.029 5.39536H102.024C102.024 6.74802 102.033 8.099 102.018 9.45165C102.014 9.81827 102.104 9.98903 102.575 9.96057C103.352 9.91202 104.137 9.94718 104.916 9.90867C107.121 9.80153 108.608 8.65814 108.972 6.72291C109.099 6.04825 109.12 5.33677 109.045 4.65375C108.835 2.72019 107.468 1.3826 105.321 1.02603C104.465 0.883729 103.574 0.927255 102.703 0.85527C102.178 0.811744 102.014 0.994218 102.022 1.44287C102.042 2.76037 102.029 4.07787 102.029 5.39536Z" fill="#0A0D12"/>
<path d="M165.315 9.24738C165.745 8.88243 166.058 8.60621 166.385 8.34171C167.558 7.39083 168.926 6.93883 170.521 7.10456C171.848 7.24184 172.824 7.81437 173.338 8.9427C173.402 9.085 173.472 9.22562 173.582 9.45831C173.828 9.22394 174.029 9.02808 174.237 8.83891C175.504 7.68547 176.957 6.93213 178.862 7.10122C180.677 7.26193 181.857 8.29316 181.91 9.89525C181.981 12.0113 181.989 14.129 182.017 16.245C182.03 17.2629 182.311 17.5324 183.432 17.6445C183.633 17.6646 183.811 17.8454 184.001 17.9509C183.811 18.0497 183.623 18.2321 183.432 18.2355C181.81 18.2673 180.189 18.2757 178.565 18.2606C178.349 18.2589 178.135 18.0748 177.92 17.9743C178.126 17.8572 178.321 17.6646 178.543 17.6362C179.539 17.5039 179.83 17.298 179.842 16.4124C179.868 14.278 179.849 12.1435 179.843 10.0108C179.84 8.48902 178.481 7.75243 176.788 8.09059C175.423 8.36347 174.558 9.2524 173.762 10.1882C173.659 10.3104 173.652 10.518 173.652 10.6854C173.652 12.542 173.654 14.4002 173.67 16.2567C173.68 17.2093 173.862 17.3817 174.877 17.6378C175.084 17.6897 175.249 17.8772 175.433 18.0028C175.236 18.0832 175.042 18.2321 174.844 18.2355C173.241 18.2606 171.638 18.2673 170.035 18.2489C169.862 18.2472 169.693 18.0564 169.523 17.9526C169.697 17.8471 169.86 17.6663 170.048 17.6462C171.272 17.5073 171.482 17.3348 171.49 16.235C171.501 14.2227 171.512 12.2088 171.473 10.1966C171.441 8.55934 170.097 7.69384 168.303 8.07888C167.068 8.34338 166.242 9.10341 165.472 9.91701C165.32 10.0777 165.307 10.374 165.304 10.6067C165.283 12.4633 165.277 14.3215 165.277 16.1781C165.277 17.2294 165.563 17.524 166.73 17.7098C166.863 17.7316 167.013 17.7249 167.13 17.7768C167.237 17.8253 167.308 17.9342 167.394 18.0179C167.284 18.0932 167.178 18.2254 167.058 18.2355C166.73 18.264 166.396 18.2388 166.064 18.2405C164.6 18.2489 163.134 18.2673 161.67 18.2589C161.458 18.2589 161.25 18.12 161.037 18.0446C161.218 17.9258 161.381 17.7383 161.58 17.7015C162.719 17.4889 162.942 17.2712 162.942 16.2299C162.942 13.9733 162.942 11.7166 162.931 9.45999C162.926 8.42876 162.665 8.19439 161.527 8.03368C161.349 8.00856 161.197 7.82944 161.034 7.7223C161.208 7.65031 161.381 7.52476 161.559 7.51639C162.652 7.46449 163.748 7.45277 164.838 7.39585C165.232 7.37576 165.313 7.54317 165.313 7.82274C165.313 8.24796 165.313 8.67317 165.313 9.2524L165.315 9.24738Z" fill="#0A0D12"/>
<path d="M71.5256 9.2626C71.9535 8.901 72.2726 8.62477 72.5991 8.35692C73.6652 7.47468 74.9358 7.05114 76.3866 7.0863C78.1133 7.12648 79.2432 7.89153 79.7593 9.40992C80.3017 8.98303 80.7916 8.5712 81.3115 8.19119C82.1598 7.56843 83.1264 7.18507 84.2337 7.09802C86.5948 6.91387 88.1432 8.1259 88.1788 10.2252C88.2107 12.0817 88.1976 13.94 88.2051 15.7965C88.2051 15.9522 88.2107 16.1096 88.222 16.2653C88.2952 17.2948 88.5429 17.5074 89.6953 17.6447C89.8961 17.6681 90.0688 17.864 90.2546 17.9812C90.05 18.0783 89.8473 18.2541 89.6409 18.2574C88.0005 18.2808 86.3583 18.2808 84.7179 18.2574C84.5246 18.2541 84.335 18.0682 84.1436 17.9661C84.3332 17.8556 84.5133 17.6665 84.716 17.6447C85.7483 17.5376 86.0768 17.263 86.0824 16.3624C86.0955 14.402 86.088 12.44 86.0974 10.4796C86.1012 9.53714 85.9773 8.62645 84.8474 8.21462C83.6631 7.78271 82.5333 7.9903 81.5592 8.70513C81.0356 9.09017 80.5757 9.54886 80.1328 10.0092C79.9714 10.1766 79.8644 10.4411 79.8625 10.6638C79.8513 12.5907 79.8588 14.5158 79.8832 16.4427C79.8926 17.1977 80.1666 17.4539 80.9961 17.6162C81.1482 17.6464 81.3152 17.6547 81.4428 17.7217C81.5423 17.7736 81.6568 17.9092 81.6455 17.9929C81.6343 18.08 81.4879 18.1971 81.3809 18.2206C81.1763 18.2641 80.9548 18.2591 80.7409 18.2591C79.2938 18.2591 77.8487 18.2675 76.4035 18.2407C76.1858 18.2373 75.9718 18.0615 75.756 17.9644C75.9681 17.8556 76.1726 17.6732 76.396 17.6497C77.3006 17.556 77.7004 17.3116 77.7098 16.6001C77.7342 14.4137 77.7229 12.2274 77.6966 10.0427C77.676 8.41217 76.06 7.74254 74.4647 8.09744C73.2373 8.37031 72.4096 9.12532 71.6645 9.96571C71.5575 10.0862 71.5256 10.2888 71.5256 10.4545C71.5162 12.363 71.5181 14.2731 71.5237 16.1816C71.5274 17.2831 71.7865 17.5443 73.0158 17.72C73.1303 17.7368 73.2635 17.7267 73.3574 17.7753C73.4625 17.8305 73.5319 17.9393 73.6164 18.023C73.5038 18.0967 73.3949 18.2273 73.2785 18.234C72.8694 18.2557 72.4584 18.2289 72.0492 18.2306C70.6622 18.2373 69.2771 18.2591 67.8901 18.249C67.6818 18.249 67.4735 18.1084 67.2651 18.0331C67.4491 17.9243 67.6199 17.7502 67.8207 17.7184C68.8698 17.5493 69.1964 17.2379 69.1983 16.2853C69.2002 14.0638 69.2039 11.8423 69.1851 9.62085C69.1758 8.3971 69.0237 8.26987 67.6536 8.02545C67.5091 8.00034 67.3984 7.83126 67.2708 7.72747C67.4059 7.65548 67.5354 7.52825 67.6743 7.52156C68.8248 7.46966 69.9772 7.44455 71.1296 7.4027C71.4411 7.39098 71.5443 7.51151 71.5368 7.77434C71.5237 8.21965 71.5331 8.66495 71.5331 9.26594L71.5256 9.2626Z" fill="#0A0D12"/>
<path d="M38.4981 0.0225045V9.24164C38.8265 8.96542 39.0799 8.76788 39.3145 8.55359C40.8141 7.19257 42.6346 6.95653 44.611 7.41857C46.0636 7.75673 46.9645 8.72435 47.0133 10.0552C47.0846 11.9804 47.049 13.9073 47.0602 15.8325C47.0602 16.0752 47.0471 16.3196 47.0734 16.5607C47.1466 17.1985 47.4431 17.4597 48.1394 17.6388C48.4435 17.7175 48.9802 17.9669 48.9634 18.0121C48.8001 18.4608 48.3553 18.2247 48.0212 18.2298C46.4596 18.2515 44.8962 18.2582 43.3347 18.2482C43.1395 18.2482 42.9443 18.1176 42.7472 18.0473C42.9255 17.9267 43.0851 17.7376 43.284 17.6991C44.4983 17.463 44.686 17.2722 44.686 16.1522C44.686 14.4865 44.7048 12.8191 44.671 11.1534C44.6616 10.6228 44.5828 10.077 44.4176 9.56641C44.0235 8.34266 42.9199 7.79691 41.5198 8.07146C39.8494 8.39791 38.6707 9.59989 38.5919 11.2455C38.5074 12.9949 38.5356 14.7493 38.5506 16.5021C38.5562 17.2136 38.8903 17.4614 39.7781 17.6706C40.0352 17.7309 40.2529 17.915 40.4894 18.0423C40.2304 18.1092 39.9733 18.2298 39.7143 18.2331C37.92 18.2498 36.1257 18.2415 34.2883 18.2415C34.1626 17.9401 34.2301 17.7627 34.7012 17.6974C35.9136 17.5283 36.1201 17.2789 36.1182 16.1807C36.1163 11.5636 36.1163 6.94648 36.1145 2.32938C36.1145 1.1659 35.9249 0.953291 34.658 0.708876C34.369 0.653631 34.0762 0.571601 34.1832 0.258549C34.2226 0.143038 34.5267 0.0375712 34.7106 0.034223C35.9399 0.0141341 37.1711 0.0241786 38.4924 0.0241786L38.4981 0.0225045Z" fill="#0A0D12"/>
<path d="M13.7741 18.2434C12.7718 18.2434 11.8784 18.2668 10.9907 18.2233C10.8199 18.2149 10.6022 17.9655 10.514 17.7864C9.26963 15.2451 8.04405 12.6955 6.81471 10.1475C5.59852 7.63141 4.39171 5.1136 3.15862 2.60584C2.93527 2.15049 2.63873 1.71021 2.29715 1.3168C1.86359 0.819598 1.22922 0.627079 0.531033 0.635449C0.0937281 0.640471 -0.0958333 0.494827 0.046807 0.0528709C0.196955 0.0428265 0.365871 0.0227376 0.534787 0.0227376C2.91838 0.0210635 5.30385 0.0227376 7.68745 0.0227376C7.78504 0.0227376 7.89578 0.00264868 7.97836 0.0344561C8.19983 0.121508 8.41191 0.231997 8.62587 0.332442C8.40816 0.427864 8.19983 0.563464 7.97085 0.60699C7.64991 0.667257 7.30645 0.632101 6.98175 0.685671C6.04145 0.839686 5.69048 1.31512 6.01142 2.10696C6.3943 3.05114 6.856 3.97021 7.29706 4.89597C8.88675 8.23073 10.4839 11.5621 12.0793 14.8935C12.1168 14.9706 12.1712 15.0425 12.2707 15.1982C12.4171 14.9739 12.5504 14.8149 12.6329 14.6357C14.2733 11.0951 15.9118 7.5544 17.5371 4.01039C17.7192 3.61196 17.8524 3.19009 17.9594 2.76822C18.2578 1.58465 17.6892 0.86982 16.3378 0.64382C16.0863 0.601968 15.8592 0.439582 15.6228 0.334116C15.8799 0.230323 16.1351 0.0428265 16.396 0.0378043C17.9782 0.0110191 19.5623 0.0160413 21.1444 0.0428265C21.364 0.0461746 21.5817 0.226975 21.7995 0.325745C21.6118 0.446279 21.441 0.620382 21.2308 0.677301C20.2548 0.940131 19.6261 1.54782 19.2263 2.32292C18.453 3.81787 17.7323 5.33458 17.0097 6.84962C15.649 9.70559 14.3071 12.5683 12.9407 15.4226C12.7587 15.8026 12.7324 16.1307 12.9407 16.5107C13.2373 17.0481 13.4719 17.6122 13.7722 18.245L13.7741 18.2434Z" fill="#0A0D12"/>
<path d="M125.219 16.6666C125.442 17.3396 124.569 18.257 123.58 18.5734C122.311 18.9785 121.086 18.3625 120.421 16.9345C120.239 17.0282 120.057 17.1086 119.894 17.2107C118.652 17.9891 117.36 18.6454 115.78 18.6906C114.331 18.7324 113.132 18.1532 112.741 17.1521C112.349 16.141 112.672 15.2252 113.515 14.5422C114.194 13.9898 115.009 13.5428 115.827 13.1561C117.116 12.5467 118.469 12.0428 119.772 11.4535C119.997 11.3514 120.236 11.0534 120.245 10.8375C120.271 10.2532 120.237 9.65559 120.121 9.08138C119.939 8.1891 119.338 7.70697 118.325 7.64335C117.67 7.60317 116.996 7.64 116.345 7.72203C115.5 7.82917 115.185 8.22426 115.025 8.96922C114.947 9.33417 114.736 9.71418 114.468 10.0005C114.156 10.3353 113.637 10.3035 113.289 10.0674C113.036 9.89666 112.824 9.53673 112.811 9.25381C112.773 8.50215 113.338 8.04178 114.038 7.74714C115.669 7.06077 117.405 6.91178 119.185 7.04738C119.417 7.0658 119.652 7.08756 119.883 7.12271C121.632 7.38889 122.574 8.22091 122.662 9.80793C122.767 11.6762 122.713 13.5528 122.767 15.4245C122.782 15.9518 122.846 16.5026 123.04 16.9964C123.293 17.6426 123.89 17.7045 124.464 17.2341C124.686 17.0533 124.922 16.8876 125.22 16.6633L125.219 16.6666ZM120.245 11.9223C119.044 12.5032 117.953 12.9686 116.942 13.5445C116.433 13.8341 116 14.2794 115.654 14.728C115.076 15.4764 115.187 16.4289 115.817 17.1019C116.373 17.6945 117.227 17.8485 118.224 17.4451C118.802 17.2107 119.365 16.9043 119.845 16.5394C120.1 16.3469 120.281 15.9618 120.298 15.6572C120.352 14.636 120.318 13.6114 120.311 12.5869C120.311 12.4212 120.279 12.2571 120.243 11.924L120.245 11.9223Z" fill="#0A0D12"/>
<path d="M145.49 7.51276C146.705 7.51276 147.932 7.51276 149.16 7.51276C149.584 7.51276 149.473 7.78898 149.473 7.99824C149.473 10.2716 149.467 12.545 149.467 14.8184C149.467 15.165 149.481 15.5132 149.503 15.858C149.591 17.2341 150.836 18.0728 152.354 17.7899C153.827 17.5154 155.655 16.3201 155.648 14.4033C155.64 12.7041 155.661 11.0032 155.637 9.30402C155.625 8.49544 155.203 8.15895 154.281 8.12212C154.144 8.1171 153.985 8.15058 153.878 8.09868C153.747 8.03339 153.658 7.89779 153.551 7.794C153.67 7.7036 153.786 7.53452 153.904 7.53285C155.171 7.51443 156.438 7.52113 157.757 7.52113C157.772 7.78396 157.797 8.00493 157.797 8.22424C157.804 10.8793 157.797 13.5344 157.819 16.1895C157.829 17.3245 157.96 17.4216 159.218 17.6476C159.388 17.6777 159.524 17.8585 159.676 17.969C159.514 18.0661 159.364 18.2218 159.189 18.2486C158.345 18.3758 157.483 18.4294 156.646 18.5868C156.207 18.6688 156.061 18.5248 155.999 18.2118C155.879 17.6041 155.781 16.9914 155.663 16.31C155.319 16.6549 155.013 16.978 154.687 17.2827C153.26 18.6236 151.145 19.0455 149.321 18.3474C148.185 17.9138 147.47 17.1638 147.433 16.0455C147.36 13.896 147.341 11.7465 147.311 9.59531C147.296 8.44689 147.119 8.26274 145.815 8.12212C145.381 8.07525 145.355 8.03507 145.487 7.5161L145.49 7.51276Z" fill="#0A0D12"/>
<path d="M141.398 12.5682C141.398 13.8004 141.389 15.0325 141.402 16.2646C141.413 17.3025 141.738 17.5905 142.892 17.6357C143.029 17.6407 143.187 17.6089 143.298 17.6591C143.48 17.7395 143.63 17.8734 143.795 17.9856C143.628 18.0743 143.47 18.2233 143.294 18.24C142.868 18.2802 142.436 18.2635 142.006 18.2618C140.619 18.2584 139.231 18.2618 137.844 18.2333C137.632 18.2283 137.425 18.0726 137.217 17.9872C137.423 17.8734 137.618 17.6809 137.836 17.6591C138.945 17.547 139.227 17.3159 139.234 16.3098C139.255 13.7066 139.249 11.1034 139.268 8.50192C139.27 8.20561 139.161 8.08675 138.835 8.09679C138.365 8.11186 137.894 8.13864 137.429 8.10683C137.279 8.09679 137.142 7.91432 136.999 7.81052C137.138 7.71008 137.267 7.53932 137.416 7.52593C137.842 7.48743 138.275 7.48743 138.703 7.51923C139.154 7.55272 139.261 7.392 139.272 7.01366C139.304 5.94058 139.231 4.83904 139.48 3.80111C140.327 0.278854 144.277 -0.549814 146.939 0.705744C147.408 0.926722 147.798 1.34859 148.108 1.74869C148.42 2.1488 148.2 2.54723 147.785 2.83852C147.374 3.12646 146.965 3.0528 146.622 2.75984C146.329 2.5104 146.044 2.23418 145.837 1.92615C145.317 1.15105 144.662 0.618692 143.562 0.791122C142.521 0.953507 141.695 1.6834 141.556 2.71631C141.423 3.71238 141.434 4.72353 141.395 5.72797C141.378 6.16156 141.413 6.59682 141.38 7.02873C141.35 7.41377 141.533 7.51086 141.929 7.4958C142.436 7.47738 142.949 7.47738 143.452 7.51923C143.609 7.53263 143.748 7.7084 143.895 7.80885C143.746 7.90762 143.604 8.08172 143.448 8.09344C142.924 8.13027 142.393 8.12023 141.866 8.10516C141.49 8.09512 141.359 8.21063 141.365 8.55884C141.387 9.89475 141.374 11.2307 141.374 12.5682C141.383 12.5682 141.393 12.5682 141.4 12.5682H141.398Z" fill="#0A0D12"/>
<path d="M31.6185 8.46675C31.6185 10.9996 31.6148 13.5342 31.6185 16.0671C31.6204 17.2406 31.7875 17.4097 33.0712 17.711C33.2458 17.7528 33.3846 17.9119 33.5404 18.0174C33.3527 18.096 33.1669 18.2434 32.9792 18.245C31.2413 18.2651 29.5052 18.2685 27.7672 18.2551C27.5946 18.2551 27.4219 18.1094 27.2492 18.0324C27.3938 17.9253 27.5214 17.7495 27.6847 17.721C29.0172 17.4816 29.2331 17.2623 29.2312 16.052C29.2256 11.4885 29.2237 6.92493 29.2143 2.3614C29.2124 1.11253 29.0641 0.97526 27.7034 0.675601C27.5233 0.635423 27.3862 0.439556 27.2305 0.315675C27.4088 0.218578 27.5852 0.0411261 27.7672 0.0377779C28.8614 0.0109927 29.9556 0.0444743 31.048 0.0143409C31.5284 0.000948281 31.6336 0.156637 31.6298 0.555067C31.611 3.19174 31.6204 5.83008 31.6204 8.46675C31.6204 8.46675 31.6204 8.46675 31.6185 8.46675Z" fill="#0A0D12"/>
<path d="M64.4918 0.0279541C64.4918 0.295806 64.4918 0.484977 64.4918 0.672473C64.4955 5.73823 64.4993 10.804 64.5049 15.8697C64.5049 16.0606 64.503 16.2514 64.5199 16.4423C64.5856 17.2123 64.8465 17.4752 65.6986 17.6459C65.7943 17.6643 65.9013 17.666 65.9801 17.7095C66.1565 17.8066 66.3161 17.9238 66.4831 18.0343C66.3048 18.1046 66.1284 18.2369 65.9482 18.2386C64.1727 18.2603 62.3953 18.267 60.6198 18.257C60.4641 18.257 60.3102 18.1163 60.1562 18.0427C60.2989 17.9305 60.4303 17.7347 60.5842 17.7196C61.7516 17.5991 62.1551 17.2894 62.1495 15.9484C62.1288 11.5238 62.1363 7.10093 62.1307 2.67634C62.1307 2.4336 62.1326 2.18919 62.1119 1.94812C62.0387 1.13787 61.7347 0.849925 60.8338 0.717673C60.6987 0.697585 60.5391 0.705955 60.4378 0.64234C60.3158 0.567007 60.1563 0.419688 60.1694 0.320917C60.1825 0.213777 60.3777 0.0446949 60.496 0.0430208C61.8004 0.0229319 63.1048 0.0313023 64.4936 0.0313023L64.4918 0.0279541Z" fill="#0A0D12"/>
<path d="M51.6082 11.1524C51.5294 12.8549 51.4656 14.4821 52.2145 16.024C52.785 17.1992 53.761 17.9425 55.2493 17.9893C56.7114 18.0362 57.982 17.6428 58.8566 16.5195C58.9899 16.3487 59.0818 16.1412 59.2489 16.0056C59.369 15.9085 59.583 15.9001 59.7537 15.8532C59.7631 16.0056 59.8382 16.1864 59.7688 16.3035C58.9017 17.7935 57.4527 18.5033 55.6266 18.6539C51.9592 18.957 49.3072 16.4324 49.1214 13.4894C48.9882 11.365 49.6282 9.51851 51.5313 8.10894C53.8285 6.40808 58.6858 6.46332 59.8682 10.4208C60.0597 11.0637 59.9977 11.1457 59.2451 11.1457C56.9798 11.1491 54.7125 11.1507 52.4472 11.1524C52.1938 11.1524 51.9423 11.1524 51.6064 11.1524H51.6082ZM51.7021 10.5882C53.5038 10.5882 55.2962 10.5949 57.0886 10.5749C57.2144 10.5749 57.4377 10.3857 57.4452 10.2752C57.5409 9.01294 56.7865 7.93986 55.4426 7.71051C53.5564 7.38909 51.978 8.32992 51.7021 10.5882Z" fill="#0A0D12"/>
<path d="M195.324 15.8851C195.053 16.6635 194.562 17.2495 193.871 17.7031C190.466 19.943 185.305 18.0748 184.618 14.3483C184.303 12.639 184.479 10.9934 185.53 9.48174C186.917 7.48792 189.656 6.5655 192.154 7.30712C193.948 7.83947 194.905 9.04648 195.305 10.6469C195.403 11.0386 195.251 11.1625 194.793 11.1592C192.388 11.1424 189.986 11.1625 187.582 11.1424C187.096 11.1391 186.936 11.278 186.929 11.7049C186.906 12.9923 186.944 14.2713 187.364 15.5185C187.816 16.8611 188.715 17.7902 190.35 17.9626C192.013 18.1384 193.394 17.673 194.342 16.3873C194.556 16.0977 194.721 15.7629 195.322 15.8868L195.324 15.8851ZM189.868 10.5917V10.5799C190.707 10.5799 191.546 10.5933 192.383 10.5682C192.542 10.5632 192.829 10.4109 192.835 10.3154C192.936 8.61457 191.769 7.55823 189.958 7.65198C188.306 7.73735 187.548 8.67651 187.111 10.2585C187.026 10.5665 187.265 10.5967 187.529 10.595C188.31 10.5917 189.089 10.595 189.87 10.595L189.868 10.5917Z" fill="#0A0D12"/>
<path d="M220.52 11.1523C219.27 11.1523 218.02 11.1523 216.77 11.1523C216.506 11.1523 216.265 11.1439 216.263 11.4888C216.258 12.7728 216.209 14.0568 216.629 15.3074C217.082 16.65 217.864 17.7314 219.57 17.9407C221.295 18.1533 222.716 17.6711 223.73 16.3503C223.889 16.141 224.199 16.0205 224.437 15.8598C224.371 16.1193 224.377 16.4173 224.229 16.6315C222.77 18.7493 219.276 19.3553 216.712 17.9089C214.289 16.5428 213.551 14.4737 213.869 12.0563C214.131 10.0575 215.181 8.45369 217.264 7.54801C219.773 6.45651 223.666 6.97213 224.629 10.6032C224.739 11.0184 224.664 11.1674 224.152 11.1556C222.941 11.1305 221.731 11.1473 220.518 11.1473V11.1523H220.52ZM216.408 10.5848C216.783 10.5848 217.11 10.5848 217.438 10.5848C218.805 10.5898 220.171 10.6099 221.537 10.5881C221.746 10.5848 222.102 10.4207 222.132 10.2851C222.384 9.14006 221.46 7.93305 220.169 7.70872C218.23 7.37223 216.682 8.36329 216.408 10.5831V10.5848Z" fill="#0A0D12"/>
<path d="M200.312 9.19221C200.736 8.86241 201.102 8.57782 201.468 8.29323C202.532 7.46791 203.745 7.18331 205.111 7.54994C205.627 7.68889 205.986 8.00361 206.077 8.50249C206.151 8.90259 206.012 9.22736 205.597 9.42323C205.184 9.61742 204.799 9.5605 204.482 9.25247C204.325 9.10013 204.187 8.92937 204.054 8.76029C203.654 8.25807 203.313 8.14423 202.648 8.3468C201.385 8.73518 200.74 9.59398 200.565 10.7123C200.434 11.551 200.419 12.4048 200.4 13.2535C200.376 14.2764 200.394 15.3009 200.409 16.3254C200.423 17.2529 200.678 17.4939 201.706 17.6948C201.978 17.7484 202.224 17.9108 202.481 18.023C202.189 18.0949 201.9 18.2255 201.605 18.2305C199.985 18.2557 198.364 18.259 196.742 18.2456C196.537 18.2439 196.337 18.0933 196.132 18.0112C196.307 17.9074 196.468 17.7451 196.659 17.7116C197.767 17.5124 198.028 17.3131 198.033 16.3522C198.045 13.9583 198.02 11.5644 197.988 9.17044C197.979 8.51588 197.692 8.2497 196.973 8.09903C196.783 8.05886 196.577 8.0622 196.402 7.99691C196.303 7.96008 196.192 7.82448 196.192 7.73408C196.192 7.6621 196.352 7.53152 196.446 7.52817C197.675 7.4746 198.904 7.4294 200.135 7.41768C200.229 7.41768 200.409 7.68051 200.409 7.82114C200.411 8.27816 200.349 8.73686 200.312 9.19555V9.19221Z" fill="#0A0D12"/>
<path d="M125.804 7.48647H129.931V9.15552C130.278 8.89604 130.636 8.66502 130.944 8.39047C131.856 7.57855 132.968 7.304 134.212 7.42955C134.797 7.48982 135.278 7.76437 135.565 8.24483C135.803 8.64493 135.68 9.11535 135.265 9.34804C134.839 9.58576 134.416 9.59581 134.054 9.23421C133.925 9.1053 133.803 8.9697 133.69 8.82741C133.195 8.20632 132.795 8.1109 131.997 8.42563C130.672 8.94961 130.154 9.9641 130.083 11.141C129.981 12.8368 129.976 14.5394 129.993 16.2369C130.002 17.2731 130.304 17.5192 131.464 17.705C131.597 17.7268 131.744 17.7268 131.86 17.7787C131.952 17.8189 132.08 17.9444 132.063 17.9963C132.029 18.0917 131.916 18.1872 131.809 18.234C131.712 18.2759 131.581 18.2558 131.462 18.2558C129.745 18.2525 128.026 18.2558 126.308 18.2374C126.115 18.2357 125.922 18.1135 125.729 18.0465C125.909 17.9327 126.076 17.7519 126.275 17.7151C127.367 17.5209 127.613 17.2765 127.611 16.2821C127.611 14.0087 127.611 11.7369 127.609 9.46355C127.609 8.46748 127.333 8.17619 126.222 8.03892C125.896 7.99874 125.625 7.95186 125.805 7.48647H125.804Z" fill="#0A0D12"/>
<path d="M211.175 7.10311C211.175 7.32577 211.175 7.52833 211.175 7.72922C211.186 10.5902 211.184 13.4512 211.212 16.3139C211.222 17.2781 211.56 17.536 212.658 17.6414C212.881 17.6632 213.085 17.8507 213.299 17.9612C213.084 18.0616 212.868 18.2458 212.648 18.2474C210.871 18.2659 209.093 18.2491 207.318 18.2441C207.068 18.2441 206.73 18.291 206.785 17.9578C206.806 17.8356 207.123 17.7117 207.325 17.6615C207.603 17.5929 207.907 17.618 208.191 17.5627C208.714 17.4606 209.011 17.1492 209.011 16.6772C209.015 14.3016 209.022 11.9261 208.985 9.55061C208.973 8.76715 208.662 8.51771 207.798 8.39215C207.568 8.35867 207.32 8.3888 207.104 8.32686C206.971 8.29003 206.828 8.14439 206.792 8.02386C206.77 7.9502 206.937 7.82799 207.029 7.73424C207.048 7.71583 207.104 7.72922 207.143 7.72252C208.446 7.52331 209.747 7.32242 211.175 7.10144V7.10311Z" fill="#0A0D12"/>
<path d="M24.2541 7.08949C24.2541 7.7541 24.2541 8.37351 24.2541 8.99459C24.2541 11.3885 24.2485 13.7825 24.2598 16.1747C24.2654 17.2947 24.5901 17.5675 25.8476 17.6479C26.0259 17.6596 26.3149 17.8086 26.3412 17.9291C26.4069 18.2355 26.1197 18.269 25.842 18.2673C24.0064 18.264 22.1708 18.2723 20.3353 18.2522C20.172 18.2506 20.0106 18.0848 19.8473 17.9944C20.0031 17.8756 20.1495 17.7416 20.3184 17.6429C20.386 17.6044 20.508 17.6429 20.6056 17.6395C21.7561 17.6144 22.1483 17.2779 22.1539 16.2433C22.1633 14.2663 22.1539 12.2892 22.1464 10.3104C22.1464 10.0861 22.1145 9.86009 22.0789 9.63744C21.9025 8.57942 21.7223 8.4321 20.5211 8.34338C20.4817 8.34003 20.4348 8.35342 20.4047 8.33836C20.2095 8.23958 20.02 8.13412 19.8267 8.03033C20.02 7.91984 20.1983 7.74908 20.4085 7.7089C21.4933 7.49797 22.5837 7.31884 23.6742 7.13302C23.8412 7.10456 24.0139 7.10456 24.2504 7.08447L24.2541 7.08949Z" fill="#0A0D12"/>
<path d="M97.9191 34.8511C97.0032 32.5609 96.0873 30.2691 95.1714 27.979C96.0892 27.6994 96.442 27.84 96.6991 28.5415C97.1515 29.7736 97.5982 31.0074 98.2062 32.2947C98.9213 30.8082 99.6345 29.3216 100.408 27.7111C101.164 29.3233 101.868 30.8249 102.574 32.3265C102.622 32.3232 102.673 32.3215 102.722 32.3182C102.786 32.1709 102.861 32.0269 102.913 31.8762C103.298 30.7496 103.675 29.6212 104.064 28.4963C104.304 27.8015 104.618 27.686 105.481 28.0024C104.582 30.2875 103.681 32.576 102.731 34.9883C101.943 33.2891 101.211 31.7138 100.477 30.1385C100.428 30.1235 100.378 30.1101 100.329 30.095C99.5726 31.6837 98.8162 33.2724 98.0617 34.8611L97.9191 34.8494V34.8511Z" fill="#0A0D12"/>
<path d="M121.463 31.2651C121.521 29.2797 123.368 27.7094 125.573 27.773C127.914 27.8399 129.642 29.4337 129.58 31.4693C129.52 33.4732 127.647 35.0535 125.421 34.9765C123.043 34.8945 121.403 33.356 121.463 31.2651ZM122.756 31.4375C122.769 32.9676 123.933 34.0223 125.586 34.0056C127.21 33.9888 128.323 32.8906 128.3 31.3287C128.28 29.879 127.02 28.7473 125.461 28.7758C123.894 28.8042 122.743 29.9376 122.756 31.4375Z" fill="#0A0D12"/>
<path d="M136.11 32.1974C136.717 33.0713 137.295 33.9049 137.875 34.7403C137.197 35.0734 136.749 35.0015 136.377 34.4725C135.987 33.9167 135.628 33.3408 135.272 32.7666C135.029 32.3765 133.967 32.0953 133.594 32.3614C133.498 32.4284 133.468 32.6042 133.464 32.7314C133.453 33.3207 133.449 33.91 133.464 34.4992C133.474 34.8474 133.291 34.9747 132.929 34.9362C132.603 34.9027 132.205 34.9964 132.209 34.4875C132.225 32.4083 132.209 30.3291 132.233 28.2516C132.233 28.1227 132.481 27.8866 132.616 27.8833C133.53 27.8666 134.453 27.8498 135.362 27.9318C136.572 28.039 137.36 28.6718 137.573 29.5758C137.824 30.6489 137.447 31.4089 136.347 32.0333C136.283 32.0702 136.225 32.1154 136.105 32.1974H136.11ZM133.464 30.1165C133.464 30.1165 133.459 30.1165 133.457 30.1165C133.457 30.4279 133.427 30.7426 133.472 31.0473C133.489 31.1695 133.671 31.3687 133.776 31.3687C134.337 31.3687 134.904 31.347 135.455 31.2683C136.004 31.1896 136.276 30.8113 136.351 30.3559C136.426 29.8972 136.354 29.4285 135.893 29.1422C135.204 28.7136 134.399 28.8777 133.629 28.8794C133.573 29.2744 133.517 29.6695 133.462 30.0646C133.46 30.0814 133.462 30.0998 133.462 30.1165H133.464Z" fill="#0A0D12"/>
<path d="M79.0102 30.4951C79.0102 31.7741 79.014 33.0531 79.0102 34.3321C79.0083 34.933 78.922 34.9682 78.2557 34.928C77.8334 34.9029 77.8597 34.6819 77.8597 34.4325C77.8616 32.5759 77.8616 30.7211 77.8634 28.8645C77.8634 28.5464 77.8634 28.2284 77.993 27.85C79.6277 29.3718 81.2624 30.8918 82.976 32.4872C82.9929 32.2746 83.0116 32.1507 83.0098 32.0285C83.0041 30.7981 82.9985 29.566 82.9835 28.3355C82.9797 28.0241 83.0811 27.8366 83.4752 27.8484C83.8375 27.8584 84.1321 27.9053 84.1302 28.3255C84.1209 30.4582 84.1246 32.591 84.119 34.7238C84.119 34.8008 84.0664 34.8778 84.0233 35C82.3716 33.4465 80.7613 31.9331 79.1528 30.4181C79.1059 30.4432 79.0571 30.47 79.0102 30.4951Z" fill="#0A0D12"/>
<path d="M87.4993 31.3703C87.4993 30.3642 87.52 29.3564 87.49 28.3502C87.4787 27.9753 87.6364 27.8564 88.023 27.8614C89.3706 27.8782 90.72 27.8966 92.0676 27.8982C92.4842 27.8982 92.5443 28.0958 92.5274 28.3988C92.5105 28.7035 92.411 28.8742 92.0075 28.8659C91.0898 28.8441 90.1701 28.8759 89.2523 28.8541C88.8281 28.8441 88.7024 28.9797 88.7399 29.3413C88.7775 29.7196 88.7718 30.1047 88.7568 30.4864C88.7437 30.8262 88.8957 30.94 89.2805 30.925C90.0612 30.8932 90.8439 30.9166 91.6228 30.8831C92.0601 30.8647 92.1032 31.0723 92.0939 31.3669C92.0845 31.6448 92.0826 31.8775 91.6284 31.8591C90.8289 31.8256 90.0256 31.8491 89.226 31.8357C88.8601 31.829 88.693 31.9311 88.7287 32.2893C88.7681 32.6861 88.7662 33.0896 88.7287 33.4846C88.6911 33.8948 88.8882 33.9835 89.3086 33.9684C90.2058 33.9366 91.1066 33.9601 92.0038 33.9333C92.4598 33.9199 92.7001 34.0287 92.6813 34.4807C92.6607 34.9545 92.3303 34.9227 91.955 34.9193C90.6844 34.9093 89.4137 34.8909 88.145 34.9344C87.5988 34.9528 87.4787 34.7804 87.49 34.3418C87.5181 33.3524 87.4993 32.363 87.4993 31.3736V31.3703Z" fill="#0A0D12"/>
<path d="M140.771 34.8762V27.9171C140.959 27.897 141.146 27.8702 141.336 27.8568C141.809 27.8233 142.055 27.9556 142.023 28.4411C141.972 29.1844 141.993 29.9327 141.989 30.6793C141.989 30.8283 142.006 30.9773 142.027 31.2736C142.819 30.4182 143.509 29.6749 144.198 28.9282C144.384 28.7273 144.573 28.5265 144.741 28.3138C145.131 27.82 145.649 27.7949 146.321 27.9723C145.66 28.6939 145.039 29.3802 144.41 30.0599C143.466 31.0794 143.509 30.6776 144.329 31.7491C145.095 32.7501 145.893 33.7328 146.676 34.7222C146.066 35.0537 145.48 34.9683 145.086 34.4795C144.425 33.6642 143.774 32.8422 143.1 32.0353C143.027 31.9466 142.73 31.8763 142.714 31.8997C142.445 32.2613 141.933 32.4957 141.991 33.0347C142.034 33.4298 142.006 33.8316 142.012 34.2317C142.019 34.9164 141.987 34.9465 141.238 34.9198C141.103 34.9147 140.97 34.8946 140.775 34.8762H140.771Z" fill="#0A0D12"/>
<path d="M113.395 27.9891C114.106 27.7012 114.584 27.82 114.93 28.3608C115.373 29.0538 115.803 29.7553 116.249 30.445C116.373 30.6358 116.538 30.8032 116.737 31.0443C117.295 30.1303 117.809 29.2848 118.325 28.4394C118.712 27.8066 118.984 27.7196 119.836 27.9757C119.427 28.6269 119.07 29.3016 118.608 29.9143C117.586 31.2653 117.002 32.7033 117.268 34.3539C117.33 34.7373 117.159 34.9148 116.683 34.9215C116.214 34.9282 116.048 34.7691 116.056 34.3791C116.065 33.773 116.092 33.1637 116.041 32.5593C116.013 32.2262 115.913 31.8713 115.731 31.5817C115.027 30.4617 114.277 29.3669 113.545 28.2603C113.488 28.1733 113.445 28.0795 113.396 27.9874L113.395 27.9891Z" fill="#0A0D12"/>
<path d="M211.35 3.41166C211.337 4.19848 210.65 4.81286 209.803 4.79445C208.981 4.77771 208.306 4.1516 208.308 3.41166C208.308 2.6533 209.032 1.98367 209.837 1.99539C210.691 2.00711 211.365 2.63656 211.352 3.41166H211.35Z" fill="#0A0D12"/>
<path d="M22.9524 1.99691C23.7482 2.00695 24.5102 2.71844 24.4858 3.42992C24.4614 4.14307 23.6694 4.81103 22.8661 4.79261C22.0609 4.7742 21.4209 4.1347 21.4378 3.36463C21.4528 2.61632 22.151 1.98854 22.9524 1.99691Z" fill="#0A0D12"/>
</svg>
