<svg width="315" height="30" viewBox="0 0 315 30" fill="none" xmlns="http://www.w3.org/2000/svg">
<g clip-path="url(#clip0_707_9908)">
<path d="M6.30053 0.685425V11.6784H17.8998V0.685425H24.2004V29.341H17.8998V16.9772H6.30053V29.341H0V0.685425H6.30053Z" fill="#221F1F"/>
<path d="M29.2618 9.17399C29.8945 7.32865 30.8171 5.74692 32.0298 4.3761C33.2424 3.00527 34.7187 1.95079 36.4586 1.15993C38.1985 0.395431 40.1757 0 42.3901 0C44.6045 0 46.5816 0.395431 48.3215 1.15993C50.0614 1.92443 51.5377 3.00527 52.7503 4.3761C53.963 5.74692 54.8857 7.32865 55.5184 9.17399C56.1511 11.0193 56.4938 12.9965 56.4938 15.1318C56.4938 17.2671 56.1774 19.1652 55.5184 20.9842C54.8857 22.8032 53.963 24.3585 52.7503 25.703C51.5377 27.0475 50.0614 28.1019 48.3215 28.8664C46.5816 29.6309 44.6045 30 42.3901 30C40.1757 30 38.2249 29.6309 36.4586 28.8664C34.6924 28.1019 33.2161 27.0475 32.0298 25.703C30.8171 24.3585 29.8945 22.8032 29.2618 20.9842C28.6291 19.1652 28.2864 17.2408 28.2864 15.1318C28.2864 13.0228 28.6027 10.993 29.2618 9.17399ZM35.0351 18.638C35.325 19.7715 35.7732 20.7996 36.3795 21.696C36.9859 22.6186 37.8031 23.3304 38.7785 23.884C39.7802 24.4376 40.9665 24.7012 42.3901 24.7012C43.8136 24.7012 44.9999 24.4376 46.0017 23.884C47.0034 23.3304 47.7943 22.6186 48.4006 21.696C49.0069 20.7733 49.4551 19.7715 49.7451 18.638C50.0351 17.5044 50.1669 16.3181 50.1669 15.1318C50.1669 13.9455 50.0351 12.6538 49.7451 11.4675C49.4551 10.2812 49.0069 9.22671 48.4006 8.30404C47.7943 7.38137 46.9771 6.64323 46.0017 6.08963C44.9999 5.53603 43.8136 5.27241 42.3901 5.27241C40.9665 5.27241 39.7539 5.53603 38.7785 6.08963C37.7767 6.64323 36.9859 7.38137 36.3795 8.30404C35.7732 9.22671 35.325 10.2812 35.0351 11.4675C34.7451 12.6538 34.6133 13.8664 34.6133 15.1318C34.6133 16.3972 34.7451 17.5044 35.0351 18.638Z" fill="#221F1F"/>
<path d="M69.9648 0.790894L76.6608 20.5097H76.7399L83.0931 0.790894H91.9771V29.4464H86.072V9.14766H85.9929L78.9806 29.4728H74.13L67.0914 9.35856H67.0123V29.4728H61.1072V0.790894H69.9912H69.9648Z" fill="#221F1F"/>
<path d="M119.183 0.685425V5.98419H104.051V12.1265H117.944V17.0299H104.051V24.0686H119.499V29.3673H97.7505V0.685425H119.183Z" fill="#221F1F"/>
<path d="M124.139 9.35854C124.692 7.56593 125.536 5.9842 126.67 4.61338C127.803 3.24255 129.2 2.13535 130.914 1.31812C132.601 0.500899 134.578 0.105469 136.845 0.105469C139.112 0.105469 141.063 0.500899 142.75 1.31812C144.438 2.13535 145.835 3.24255 146.968 4.61338C148.102 5.9842 148.945 7.56593 149.499 9.35854C150.053 11.1512 150.343 13.0492 150.343 15.0264C150.343 17.0035 150.053 18.9016 149.499 20.6942C148.945 22.4868 148.102 24.0686 146.968 25.4394C145.835 26.8102 144.438 27.8911 142.75 28.7083C141.063 29.5255 139.086 29.9209 136.845 29.9209C134.604 29.9209 132.627 29.5255 130.914 28.7083C129.227 27.8911 127.803 26.8102 126.67 25.4394C125.536 24.0686 124.692 22.4868 124.139 20.6942C123.585 18.9016 123.295 17.0035 123.295 15.0264C123.295 13.0492 123.585 11.1512 124.139 9.35854ZM126.67 19.6134C127.091 21.116 127.724 22.4868 128.594 23.6731C129.464 24.8594 130.571 25.8085 131.942 26.5466C133.313 27.2584 134.947 27.6274 136.845 27.6274C138.743 27.6274 140.378 27.2584 141.722 26.5466C143.067 25.8348 144.174 24.8594 145.044 23.6731C145.914 22.4868 146.546 21.1424 146.968 19.6134C147.39 18.1107 147.601 16.5817 147.601 15.0264C147.601 13.471 147.39 11.9157 146.968 10.413C146.546 8.91039 145.914 7.56593 145.044 6.37963C144.174 5.19334 143.067 4.24431 141.722 3.50617C140.378 2.7944 138.743 2.42533 136.845 2.42533C134.947 2.42533 133.313 2.7944 131.942 3.50617C130.571 4.21795 129.464 5.19334 128.594 6.37963C127.724 7.56593 127.091 8.91039 126.67 10.413C126.248 11.9157 126.037 13.4447 126.037 15.0264C126.037 16.6081 126.248 18.1107 126.67 19.6134Z" fill="#221F1F"/>
<path d="M173.726 0.685425V3.00528H158.278V13.3656H172.012V15.6854H158.278V29.341H155.536V0.685425H173.726Z" fill="#221F1F"/>
<path d="M182.768 22.2759C183.111 22.935 183.585 23.4886 184.165 23.9104C184.745 24.3322 185.404 24.6221 186.195 24.833C186.96 25.0439 187.777 25.123 188.594 25.123C189.148 25.123 189.754 25.0703 190.413 24.9912C191.046 24.8858 191.652 24.7276 192.232 24.4376C192.786 24.174 193.26 23.8049 193.629 23.3304C193.998 22.8559 194.183 22.2759 194.183 21.5378C194.183 20.7733 193.945 20.1406 193.445 19.6397C192.944 19.1652 192.311 18.7434 191.494 18.4271C190.703 18.1107 189.78 17.8207 188.752 17.5835C187.724 17.3462 186.696 17.0826 185.668 16.7926C184.587 16.529 183.559 16.1863 182.531 15.8172C181.503 15.4218 180.606 14.9209 179.789 14.3146C178.998 13.7083 178.339 12.9174 177.838 11.9947C177.337 11.0721 177.1 9.96485 177.1 8.64674C177.1 7.17047 177.416 5.90509 178.049 4.82425C178.682 3.7434 179.499 2.8471 180.527 2.10896C181.555 1.39718 182.689 0.84358 183.981 0.500874C185.272 0.158167 186.538 -0.0263672 187.829 -0.0263672C189.332 -0.0263672 190.756 0.131805 192.153 0.474512C193.524 0.817218 194.763 1.34446 195.817 2.10896C196.898 2.8471 197.742 3.82249 198.374 4.98242C199.007 6.14235 199.323 7.5659 199.323 9.22671H193.234C193.181 8.38312 192.996 7.67135 192.68 7.09138C192.364 6.53778 191.968 6.08963 191.467 5.77328C190.967 5.45694 190.387 5.21968 189.728 5.08787C189.068 4.95606 188.357 4.87697 187.592 4.87697C187.091 4.87697 186.564 4.9297 186.063 5.03514C185.562 5.14059 185.088 5.32513 184.666 5.58875C184.244 5.85237 183.902 6.19507 183.638 6.5905C183.374 6.98594 183.242 7.51318 183.242 8.1195C183.242 8.67311 183.348 9.14762 183.559 9.49033C183.77 9.83304 184.191 10.1494 184.824 10.4657C185.457 10.7557 186.327 11.0457 187.434 11.362C188.541 11.652 189.991 12.0211 191.784 12.4956C192.311 12.601 193.049 12.7856 194.025 13.0756C194.974 13.3655 195.923 13.8137 196.845 14.42C197.794 15.0264 198.585 15.8699 199.271 16.8981C199.956 17.9262 200.299 19.2443 200.299 20.8524C200.299 22.1705 200.035 23.3831 199.534 24.5167C199.033 25.6503 198.269 26.5993 197.267 27.4165C196.265 28.2337 195.026 28.8664 193.524 29.3146C192.047 29.7627 190.307 30 188.357 30C186.775 30 185.246 29.8155 183.77 29.42C182.293 29.0246 180.975 28.4183 179.842 27.6011C178.708 26.7838 177.812 25.703 177.126 24.4376C176.467 23.1459 176.125 21.6169 176.151 19.8506H182.241C182.241 20.826 182.425 21.6432 182.768 22.3023V22.2759Z" fill="#221F1F"/>
<path d="M223.339 8.3304C222.97 7.72407 222.496 7.19683 221.942 6.74868C221.388 6.30052 220.756 5.93145 220.044 5.6942C219.332 5.43057 218.594 5.32513 217.803 5.32513C216.38 5.32513 215.167 5.58875 214.192 6.14235C213.19 6.69595 212.399 7.43409 211.793 8.35676C211.186 9.27943 210.738 10.3339 210.448 11.5202C210.158 12.7065 210.026 13.9192 210.026 15.1845C210.026 16.4499 210.158 17.5571 210.448 18.6907C210.738 19.8242 211.186 20.8524 211.793 21.7487C212.399 22.6713 213.216 23.3831 214.192 23.9367C215.193 24.4903 216.38 24.7539 217.803 24.7539C219.728 24.7539 221.23 24.174 222.311 22.9877C223.392 21.8014 224.051 20.246 224.288 18.3216H230.378C230.22 20.1142 229.798 21.7223 229.139 23.1722C228.48 24.6221 227.583 25.8612 226.476 26.8629C225.369 27.891 224.104 28.6555 222.627 29.1828C221.151 29.71 219.543 29.9736 217.777 29.9736C215.589 29.9736 213.612 29.6046 211.845 28.8401C210.079 28.0756 208.603 27.0211 207.417 25.6766C206.204 24.3322 205.281 22.7768 204.648 20.9578C204.016 19.1388 203.673 17.2144 203.673 15.1054C203.673 12.9965 203.989 10.9666 204.648 9.14762C205.281 7.30228 206.204 5.72056 207.417 4.34973C208.629 2.97891 210.105 1.92442 211.845 1.13356C213.585 0.369063 215.562 -0.0263672 217.777 -0.0263672C219.359 -0.0263672 220.861 0.210891 222.258 0.659046C223.656 1.1072 224.921 1.76625 226.028 2.6362C227.135 3.50615 228.058 4.58699 228.77 5.87873C229.482 7.17047 229.956 8.64674 230.141 10.3076H224.051C223.945 9.59578 223.708 8.91036 223.339 8.3304Z" fill="#221F1F"/>
<path d="M257.109 0.685425V5.98419H241.977V12.1265H255.87V17.0299H241.977V24.0686H257.425V29.3673H235.677V0.685425H257.109Z" fill="#221F1F"/>
<path d="M268.919 0.685425L280.888 19.9034H280.967V0.685425H286.872V29.341H280.571L268.656 10.1494H268.576V29.341H262.671V0.685425H268.946H268.919Z" fill="#221F1F"/>
<path d="M291.116 5.98419V0.685425H314.605V5.98419H306.011V29.341H299.71V5.98419H291.116Z" fill="#221F1F"/>
</g>
<defs>
<clipPath id="clip0_707_9908">
<rect width="314.605" height="30" fill="white"/>
</clipPath>
</defs>
</svg>
