<svg width="574" height="43" viewBox="0 0 574 43" fill="none" xmlns="http://www.w3.org/2000/svg">
<g clip-path="url(#clip0_768_8118)">
<path d="M200.87 -9.76585e-06C200.09 -9.76585e-06 199.51 0.37999 199.14 1.11999L178.87 42.33H183.3L188.73 31.02H213.03L218.69 42.33H223L202.61 1.11999C202.23 0.36999 201.66 -9.76585e-06 200.87 -9.76585e-06ZM190.62 27.11L200.87 6.38999L211.12 27.11H190.62ZM158.7 23.83C159.97 23.1 161.08 22.19 162.03 21.08C162.98 19.98 163.73 18.74 164.27 17.36C164.81 15.98 165.08 14.5 165.08 12.94C165.08 11.26 164.76 9.65999 164.13 8.14999C163.49 6.63999 162.62 5.31999 161.5 4.19999C160.38 3.07999 159.08 2.17999 157.61 1.50999C156.13 0.83999 154.56 0.47999 152.88 0.44999H134.85C134.33 0.44999 133.87 0.64999 133.48 1.03999C133.09 1.42999 132.89 1.88999 132.89 2.40999V42.34H136.81V25.43H149.69L163.3 42.34H168.34L154.57 25.26C156.06 25.03 157.44 24.56 158.71 23.83H158.7ZM136.8 21.5V4.36999H152.59C153.75 4.36999 154.85 4.59999 155.89 5.03999C156.93 5.48999 157.85 6.08999 158.63 6.85999C159.41 7.62999 160.03 8.52999 160.48 9.56999C160.93 10.62 161.15 11.74 161.15 12.93C161.15 14.12 160.93 15.23 160.48 16.26C160.03 17.29 159.42 18.19 158.63 18.97C157.84 19.75 156.93 20.37 155.89 20.82C154.84 21.27 153.74 21.49 152.59 21.49H136.8V21.5ZM87.64 0.38999H117.99V4.25999H104.78V42.34H100.86V4.25999H87.65V0.38999H87.64ZM59.3 19.49L75.09 42.34H70.39L56.95 22.91L43.51 42.34H38.75L54.54 19.49L41.27 0.38999H46.03L56.95 16.07L67.87 0.38999H72.63L59.3 19.49ZM264.12 0.38999H268.37L250.17 41.55C249.79 42.3 249.2 42.67 248.38 42.67C247.97 42.67 247.61 42.57 247.29 42.36C246.97 42.16 246.74 41.88 246.59 41.55L228.33 0.38999H232.7L248.38 35.89L264.12 0.38999ZM1.96001 0.38999H26.43V4.25999H3.92001V17.36H22.13V21.28H3.92001V38.41H26.43V42.33H1.96001C1.44001 42.33 0.980005 42.13 0.580005 41.74C0.180005 41.35 5.49294e-06 40.9 5.49294e-06 40.38V2.29999C5.49294e-06 1.76999 0.200005 1.31999 0.590005 0.94999C0.980005 0.56999 1.44001 0.38999 1.97001 0.38999H1.96001ZM295.5 -9.76585e-06C294.72 -9.76585e-06 294.14 0.37999 293.77 1.11999L273.5 42.33H277.93L283.36 31.02H307.66L313.32 42.33H317.63L297.24 1.11999C296.86 0.36999 296.29 -9.76585e-06 295.5 -9.76585e-06ZM285.25 27.11L295.5 6.38999L305.75 27.11H285.25ZM467.59 0.38999H471.45V40.71C471.45 41.16 471.33 41.55 471.09 41.89C470.85 42.23 470.52 42.47 470.11 42.62C469.96 42.66 469.75 42.67 469.5 42.67C468.83 42.67 468.3 42.39 467.93 41.83L444.36 8.16999V42.33H440.44V1.95999C440.44 1.54999 440.56 1.16999 440.8 0.80999C441.04 0.44999 441.37 0.21999 441.78 0.10999C442.19 -0.0400098 442.6 -0.0400098 443.01 0.10999C443.42 0.25999 443.74 0.49999 443.96 0.83999L467.59 34.55V0.38999ZM552.9 1.11999C552.52 0.36999 551.95 -9.76585e-06 551.16 -9.76585e-06C550.37 -9.76585e-06 549.8 0.37999 549.43 1.11999L529.16 42.33H533.59L539.02 31.02H563.32L568.98 42.33H573.29L552.91 1.11999H552.9ZM540.91 27.11L551.16 6.38999L561.41 27.11H540.91ZM516.44 1.33999C516.82 2.00999 516.8 2.65999 516.39 3.29999L491.61 38.41H515.49V42.33H488.19C487.44 42.33 486.88 41.99 486.51 41.32C486.06 40.69 486.06 40.03 486.51 39.36L511.28 4.24999H487.4V0.38999H514.7C515.52 0.38999 516.1 0.70999 516.43 1.33999H516.44ZM402.46 -9.76585e-06C401.68 -9.76585e-06 401.1 0.37999 400.73 1.11999L380.46 42.33H384.89L390.32 31.02H414.62L420.28 42.33H424.59L404.2 1.11999C403.82 0.36999 403.25 -9.76585e-06 402.46 -9.76585e-06ZM392.21 27.11L402.46 6.38999L412.71 27.11H392.21ZM361.24 19.45H365.16V35.79C365.16 36.31 364.97 36.8 364.6 37.24C360.8 40.86 355.62 42.67 349.09 42.67C345.73 42.67 342.73 42.19 340.1 41.21C337.47 40.24 335.24 38.84 333.41 37.01C331.58 35.18 330.18 32.95 329.21 30.32C328.24 27.69 327.75 24.69 327.75 21.33C327.75 17.97 328.24 15.02 329.21 12.37C330.18 9.71999 331.58 7.47999 333.41 5.64999C335.24 3.81999 337.47 2.41999 340.1 1.44999C342.73 0.47999 345.73 -0.0100098 349.09 -0.0100098C354.69 -0.0100098 359.3 1.34999 362.92 4.07999L360.57 7.20999C357.62 5.00999 353.8 3.90999 349.09 3.90999C343.42 3.90999 339.09 5.39999 336.13 8.38999C333.16 11.38 331.68 15.69 331.68 21.33C331.68 26.97 333.16 31.33 336.13 34.32C339.09 37.31 343.42 38.8 349.09 38.8C354.21 38.8 358.26 37.51 361.24 34.94V23.27H355.76C355.05 23.27 354.47 22.69 354.47 21.99V20.75C354.47 20.04 355.05 19.47 355.76 19.47H361.24V19.45ZM467.59 0.38999H471.45V40.71C471.45 41.16 471.33 41.55 471.09 41.89C470.85 42.23 470.52 42.47 470.11 42.62C469.96 42.66 469.75 42.67 469.5 42.67C468.83 42.67 468.3 42.39 467.93 41.83L444.36 8.16999V42.33H440.44V1.95999C440.44 1.54999 440.56 1.16999 440.8 0.80999C441.04 0.44999 441.37 0.21999 441.78 0.10999C442.19 -0.0400098 442.6 -0.0400098 443.01 0.10999C443.42 0.25999 443.74 0.49999 443.96 0.83999L467.59 34.55V0.38999ZM552.9 1.11999C552.52 0.36999 551.95 -9.76585e-06 551.16 -9.76585e-06C550.37 -9.76585e-06 549.8 0.37999 549.43 1.11999L529.16 42.33H533.59L539.02 31.02H563.32L568.98 42.33H573.29L552.91 1.11999H552.9ZM540.92 27.11L551.17 6.38999L561.42 27.11H540.92ZM87.64 0.38999H117.99V4.25999H104.78V42.34H100.86V4.25999H87.65V0.38999H87.64ZM1.96001 0.38999H26.43V4.25999H3.92001V17.36H22.13V21.28H3.92001V38.41H26.43V42.33H1.96001C1.44001 42.33 0.980005 42.13 0.580005 41.74C0.180005 41.35 -0.00999451 40.89 -0.00999451 40.37V2.29999C-0.00999451 1.77999 0.190005 1.32999 0.580005 0.95999C0.970005 0.57999 1.43001 0.39999 1.96001 0.39999V0.38999ZM59.3 19.49L75.09 42.34H70.39L56.95 22.91L43.51 42.34H38.75L54.54 19.49L41.27 0.38999H46.03L56.95 16.07L67.87 0.38999H72.63L59.3 19.49ZM158.7 23.83C159.97 23.1 161.08 22.19 162.03 21.08C162.98 19.98 163.73 18.74 164.27 17.36C164.81 15.98 165.08 14.5 165.08 12.94C165.08 11.26 164.76 9.65999 164.13 8.14999C163.49 6.63999 162.62 5.31999 161.5 4.19999C160.38 3.07999 159.08 2.17999 157.61 1.50999C156.13 0.83999 154.56 0.47999 152.88 0.44999H134.85C134.33 0.44999 133.87 0.64999 133.48 1.03999C133.09 1.42999 132.89 1.88999 132.89 2.40999V42.34H136.81V25.43H149.69L163.3 42.34H168.34L154.57 25.26C156.06 25.03 157.44 24.56 158.71 23.83H158.7ZM136.8 21.5V4.36999H152.59C153.75 4.36999 154.85 4.59999 155.89 5.03999C156.93 5.48999 157.85 6.08999 158.63 6.85999C159.41 7.62999 160.03 8.52999 160.48 9.56999C160.93 10.62 161.15 11.74 161.15 12.93C161.15 14.12 160.93 15.23 160.48 16.26C160.03 17.29 159.42 18.19 158.63 18.97C157.84 19.75 156.93 20.37 155.89 20.82C154.84 21.27 153.74 21.49 152.59 21.49H136.8V21.5ZM516.44 1.33999C516.82 2.00999 516.8 2.65999 516.39 3.29999L491.61 38.41H515.49V42.33H488.19C487.44 42.33 486.88 41.99 486.51 41.32C486.06 40.69 486.06 40.03 486.51 39.36L511.28 4.24999H487.4V0.38999H514.7C515.52 0.38999 516.1 0.70999 516.43 1.33999H516.44ZM295.5 -9.76585e-06C294.72 -9.76585e-06 294.14 0.37999 293.77 1.11999L273.5 42.33H277.93L283.36 31.02H307.66L313.32 42.33H317.63L297.24 1.11999C296.86 0.36999 296.29 -9.76585e-06 295.5 -9.76585e-06ZM285.25 27.11L295.5 6.38999L305.75 27.11H285.25ZM402.46 -9.76585e-06C401.68 -9.76585e-06 401.1 0.37999 400.73 1.11999L380.46 42.33H384.89L390.32 31.02H414.62L420.28 42.33H424.59L404.2 1.11999C403.82 0.36999 403.25 -9.76585e-06 402.46 -9.76585e-06ZM392.21 27.11L402.46 6.38999L412.71 27.11H392.21ZM200.87 -9.76585e-06C200.09 -9.76585e-06 199.51 0.37999 199.14 1.11999L178.87 42.33H183.3L188.73 31.02H213.03L218.69 42.33H223L202.61 1.11999C202.23 0.37999 201.65 -9.76585e-06 200.87 -9.76585e-06ZM190.62 27.11L200.87 6.38999L211.12 27.11H190.62ZM264.12 0.38999H268.37L250.17 41.55C249.79 42.3 249.2 42.67 248.38 42.67C247.97 42.67 247.61 42.57 247.29 42.36C246.97 42.16 246.74 41.88 246.59 41.55L228.33 0.38999H232.7L248.38 35.89L264.12 0.38999Z" fill="#F8F5F0"/>
</g>
<defs>
<clipPath id="clip0_768_8118">
<rect width="573.28" height="42.67" fill="white"/>
</clipPath>
</defs>
</svg>
