<svg width="269" height="25" viewBox="0 0 269 25" fill="none" xmlns="http://www.w3.org/2000/svg">
<path d="M2.976 23.5V1.1H16.224V3.564H5.696V10.796H15.296V13.228H5.696V21.036H16.288V23.5H2.976ZM20.8575 23.5L29.4975 11.212L36.6015 1.1H39.8335L31.3215 12.876L24.1215 23.5H20.8575ZM36.6015 23.5L29.4015 12.876L20.8895 1.1H24.1215L31.2255 11.18L39.8655 23.5H36.6015ZM49.2818 23.5V3.564H42.1458V1.1H59.1058V3.564H51.9698V23.5H49.2818ZM64.026 23.5V1.1H71.322C72.7727 1.1 74.0527 1.388 75.162 1.964C76.2927 2.54 77.1673 3.34 77.786 4.364C78.426 5.388 78.746 6.56133 78.746 7.884C78.746 9.20667 78.4047 10.38 77.722 11.404C77.0393 12.428 76.1113 13.2387 74.938 13.836C73.7647 14.412 72.442 14.7 70.97 14.7H66.746V23.5H64.026ZM76.666 23.5L71.29 14.316L73.434 12.908L79.642 23.5H76.666ZM66.746 12.204H71.706C72.5167 12.204 73.242 12.0227 73.882 11.66C74.522 11.276 75.034 10.764 75.418 10.124C75.8233 9.46267 76.026 8.716 76.026 7.884C76.026 6.604 75.578 5.56933 74.682 4.78C73.8073 3.96933 72.666 3.564 71.258 3.564H66.746V12.204ZM101.24 23.5L92.2478 1.1H94.9678L104.088 23.5H101.24ZM83.0318 23.5L92.1518 1.1H94.9038L85.9118 23.5H83.0318ZM87.3518 17.132V14.7H99.7998V17.132H87.3518ZM114.45 23.5L123.602 1.1H126.45L117.17 23.5H114.45ZM114.162 23.5L104.882 1.1H107.73L116.85 23.5H114.162ZM145.471 23.5L136.479 1.1H139.199L148.319 23.5H145.471ZM127.263 23.5L136.383 1.1H139.135L130.143 23.5H127.263ZM131.583 17.132V14.7H144.031V17.132H131.583ZM162.57 23.884C160.287 23.884 158.271 23.3933 156.522 22.412C154.773 21.4093 153.397 20.044 152.394 18.316C151.413 16.5667 150.922 14.572 150.922 12.332C150.922 10.0493 151.413 8.044 152.394 6.316C153.397 4.56667 154.773 3.20133 156.522 2.22C158.271 1.21733 160.287 0.716 162.57 0.716C163.765 0.716 164.927 0.918666 166.058 1.324C167.189 1.708 168.223 2.24133 169.162 2.924C170.101 3.60667 170.858 4.38533 171.434 5.26L169.29 6.732C168.863 6.04933 168.287 5.44133 167.562 4.908C166.837 4.35333 166.037 3.92666 165.162 3.628C164.309 3.32933 163.445 3.18 162.57 3.18C160.842 3.18 159.306 3.57467 157.962 4.364C156.618 5.132 155.562 6.19867 154.794 7.564C154.026 8.92933 153.642 10.5187 153.642 12.332C153.642 14.0813 154.015 15.6493 154.762 17.036C155.53 18.4013 156.586 19.4787 157.93 20.268C159.295 21.0573 160.842 21.452 162.57 21.452C164.021 21.452 165.301 21.1533 166.41 20.556C167.541 19.9373 168.426 19.0947 169.066 18.028C169.706 16.94 170.026 15.692 170.026 14.284L172.618 14.092C172.618 16.0547 172.191 17.772 171.338 19.244C170.485 20.6947 169.301 21.836 167.786 22.668C166.271 23.4787 164.533 23.884 162.57 23.884ZM164.522 14.412V12.076H172.618V14.188L171.338 14.412H164.522ZM193.64 23.5L184.648 1.1H187.368L196.488 23.5H193.64ZM175.432 23.5L184.552 1.1H187.304L178.312 23.5H175.432ZM179.752 17.132V14.7H192.2V17.132H179.752ZM201.376 23.5V1.1H204.128L217.472 19.084V1.1H220.192V23.5H217.472L204.096 5.42V23.5H201.376ZM226.285 23.5V21.004L240.397 3.596H226.381V1.1H243.789V3.596L229.677 21.004H243.693V23.5H226.285ZM265.377 23.5L256.385 1.1H259.105L268.225 23.5H265.377ZM247.169 23.5L256.289 1.1H259.041L250.049 23.5H247.169ZM251.489 17.132V14.7H263.937V17.132H251.489Z" fill="url(#paint0_linear_619_596)"/>
<defs>
<linearGradient id="paint0_linear_619_596" x1="0" y1="12.5" x2="269" y2="12.5" gradientUnits="userSpaceOnUse">
<stop stop-color="#C9B07D"/>
<stop offset="0.245" stop-color="#A58C5A"/>
<stop offset="0.52" stop-color="#AE9563"/>
<stop offset="0.765" stop-color="#8B723F"/>
<stop offset="1" stop-color="#775E2B"/>
</linearGradient>
</defs>
</svg>
